<svg width="40" height="40" viewBox="0 0 45 53" fill="none" xmlns="http://www.w3.org/2000/svg">
<path d="M19.4562 17.8437C19.4562 19.7637 18.8562 21.2157 17.6562 22.1997C16.4802 23.1837 14.3922 23.6757 11.3922 23.6757H0.160156V0.887695H11.0322C13.0242 0.887695 14.5722 1.1037 15.6762 1.5357C16.8042 1.94369 17.5962 2.55569 18.0522 3.3717C18.5082 4.1877 18.7362 5.2077 18.7362 6.43169C18.7362 8.1117 18.3282 9.4197 17.5122 10.3557C16.7202 11.2677 15.2202 11.8197 13.0122 12.0117V12.1197C14.6442 12.2397 15.9282 12.5157 16.8642 12.9477C17.8002 13.3557 18.4602 13.9557 18.8442 14.7477C19.2522 15.5397 19.4562 16.5717 19.4562 17.8437ZM9.44816 5.42369H5.92016V9.8877H9.44816C10.6242 9.8877 11.4762 9.7437 12.0042 9.4557C12.5322 9.14369 12.7962 8.54369 12.7962 7.65569C12.7962 6.7917 12.5322 6.2037 12.0042 5.8917C11.4762 5.57969 10.6242 5.42369 9.44816 5.42369ZM10.1682 14.6037H5.92016V19.1757H10.1682C11.3442 19.1757 12.1962 19.0197 12.7242 18.7077C13.2522 18.3717 13.5162 17.7597 13.5162 16.8717C13.5162 15.9597 13.2522 15.3597 12.7242 15.0717C12.1962 14.7597 11.3442 14.6037 10.1682 14.6037Z" fill="white"/>
<path d="M39.2553 18.7797V23.6757H22.6953V0.887695H28.4553V18.7797H39.2553Z" fill="white"/>
<path d="M19.8882 29.8877V43.3157C19.8882 45.6677 19.6002 47.5517 19.0242 48.9677C18.4722 50.3837 17.5002 51.4157 16.1082 52.0637C14.7162 52.6877 12.7482 52.9997 10.2042 52.9997C7.56416 52.9997 5.51216 52.6877 4.04816 52.0637C2.60816 51.4157 1.60016 50.3837 1.02416 48.9677C0.448156 47.5517 0.160156 45.6677 0.160156 43.3157V29.8877H5.92016V43.2077C5.92016 44.4317 6.04016 45.3917 6.28016 46.0877C6.52016 46.7837 6.95216 47.2757 7.57616 47.5637C8.20016 47.8277 9.07616 47.9597 10.2042 47.9597C11.2602 47.9597 12.0642 47.8277 12.6162 47.5637C13.1922 47.2757 13.5882 46.7837 13.8042 46.0877C14.0202 45.3917 14.1282 44.4317 14.1282 43.2077V29.8877H19.8882Z" fill="white"/>
<path d="M29.967 52.6757H24.207V29.8877H35.079C37.935 29.8877 40.011 30.5357 41.307 31.8317C42.627 33.1037 43.287 34.9877 43.287 37.4837C43.287 39.3557 42.819 40.9637 41.883 42.3077C40.947 43.6277 39.711 44.4557 38.175 44.7917L38.139 44.8997C38.739 45.2837 39.399 45.9197 40.119 46.8077C40.839 47.6957 41.547 48.6677 42.243 49.7237C42.963 50.7557 43.599 51.7277 44.151 52.6397V52.6757H37.455L33.567 46.9157C33.231 46.4117 32.955 46.0517 32.739 45.8357C32.547 45.6197 32.307 45.4877 32.019 45.4397C31.755 45.3917 31.323 45.3677 30.723 45.3677H29.967V52.6757ZM34.143 34.5677H29.967V40.6877H34.143C35.343 40.6877 36.171 40.4477 36.627 39.9677C37.107 39.4877 37.347 38.7077 37.347 37.6277C37.347 36.5477 37.107 35.7677 36.627 35.2877C36.171 34.8077 35.343 34.5677 34.143 34.5677Z" fill="white"/>
</svg>
