<svg width="41" height="40" viewBox="0 0 41 40" fill="none" xmlns="http://www.w3.org/2000/svg">
<g clip-path="url(#clip0_1115_18504)">
<path d="M20.5 0C9.455 0 0.5 8.955 0.5 20C0.5 31.045 9.455 40 20.5 40C31.545 40 40.5 31.045 40.5 20C40.5 8.955 31.545 0 20.5 0ZM18.31 7.85833C23.7917 7.85833 28.2367 12.2917 28.2367 17.7633C28.2367 18.57 27.58 19.225 26.7717 19.225C25.9633 19.225 25.3067 18.57 25.3067 17.7633C25.3067 13.9083 22.1733 10.7817 18.31 10.7817C17.5 10.7817 16.845 10.1267 16.845 9.32C16.845 8.51333 17.4983 7.85833 18.31 7.85833ZM9.82333 23.6983C9.01333 23.6983 8.35833 23.0417 8.35833 22.2367C8.35833 16.765 12.8017 12.3283 18.285 12.3283C19.0933 12.3283 19.75 12.9833 19.75 13.79C19.75 14.5967 19.0933 15.25 18.285 15.25C14.42 15.25 11.2883 18.3783 11.2883 22.235C11.2883 23.0417 10.63 23.6983 9.82333 23.6983ZM22.715 32.1433C17.2317 32.1433 12.7867 27.7067 12.7867 22.2367C12.7867 21.43 13.4433 20.7733 14.2517 20.7733C15.06 20.7733 15.7167 21.43 15.7167 22.2367C15.7167 26.0917 18.85 29.2183 22.715 29.2183C23.5233 29.2183 24.18 29.8733 24.18 30.68C24.18 31.49 23.5233 32.1433 22.715 32.1433ZM22.715 27.6717C21.9067 27.6717 21.2483 27.0167 21.2483 26.2117C21.2483 25.405 21.9067 24.7483 22.715 24.7483C26.5783 24.7483 29.7133 21.6217 29.7133 17.765C29.7133 16.9583 30.3683 16.3033 31.1783 16.3033C31.9867 16.3033 32.6433 16.9583 32.6433 17.765C32.6433 23.235 28.1983 27.6717 22.715 27.6717Z" fill="url(#paint0_linear_1115_18504)"/>
</g>
<defs>
<linearGradient id="paint0_linear_1115_18504" x1="0.499999" y1="42.1429" x2="48.0952" y2="30.1551" gradientUnits="userSpaceOnUse">
<stop stop-color="#3D2935"/>
<stop offset="1" stop-color="#DE0682"/>
</linearGradient>
<clipPath id="clip0_1115_18504">
<rect width="40" height="40" fill="white" transform="translate(0.5)"/>
</clipPath>
</defs>
</svg>
