<svg width="40" height="40" viewBox="0 0 40 40" fill="none" xmlns="http://www.w3.org/2000/svg">
<path d="M19.8115 0.274414C8.8829 0.274414 0.03125 9.35587 0.03125 20.5568C0.03125 29.52 5.69828 37.1208 13.556 39.7998C14.545 39.9908 14.9076 39.3637 14.9076 38.8246C14.9076 38.3429 14.8911 37.0667 14.8829 35.3765C9.3807 36.6003 8.22026 32.6553 8.22026 32.6553C7.32026 30.3144 6.01971 29.689 6.01971 29.689C4.22795 28.4315 6.15817 28.4569 6.15817 28.4569C8.14444 28.5988 9.18784 30.5459 9.18784 30.5459C10.9516 33.6475 13.8181 32.7517 14.9488 32.2328C15.1269 30.9212 15.6362 30.0271 16.2016 29.52C11.8087 29.0129 7.19169 27.2686 7.19169 19.4971C7.19169 17.2829 7.95817 15.4744 9.2274 14.0546C9.00488 13.5425 8.33729 11.4805 9.40048 8.68655C9.40048 8.68655 11.0571 8.14231 14.84 10.7655C16.4225 10.3142 18.1038 10.0911 19.7851 10.081C21.4664 10.0911 23.1477 10.3142 24.7302 10.7655C28.4884 8.14231 30.145 8.68655 30.145 8.68655C31.2082 11.4805 30.5406 13.5425 30.3428 14.0546C31.6038 15.4744 32.3703 17.2829 32.3703 19.4971C32.3703 27.2889 27.7466 29.0045 23.3455 29.5031C24.0378 30.1116 24.6807 31.3556 24.6807 33.2553C24.6807 35.9698 24.656 38.1502 24.656 38.8093C24.656 39.3418 25.0021 39.9756 26.0159 39.7728C33.9296 37.1124 39.5917 29.5065 39.5917 20.5568C39.5917 9.35587 30.7351 0.274414 19.8115 0.274414Z" fill="white"/>
</svg>
