<svg width="41" height="40" viewBox="0 0 41 40" fill="none" xmlns="http://www.w3.org/2000/svg">
<g clip-path="url(#clip0_1115_18502)">
<path d="M20.2499 33.9183C20.2499 33.9183 18.4232 33.7383 16.9916 32.7433C15.5582 31.75 6.0249 24.93 6.0249 24.93V38.4267C6.0249 38.4267 6.1049 40 7.83324 40H32.6666C34.3932 40 34.4749 38.43 34.4749 38.43V24.93C34.4749 24.93 24.9366 31.75 23.5082 32.7467C22.0749 33.7383 20.2499 33.92 20.2499 33.92V33.9183ZM20.2499 0.00167684C20.2499 0.00167684 8.45824 -0.383323 6.0249 12.705V21.6217C6.0249 21.6217 6.1249 22.575 8.80824 24.5133C11.4866 26.45 18.4299 31.9067 20.2532 31.9067C22.0666 31.9067 29.0099 26.4517 31.6949 24.5117C34.3732 22.5717 34.4749 21.6167 34.4749 21.6167V12.7C32.0416 -0.381657 20.2499 0.00501017 20.2499 0.00501017V0.00167684ZM28.3266 17.5617H12.1766V12.705C13.8166 6.20501 20.2499 6.11668 20.2499 6.11668C20.2499 6.11668 26.6882 6.20668 28.3266 12.7067V17.5617Z" fill="url(#paint0_linear_1115_18502)"/>
</g>
<defs>
<linearGradient id="paint0_linear_1115_18502" x1="6.0249" y1="42.1428" x2="40.9051" y2="35.8943" gradientUnits="userSpaceOnUse">
<stop stop-color="#3D2935"/>
<stop offset="1" stop-color="#DE0682"/>
</linearGradient>
<clipPath id="clip0_1115_18502">
<rect width="40" height="40" fill="white" transform="translate(0.25)"/>
</clipPath>
</defs>
</svg>
