<svg width="41" height="40" viewBox="0 0 41 40" fill="none" xmlns="http://www.w3.org/2000/svg">
<g clip-path="url(#clip0_182_6106)">
<path d="M20.2952 33.8191C20.2952 33.8191 18.4887 33.641 17.0727 32.657C15.6551 31.6746 6.22656 24.9295 6.22656 24.9295V38.2779C6.22656 38.2779 6.30568 39.8339 8.01502 39.8339H32.5755C34.2832 39.8339 34.3639 38.2811 34.3639 38.2811V24.9295C34.3639 24.9295 24.9304 31.6746 23.5178 32.6603C22.1002 33.641 20.2952 33.8207 20.2952 33.8207V33.8191ZM20.2952 0.275101C20.2952 0.275101 8.63316 -0.105668 6.22656 12.8388V21.6575C6.22656 21.6575 6.32546 22.6004 8.97931 24.5174C11.6282 26.4328 18.4952 31.8295 20.2985 31.8295C22.0919 31.8295 28.959 26.4344 31.6145 24.5158C34.2634 22.5971 34.3639 21.6526 34.3639 21.6526V12.8339C31.9573 -0.10402 20.2952 0.278398 20.2952 0.278398V0.275101ZM28.2832 17.6421H12.3106V12.8388C13.9326 6.41027 20.2952 6.3229 20.2952 6.3229C20.2952 6.3229 26.6628 6.41191 28.2832 12.8405V17.6421Z" fill="white"/>
</g>
<defs>
<clipPath id="clip0_182_6106">
<rect width="39.5604" height="39.5604" fill="white" transform="translate(0.515625 0.274414)"/>
</clipPath>
</defs>
</svg>
