<svg width="41" height="40" viewBox="0 0 41 40" fill="none" xmlns="http://www.w3.org/2000/svg">
<g clip-path="url(#clip0_182_6100)">
<path d="M20.3129 0.27398C15.0829 0.298387 10.0754 2.39314 6.38582 6.10001C2.69625 9.80688 0.624943 14.8241 0.625 20.0542C0.625 25.3002 2.70898 30.3314 6.41849 34.0409C10.128 37.7504 15.1592 39.8344 20.4052 39.8344C25.6513 39.8344 30.6824 37.7504 34.3919 34.0409C38.1015 30.3314 40.1854 25.3002 40.1854 20.0542C40.1854 14.8082 38.1015 9.77698 34.3919 6.06747C30.6824 2.35796 25.6513 0.27398 20.4052 0.27398C20.3745 0.273908 20.3437 0.273908 20.3129 0.27398ZM28.492 12.1817C28.6569 12.1784 29.0212 12.2196 29.2585 12.4124C29.4162 12.5494 29.5168 12.7406 29.5404 12.9482C29.5668 13.1015 29.5997 13.4526 29.5734 13.7262C29.2766 16.8547 27.9876 24.4438 27.3316 27.9465C27.0547 29.43 26.5091 29.9262 25.9799 29.974C24.8327 30.0811 23.9607 29.2157 22.8481 28.4872C21.1074 27.3449 20.1234 26.6344 18.4338 25.5201C16.4805 24.2344 17.7464 23.5256 18.8591 22.3718C19.1508 22.0685 24.2113 17.4646 24.3102 17.0476C24.3217 16.9949 24.3332 16.8004 24.2179 16.6982C24.1025 16.596 23.931 16.6306 23.8074 16.6586C23.6327 16.6982 20.8519 18.5377 15.4651 22.1723C14.6739 22.7163 13.9602 22.98 13.319 22.9635C12.6135 22.9504 11.2552 22.5663 10.2448 22.2383C9.00522 21.8344 8.02115 21.6218 8.10687 20.9377C8.15137 20.5817 8.64258 20.2174 9.57885 19.8449C15.3448 17.3328 19.1887 15.6762 21.114 14.8767C26.6063 12.5921 27.7486 12.1949 28.492 12.1817Z" fill="white"/>
</g>
<defs>
<clipPath id="clip0_182_6100">
<rect width="39.5604" height="39.5604" fill="white" transform="translate(0.625 0.274414)"/>
</clipPath>
</defs>
</svg>
