<svg width="41" height="40" viewBox="0 0 41 40" fill="none" xmlns="http://www.w3.org/2000/svg">
<g clip-path="url(#clip0_1115_18496)">
<path d="M20.4067 5.44445e-05C15.1185 0.0247327 10.0554 2.14276 6.32483 5.89082C2.59426 9.63887 0.499942 14.7119 0.5 20.0001C0.5 25.3044 2.60714 30.3915 6.35786 34.1422C10.1086 37.8929 15.1957 40.0001 20.5 40.0001C25.8043 40.0001 30.8914 37.8929 34.6421 34.1422C38.3929 30.3915 40.5 25.3044 40.5 20.0001C40.5 14.6957 38.3929 9.60865 34.6421 5.85792C30.8914 2.10719 25.8043 5.44445e-05 20.5 5.44445e-05C20.4689 -1.81482e-05 20.4378 -1.81482e-05 20.4067 5.44445e-05ZM28.6767 12.0401C28.8433 12.0367 29.2117 12.0784 29.4517 12.2734C29.6111 12.4119 29.7129 12.6052 29.7367 12.8151C29.7633 12.9701 29.7967 13.3251 29.77 13.6017C29.47 16.7651 28.1667 24.4384 27.5033 27.9801C27.2233 29.4801 26.6717 29.9817 26.1367 30.0301C24.9767 30.1384 24.095 29.2634 22.97 28.5267C21.21 27.3717 20.215 26.6534 18.5067 25.5267C16.5317 24.2267 17.8117 23.5101 18.9367 22.3434C19.2317 22.0367 24.3483 17.3817 24.4483 16.9601C24.46 16.9067 24.4717 16.7101 24.355 16.6067C24.2383 16.5034 24.065 16.5384 23.94 16.5667C23.7633 16.6067 20.9517 18.4667 15.505 22.1417C14.705 22.6917 13.9833 22.9584 13.335 22.9417C12.6217 22.9284 11.2483 22.5401 10.2267 22.2084C8.97333 21.8001 7.97833 21.5851 8.065 20.8934C8.11 20.5334 8.60667 20.1651 9.55333 19.7884C15.3833 17.2484 19.27 15.5734 21.2167 14.7651C26.77 12.4551 27.925 12.0534 28.6767 12.0401Z" fill="url(#paint0_linear_1115_18496)"/>
</g>
<defs>
<linearGradient id="paint0_linear_1115_18496" x1="0.499999" y1="42.1429" x2="48.0952" y2="30.1551" gradientUnits="userSpaceOnUse">
<stop stop-color="#3D2935"/>
<stop offset="1" stop-color="#DE0682"/>
</linearGradient>
<clipPath id="clip0_1115_18496">
<rect width="40" height="40" fill="white" transform="translate(0.5)"/>
</clipPath>
</defs>
</svg>
