<svg width="40" height="34" viewBox="0 0 40 34" fill="none" xmlns="http://www.w3.org/2000/svg">
<path d="M39.8111 4.80603C38.33 5.45812 36.761 5.88857 35.1545 6.0835C36.8459 5.06688 38.1123 3.47259 38.7199 1.59504C37.1523 2.50987 35.4149 3.17581 33.5655 3.54669C32.3453 2.2419 30.7285 1.3765 28.966 1.08488C27.2035 0.79325 25.3941 1.09172 23.8187 1.93392C22.2432 2.77613 20.99 4.11496 20.2535 5.74249C19.517 7.37003 19.3385 9.19521 19.7457 10.9346C13.0039 10.6165 7.03197 7.37746 3.03142 2.48515C2.30416 3.7211 1.92482 5.1308 1.93362 6.56482C1.93362 9.3835 3.36769 11.861 5.54021 13.3165C4.25262 13.2755 2.99346 12.9273 1.86769 12.3011V12.4C1.86696 14.2732 2.51428 16.0889 3.69984 17.5391C4.8854 18.9894 6.53617 19.9848 8.37208 20.3566C7.18246 20.6753 5.9365 20.7232 4.72593 20.4967C5.24701 22.1088 6.25834 23.518 7.61881 24.5277C8.97928 25.5374 10.621 26.0973 12.3149 26.1291C9.44603 28.3807 5.90364 29.6027 2.2567 29.5989C1.61384 29.5989 0.972631 29.561 0.328125 29.4884C4.04633 31.8692 8.36963 33.1329 12.7847 33.1297C27.7072 33.1297 35.8583 20.7736 35.8583 10.0775C35.8583 9.7313 35.8583 9.38515 35.8336 9.03899C37.4259 7.89316 38.7994 6.47056 39.8886 4.83899L39.8111 4.80603Z" fill="white"/>
</svg>
