<svg width="41" height="40" viewBox="0 0 41 40" fill="none" xmlns="http://www.w3.org/2000/svg">
<g clip-path="url(#clip0_1115_18494)">
<path d="M40.1717 7.61665C38.6741 8.27599 37.0877 8.71122 35.4633 8.90832C37.1735 7.8804 38.454 6.26839 39.0683 4.36998C37.4833 5.29498 35.7267 5.96832 33.8567 6.34332C32.6229 5.02403 30.9881 4.14902 29.2061 3.85415C27.424 3.55929 25.5945 3.86107 24.0016 4.71263C22.4086 5.5642 21.1414 6.9179 20.3968 8.56352C19.6521 10.2091 19.4716 12.0546 19.8833 13.8133C13.0667 13.4916 7.02833 10.2166 2.98333 5.26998C2.24799 6.51967 1.86444 7.94503 1.87333 9.39498C1.87333 12.245 3.32333 14.75 5.52 16.2216C4.2181 16.1802 2.94495 15.8282 1.80667 15.195V15.295C1.80593 17.189 2.46045 19.0249 3.65918 20.4912C4.85791 21.9576 6.52702 22.9641 8.38333 23.34C7.1805 23.6623 5.92069 23.7107 4.69667 23.4816C5.22354 25.1117 6.24611 26.5365 7.62169 27.5575C8.99728 28.5784 10.6573 29.1445 12.37 29.1766C9.46921 31.4532 5.88746 32.6888 2.2 32.685C1.55 32.685 0.901667 32.6467 0.25 32.5733C4.00951 34.9805 8.38085 36.2583 12.845 36.255C27.9333 36.255 36.175 23.7616 36.175 12.9466C36.175 12.5966 36.175 12.2466 36.15 11.8966C37.76 10.7381 39.1487 9.29968 40.25 7.64998L40.1717 7.61665Z" fill="url(#paint0_linear_1115_18494)"/>
</g>
<defs>
<linearGradient id="paint0_linear_1115_18494" x1="0.249999" y1="37.9966" x2="46.4298" y2="23.686" gradientUnits="userSpaceOnUse">
<stop stop-color="#3D2935"/>
<stop offset="1" stop-color="#DE0682"/>
</linearGradient>
<clipPath id="clip0_1115_18494">
<rect width="40" height="40" fill="white" transform="translate(0.25)"/>
</clipPath>
</defs>
</svg>
