<svg width="40" height="40" viewBox="0 0 40 40" fill="none" xmlns="http://www.w3.org/2000/svg">
<g clip-path="url(#clip0_182_6112)">
<path d="M39.1392 10.469C38.9157 9.62716 38.475 8.8588 37.8611 8.24088C37.2472 7.62296 36.4818 7.17716 35.6414 6.94814C32.5574 6.11572 20.1865 6.11572 20.1865 6.11572C20.1865 6.11572 7.81559 6.11572 4.72988 6.94814C3.88989 7.17757 3.12487 7.62352 2.51132 8.24141C1.89778 8.85929 1.45722 9.62744 1.23372 10.469C0.40625 13.5745 0.40625 20.0525 0.40625 20.0525C0.40625 20.0525 0.40625 26.5306 1.23372 29.636C1.45722 30.4779 1.89797 31.2463 2.51184 31.8642C3.12571 32.4821 3.89116 32.9279 4.73152 33.1569C7.81559 33.9893 20.1865 33.9893 20.1865 33.9893C20.1865 33.9893 32.5574 33.9893 35.6431 33.1569C36.4835 32.9281 37.249 32.4823 37.8629 31.8644C38.4768 31.2464 38.9175 30.478 39.1409 29.636C39.9667 26.5306 39.9667 20.0525 39.9667 20.0525C39.9667 20.0525 39.9667 13.5745 39.1392 10.469ZM16.1398 25.9339V14.1712L26.4799 20.0525L16.1398 25.9339Z" fill="white"/>
</g>
<defs>
<clipPath id="clip0_182_6112">
<rect width="39.5604" height="39.5604" fill="white" transform="translate(0.40625 0.274414)"/>
</clipPath>
</defs>
</svg>
