<svg width="102" height="230" viewBox="0 0 102 230" fill="none" xmlns="http://www.w3.org/2000/svg">
    <g filter="url(#filter0_d_475_451)">
        <path d="M57.1131 24.2416C56.3065 26.7264 57.1131 30.9313 57.1131 30.9313C57.1131 30.9313 54.3258 30.6526 58.5068 39.2934C58.7856 41.8021 58.2281 45.147 57.1131 45.7044C57.1131 45.7044 38.4377 49.6068 36.4865 55.4602C23.9433 90.0238 22.5496 124.866 20.8772 126.539C19.2047 128.211 28.1244 132.392 28.6818 133.507C29.2393 134.622 23.6645 176.711 17.811 192.878C18.926 197.896 20.8772 197.617 20.8772 197.617V204.585C27.0094 214.899 33.1416 215.177 32.8629 207.93C32.8629 207.93 33.1416 197.617 33.6991 197.617C34.2566 197.617 43.7337 208.766 43.7337 208.766C48.8211 213.251 53.1513 207.19 51.5384 204.585C51.2596 202.913 46.2423 199.011 45.9636 195.108C45.6849 191.206 67.1477 137.688 67.7052 137.131C68.2627 136.573 75.5099 134.064 75.7886 133.507C76.0673 132.95 74.6736 125.981 75.7886 125.424L84.4295 69.6759C84.4295 69.6759 86.3807 59.9201 81.3634 55.4602C76.0673 52.6729 70.7713 47.9343 70.7713 47.9343C70.2138 46.8194 71.8863 43.7532 71.8863 43.7532L75.7886 39.2934C79.9697 31.7675 77.461 31.7675 77.461 31.7675C77.461 31.7675 78.2972 26.4715 78.0185 25.3565C71.8863 11.9771 59.6218 17.5518 57.1131 24.2416Z"
              stroke="#DF4991" stroke-opacity="0.8" stroke-width="2" shape-rendering="geometricPrecision"/>
    </g>
    <g filter="url(#filter1_d_475_451)">
        <path d="M44.0128 69.3973C44.0128 69.3973 36.7656 97.8286 32.8633 110.651" stroke="#DF4991" stroke-opacity="0.8"
              stroke-width="2" stroke-linecap="round" stroke-linejoin="round" shape-rendering="geometricPrecision"/>
    </g>
    <defs>
        <filter id="filter0_d_475_451" x="0.771973" y="0.183105" width="101.031" height="229.73"
                filterUnits="userSpaceOnUse" color-interpolation-filters="sRGB">
            <feFlood flood-opacity="0" result="BackgroundImageFix"/>
            <feColorMatrix in="SourceAlpha" type="matrix" values="0 0 0 0 0 0 0 0 0 0 0 0 0 0 0 0 0 0 127 0"
                           result="hardAlpha"/>
            <feOffset/>
            <feGaussianBlur stdDeviation="8"/>
            <feComposite in2="hardAlpha" operator="out"/>
            <feColorMatrix type="matrix" values="0 0 0 0 0.87451 0 0 0 0 0.282353 0 0 0 0 0.568627 0 0 0 1 0"/>
            <feBlend mode="normal" in2="BackgroundImageFix" result="effect1_dropShadow_475_451"/>
            <feBlend mode="normal" in="SourceGraphic" in2="effect1_dropShadow_475_451" result="shape"/>
        </filter>
        <filter id="filter1_d_475_451" x="15.8628" y="52.397" width="45.1504" height="75.2538"
                filterUnits="userSpaceOnUse" color-interpolation-filters="sRGB">
            <feFlood flood-opacity="0" result="BackgroundImageFix"/>
            <feColorMatrix in="SourceAlpha" type="matrix" values="0 0 0 0 0 0 0 0 0 0 0 0 0 0 0 0 0 0 127 0"
                           result="hardAlpha"/>
            <feOffset/>
            <feGaussianBlur stdDeviation="8"/>
            <feComposite in2="hardAlpha" operator="out"/>
            <feColorMatrix type="matrix" values="0 0 0 0 0.87451 0 0 0 0 0.282353 0 0 0 0 0.568627 0 0 0 1 0"/>
            <feBlend mode="normal" in2="BackgroundImageFix" result="effect1_dropShadow_475_451"/>
            <feBlend mode="normal" in="SourceGraphic" in2="effect1_dropShadow_475_451" result="shape"/>
        </filter>
    </defs>
</svg>
