<svg width="159" height="143" viewBox="0 0 159 143" fill="none" xmlns="http://www.w3.org/2000/svg">
<g filter="url(#filter0_d_475_447)">
<path d="M17 122.962C17 122.962 22.4352 114.65 41.6178 112.731C58.5624 89.3925 40.3389 70.5294 38.4206 55.1833C38.4206 3.3905 103.642 8.18612 111.634 46.2314C111.634 46.2314 116.111 55.1833 114.832 63.8155C122.825 70.8495 117.709 84.2774 107.798 100.902C100.445 108.256 84.7789 110.813 71.351 97.3856C61.7597 89.0731 56.3246 85.5562 57.2837 71.8087" stroke="#DF4991" stroke-opacity="0.8" stroke-width="2" stroke-linecap="round" stroke-linejoin="round" shape-rendering="geometricPrecision"/>
</g>
<g filter="url(#filter1_d_475_447)">
<path d="M141.048 121.364C119.947 114.011 100.125 117.527 96.2886 114.011C92.452 110.494 92.7717 108.256 92.7717 108.256M78.3848 89.3928C79.3439 94.5082 98.5266 97.0659 100.765 93.2294M96.928 70.2102C99.8054 76.2847 109.077 82.9986 96.928 84.9169M87.3367 80.1212C82.8607 81.0803 81.9016 83.9577 88.6155 84.9169M71.3511 42.3953C80.303 37.9193 100.125 39.8376 103.962 43.3544M64.6372 48.7895C68.154 49.7487 73.9088 46.5515 80.6228 44.953C87.3367 43.3544 99.8054 44.953 103.962 48.7895M68.4737 54.5443C77.4256 49.7487 83.8199 48.7895 86.3776 58.0612M108.438 54.5443C106.519 50.3881 99.166 50.0684 96.2886 53.5852M110.036 61.2583C97.5674 62.8568 95.6492 66.6934 108.757 67.9722M99.166 56.1429C99.166 56.1429 97.8872 58.0612 98.5266 59.9794M72.3103 60.2991C74.5482 57.102 82.541 60.6188 83.5002 61.8977C83.5002 61.8977 86.3776 62.8568 84.4593 65.0948C82.541 67.3328 66.5555 69.5708 72.3103 60.2991Z" stroke="#DF4991" stroke-opacity="0.8" stroke-width="2" stroke-linecap="round" stroke-linejoin="round" shape-rendering="geometricPrecision"/>
</g>
<g filter="url(#filter2_d_475_447)">
<path d="M75.5072 64.7751C74.5481 62.5371 75.1875 61.8977 76.4663 60.9385C79.9831 59.6597 82.8605 61.8977 81.9014 64.7751C82.5409 65.7342 76.4663 67.013 75.5072 64.7751Z" fill="#DF4891" fill-opacity="0.8" shape-rendering="geometricPrecision"/>
<path d="M108.757 65.7342C107.798 68.2919 103.322 66.6933 103.322 64.7751C103.322 62.8568 105.56 62.5371 107.159 62.5371C109.397 61.8977 109.716 63.1765 108.757 65.7342Z" fill="#DF4891" fill-opacity="0.8" shape-rendering="geometricPrecision"/>
<path d="M75.5072 64.7751C74.5481 62.5371 75.1875 61.8977 76.4663 60.9385C79.9831 59.6597 82.8605 61.8977 81.9014 64.7751C82.5409 65.7342 76.4663 67.013 75.5072 64.7751Z" stroke="#DF4991" stroke-opacity="0.8" stroke-width="2" shape-rendering="geometricPrecision"/>
<path d="M108.757 65.7342C107.798 68.2919 103.322 66.6933 103.322 64.7751C103.322 62.8568 105.56 62.5371 107.159 62.5371C109.397 61.8977 109.716 63.1765 108.757 65.7342Z" stroke="#DF4991" stroke-opacity="0.8" stroke-width="2" shape-rendering="geometricPrecision"/>
</g>
<defs>
<filter id="filter0_d_475_447" x="0" y="0.00012207" width="135.764" height="139.962" filterUnits="userSpaceOnUse" color-interpolation-filters="sRGB">
<feFlood flood-opacity="0" result="BackgroundImageFix"/>
<feColorMatrix in="SourceAlpha" type="matrix" values="0 0 0 0 0 0 0 0 0 0 0 0 0 0 0 0 0 0 127 0" result="hardAlpha"/>
<feOffset/>
<feGaussianBlur stdDeviation="8"/>
<feComposite in2="hardAlpha" operator="out"/>
<feColorMatrix type="matrix" values="0 0 0 0 0.87451 0 0 0 0 0.282353 0 0 0 0 0.568627 0 0 0 1 0"/>
<feBlend mode="normal" in2="BackgroundImageFix" result="effect1_dropShadow_475_447"/>
<feBlend mode="normal" in="SourceGraphic" in2="effect1_dropShadow_475_447" result="shape"/>
</filter>
<filter id="filter1_d_475_447" x="47.6367" y="26.7837" width="110.412" height="115.581" filterUnits="userSpaceOnUse" color-interpolation-filters="sRGB">
<feFlood flood-opacity="0" result="BackgroundImageFix"/>
<feColorMatrix in="SourceAlpha" type="matrix" values="0 0 0 0 0 0 0 0 0 0 0 0 0 0 0 0 0 0 127 0" result="hardAlpha"/>
<feOffset dy="4"/>
<feGaussianBlur stdDeviation="8"/>
<feComposite in2="hardAlpha" operator="out"/>
<feColorMatrix type="matrix" values="0 0 0 0 0.87451 0 0 0 0 0.282353 0 0 0 0 0.568627 0 0 0 1 0"/>
<feBlend mode="normal" in2="BackgroundImageFix" result="effect1_dropShadow_475_447"/>
<feBlend mode="normal" in="SourceGraphic" in2="effect1_dropShadow_475_447" result="shape"/>
</filter>
<filter id="filter2_d_475_447" x="58.0454" y="43.5706" width="68.2217" height="40.4901" filterUnits="userSpaceOnUse" color-interpolation-filters="sRGB">
<feFlood flood-opacity="0" result="BackgroundImageFix"/>
<feColorMatrix in="SourceAlpha" type="matrix" values="0 0 0 0 0 0 0 0 0 0 0 0 0 0 0 0 0 0 127 0" result="hardAlpha"/>
<feOffset/>
<feGaussianBlur stdDeviation="8"/>
<feComposite in2="hardAlpha" operator="out"/>
<feColorMatrix type="matrix" values="0 0 0 0 0.87451 0 0 0 0 0.282353 0 0 0 0 0.568627 0 0 0 1 0"/>
<feBlend mode="normal" in2="BackgroundImageFix" result="effect1_dropShadow_475_447"/>
<feBlend mode="normal" in="SourceGraphic" in2="effect1_dropShadow_475_447" result="shape"/>
</filter>
</defs>
</svg>
