<svg width="194" height="128" viewBox="0 0 194 128" fill="none" xmlns="http://www.w3.org/2000/svg">
<g filter="url(#filter0_d_475_432)">
<path d="M114.927 87.9426C119.188 80.3158 112.491 86.4172 91.0346 86.4172C56.3385 88.4001 48.0389 65.5199 44.1648 77.8752C40.2907 90.2305 57.7081 95.8743 91.0346 97.0946C97.1354 97.0946 102.069 96.5626 106.1 95.5318M114.927 87.9426C116.753 90.0781 111.722 94.0943 106.1 95.5318M114.927 87.9426C110.362 91.6035 72.9269 95.806 49.3397 81.3835M106.1 95.5318C100.014 110.823 54.0572 116.619 30.7733 104.416C8.25249 89.9255 17.5351 53.9273 29.0994 43.555C42.1875 12.2854 64.2529 14.726 74.5997 25.5559C91.0346 14.2684 106.1 22.8104 106.1 33.6403C114.768 35.9818 118.427 43.7075 119.188 46.1481C121.775 52.8596 118.275 61.249 107.318 64.9099M107.318 64.9099C107.318 64.9099 118.123 76.1974 114.927 83.6716M107.318 64.9099C94.5357 65.3675 88.7531 56.3679 88.7531 47.6734C87.5357 44.7753 81.753 44.7434 81.753 48.4361C81.753 53.6835 79.4347 58.0268 76.0312 61.0965C68.9787 67.4574 57.267 68.3499 51.8687 60.4863C49.4973 57.0319 48.3442 51.8878 49.3397 44.7753C50.5571 38.5214 58.4756 38.0114 81.753 40.0467H89.8183C89.8183 40.0467 113.101 39.1315 116.145 40.9619" stroke="#DF4891" stroke-opacity="0.8" stroke-width="2" stroke-linecap="round" stroke-linejoin="round" shape-rendering="geometricPrecision"/>
</g>
<g filter="url(#filter1_d_475_432)">
<path d="M49.0133 47.1276H82.1094M49.0133 50.6846H81.3362M49.4773 53.9324L80.5629 53.6231M50.4052 57.4894H78.8617M52.2611 60.5825H76.2326M117.835 44.0345H49.4773C49.4773 44.0345 38.6515 42.1786 29.5269 43.1066M88.6049 47.1276H119.227M89.0689 50.6846H119.845M89.8422 53.6231H119.227M91.3887 57.1801H117.835M94.9458 60.5825H114.896" stroke="#DF4991" stroke-opacity="0.8" stroke-width="2" stroke-linecap="round" stroke-linejoin="round" shape-rendering="geometricPrecision"/>
</g>
<g filter="url(#filter2_d_475_432)">
<rect x="154" y="79" width="1" height="5" rx="0.5" fill="#DF4891" fill-opacity="0.8" shape-rendering="geometricPrecision"/>
</g>
<g filter="url(#filter3_d_475_432)">
<rect x="154" y="106" width="1" height="5" rx="0.5" fill="#DF4891" fill-opacity="0.8" shape-rendering="geometricPrecision"/>
</g>
<g filter="url(#filter4_d_475_432)">
<rect x="153" y="83" width="3" height="24" rx="1" fill="#DF4891" fill-opacity="0.8" shape-rendering="geometricPrecision"/>
</g>
<g filter="url(#filter5_d_475_432)">
<rect x="165" y="33" width="1" height="8.4375" rx="0.5" fill="#DF4891" fill-opacity="0.8" shape-rendering="geometricPrecision"/>
</g>
<g filter="url(#filter6_d_475_432)">
<rect x="165" y="78.5625" width="1" height="8.4375" rx="0.5" fill="#DF4891" fill-opacity="0.8" shape-rendering="geometricPrecision"/>
</g>
<g filter="url(#filter7_d_475_432)">
<rect x="164" y="39.75" width="3" height="40.5" rx="1" fill="#DF4891" fill-opacity="0.8" shape-rendering="geometricPrecision"/>
</g>
<g filter="url(#filter8_d_475_432)">
<rect x="176" y="39" width="1" height="12" rx="0.5" fill="#DF4891" fill-opacity="0.8" shape-rendering="geometricPrecision"/>
</g>
<g filter="url(#filter9_d_475_432)">
<rect x="175" y="16" width="3" height="24" rx="1" fill="#DF4891" fill-opacity="0.8" shape-rendering="geometricPrecision"/>
</g>
<defs>
<filter id="filter0_d_475_432" x="0.000488281" y="1.20667" width="137" height="126.793" filterUnits="userSpaceOnUse" color-interpolation-filters="sRGB">
<feFlood flood-opacity="0" result="BackgroundImageFix"/>
<feColorMatrix in="SourceAlpha" type="matrix" values="0 0 0 0 0 0 0 0 0 0 0 0 0 0 0 0 0 0 127 0" result="hardAlpha"/>
<feOffset/>
<feGaussianBlur stdDeviation="8"/>
<feComposite in2="hardAlpha" operator="out"/>
<feColorMatrix type="matrix" values="0 0 0 0 0.87451 0 0 0 0 0.282353 0 0 0 0 0.568627 0 0 0 1 0"/>
<feBlend mode="normal" in2="BackgroundImageFix" result="effect1_dropShadow_475_432"/>
<feBlend mode="normal" in="SourceGraphic" in2="effect1_dropShadow_475_432" result="shape"/>
</filter>
<filter id="filter1_d_475_432" x="12.5269" y="25.8467" width="124.318" height="51.7358" filterUnits="userSpaceOnUse" color-interpolation-filters="sRGB">
<feFlood flood-opacity="0" result="BackgroundImageFix"/>
<feColorMatrix in="SourceAlpha" type="matrix" values="0 0 0 0 0 0 0 0 0 0 0 0 0 0 0 0 0 0 127 0" result="hardAlpha"/>
<feOffset/>
<feGaussianBlur stdDeviation="8"/>
<feComposite in2="hardAlpha" operator="out"/>
<feColorMatrix type="matrix" values="0 0 0 0 0.87451 0 0 0 0 0.282353 0 0 0 0 0.568627 0 0 0 1 0"/>
<feBlend mode="normal" in2="BackgroundImageFix" result="effect1_dropShadow_475_432"/>
<feBlend mode="normal" in="SourceGraphic" in2="effect1_dropShadow_475_432" result="shape"/>
</filter>
<filter id="filter2_d_475_432" x="146" y="71" width="17" height="21" filterUnits="userSpaceOnUse" color-interpolation-filters="sRGB">
<feFlood flood-opacity="0" result="BackgroundImageFix"/>
<feColorMatrix in="SourceAlpha" type="matrix" values="0 0 0 0 0 0 0 0 0 0 0 0 0 0 0 0 0 0 127 0" result="hardAlpha"/>
<feOffset/>
<feGaussianBlur stdDeviation="4"/>
<feComposite in2="hardAlpha" operator="out"/>
<feColorMatrix type="matrix" values="0 0 0 0 0.87451 0 0 0 0 0.282353 0 0 0 0 0.568627 0 0 0 1 0"/>
<feBlend mode="normal" in2="BackgroundImageFix" result="effect1_dropShadow_475_432"/>
<feBlend mode="normal" in="SourceGraphic" in2="effect1_dropShadow_475_432" result="shape"/>
</filter>
<filter id="filter3_d_475_432" x="146" y="98" width="17" height="21" filterUnits="userSpaceOnUse" color-interpolation-filters="sRGB">
<feFlood flood-opacity="0" result="BackgroundImageFix"/>
<feColorMatrix in="SourceAlpha" type="matrix" values="0 0 0 0 0 0 0 0 0 0 0 0 0 0 0 0 0 0 127 0" result="hardAlpha"/>
<feOffset/>
<feGaussianBlur stdDeviation="4"/>
<feComposite in2="hardAlpha" operator="out"/>
<feColorMatrix type="matrix" values="0 0 0 0 0.87451 0 0 0 0 0.282353 0 0 0 0 0.568627 0 0 0 1 0"/>
<feBlend mode="normal" in2="BackgroundImageFix" result="effect1_dropShadow_475_432"/>
<feBlend mode="normal" in="SourceGraphic" in2="effect1_dropShadow_475_432" result="shape"/>
</filter>
<filter id="filter4_d_475_432" x="137" y="67" width="35" height="56" filterUnits="userSpaceOnUse" color-interpolation-filters="sRGB">
<feFlood flood-opacity="0" result="BackgroundImageFix"/>
<feColorMatrix in="SourceAlpha" type="matrix" values="0 0 0 0 0 0 0 0 0 0 0 0 0 0 0 0 0 0 127 0" result="hardAlpha"/>
<feOffset/>
<feGaussianBlur stdDeviation="8"/>
<feComposite in2="hardAlpha" operator="out"/>
<feColorMatrix type="matrix" values="0 0 0 0 0.87451 0 0 0 0 0.282353 0 0 0 0 0.568627 0 0 0 1 0"/>
<feBlend mode="normal" in2="BackgroundImageFix" result="effect1_dropShadow_475_432"/>
<feBlend mode="normal" in="SourceGraphic" in2="effect1_dropShadow_475_432" result="shape"/>
</filter>
<filter id="filter5_d_475_432" x="157" y="25" width="17" height="24.4375" filterUnits="userSpaceOnUse" color-interpolation-filters="sRGB">
<feFlood flood-opacity="0" result="BackgroundImageFix"/>
<feColorMatrix in="SourceAlpha" type="matrix" values="0 0 0 0 0 0 0 0 0 0 0 0 0 0 0 0 0 0 127 0" result="hardAlpha"/>
<feOffset/>
<feGaussianBlur stdDeviation="4"/>
<feComposite in2="hardAlpha" operator="out"/>
<feColorMatrix type="matrix" values="0 0 0 0 0.87451 0 0 0 0 0.282353 0 0 0 0 0.568627 0 0 0 1 0"/>
<feBlend mode="normal" in2="BackgroundImageFix" result="effect1_dropShadow_475_432"/>
<feBlend mode="normal" in="SourceGraphic" in2="effect1_dropShadow_475_432" result="shape"/>
</filter>
<filter id="filter6_d_475_432" x="157" y="70.5625" width="17" height="24.4375" filterUnits="userSpaceOnUse" color-interpolation-filters="sRGB">
<feFlood flood-opacity="0" result="BackgroundImageFix"/>
<feColorMatrix in="SourceAlpha" type="matrix" values="0 0 0 0 0 0 0 0 0 0 0 0 0 0 0 0 0 0 127 0" result="hardAlpha"/>
<feOffset/>
<feGaussianBlur stdDeviation="4"/>
<feComposite in2="hardAlpha" operator="out"/>
<feColorMatrix type="matrix" values="0 0 0 0 0.87451 0 0 0 0 0.282353 0 0 0 0 0.568627 0 0 0 1 0"/>
<feBlend mode="normal" in2="BackgroundImageFix" result="effect1_dropShadow_475_432"/>
<feBlend mode="normal" in="SourceGraphic" in2="effect1_dropShadow_475_432" result="shape"/>
</filter>
<filter id="filter7_d_475_432" x="148" y="23.75" width="35" height="72.5" filterUnits="userSpaceOnUse" color-interpolation-filters="sRGB">
<feFlood flood-opacity="0" result="BackgroundImageFix"/>
<feColorMatrix in="SourceAlpha" type="matrix" values="0 0 0 0 0 0 0 0 0 0 0 0 0 0 0 0 0 0 127 0" result="hardAlpha"/>
<feOffset/>
<feGaussianBlur stdDeviation="8"/>
<feComposite in2="hardAlpha" operator="out"/>
<feColorMatrix type="matrix" values="0 0 0 0 0.87451 0 0 0 0 0.282353 0 0 0 0 0.568627 0 0 0 1 0"/>
<feBlend mode="normal" in2="BackgroundImageFix" result="effect1_dropShadow_475_432"/>
<feBlend mode="normal" in="SourceGraphic" in2="effect1_dropShadow_475_432" result="shape"/>
</filter>
<filter id="filter8_d_475_432" x="168" y="31" width="17" height="28" filterUnits="userSpaceOnUse" color-interpolation-filters="sRGB">
<feFlood flood-opacity="0" result="BackgroundImageFix"/>
<feColorMatrix in="SourceAlpha" type="matrix" values="0 0 0 0 0 0 0 0 0 0 0 0 0 0 0 0 0 0 127 0" result="hardAlpha"/>
<feOffset/>
<feGaussianBlur stdDeviation="4"/>
<feComposite in2="hardAlpha" operator="out"/>
<feColorMatrix type="matrix" values="0 0 0 0 0.87451 0 0 0 0 0.282353 0 0 0 0 0.568627 0 0 0 1 0"/>
<feBlend mode="normal" in2="BackgroundImageFix" result="effect1_dropShadow_475_432"/>
<feBlend mode="normal" in="SourceGraphic" in2="effect1_dropShadow_475_432" result="shape"/>
</filter>
<filter id="filter9_d_475_432" x="159" y="0" width="35" height="56" filterUnits="userSpaceOnUse" color-interpolation-filters="sRGB">
<feFlood flood-opacity="0" result="BackgroundImageFix"/>
<feColorMatrix in="SourceAlpha" type="matrix" values="0 0 0 0 0 0 0 0 0 0 0 0 0 0 0 0 0 0 127 0" result="hardAlpha"/>
<feOffset/>
<feGaussianBlur stdDeviation="8"/>
<feComposite in2="hardAlpha" operator="out"/>
<feColorMatrix type="matrix" values="0 0 0 0 0.87451 0 0 0 0 0.282353 0 0 0 0 0.568627 0 0 0 1 0"/>
<feBlend mode="normal" in2="BackgroundImageFix" result="effect1_dropShadow_475_432"/>
<feBlend mode="normal" in="SourceGraphic" in2="effect1_dropShadow_475_432" result="shape"/>
</filter>
</defs>
</svg>
