<svg width="107" height="78" viewBox="0 0 107 78" fill="none" xmlns="http://www.w3.org/2000/svg">
<g filter="url(#filter0_d_475_423)">
<path d="M79.3105 21.7439C85.6251 17.9525 89.3087 15.7409 90.0808 17.0269C90.8529 18.3129 84.5383 22.1043 79.2761 25.2638C-5.46554 76.1435 -3.76258 71.6218 79.3105 21.7439Z" fill="#83CEFF" fill-opacity="0.15" shape-rendering="geometricPrecision"/>
</g>
<path d="M40.0583 42.0584L40.5707 41.7507L45.5613 46.443C45.7141 46.5836 46.1383 47.0056 46.8338 47.7088L46.8791 47.6816C46.8107 47.4766 46.7191 47.1762 46.6044 46.7803C46.4998 46.3784 46.4284 46.1001 46.3902 45.9453L44.6095 39.3258L45.1822 38.9819L50.203 43.6561C51.0071 44.4035 51.4433 44.8113 51.5117 44.8796L51.5268 44.8706C51.4785 44.7219 51.405 44.4516 51.3064 44.0597C51.2078 43.6678 51.1213 43.3644 51.0469 43.1494L49.2361 36.5479L49.7485 36.2403L52.0574 45.1056L51.4697 45.4585L46.5876 40.947C46.2599 40.6517 45.7945 40.2067 45.1914 39.612L45.1462 39.6391C45.4359 40.5997 45.615 41.2166 45.6834 41.4899L47.3856 47.9106L46.7828 48.2725L40.0583 42.0584ZM54.4981 41.2823C54.7635 41.7244 55.1816 41.9996 55.7524 42.1079C56.3272 42.2002 56.9562 42.0412 57.6394 41.631C58.4633 41.1364 59.0168 40.4419 59.2999 39.5474C59.583 38.653 59.4742 37.7888 58.9735 36.955L58.0687 35.4479C57.6327 35.9967 56.9034 36.6943 55.8807 37.5407C55.0267 38.2585 54.4944 38.9198 54.2835 39.5248C54.0827 40.1238 54.1542 40.7096 54.4981 41.2823ZM54.0641 41.5839C53.2437 40.2175 53.7748 38.7573 55.6575 37.2032C56.8028 36.2421 57.5311 35.5315 57.8424 35.0712L57.6072 34.6793C57.2151 34.0263 56.6794 33.6235 56 33.4709C55.3207 33.3184 54.5942 33.4744 53.8206 33.9389C53.3383 34.2284 52.9425 34.6164 52.6332 35.1029C52.3339 35.5833 52.1542 36.1149 52.094 36.6978L51.6599 36.6919C51.6939 36.111 51.8807 35.5342 52.2201 34.9613C52.5536 34.3784 53.0117 33.912 53.5944 33.5621C54.5388 32.9951 55.4049 32.8099 56.1928 33.0066C56.9807 33.2034 57.6069 33.6885 58.0714 34.4621L61.175 39.6313L60.753 39.8846L59.7667 38.242C59.8935 38.8629 59.7852 39.5362 59.4418 40.2619C59.0983 40.9875 58.5599 41.5705 57.8265 42.0108C57.0327 42.4874 56.2962 42.6835 55.6169 42.5993C54.9316 42.5051 54.4139 42.1666 54.0641 41.5839ZM61.4386 34.1627C62.072 35.2176 62.8259 35.9268 63.7002 36.2903C64.5746 36.6538 65.3935 36.6063 66.1571 36.1479C66.9609 35.6653 67.4038 34.9688 67.4859 34.0583C67.568 33.1479 67.2743 32.1351 66.6047 31.0199C65.9774 29.975 65.2295 29.2758 64.3612 28.9224C63.5029 28.5629 62.6971 28.6094 61.9435 29.0618C61.1197 29.5564 60.6757 30.274 60.6117 31.2146C60.5417 32.1452 60.8173 33.1278 61.4386 34.1627ZM61.0016 34.4251C60.3079 33.2697 60.0151 32.1674 60.1233 31.1183C60.2315 30.0692 60.7528 29.2641 61.6872 28.7031C62.3704 28.2929 63.0466 28.1671 63.7159 28.3257C64.3953 28.4782 64.9932 28.7684 65.5099 29.1964L64.4422 27.418L64.8792 27.1556L69.0686 34.1332C69.9192 35.5498 70.3155 36.7335 70.2575 37.6841C70.2155 38.6387 69.6671 39.4328 68.6122 40.0662C68.0897 40.3798 67.5331 40.5569 66.9422 40.5972C66.3675 40.6416 65.8308 40.5674 65.3324 40.3746L65.5433 39.9405C66.5844 40.2858 67.532 40.2021 68.386 39.6894C69.3002 39.1405 69.7613 38.4399 69.7691 37.5878C69.7829 36.7457 69.4188 35.7068 68.6768 34.471L67.781 32.979C68.1212 34.5927 67.6633 35.7766 66.4074 36.5307C65.4831 37.0856 64.5245 37.1623 63.5316 36.7606C62.5386 36.359 61.6953 35.5805 61.0016 34.4251ZM72.3421 32.9264L67.8179 25.3912L68.2399 25.1378L69.1085 26.5846L69.1387 26.5665C69.024 26.034 69.062 25.4712 69.2527 24.8783C69.4535 24.2793 69.8805 23.7838 70.5335 23.3917C71.1866 22.9996 71.7945 22.908 72.3573 23.1168C72.9201 23.3256 73.4105 23.6873 73.8287 24.2016C73.7664 24.075 73.7251 23.8811 73.705 23.6198C73.6848 23.3586 73.6977 23.0501 73.7439 22.6943C73.794 22.3225 73.9486 21.9426 74.2078 21.5547C74.4709 21.1506 74.8235 20.8159 75.2656 20.5505C75.9789 20.1222 76.6461 20.0496 77.2672 20.3328C77.8823 20.606 78.4854 21.2348 79.0766 22.2194L82.0173 27.1173L81.5803 27.3797L78.7029 22.5873C78.1841 21.7233 77.6715 21.1426 77.1649 20.8453C76.6523 20.538 76.0544 20.5894 75.3712 20.9996C74.7082 21.3978 74.3004 22.0048 74.1479 22.8208C73.9954 23.6368 74.1785 24.4769 74.6973 25.3409L77.4209 29.8771L76.9687 30.1485L74.1004 25.3712C73.0387 23.603 71.9051 23.0808 70.6994 23.8046C70.0062 24.2209 69.5904 24.8259 69.4519 25.6198C69.3235 26.4077 69.5037 27.2085 69.9923 28.0223L72.7792 32.664L72.3421 32.9264ZM79.0837 15.6747L78.4141 14.5595L79.4238 13.9532L80.0934 15.0684L79.0837 15.6747ZM85.2122 25.199L80.688 17.6639L81.1251 17.4014L85.6493 24.9366L85.2122 25.199Z" fill="white"/>
<defs>
<filter id="filter0_d_475_423" x="0.361328" y="0.659302" width="105.784" height="76.6887" filterUnits="userSpaceOnUse" color-interpolation-filters="sRGB">
<feFlood flood-opacity="0" result="BackgroundImageFix"/>
<feColorMatrix in="SourceAlpha" type="matrix" values="0 0 0 0 0 0 0 0 0 0 0 0 0 0 0 0 0 0 127 0" result="hardAlpha"/>
<feOffset/>
<feGaussianBlur stdDeviation="8"/>
<feComposite in2="hardAlpha" operator="out"/>
<feColorMatrix type="matrix" values="0 0 0 0 0.5125 0 0 0 0 0.807847 0 0 0 0 1 0 0 0 1 0"/>
<feBlend mode="normal" in2="BackgroundImageFix" result="effect1_dropShadow_475_423"/>
<feBlend mode="normal" in="SourceGraphic" in2="effect1_dropShadow_475_423" result="shape"/>
</filter>
</defs>
</svg>
