<svg width="323" height="228" viewBox="0 0 323 228" fill="none" xmlns="http://www.w3.org/2000/svg">
<g filter="url(#filter0_d_1115_17537)">
<g style="mix-blend-mode:color-burn" opacity="0.76" filter="url(#filter1_d_1115_17537)">
<mask id="path-1-inside-1_1115_17537" fill="white">
<path d="M32.3453 213.214C137.201 224.712 221.271 219.434 293.863 213.214C308.444 211.66 310.616 208.861 313.097 193.311C324.886 120.539 313.097 25.0652 313.097 25.0652C313.097 25.0652 315.579 9.58572 293.863 6.40578C266.254 2.36276 130.996 -5.72278 32.3453 6.40578C9.38867 6.40578 10.2675 19.7784 9.38867 25.0652C7.83785 34.3948 -1.15923 124.271 9.38867 193.311C13.1112 206.062 9.38867 210.697 32.3453 213.214Z"/>
</mask>
<path d="M32.3453 213.214C137.201 224.712 221.271 219.434 293.863 213.214C308.444 211.66 310.616 208.861 313.097 193.311C324.886 120.539 313.097 25.0652 313.097 25.0652C313.097 25.0652 315.579 9.58572 293.863 6.40578C266.254 2.36276 130.996 -5.72278 32.3453 6.40578C9.38867 6.40578 10.2675 19.7784 9.38867 25.0652C7.83785 34.3948 -1.15923 124.271 9.38867 193.311C13.1112 206.062 9.38867 210.697 32.3453 213.214Z" fill="url(#paint0_linear_1115_17537)"/>
<path d="M32.3453 213.214C137.201 224.712 221.271 219.434 293.863 213.214C308.444 211.66 310.616 208.861 313.097 193.311C324.886 120.539 313.097 25.0652 313.097 25.0652C313.097 25.0652 315.579 9.58572 293.863 6.40578C266.254 2.36276 130.996 -5.72278 32.3453 6.40578C9.38867 6.40578 10.2675 19.7784 9.38867 25.0652C7.83785 34.3948 -1.15923 124.271 9.38867 193.311C13.1112 206.062 9.38867 210.697 32.3453 213.214Z" stroke="black" stroke-width="21.0893" mask="url(#path-1-inside-1_1115_17537)"/>
</g>
<mask id="mask0_1115_17537" style="mask-type:alpha" maskUnits="userSpaceOnUse" x="14" y="10" width="294" height="200">
<path d="M26.8366 201.5C123.837 214.5 223.331 208.626 290.837 203C301.337 202.125 301.337 202 302.837 192C313.837 126 302.837 24 302.837 24C302.837 24 302.837 18.3531 293.337 17C267.661 13.3429 124.337 5.00008 31.8366 17C18.8365 17 20.4346 22 19.8365 25.5C18.3943 33.9391 8.83667 131.5 20.3365 194C21.8366 201.5 22.8366 200.964 26.8366 201.5Z" fill="url(#paint1_linear_1115_17537)"/>
</mask>
<g mask="url(#mask0_1115_17537)">
<g opacity="0.1">
<ellipse cx="82.5006" cy="171.785" rx="62.5395" ry="82.2372" fill="#E160BA"/>
<ellipse cx="249.19" cy="180.296" rx="65.694" ry="86.7501" fill="#913776"/>
<ellipse cx="164.553" cy="116.751" rx="79.4628" ry="69.8232" fill="#AC398A"/>
<ellipse cx="263.22" cy="55.5424" rx="88.4774" ry="73.5004" fill="#EA73C6"/>
<g style="mix-blend-mode:color-burn">
<ellipse cx="48.1529" cy="21.6301" rx="74.1253" ry="70.8118" fill="#CF44A5"/>
</g>
</g>
<mask id="mask1_1115_17537" style="mask-type:alpha" maskUnits="userSpaceOnUse" x="18" y="10" width="290" height="198">
<path d="M44.2977 201.008C140.677 211.265 217.953 206.556 284.677 201.008C298.079 199.621 300.075 197.124 302.356 183.252C313.192 118.334 302.356 33.1636 302.356 33.1636C302.356 33.1636 304.638 19.3547 284.677 16.5179C259.299 12.9112 134.974 5.69829 44.2977 16.5179C23.1966 16.5179 24.0044 28.4474 23.1966 33.1636C21.7712 41.4864 13.5013 121.663 23.1966 183.252C26.6183 194.627 23.1966 198.762 44.2977 201.008Z" fill="url(#paint2_linear_1115_17537)" fill-opacity="0.01"/>
</mask>
<g mask="url(#mask1_1115_17537)">
</g>
<g opacity="0.5" filter="url(#filter2_b_1115_17537)">
<mask id="path-9-inside-2_1115_17537" fill="white">
<path d="M32.285 212.816C136.915 224.292 220.806 219.024 293.242 212.816C307.792 211.264 309.958 208.47 312.435 192.949C324.198 120.314 312.435 25.0183 312.435 25.0183C312.435 25.0183 314.911 9.56779 293.242 6.39379C265.692 2.35834 130.724 -5.71207 32.285 6.39379C9.37759 6.39379 10.2545 19.7414 9.37759 25.0183C7.8301 34.3305 -1.14769 124.039 9.37759 192.949C13.0922 205.676 9.37759 210.303 32.285 212.816Z"/>
</mask>
<path d="M32.285 212.816C136.915 224.292 220.806 219.024 293.242 212.816C307.792 211.264 309.958 208.47 312.435 192.949C324.198 120.314 312.435 25.0183 312.435 25.0183C312.435 25.0183 314.911 9.56779 293.242 6.39379C265.692 2.35834 130.724 -5.71207 32.285 6.39379C9.37759 6.39379 10.2545 19.7414 9.37759 25.0183C7.8301 34.3305 -1.14769 124.039 9.37759 192.949C13.0922 205.676 9.37759 210.303 32.285 212.816Z" fill="url(#paint3_linear_1115_17537)" fill-opacity="0.01"/>
<path d="M32.285 212.816C136.915 224.292 220.806 219.024 293.242 212.816C307.792 211.264 309.958 208.47 312.435 192.949C324.198 120.314 312.435 25.0183 312.435 25.0183C312.435 25.0183 314.911 9.56779 293.242 6.39379C265.692 2.35834 130.724 -5.71207 32.285 6.39379C9.37759 6.39379 10.2545 19.7414 9.37759 25.0183C7.8301 34.3305 -1.14769 124.039 9.37759 192.949C13.0922 205.676 9.37759 210.303 32.285 212.816Z" stroke="black" stroke-opacity="0.01" stroke-width="21.0893" mask="url(#path-9-inside-2_1115_17537)"/>
</g>
<circle cx="161.336" cy="110" r="49" fill="#A8185E"/>
<g filter="url(#filter3_i_1115_17537)">
<text fill="#852B9C" xml:space="preserve" style="white-space: pre" font-family="OCR-A" font-size="12" letter-spacing="-0.115em"><tspan x="60.79" y="186.499">6122004250277301583848082125185971</tspan></text>
</g>
<g style="mix-blend-mode:hard-light" filter="url(#filter4_f_1115_17537)">
<circle cx="161.337" cy="108" r="58.8" fill="#FF3780" fill-opacity="0.139"/>
</g>
<g style="mix-blend-mode:hard-light" filter="url(#filter5_f_1115_17537)">
<circle cx="161.336" cy="108" r="47.6729" stroke="#F32E7C" stroke-width="2.65417"/>
</g>
<g style="mix-blend-mode:hard-light" filter="url(#filter6_f_1115_17537)">
<circle cx="161.336" cy="108" r="47.2646" stroke="#FF26C2" stroke-width="3.47083"/>
</g>
<g style="mix-blend-mode:hard-light" filter="url(#filter7_ddi_1115_17537)">
<circle cx="161.336" cy="108" r="47.6729" stroke="#FB37FF" stroke-opacity="0.2" stroke-width="2.65417"/>
</g>
<g filter="url(#filter8_f_1115_17537)">
<circle cx="161.336" cy="108" r="48.1833" stroke="#FB37FF" stroke-width="1.63333"/>
</g>
<g filter="url(#filter9_f_1115_17537)">
<circle cx="161.336" cy="108" r="48.5917" stroke="white" stroke-width="0.816667"/>
</g>
</g>
<text fill="#F5F5F7" stroke="#171515" xml:space="preserve" style="white-space: pre" font-family="Roboto Mono" font-size="22" font-weight="bold" letter-spacing="-0.04em"><tspan x="126.061" y="117.045">DEXES!</tspan></text>
</g>
<defs>
<filter id="filter0_d_1115_17537" x="0.33667" y="0" width="322" height="228" filterUnits="userSpaceOnUse" color-interpolation-filters="sRGB">
<feFlood flood-opacity="0" result="BackgroundImageFix"/>
<feColorMatrix in="SourceAlpha" type="matrix" values="0 0 0 0 0 0 0 0 0 0 0 0 0 0 0 0 0 0 127 0" result="hardAlpha"/>
<feOffset dy="4"/>
<feGaussianBlur stdDeviation="2"/>
<feComposite in2="hardAlpha" operator="out"/>
<feColorMatrix type="matrix" values="0 0 0 0 0 0 0 0 0 0 0 0 0 0 0 0 0 0 0.25 0"/>
<feBlend mode="normal" in2="BackgroundImageFix" result="effect1_dropShadow_1115_17537"/>
<feBlend mode="normal" in="SourceGraphic" in2="effect1_dropShadow_1115_17537" result="shape"/>
</filter>
<filter id="filter1_d_1115_17537" x="1.85557" y="0" width="318.962" height="224.962" filterUnits="userSpaceOnUse" color-interpolation-filters="sRGB">
<feFlood flood-opacity="0" result="BackgroundImageFix"/>
<feColorMatrix in="SourceAlpha" type="matrix" values="0 0 0 0 0 0 0 0 0 0 0 0 0 0 0 0 0 0 127 0" result="hardAlpha"/>
<feOffset dy="2.4811"/>
<feGaussianBlur stdDeviation="1.24055"/>
<feComposite in2="hardAlpha" operator="out"/>
<feColorMatrix type="matrix" values="0 0 0 0 0 0 0 0 0 0 0 0 0 0 0 0 0 0 0.25 0"/>
<feBlend mode="normal" in2="BackgroundImageFix" result="effect1_dropShadow_1115_17537"/>
<feBlend mode="normal" in="SourceGraphic" in2="effect1_dropShadow_1115_17537" result="shape"/>
</filter>
<filter id="filter2_b_1115_17537" x="-102.325" y="-106.662" width="526.65" height="432.912" filterUnits="userSpaceOnUse" color-interpolation-filters="sRGB">
<feFlood flood-opacity="0" result="BackgroundImageFix"/>
<feGaussianBlur in="BackgroundImage" stdDeviation="53.3309"/>
<feComposite in2="SourceAlpha" operator="in" result="effect1_backgroundBlur_1115_17537"/>
<feBlend mode="normal" in="SourceGraphic" in2="effect1_backgroundBlur_1115_17537" result="shape"/>
</filter>
<filter id="filter3_i_1115_17537" x="62.0029" y="178.201" width="198.761" height="8.78711" filterUnits="userSpaceOnUse" color-interpolation-filters="sRGB">
<feFlood flood-opacity="0" result="BackgroundImageFix"/>
<feBlend mode="normal" in="SourceGraphic" in2="BackgroundImageFix" result="shape"/>
<feColorMatrix in="SourceAlpha" type="matrix" values="0 0 0 0 0 0 0 0 0 0 0 0 0 0 0 0 0 0 127 0" result="hardAlpha"/>
<feOffset dy="1"/>
<feGaussianBlur stdDeviation="0.5"/>
<feComposite in2="hardAlpha" operator="arithmetic" k2="-1" k3="1"/>
<feColorMatrix type="matrix" values="0 0 0 0 0 0 0 0 0 0 0 0 0 0 0 0 0 0 0.25 0"/>
<feBlend mode="normal" in2="shape" result="effect1_innerShadow_1115_17537"/>
</filter>
<filter id="filter4_f_1115_17537" x="94.0229" y="40.6862" width="134.628" height="134.627" filterUnits="userSpaceOnUse" color-interpolation-filters="sRGB">
<feFlood flood-opacity="0" result="BackgroundImageFix"/>
<feBlend mode="normal" in="SourceGraphic" in2="BackgroundImageFix" result="shape"/>
<feGaussianBlur stdDeviation="4.25688" result="effect1_foregroundBlur_1115_17537"/>
</filter>
<filter id="filter5_f_1115_17537" x="103.823" y="50.4862" width="115.028" height="115.028" filterUnits="userSpaceOnUse" color-interpolation-filters="sRGB">
<feFlood flood-opacity="0" result="BackgroundImageFix"/>
<feBlend mode="normal" in="SourceGraphic" in2="BackgroundImageFix" result="shape"/>
<feGaussianBlur stdDeviation="4.25688" result="effect1_foregroundBlur_1115_17537"/>
</filter>
<filter id="filter6_f_1115_17537" x="109.499" y="56.1621" width="103.676" height="103.676" filterUnits="userSpaceOnUse" color-interpolation-filters="sRGB">
<feFlood flood-opacity="0" result="BackgroundImageFix"/>
<feBlend mode="normal" in="SourceGraphic" in2="BackgroundImageFix" result="shape"/>
<feGaussianBlur stdDeviation="1.41896" result="effect1_foregroundBlur_1115_17537"/>
</filter>
<filter id="filter7_ddi_1115_17537" x="108.647" y="58.1486" width="105.379" height="105.379" filterUnits="userSpaceOnUse" color-interpolation-filters="sRGB">
<feFlood flood-opacity="0" result="BackgroundImageFix"/>
<feColorMatrix in="SourceAlpha" type="matrix" values="0 0 0 0 0 0 0 0 0 0 0 0 0 0 0 0 0 0 127 0" result="hardAlpha"/>
<feOffset dy="2.65417"/>
<feGaussianBlur stdDeviation="1.02083"/>
<feColorMatrix type="matrix" values="0 0 0 0 0.3 0 0 0 0 0 0 0 0 0 0.26 0 0 0 0.7 0"/>
<feBlend mode="multiply" in2="BackgroundImageFix" result="effect1_dropShadow_1115_17537"/>
<feColorMatrix in="SourceAlpha" type="matrix" values="0 0 0 0 0 0 0 0 0 0 0 0 0 0 0 0 0 0 127 0" result="hardAlpha"/>
<feOffset dy="2.83792"/>
<feGaussianBlur stdDeviation="1.84465"/>
<feColorMatrix type="matrix" values="0 0 0 0 0.6 0 0 0 0 0 0 0 0 0 0.6 0 0 0 1 0"/>
<feBlend mode="color-dodge" in2="effect1_dropShadow_1115_17537" result="effect2_dropShadow_1115_17537"/>
<feBlend mode="normal" in="SourceGraphic" in2="effect2_dropShadow_1115_17537" result="shape"/>
<feColorMatrix in="SourceAlpha" type="matrix" values="0 0 0 0 0 0 0 0 0 0 0 0 0 0 0 0 0 0 127 0" result="hardAlpha"/>
<feOffset dx="-0.265417" dy="0.530833"/>
<feGaussianBlur stdDeviation="0.132708"/>
<feComposite in2="hardAlpha" operator="arithmetic" k2="-1" k3="1"/>
<feColorMatrix type="matrix" values="0 0 0 0 1 0 0 0 0 1 0 0 0 0 1 0 0 0 0.5 0"/>
<feBlend mode="normal" in2="shape" result="effect3_innerShadow_1115_17537"/>
</filter>
<filter id="filter8_f_1115_17537" x="111.928" y="58.5917" width="98.8167" height="98.8167" filterUnits="userSpaceOnUse" color-interpolation-filters="sRGB">
<feFlood flood-opacity="0" result="BackgroundImageFix"/>
<feBlend mode="normal" in="SourceGraphic" in2="BackgroundImageFix" result="shape"/>
<feGaussianBlur stdDeviation="0.204167" result="effect1_foregroundBlur_1115_17537"/>
</filter>
<filter id="filter9_f_1115_17537" x="112.064" y="58.7278" width="98.5444" height="98.5444" filterUnits="userSpaceOnUse" color-interpolation-filters="sRGB">
<feFlood flood-opacity="0" result="BackgroundImageFix"/>
<feBlend mode="normal" in="SourceGraphic" in2="BackgroundImageFix" result="shape"/>
<feGaussianBlur stdDeviation="0.136111" result="effect1_foregroundBlur_1115_17537"/>
</filter>
<linearGradient id="paint0_linear_1115_17537" x1="4.33666" y1="231.786" x2="356.19" y2="105.299" gradientUnits="userSpaceOnUse">
<stop stop-color="#3D2935"/>
<stop offset="1" stop-color="#DE0682"/>
</linearGradient>
<linearGradient id="paint1_linear_1115_17537" x1="162.566" y1="182.303" x2="78.4828" y2="-16.2372" gradientUnits="userSpaceOnUse">
<stop stop-color="#223E7B"/>
<stop offset="1" stop-color="#3461BE"/>
</linearGradient>
<linearGradient id="paint2_linear_1115_17537" x1="177.104" y1="173.957" x2="177.104" y2="39.1781" gradientUnits="userSpaceOnUse">
<stop offset="0.0078125" stop-color="#9C4EA6"/>
<stop offset="0.304688" stop-color="#BA2C96"/>
<stop offset="0.627604" stop-color="#D01389"/>
<stop offset="0.981771" stop-color="#DD0582"/>
</linearGradient>
<linearGradient id="paint3_linear_1115_17537" x1="176.46" y1="182.549" x2="176.46" y2="31.7477" gradientUnits="userSpaceOnUse">
<stop offset="0.0078125" stop-color="#9C4EA6"/>
<stop offset="0.304688" stop-color="#BA2C96"/>
<stop offset="0.627604" stop-color="#D01389"/>
<stop offset="0.981771" stop-color="#DD0582"/>
</linearGradient>
</defs>
</svg>
