<svg width="322" height="228" viewBox="0 0 322 228" fill="none" xmlns="http://www.w3.org/2000/svg">
<rect width="322" height="228" fill="#2C2C2C"/>
<g clip-path="url(#clip0_2_25329)">
<rect width="1896" height="8923" transform="translate(-1324 -1337)" fill="url(#paint0_linear_2_25329)"/>
<g filter="url(#filter0_d_2_25329)">
<g filter="url(#filter1_d_2_25329)">
<path d="M32.6222 212.816C137.252 224.292 221.143 219.024 293.579 212.816C308.129 211.264 310.296 208.47 312.772 192.949C324.535 120.314 312.772 25.0183 312.772 25.0183C312.772 25.0183 315.249 9.56779 293.579 6.39379C266.029 2.35834 131.061 -5.71207 32.6222 6.39379C9.71475 6.39379 10.5917 19.7414 9.71475 25.0183C8.16726 34.3305 -0.81053 124.039 9.71475 192.949C13.4293 205.676 9.71475 210.303 32.6222 212.816Z" fill="url(#paint1_linear_2_25329)"/>
<path d="M32.6222 11.6661H32.9451L33.2657 11.6267C131.177 -0.414224 265.667 7.63394 292.815 11.6105C302.237 12.9905 305.371 16.7778 306.568 19.2184C307.246 20.5998 307.491 21.9341 307.561 22.9281C307.596 23.4193 307.587 23.8043 307.573 24.0364C307.567 24.1421 307.56 24.2134 307.556 24.2455C307.556 24.2484 307.556 24.2509 307.555 24.2532L307.448 24.9221L307.539 25.6642L307.54 25.6664L307.541 25.6772L307.547 25.7247L307.57 25.9219C307.592 26.0984 307.623 26.3642 307.664 26.7157C307.746 27.4187 307.865 28.4646 308.013 29.8247C308.309 32.5449 308.719 36.5208 309.176 41.5224C310.089 51.5276 311.185 65.6265 311.916 81.9809C313.381 114.759 313.363 156.32 307.567 192.107L307.565 192.119C306.951 195.968 306.4 198.725 305.746 200.797C305.105 202.829 304.465 203.87 303.866 204.504C302.689 205.754 300.443 206.777 293.074 207.567C220.774 213.763 137.297 218.993 33.197 207.575C27.5863 206.959 23.9707 206.247 21.5821 205.444C19.2774 204.669 18.4912 203.933 18.1211 203.461C17.6694 202.884 17.2734 201.994 16.7721 199.862C16.6486 199.337 16.5143 198.711 16.3636 198.008C15.9938 196.283 15.5254 194.099 14.8756 191.818C4.54234 123.682 13.4261 34.8468 14.9158 25.8826C15.0676 24.9686 15.1727 24.117 15.2719 23.3121C15.5793 20.8195 15.8313 18.7754 17.2485 16.7187C18.6724 14.6523 22.1875 11.6661 32.6222 11.6661Z" stroke="black" stroke-width="10.5447"/>
</g>
<path d="M102.706 109.166H101.234C101.194 108.471 101.103 107.95 100.96 107.603C100.817 107.255 100.571 107.012 100.224 106.872C99.8768 106.729 99.3558 106.657 98.6611 106.657H97.8877C96.5019 106.657 95.5853 106.797 95.1377 107.076C94.6543 107.373 94.4126 107.996 94.4126 108.945C94.4126 109.479 94.4627 109.905 94.563 110.224C94.6668 110.539 94.8637 110.786 95.1538 110.965C95.4474 111.14 95.8681 111.246 96.416 111.282C96.5091 111.289 97.1697 111.314 98.3979 111.357C99.6261 111.4 100.521 111.506 101.083 111.674C101.649 111.842 102.104 112.186 102.448 112.705C102.795 113.221 102.969 113.985 102.969 114.999C102.969 115.783 102.904 116.44 102.775 116.97C102.646 117.496 102.385 117.931 101.991 118.275C101.597 118.615 101.015 118.821 100.246 118.893C99.5115 118.964 98.6522 119 97.6674 119C96.851 119 96.1689 118.964 95.6211 118.893C95.0732 118.817 94.5862 118.66 94.1601 118.42C93.7376 118.18 93.41 117.813 93.1772 117.319C92.9445 116.825 92.8281 116.175 92.8281 115.369C92.8281 115.294 92.8317 115.188 92.8388 115.052C92.846 114.916 92.8496 114.811 92.8496 114.735H94.3051C94.3051 115.588 94.375 116.214 94.5146 116.615C94.6578 117.016 94.93 117.296 95.331 117.453C95.7321 117.607 96.3569 117.684 97.2055 117.684H98.4624C99.2752 117.684 99.8857 117.632 100.294 117.528C100.702 117.421 100.998 117.19 101.18 116.835C101.363 116.477 101.454 115.915 101.454 115.149C101.454 114.522 101.4 114.053 101.293 113.742C101.189 113.427 100.989 113.203 100.691 113.07C100.394 112.938 99.9448 112.861 99.3432 112.839C98.4946 112.804 97.6639 112.764 96.851 112.721C96.0382 112.678 95.3453 112.558 94.7724 112.361C94.1995 112.164 93.743 111.803 93.4028 111.276C93.0626 110.746 92.8925 109.993 92.8925 109.015C92.8925 107.987 93.0752 107.21 93.4404 106.684C93.8056 106.158 94.3159 105.81 94.9712 105.642C95.6264 105.47 96.4751 105.384 97.5171 105.384H97.8662C98.7005 105.384 99.3898 105.417 99.9341 105.481C100.482 105.542 100.965 105.685 101.384 105.911C101.803 106.136 102.127 106.494 102.356 106.985C102.589 107.472 102.706 108.125 102.706 108.945V109.166ZM105.219 106.813V111.368H112.083V112.646H105.219V117.614H112.39V118.936H103.742V105.449H112.39V106.813H105.219ZM114.742 105.449V117.528H121.563V118.936H113.115V105.449H114.742ZM123.782 106.813V111.475H130.297V112.753H123.782V118.936H122.246V105.449H130.496V106.813H123.782ZM146.265 114.359H147.758C147.758 114.499 147.769 114.708 147.79 114.988C147.812 115.267 147.823 115.477 147.823 115.616C147.823 117.643 146.825 118.749 144.831 118.936C144.108 118.979 143.39 119 142.677 119H140.787C139.831 118.928 139.088 118.692 138.558 118.291C138.031 117.886 137.664 117.371 137.457 116.744C137.249 116.114 137.129 115.358 137.097 114.478C137.064 113.597 137.039 112.839 137.021 112.206V110.068C137.021 109.169 137.118 108.406 137.311 107.78C137.508 107.15 137.859 106.643 138.364 106.26C138.873 105.873 139.576 105.633 140.475 105.54C141.034 105.465 141.907 105.427 143.096 105.427C144.045 105.427 144.792 105.481 145.336 105.588C145.884 105.696 146.315 105.895 146.63 106.185C146.945 106.475 147.176 106.894 147.323 107.441C147.47 107.986 147.572 108.738 147.629 109.697H146.131C146.131 108.927 146.079 108.344 145.975 107.946C145.875 107.545 145.653 107.246 145.309 107.049C144.969 106.849 144.444 106.749 143.735 106.749C142.89 106.749 141.943 106.784 140.894 106.856C140.249 106.91 139.763 107.058 139.433 107.302C139.107 107.542 138.891 107.873 138.783 108.295C138.679 108.714 138.627 109.284 138.627 110.003V113.108C138.627 114.945 138.805 116.184 139.159 116.825C139.478 117.398 140.371 117.684 141.839 117.684C141.947 117.684 142.142 117.691 142.425 117.706C142.708 117.72 142.931 117.727 143.096 117.727C144.013 117.727 144.77 117.602 145.368 117.351C145.966 117.097 146.279 116.606 146.308 115.879C146.308 115.704 146.301 115.446 146.287 115.106C146.272 114.766 146.265 114.517 146.265 114.359ZM157.759 105.449H159.274V114.886C159.274 115.849 159.159 116.617 158.93 117.19C158.705 117.759 158.311 118.189 157.749 118.479C157.19 118.765 156.409 118.932 155.407 118.979C155.081 118.993 154.581 119 153.908 119C152.626 119 151.624 118.919 150.9 118.758C150.181 118.597 149.618 118.223 149.214 117.636C148.809 117.045 148.607 116.128 148.607 114.886V105.449H150.148V114.886C150.148 115.666 150.233 116.254 150.401 116.647C150.569 117.041 150.857 117.313 151.266 117.464C151.677 117.611 152.279 117.684 153.07 117.684H154.547C155.167 117.684 155.677 117.65 156.078 117.582C156.483 117.51 156.807 117.38 157.05 117.19C157.297 116.997 157.476 116.714 157.587 116.341C157.702 115.969 157.759 115.484 157.759 114.886V105.449ZM169.78 109.166H168.308C168.269 108.471 168.177 107.95 168.034 107.603C167.891 107.255 167.646 107.012 167.298 106.872C166.951 106.729 166.43 106.657 165.735 106.657H164.962C163.576 106.657 162.659 106.797 162.212 107.076C161.728 107.373 161.487 107.996 161.487 108.945C161.487 109.479 161.537 109.905 161.637 110.224C161.741 110.539 161.938 110.786 162.228 110.965C162.522 111.14 162.942 111.246 163.49 111.282C163.583 111.289 164.244 111.314 165.472 111.357C166.7 111.4 167.596 111.506 168.158 111.674C168.723 111.842 169.178 112.186 169.522 112.705C169.869 113.221 170.043 113.985 170.043 114.999C170.043 115.783 169.978 116.44 169.85 116.97C169.721 117.496 169.459 117.931 169.065 118.275C168.672 118.615 168.09 118.821 167.32 118.893C166.586 118.964 165.726 119 164.742 119C163.925 119 163.243 118.964 162.695 118.893C162.147 118.817 161.66 118.66 161.234 118.42C160.812 118.18 160.484 117.813 160.251 117.319C160.019 116.825 159.902 116.175 159.902 115.369C159.902 115.294 159.906 115.188 159.913 115.052C159.92 114.916 159.924 114.811 159.924 114.735H161.379C161.379 115.588 161.449 116.214 161.589 116.615C161.732 117.016 162.004 117.296 162.405 117.453C162.806 117.607 163.431 117.684 164.28 117.684H165.537C166.349 117.684 166.96 117.632 167.368 117.528C167.776 117.421 168.072 117.19 168.254 116.835C168.437 116.477 168.528 115.915 168.528 115.149C168.528 114.522 168.475 114.053 168.367 113.742C168.263 113.427 168.063 113.203 167.766 113.07C167.468 112.938 167.019 112.861 166.417 112.839C165.569 112.804 164.738 112.764 163.925 112.721C163.112 112.678 162.42 112.558 161.847 112.361C161.274 112.164 160.817 111.803 160.477 111.276C160.137 110.746 159.967 109.993 159.967 109.015C159.967 107.987 160.149 107.21 160.515 106.684C160.88 106.158 161.39 105.81 162.045 105.642C162.701 105.47 163.549 105.384 164.591 105.384H164.94C165.775 105.384 166.464 105.417 167.008 105.481C167.556 105.542 168.04 105.685 168.458 105.911C168.877 106.136 169.201 106.494 169.431 106.985C169.663 107.472 169.78 108.125 169.78 108.945V109.166ZM176.649 106.899V118.936H175.108V106.899H170.752V105.449H180.962V106.899H176.649ZM181.666 112.426V111.631C181.666 110.499 181.698 109.586 181.763 108.892C181.831 108.193 181.999 107.572 182.268 107.028C182.54 106.484 182.978 106.059 183.583 105.755C184.189 105.447 185.018 105.293 186.07 105.293H186.704C187.742 105.293 188.586 105.341 189.234 105.438C189.882 105.531 190.428 105.726 190.872 106.023C191.32 106.317 191.658 106.77 191.887 107.382C192.116 107.995 192.231 108.816 192.231 109.848C192.231 111.96 192.222 113.566 192.204 114.666C192.183 115.507 192.091 116.203 191.93 116.755C191.773 117.306 191.52 117.756 191.173 118.103C190.829 118.447 190.369 118.697 189.792 118.855C189.22 119.013 188.507 119.091 187.655 119.091C187.529 119.091 187.345 119.082 187.102 119.064C186.858 119.05 186.654 119.043 186.489 119.043C185.669 119.043 184.98 118.991 184.421 118.887C183.866 118.783 183.395 118.594 183.009 118.318C182.622 118.039 182.319 117.638 182.101 117.115C181.886 116.588 181.757 115.904 181.714 115.063C181.682 114.461 181.666 113.582 181.666 112.426ZM183.229 112.356V114.515C183.25 115.417 183.344 116.096 183.508 116.551C183.677 117.002 183.983 117.319 184.427 117.501C184.871 117.681 185.542 117.77 186.441 117.77C187.315 117.77 187.995 117.743 188.482 117.689C188.969 117.632 189.374 117.496 189.696 117.281C190.018 117.066 190.258 116.728 190.415 116.266C190.577 115.804 190.668 115.169 190.689 114.359C190.718 113.378 190.732 111.898 190.732 109.917C190.732 108.847 190.611 108.081 190.367 107.619C190.124 107.153 189.751 106.867 189.25 106.759C188.752 106.648 187.941 106.593 186.817 106.593H186.29C185.453 106.593 184.828 106.668 184.416 106.818C184.008 106.969 183.716 107.273 183.54 107.731C183.365 108.19 183.268 108.911 183.25 109.896L183.229 112.356ZM193.037 118.936V105.449H199.262C200.25 105.449 201.065 105.57 201.706 105.814C202.35 106.054 202.85 106.412 203.204 106.888C203.562 107.364 203.813 107.952 203.956 108.65C204.099 109.345 204.171 110.199 204.171 111.212V112.49C204.171 113.847 204.074 114.977 203.881 115.879C203.687 116.782 203.26 117.518 202.597 118.087C201.935 118.653 200.948 118.936 199.638 118.936H193.037ZM194.508 117.614H198.913C199.629 117.614 200.232 117.566 200.723 117.469C201.213 117.373 201.607 117.143 201.904 116.782C202.416 116.105 202.672 114.85 202.672 113.017V112.377C202.672 110.942 202.62 109.887 202.517 109.214C202.398 108.247 202.073 107.606 201.539 107.291C201.006 106.972 200.232 106.813 199.219 106.813H194.508V117.614ZM206.389 105.449V118.936H204.874V105.449H206.389ZM216.503 116.051H209.725L208.715 118.936H207.087L212.013 105.449H214.172L219.162 118.936H217.577L216.503 116.051ZM216.105 114.843L213.114 106.55L210.144 114.843H216.105ZM221.455 105.449V117.528H228.276V118.936H219.828V105.449H221.455Z" fill="white"/>
<mask id="mask0_2_25329" style="mask-type:alpha" maskUnits="userSpaceOnUse" x="4" y="0" width="314" height="220">
<g style="mix-blend-mode:color-burn" opacity="0.8">
<path d="M31.9486 12.0775H32.2715L32.5921 12.0381C130.503 -0.00284749 264.993 8.04531 292.142 12.0218C301.563 13.4019 304.697 17.1891 305.895 19.6297C306.572 21.0112 306.817 22.3454 306.888 23.3395C306.922 23.8307 306.913 24.2156 306.899 24.4478C306.893 24.5535 306.886 24.6248 306.883 24.6569C306.882 24.6598 306.882 24.6623 306.882 24.6646L306.774 25.3335L306.866 26.0756L306.866 26.0778L306.867 26.0886L306.873 26.1361L306.897 26.3333C306.918 26.5098 306.95 26.7755 306.991 27.1271C307.072 27.8301 307.191 28.876 307.339 30.236C307.635 32.9562 308.046 36.9322 308.502 41.9338C309.415 51.939 310.512 66.0378 311.242 82.3923C312.707 115.17 312.689 156.731 306.894 192.518L306.892 192.53C306.278 196.38 305.726 199.136 305.073 201.208C304.432 203.24 303.791 204.281 303.193 204.916C302.015 206.165 299.769 207.189 292.401 207.979C220.101 214.174 136.623 219.404 32.5234 207.986C26.9127 207.371 23.2971 206.659 20.9085 205.855C18.6038 205.08 17.8176 204.345 17.4475 203.872C16.9959 203.296 16.5998 202.406 16.0985 200.274C15.975 199.748 15.8407 199.122 15.69 198.419C15.3202 196.695 14.8519 194.51 14.202 192.229C3.86876 124.094 12.7525 35.2582 14.2422 26.294C14.3941 25.38 14.4991 24.5284 14.5983 23.7235C14.9057 21.2309 15.1577 19.1868 16.5749 17.1301C17.9988 15.0637 21.514 12.0775 31.9486 12.0775Z" fill="url(#paint2_linear_2_25329)"/>
<path d="M31.9486 12.0775H32.2715L32.5921 12.0381C130.503 -0.00284749 264.993 8.04531 292.142 12.0218C301.563 13.4019 304.697 17.1891 305.895 19.6297C306.572 21.0112 306.817 22.3454 306.888 23.3395C306.922 23.8307 306.913 24.2156 306.899 24.4478C306.893 24.5535 306.886 24.6248 306.883 24.6569C306.882 24.6598 306.882 24.6623 306.882 24.6646L306.774 25.3335L306.866 26.0756L306.866 26.0778L306.867 26.0886L306.873 26.1361L306.897 26.3333C306.918 26.5098 306.95 26.7755 306.991 27.1271C307.072 27.8301 307.191 28.876 307.339 30.236C307.635 32.9562 308.046 36.9322 308.502 41.9338C309.415 51.939 310.512 66.0378 311.242 82.3923C312.707 115.17 312.689 156.731 306.894 192.518L306.892 192.53C306.278 196.38 305.726 199.136 305.073 201.208C304.432 203.24 303.791 204.281 303.193 204.916C302.015 206.165 299.769 207.189 292.401 207.979C220.101 214.174 136.623 219.404 32.5234 207.986C26.9127 207.371 23.2971 206.659 20.9085 205.855C18.6038 205.08 17.8176 204.345 17.4475 203.872C16.9959 203.296 16.5998 202.406 16.0985 200.274C15.975 199.748 15.8407 199.122 15.69 198.419C15.3202 196.695 14.8519 194.51 14.202 192.229C3.86876 124.094 12.7525 35.2582 14.2422 26.294C14.3941 25.38 14.4991 24.5284 14.5983 23.7235C14.9057 21.2309 15.1577 19.1868 16.5749 17.1301C17.9988 15.0637 21.514 12.0775 31.9486 12.0775Z" stroke="black" stroke-width="10.5447"/>
</g>
</mask>
<g mask="url(#mask0_2_25329)">
<g style="mix-blend-mode:color-burn" opacity="0.8" filter="url(#filter2_d_2_25329)">
<path d="M31.9486 12.0775H32.2715L32.5921 12.0381C130.503 -0.00284749 264.993 8.04531 292.142 12.0218C301.563 13.4019 304.697 17.1891 305.895 19.6297C306.572 21.0112 306.817 22.3454 306.888 23.3395C306.922 23.8307 306.913 24.2156 306.899 24.4478C306.893 24.5535 306.886 24.6248 306.883 24.6569C306.882 24.6598 306.882 24.6623 306.882 24.6646L306.774 25.3335L306.866 26.0756L306.866 26.0778L306.867 26.0886L306.873 26.1361L306.897 26.3333C306.918 26.5098 306.95 26.7755 306.991 27.1271C307.072 27.8301 307.191 28.876 307.339 30.236C307.635 32.9562 308.046 36.9322 308.502 41.9338C309.415 51.939 310.512 66.0378 311.242 82.3923C312.707 115.17 312.689 156.731 306.894 192.518L306.892 192.53C306.278 196.38 305.726 199.136 305.073 201.208C304.432 203.24 303.791 204.281 303.193 204.916C302.015 206.165 299.769 207.189 292.401 207.979C220.101 214.174 136.623 219.404 32.5234 207.986C26.9127 207.371 23.2971 206.659 20.9085 205.855C18.6038 205.08 17.8176 204.345 17.4475 203.872C16.9959 203.296 16.5998 202.406 16.0985 200.274C15.975 199.748 15.8407 199.122 15.69 198.419C15.3202 196.695 14.8519 194.51 14.202 192.229C3.86876 124.094 12.7525 35.2582 14.2422 26.294C14.3941 25.38 14.4991 24.5284 14.5983 23.7235C14.9057 21.2309 15.1577 19.1868 16.5749 17.1301C17.9988 15.0637 21.514 12.0775 31.9486 12.0775Z" stroke="black" stroke-width="10.5447" shape-rendering="crispEdges"/>
</g>
<g style="mix-blend-mode:darken" opacity="0.5">
<g style="mix-blend-mode:color-burn" opacity="0.8">
<ellipse cx="282.152" cy="21.1201" rx="74.7005" ry="95.3413" fill="#C00C8A"/>
</g>
<g style="mix-blend-mode:color-burn" opacity="0.8">
<ellipse cx="42.5957" cy="197.131" rx="99.8935" ry="97.5021" fill="#C00C28"/>
</g>
<g style="mix-blend-mode:color-burn" opacity="0.8">
<ellipse cx="308.485" cy="178.26" rx="70.1387" ry="91.718" fill="#C0510C"/>
</g>
<g style="mix-blend-mode:lighten" opacity="0.8">
<ellipse cx="193.146" cy="93.0814" rx="66.3758" ry="86.0753" fill="#30C00C"/>
</g>
<g style="mix-blend-mode:color-burn" opacity="0.8">
<ellipse cx="85.3244" cy="35.2224" rx="68.3903" ry="94.9863" fill="#92C00C"/>
</g>
</g>
<g style="mix-blend-mode:color-burn" filter="url(#filter3_b_2_25329)">
<path d="M31.9486 212.816C136.579 224.292 220.469 219.024 292.906 212.816C307.455 211.264 309.622 208.47 312.098 192.949C323.862 120.314 312.098 25.0183 312.098 25.0183C312.098 25.0183 314.575 9.56779 292.906 6.39379C265.355 2.35834 130.388 -5.71207 31.9486 6.39379C9.04116 6.39379 9.91807 19.7414 9.04116 25.0183C7.49367 34.3305 -1.48411 124.039 9.04116 192.949C12.7557 205.676 9.04116 210.303 31.9486 212.816Z" fill="url(#paint3_linear_2_25329)" fill-opacity="0.01"/>
<path d="M306.882 24.2532L306.774 24.9221L306.866 25.6642L306.866 25.6664L306.867 25.6772L306.873 25.7247L306.897 25.9219C306.918 26.0984 306.95 26.3642 306.991 26.7157C307.072 27.4187 307.191 28.4646 307.339 29.8247C307.635 32.5449 308.046 36.5208 308.502 41.5224C309.415 51.5276 310.512 65.6265 311.242 81.9809C312.707 114.759 312.689 156.32 306.894 192.107L306.892 192.119C306.278 195.968 305.726 198.725 305.073 200.797C304.432 202.829 303.791 203.87 303.193 204.504C302.015 205.754 299.769 206.777 292.4 207.567C220.1 213.763 136.623 218.993 32.5234 207.575C26.9127 206.959 23.2971 206.248 20.9085 205.444C18.6038 204.669 17.8176 203.933 17.4476 203.461C16.9959 202.884 16.5998 201.994 16.0985 199.862C15.975 199.337 15.8407 198.711 15.69 198.008C15.3202 196.283 14.8519 194.099 14.202 191.818C3.86876 123.682 12.7525 34.8468 14.2422 25.8826C14.3941 24.9686 14.4991 24.117 14.5983 23.3121C14.9057 20.8195 15.1577 18.7754 16.5749 16.7187C17.9988 14.6523 21.514 11.6661 31.9486 11.6661H32.2715L32.5921 11.6267C130.503 -0.414225 264.993 7.63394 292.142 11.6105C301.563 12.9905 304.697 16.7778 305.895 19.2184C306.572 20.5998 306.817 21.9341 306.888 22.9281C306.922 23.4193 306.913 23.8043 306.899 24.0364C306.893 24.1416 306.886 24.2127 306.883 24.2451C306.882 24.2481 306.882 24.2508 306.882 24.2532ZM306.882 24.2532L306.881 24.2571C306.88 24.2683 306.88 24.2668 306.882 24.2532Z" stroke="black" stroke-opacity="0.01" stroke-width="10.5447"/>
</g>
<g filter="url(#filter4_i_2_25329)">
<path d="M48.1934 180.981H43.7168V177.583C43.7168 177.31 43.8125 177.075 44.0039 176.88C44.1992 176.685 44.4316 176.587 44.7012 176.587H47.6895V174.19H44.1738C44.0332 174.19 43.916 174.144 43.8223 174.05C43.7285 173.952 43.6816 173.835 43.6816 173.698C43.6816 173.562 43.7285 173.446 43.8223 173.353C43.916 173.255 44.0332 173.206 44.1738 173.206H47.6895C47.9629 173.206 48.1973 173.304 48.3926 173.499C48.5879 173.69 48.6855 173.921 48.6855 174.19V176.587C48.6855 176.864 48.5879 177.101 48.3926 177.296C48.1973 177.487 47.9629 177.583 47.6895 177.583H44.7012V179.997H48.1934C48.3262 179.997 48.4414 180.046 48.5391 180.144C48.6367 180.237 48.6855 180.353 48.6855 180.489C48.6855 180.626 48.6367 180.743 48.5391 180.841C48.4414 180.935 48.3262 180.981 48.1934 180.981ZM50.1063 173.206H50.5985C50.7352 173.206 50.8505 173.255 50.9442 173.353C51.0419 173.45 51.0907 173.565 51.0907 173.698C51.0907 173.835 51.0419 173.952 50.9442 174.05C50.8505 174.144 50.7352 174.19 50.5985 174.19V177.442H54.0673C54.2001 177.442 54.3153 177.493 54.413 177.595C54.5106 177.692 54.5595 177.81 54.5595 177.946V180.489C54.5595 180.626 54.5087 180.743 54.4071 180.841C54.3095 180.935 54.1923 180.981 54.0555 180.981H50.1063C49.9696 180.981 49.8505 180.933 49.7489 180.835C49.6512 180.737 49.6024 180.622 49.6024 180.489V173.698C49.6024 173.562 49.6512 173.446 49.7489 173.353C49.8466 173.255 49.9657 173.206 50.1063 173.206ZM50.5868 178.438V179.997H53.5634V178.438H50.5868ZM61.8073 179.997H63.319V174.19H61.8307C61.694 174.19 61.5768 174.144 61.4791 174.05C61.3854 173.952 61.3385 173.835 61.3385 173.698C61.3385 173.562 61.3854 173.446 61.4791 173.353C61.5768 173.255 61.694 173.206 61.8307 173.206H64.3034V179.997H65.2877V177.946C65.2877 177.813 65.3346 177.698 65.4284 177.601C65.526 177.503 65.6432 177.454 65.7799 177.454C65.9166 177.454 66.0319 177.503 66.1256 177.601C66.2233 177.694 66.2721 177.81 66.2721 177.946V180.489C66.2721 180.626 66.2233 180.743 66.1256 180.841C66.0319 180.935 65.9166 180.981 65.7799 180.981H61.8073C61.6705 180.981 61.5534 180.933 61.4557 180.835C61.362 180.733 61.3151 180.614 61.3151 180.478C61.3151 180.345 61.362 180.231 61.4557 180.138C61.5534 180.044 61.6705 179.997 61.8073 179.997ZM69.023 179.997H71.3023V177.583H68.3257V173.206H71.7945C71.9273 173.206 72.0425 173.255 72.1402 173.353C72.2378 173.45 72.2866 173.565 72.2866 173.698C72.2866 173.835 72.2378 173.952 72.1402 174.05C72.0464 174.144 71.9312 174.19 71.7945 174.19H69.3218V176.599H71.3023C71.5679 176.599 71.7984 176.696 71.9937 176.892C72.189 177.087 72.2866 177.317 72.2866 177.583V179.997C72.2866 180.267 72.189 180.499 71.9937 180.694C71.8023 180.886 71.5718 180.981 71.3023 180.981H69.023C68.8198 180.981 68.603 180.933 68.3726 180.835L67.6284 180.524C67.4292 180.442 67.3296 180.286 67.3296 180.056C67.3296 179.919 67.3745 179.804 67.4644 179.71C67.5542 179.612 67.6636 179.563 67.7925 179.563C67.8902 179.563 68.0034 179.593 68.1323 179.651L68.7827 179.927C68.8609 179.974 68.9409 179.997 69.023 179.997ZM79.429 179.997H80.9407V174.19H79.4524C79.3157 174.19 79.1985 174.144 79.1009 174.05C79.0071 173.952 78.9602 173.835 78.9602 173.698C78.9602 173.562 79.0071 173.446 79.1009 173.353C79.1985 173.255 79.3157 173.206 79.4524 173.206H81.9251V179.997H82.9095V177.946C82.9095 177.813 82.9563 177.698 83.0501 177.601C83.1477 177.503 83.2649 177.454 83.4016 177.454C83.5384 177.454 83.6536 177.503 83.7473 177.601C83.845 177.694 83.8938 177.81 83.8938 177.946V180.489C83.8938 180.626 83.845 180.743 83.7473 180.841C83.6536 180.935 83.5384 180.981 83.4016 180.981H79.429C79.2923 180.981 79.1751 180.933 79.0774 180.835C78.9837 180.733 78.9368 180.614 78.9368 180.478C78.9368 180.345 78.9837 180.231 79.0774 180.138C79.1751 180.044 79.2923 179.997 79.429 179.997ZM84.8107 179.985V177.583C84.8107 177.313 84.9084 177.083 85.1037 176.892C85.299 176.696 85.5334 176.599 85.8068 176.599V173.698C85.8068 173.562 85.8537 173.446 85.9474 173.353C86.0412 173.255 86.1584 173.206 86.299 173.206H88.3029C88.4396 173.206 88.5548 173.255 88.6486 173.353C88.7463 173.446 88.7951 173.562 88.7951 173.698V176.599C89.0607 176.599 89.2912 176.694 89.4865 176.886C89.6818 177.073 89.7795 177.306 89.7795 177.583V179.997C89.7795 180.267 89.6818 180.499 89.4865 180.694C89.2912 180.886 89.0607 180.981 88.7951 180.981H85.8068C85.5295 180.981 85.2931 180.88 85.0978 180.677C84.9064 180.474 84.8107 180.243 84.8107 179.985ZM86.7912 174.19V176.599H87.8107V174.19H86.7912ZM85.8068 177.583V179.997H88.7951V177.583H85.8068ZM96.5702 174.132V173.71C96.5702 173.573 96.6171 173.458 96.7109 173.364C96.8085 173.267 96.9257 173.218 97.0624 173.218H101.527V176.241C101.527 176.401 101.467 176.534 101.346 176.64L99.5351 178.187V180.478C99.5351 180.614 99.4863 180.733 99.3886 180.835C99.2948 180.933 99.1796 180.981 99.0429 180.981C98.9062 180.981 98.787 180.933 98.6855 180.835C98.5878 180.737 98.539 180.622 98.539 180.489V178.005C98.539 177.817 98.5976 177.673 98.7148 177.571L100.531 176.036V174.202H97.5546C97.4843 174.483 97.3202 174.624 97.0624 174.624C96.9257 174.624 96.8085 174.577 96.7109 174.483C96.6171 174.386 96.5702 174.269 96.5702 174.132ZM108.81 173.206H113.299V173.839L109.683 180.009H112.806C112.943 180.009 113.058 180.058 113.152 180.155C113.25 180.249 113.299 180.364 113.299 180.501C113.299 180.634 113.25 180.749 113.152 180.847C113.054 180.944 112.939 180.993 112.806 180.993H108.33V180.343L111.939 174.202H108.81C108.677 174.202 108.564 174.153 108.47 174.056C108.377 173.954 108.33 173.835 108.33 173.698C108.33 173.565 108.377 173.45 108.47 173.353C108.564 173.255 108.677 173.206 108.81 173.206ZM114.215 180.501V173.206H118.68C118.809 173.206 118.922 173.255 119.02 173.353C119.122 173.45 119.172 173.565 119.172 173.698C119.172 173.835 119.124 173.954 119.026 174.056C118.928 174.153 118.813 174.202 118.68 174.202H115.2V175.749H117.696C117.833 175.749 117.948 175.798 118.042 175.896C118.139 175.989 118.188 176.104 118.188 176.241C118.188 176.378 118.139 176.495 118.042 176.593C117.948 176.687 117.833 176.733 117.696 176.733H115.2V180.501C115.2 180.638 115.151 180.755 115.053 180.853C114.96 180.946 114.844 180.993 114.708 180.993C114.571 180.993 114.454 180.946 114.356 180.853C114.262 180.755 114.215 180.638 114.215 180.501ZM120.546 179.997H122.058V174.19H120.57C120.433 174.19 120.316 174.144 120.218 174.05C120.124 173.952 120.078 173.835 120.078 173.698C120.078 173.562 120.124 173.446 120.218 173.353C120.316 173.255 120.433 173.206 120.57 173.206H123.042V179.997H124.027V177.946C124.027 177.813 124.074 177.698 124.167 177.601C124.265 177.503 124.382 177.454 124.519 177.454C124.656 177.454 124.771 177.503 124.865 177.601C124.962 177.694 125.011 177.81 125.011 177.946V180.489C125.011 180.626 124.962 180.743 124.865 180.841C124.771 180.935 124.656 180.981 124.519 180.981H120.546C120.41 180.981 120.292 180.933 120.195 180.835C120.101 180.733 120.054 180.614 120.054 180.478C120.054 180.345 120.101 180.231 120.195 180.138C120.292 180.044 120.41 179.997 120.546 179.997ZM136.302 180.97H135.81C135.677 180.97 135.562 180.923 135.464 180.829C135.366 180.731 135.318 180.614 135.318 180.478C135.318 180.341 135.364 180.226 135.458 180.132C135.556 180.034 135.673 179.985 135.81 179.985V176.733H132.341C132.208 176.733 132.093 176.685 131.995 176.587C131.898 176.489 131.849 176.374 131.849 176.241V173.687C131.849 173.554 131.898 173.438 131.995 173.341C132.093 173.243 132.208 173.194 132.341 173.194H136.302C136.435 173.194 136.55 173.243 136.648 173.341C136.745 173.438 136.794 173.554 136.794 173.687V180.478C136.794 180.614 136.745 180.731 136.648 180.829C136.554 180.923 136.439 180.97 136.302 180.97ZM135.821 175.737V174.19H132.833V175.737H135.821ZM144.042 179.997H145.554V174.19H144.065C143.929 174.19 143.811 174.144 143.714 174.05C143.62 173.952 143.573 173.835 143.573 173.698C143.573 173.562 143.62 173.446 143.714 173.353C143.811 173.255 143.929 173.206 144.065 173.206H146.538V179.997H147.522V177.946C147.522 177.813 147.569 177.698 147.663 177.601C147.761 177.503 147.878 177.454 148.015 177.454C148.151 177.454 148.267 177.503 148.36 177.601C148.458 177.694 148.507 177.81 148.507 177.946V180.489C148.507 180.626 148.458 180.743 148.36 180.841C148.267 180.935 148.151 180.981 148.015 180.981H144.042C143.905 180.981 143.788 180.933 143.69 180.835C143.597 180.733 143.55 180.614 143.55 180.478C143.55 180.345 143.597 180.231 143.69 180.138C143.788 180.044 143.905 179.997 144.042 179.997ZM152.676 180.489V178.438H149.711V173.698C149.711 173.562 149.76 173.444 149.857 173.347C149.959 173.245 150.078 173.194 150.215 173.194C150.348 173.194 150.463 173.245 150.56 173.347C150.658 173.444 150.707 173.562 150.707 173.698V177.442H152.676V174.56C152.676 174.423 152.723 174.306 152.816 174.208C152.914 174.106 153.031 174.056 153.168 174.056C153.305 174.056 153.42 174.106 153.514 174.208C153.611 174.306 153.66 174.423 153.66 174.56V177.442C153.797 177.442 153.912 177.491 154.006 177.589C154.103 177.683 154.152 177.798 154.152 177.935C154.152 178.071 154.103 178.188 154.006 178.286C153.912 178.38 153.797 178.427 153.66 178.427V180.489C153.66 180.626 153.611 180.743 153.514 180.841C153.416 180.935 153.301 180.981 153.168 180.981C153.031 180.981 152.914 180.935 152.816 180.841C152.723 180.743 152.676 180.626 152.676 180.489ZM164.423 180.489V178.438H161.459V173.698C161.459 173.562 161.507 173.444 161.605 173.347C161.707 173.245 161.826 173.194 161.963 173.194C162.095 173.194 162.211 173.245 162.308 173.347C162.406 173.444 162.455 173.562 162.455 173.698V177.442H164.423V174.56C164.423 174.423 164.47 174.306 164.564 174.208C164.662 174.106 164.779 174.056 164.916 174.056C165.052 174.056 165.168 174.106 165.261 174.208C165.359 174.306 165.408 174.423 165.408 174.56V177.442C165.545 177.442 165.66 177.491 165.754 177.589C165.851 177.683 165.9 177.798 165.9 177.935C165.9 178.071 165.851 178.188 165.754 178.286C165.66 178.38 165.545 178.427 165.408 178.427V180.489C165.408 180.626 165.359 180.743 165.261 180.841C165.164 180.935 165.048 180.981 164.916 180.981C164.779 180.981 164.662 180.935 164.564 180.841C164.47 180.743 164.423 180.626 164.423 180.489ZM177.419 180.981H172.943V177.583C172.943 177.31 173.038 177.075 173.23 176.88C173.425 176.685 173.658 176.587 173.927 176.587H176.915V174.19H173.4C173.259 174.19 173.142 174.144 173.048 174.05C172.954 173.952 172.908 173.835 172.908 173.698C172.908 173.562 172.954 173.446 173.048 173.353C173.142 173.255 173.259 173.206 173.4 173.206H176.915C177.189 173.206 177.423 173.304 177.619 173.499C177.814 173.69 177.911 173.921 177.911 174.19V176.587C177.911 176.864 177.814 177.101 177.619 177.296C177.423 177.487 177.189 177.583 176.915 177.583H173.927V179.997H177.419C177.552 179.997 177.667 180.046 177.765 180.144C177.863 180.237 177.911 180.353 177.911 180.489C177.911 180.626 177.863 180.743 177.765 180.841C177.667 180.935 177.552 180.981 177.419 180.981ZM179.285 179.997H180.797V174.19H179.309C179.172 174.19 179.055 174.144 178.957 174.05C178.864 173.952 178.817 173.835 178.817 173.698C178.817 173.562 178.864 173.446 178.957 173.353C179.055 173.255 179.172 173.206 179.309 173.206H181.781V179.997H182.766V177.946C182.766 177.813 182.813 177.698 182.906 177.601C183.004 177.503 183.121 177.454 183.258 177.454C183.395 177.454 183.51 177.503 183.604 177.601C183.701 177.694 183.75 177.81 183.75 177.946V180.489C183.75 180.626 183.701 180.743 183.604 180.841C183.51 180.935 183.395 180.981 183.258 180.981H179.285C179.149 180.981 179.031 180.933 178.934 180.835C178.84 180.733 178.793 180.614 178.793 180.478C178.793 180.345 178.84 180.231 178.934 180.138C179.031 180.044 179.149 179.997 179.285 179.997ZM191.033 179.997H192.545V174.19H191.057C190.92 174.19 190.803 174.144 190.705 174.05C190.611 173.952 190.564 173.835 190.564 173.698C190.564 173.562 190.611 173.446 190.705 173.353C190.803 173.255 190.92 173.206 191.057 173.206H193.529V179.997H194.514V177.946C194.514 177.813 194.561 177.698 194.654 177.601C194.752 177.503 194.869 177.454 195.006 177.454C195.143 177.454 195.258 177.503 195.352 177.601C195.449 177.694 195.498 177.81 195.498 177.946V180.489C195.498 180.626 195.449 180.743 195.352 180.841C195.258 180.935 195.143 180.981 195.006 180.981H191.033C190.896 180.981 190.779 180.933 190.682 180.835C190.588 180.733 190.541 180.614 190.541 180.478C190.541 180.345 190.588 180.231 190.682 180.138C190.779 180.044 190.896 179.997 191.033 179.997ZM200.915 180.97H200.423C200.29 180.97 200.175 180.923 200.077 180.829C199.979 180.731 199.931 180.614 199.931 180.478C199.931 180.341 199.977 180.226 200.071 180.132C200.169 180.034 200.286 179.985 200.423 179.985V176.733H196.954C196.821 176.733 196.706 176.685 196.608 176.587C196.511 176.489 196.462 176.374 196.462 176.241V173.687C196.462 173.554 196.511 173.438 196.608 173.341C196.706 173.243 196.821 173.194 196.954 173.194H200.915C201.048 173.194 201.163 173.243 201.261 173.341C201.358 173.438 201.407 173.554 201.407 173.687V180.478C201.407 180.614 201.358 180.731 201.261 180.829C201.167 180.923 201.052 180.97 200.915 180.97ZM200.434 175.737V174.19H197.446V175.737H200.434ZM212.663 180.981H208.186V177.583C208.186 177.31 208.282 177.075 208.473 176.88C208.669 176.685 208.901 176.587 209.171 176.587H212.159V174.19H208.643C208.503 174.19 208.385 174.144 208.292 174.05C208.198 173.952 208.151 173.835 208.151 173.698C208.151 173.562 208.198 173.446 208.292 173.353C208.385 173.255 208.503 173.206 208.643 173.206H212.159C212.432 173.206 212.667 173.304 212.862 173.499C213.057 173.69 213.155 173.921 213.155 174.19V176.587C213.155 176.864 213.057 177.101 212.862 177.296C212.667 177.487 212.432 177.583 212.159 177.583H209.171V179.997H212.663C212.796 179.997 212.911 180.046 213.008 180.144C213.106 180.237 213.155 180.353 213.155 180.489C213.155 180.626 213.106 180.743 213.008 180.841C212.911 180.935 212.796 180.981 212.663 180.981ZM214.048 180.032V174.144C214.048 173.886 214.142 173.663 214.33 173.476C214.517 173.288 214.74 173.194 214.998 173.194H218.068C218.322 173.194 218.541 173.288 218.724 173.476C218.912 173.663 219.005 173.886 219.005 174.144V180.032C219.005 180.294 218.912 180.519 218.724 180.706C218.541 180.89 218.318 180.981 218.056 180.981H214.998C214.732 180.981 214.507 180.89 214.324 180.706C214.14 180.519 214.048 180.294 214.048 180.032ZM218.033 179.997V174.19H215.033V179.997H218.033ZM226.277 179.997H227.788V174.19H226.3C226.163 174.19 226.046 174.144 225.949 174.05C225.855 173.952 225.808 173.835 225.808 173.698C225.808 173.562 225.855 173.446 225.949 173.353C226.046 173.255 226.163 173.206 226.3 173.206H228.773V179.997H229.757V177.946C229.757 177.813 229.804 177.698 229.898 177.601C229.995 177.503 230.113 177.454 230.249 177.454C230.386 177.454 230.501 177.503 230.595 177.601C230.693 177.694 230.741 177.81 230.741 177.946V180.489C230.741 180.626 230.693 180.743 230.595 180.841C230.501 180.935 230.386 180.981 230.249 180.981H226.277C226.14 180.981 226.023 180.933 225.925 180.835C225.831 180.733 225.784 180.614 225.784 180.478C225.784 180.345 225.831 180.231 225.925 180.138C226.023 180.044 226.14 179.997 226.277 179.997ZM231.658 179.985V177.583C231.658 177.313 231.756 177.083 231.951 176.892C232.147 176.696 232.381 176.599 232.654 176.599V173.698C232.654 173.562 232.701 173.446 232.795 173.353C232.889 173.255 233.006 173.206 233.147 173.206H235.151C235.287 173.206 235.402 173.255 235.496 173.353C235.594 173.446 235.643 173.562 235.643 173.698V176.599C235.908 176.599 236.139 176.694 236.334 176.886C236.529 177.073 236.627 177.306 236.627 177.583V179.997C236.627 180.267 236.529 180.499 236.334 180.694C236.139 180.886 235.908 180.981 235.643 180.981H232.654C232.377 180.981 232.141 180.88 231.945 180.677C231.754 180.474 231.658 180.243 231.658 179.985ZM233.639 174.19V176.599H234.658V174.19H233.639ZM232.654 177.583V179.997H235.643V177.583H232.654ZM247.906 180.97H247.414C247.281 180.97 247.166 180.923 247.068 180.829C246.971 180.731 246.922 180.614 246.922 180.478C246.922 180.341 246.969 180.226 247.062 180.132C247.16 180.034 247.277 179.985 247.414 179.985V176.733H243.945C243.812 176.733 243.697 176.685 243.6 176.587C243.502 176.489 243.453 176.374 243.453 176.241V173.687C243.453 173.554 243.502 173.438 243.6 173.341C243.697 173.243 243.812 173.194 243.945 173.194H247.906C248.039 173.194 248.154 173.243 248.252 173.341C248.35 173.438 248.398 173.554 248.398 173.687V180.478C248.398 180.614 248.35 180.731 248.252 180.829C248.158 180.923 248.043 180.97 247.906 180.97ZM247.426 175.737V174.19H244.437V175.737H247.426ZM256.988 179.997H259.267V177.583H256.291V173.206H259.759C259.892 173.206 260.008 173.255 260.105 173.353C260.203 173.45 260.252 173.565 260.252 173.698C260.252 173.835 260.203 173.952 260.105 174.05C260.011 174.144 259.896 174.19 259.759 174.19H257.287V176.599H259.267C259.533 176.599 259.763 176.696 259.959 176.892C260.154 177.087 260.252 177.317 260.252 177.583V179.997C260.252 180.267 260.154 180.499 259.959 180.694C259.767 180.886 259.537 180.981 259.267 180.981H256.988C256.785 180.981 256.568 180.933 256.338 180.835L255.593 180.524C255.394 180.442 255.295 180.286 255.295 180.056C255.295 179.919 255.34 179.804 255.429 179.71C255.519 179.612 255.629 179.563 255.758 179.563C255.855 179.563 255.968 179.593 256.097 179.651L256.748 179.927C256.826 179.974 256.906 179.997 256.988 179.997ZM267.394 179.997H268.906V174.19H267.417C267.281 174.19 267.164 174.144 267.066 174.05C266.972 173.952 266.925 173.835 266.925 173.698C266.925 173.562 266.972 173.446 267.066 173.353C267.164 173.255 267.281 173.206 267.417 173.206H269.89V179.997H270.874V177.946C270.874 177.813 270.921 177.698 271.015 177.601C271.113 177.503 271.23 177.454 271.367 177.454C271.503 177.454 271.619 177.503 271.712 177.601C271.81 177.694 271.859 177.81 271.859 177.946V180.489C271.859 180.626 271.81 180.743 271.712 180.841C271.619 180.935 271.503 180.981 271.367 180.981H267.394C267.257 180.981 267.14 180.933 267.042 180.835C266.949 180.733 266.902 180.614 266.902 180.478C266.902 180.345 266.949 180.231 267.042 180.138C267.14 180.044 267.257 179.997 267.394 179.997ZM277.276 180.97H276.784C276.651 180.97 276.535 180.923 276.438 180.829C276.34 180.731 276.291 180.614 276.291 180.478C276.291 180.341 276.338 180.226 276.432 180.132C276.53 180.034 276.647 179.985 276.784 179.985V176.733H273.315C273.182 176.733 273.067 176.685 272.969 176.587C272.871 176.489 272.823 176.374 272.823 176.241V173.687C272.823 173.554 272.871 173.438 272.969 173.341C273.067 173.243 273.182 173.194 273.315 173.194H277.276C277.409 173.194 277.524 173.243 277.621 173.341C277.719 173.438 277.768 173.554 277.768 173.687V180.478C277.768 180.614 277.719 180.731 277.621 180.829C277.528 180.923 277.412 180.97 277.276 180.97ZM276.795 175.737V174.19H273.807V175.737H276.795Z" fill="#F08D1D"/>
</g>
</g>
<line x1="92.4219" y1="100.432" x2="228.168" y2="100.432" stroke="#F3F3F3"/>
<line x1="92.4219" y1="124.453" x2="228.168" y2="124.453" stroke="#F3F3F3"/>
</g>
</g>
<defs>
<filter id="filter0_d_2_25329" x="0" y="0" width="322" height="228" filterUnits="userSpaceOnUse" color-interpolation-filters="sRGB">
<feFlood flood-opacity="0" result="BackgroundImageFix"/>
<feColorMatrix in="SourceAlpha" type="matrix" values="0 0 0 0 0 0 0 0 0 0 0 0 0 0 0 0 0 0 127 0" result="hardAlpha"/>
<feOffset dy="4"/>
<feGaussianBlur stdDeviation="2"/>
<feComposite in2="hardAlpha" operator="out"/>
<feColorMatrix type="matrix" values="0 0 0 0 0 0 0 0 0 0 0 0 0 0 0 0 0 0 0.25 0"/>
<feBlend mode="normal" in2="BackgroundImageFix" result="effect1_dropShadow_2_25329"/>
<feBlend mode="normal" in="SourceGraphic" in2="effect1_dropShadow_2_25329" result="shape"/>
</filter>
<filter id="filter1_d_2_25329" x="2.19249" y="0" width="318.289" height="224.551" filterUnits="userSpaceOnUse" color-interpolation-filters="sRGB">
<feFlood flood-opacity="0" result="BackgroundImageFix"/>
<feColorMatrix in="SourceAlpha" type="matrix" values="0 0 0 0 0 0 0 0 0 0 0 0 0 0 0 0 0 0 127 0" result="hardAlpha"/>
<feOffset dy="2.4811"/>
<feGaussianBlur stdDeviation="1.24055"/>
<feComposite in2="hardAlpha" operator="out"/>
<feColorMatrix type="matrix" values="0 0 0 0 0 0 0 0 0 0 0 0 0 0 0 0 0 0 0.25 0"/>
<feBlend mode="normal" in2="BackgroundImageFix" result="effect1_dropShadow_2_25329"/>
<feBlend mode="normal" in="SourceGraphic" in2="effect1_dropShadow_2_25329" result="shape"/>
</filter>
<filter id="filter2_d_2_25329" x="1.5189" y="0.411377" width="318.289" height="224.551" filterUnits="userSpaceOnUse" color-interpolation-filters="sRGB">
<feFlood flood-opacity="0" result="BackgroundImageFix"/>
<feColorMatrix in="SourceAlpha" type="matrix" values="0 0 0 0 0 0 0 0 0 0 0 0 0 0 0 0 0 0 127 0" result="hardAlpha"/>
<feOffset dy="2.4811"/>
<feGaussianBlur stdDeviation="1.24055"/>
<feComposite in2="hardAlpha" operator="out"/>
<feColorMatrix type="matrix" values="0 0 0 0 0 0 0 0 0 0 0 0 0 0 0 0 0 0 0.25 0"/>
<feBlend mode="normal" in2="BackgroundImageFix" result="effect1_dropShadow_2_25329"/>
<feBlend mode="normal" in="SourceGraphic" in2="effect1_dropShadow_2_25329" result="shape"/>
</filter>
<filter id="filter3_b_2_25329" x="-102.662" y="-106.662" width="526.65" height="432.912" filterUnits="userSpaceOnUse" color-interpolation-filters="sRGB">
<feFlood flood-opacity="0" result="BackgroundImageFix"/>
<feGaussianBlur in="BackgroundImage" stdDeviation="53.3309"/>
<feComposite in2="SourceAlpha" operator="in" result="effect1_backgroundBlur_2_25329"/>
<feBlend mode="normal" in="SourceGraphic" in2="effect1_backgroundBlur_2_25329" result="shape"/>
</filter>
<filter id="filter4_i_2_25329" x="43.6816" y="173.194" width="234.086" height="8.79883" filterUnits="userSpaceOnUse" color-interpolation-filters="sRGB">
<feFlood flood-opacity="0" result="BackgroundImageFix"/>
<feBlend mode="normal" in="SourceGraphic" in2="BackgroundImageFix" result="shape"/>
<feColorMatrix in="SourceAlpha" type="matrix" values="0 0 0 0 0 0 0 0 0 0 0 0 0 0 0 0 0 0 127 0" result="hardAlpha"/>
<feOffset dy="1"/>
<feGaussianBlur stdDeviation="0.5"/>
<feComposite in2="hardAlpha" operator="arithmetic" k2="-1" k3="1"/>
<feColorMatrix type="matrix" values="0 0 0 0 0 0 0 0 0 0 0 0 0 0 0 0 0 0 0.25 0"/>
<feBlend mode="normal" in2="shape" result="effect1_innerShadow_2_25329"/>
</filter>
<linearGradient id="paint0_linear_2_25329" x1="948" y1="0" x2="948" y2="8923" gradientUnits="userSpaceOnUse">
<stop stop-color="#171515"/>
<stop offset="1" stop-color="#2C49A1" stop-opacity="0.51"/>
</linearGradient>
<linearGradient id="paint1_linear_2_25329" x1="176.797" y1="182.549" x2="176.797" y2="31.7477" gradientUnits="userSpaceOnUse">
<stop offset="0.0078125" stop-color="#9C4EA6"/>
<stop offset="0.304688" stop-color="#BA2C96"/>
<stop offset="0.627604" stop-color="#D01389"/>
<stop offset="0.981771" stop-color="#DD0582"/>
</linearGradient>
<linearGradient id="paint2_linear_2_25329" x1="176.123" y1="182.961" x2="176.123" y2="32.1591" gradientUnits="userSpaceOnUse">
<stop offset="0.0078125" stop-color="#9C4EA6"/>
<stop offset="0.304688" stop-color="#BA2C96"/>
<stop offset="0.627604" stop-color="#D01389"/>
<stop offset="0.981771" stop-color="#DD0582"/>
</linearGradient>
<linearGradient id="paint3_linear_2_25329" x1="176.123" y1="182.549" x2="176.123" y2="31.7477" gradientUnits="userSpaceOnUse">
<stop offset="0.0078125" stop-color="#9C4EA6"/>
<stop offset="0.304688" stop-color="#BA2C96"/>
<stop offset="0.627604" stop-color="#D01389"/>
<stop offset="0.981771" stop-color="#DD0582"/>
</linearGradient>
<clipPath id="clip0_2_25329">
<rect width="1896" height="8923" fill="white" transform="translate(-1324 -1337)"/>
</clipPath>
</defs>
</svg>
