<?xml version="1.0" standalone="no"?>
<!DOCTYPE svg PUBLIC "-//W3C//DTD SVG 20010904//EN"
 "http://www.w3.org/TR/2001/REC-SVG-20010904/DTD/svg10.dtd">
<svg version="1.0" xmlns="http://www.w3.org/2000/svg"
 width="916.000000pt" height="916.000000pt" viewBox="0 0 916.000000 916.000000"
 preserveAspectRatio="xMidYMid meet">
<metadata>
Created by potrace 1.14, written by Peter Selinger 2001-2017
</metadata>
<g transform="translate(0.000000,916.000000) scale(0.100000,-0.100000)"
fill="#000000" stroke="none">
<path d="M4420 8803 c-603 -31 -1155 -174 -1680 -434 -772 -384 -1390 -973
-1815 -1731 -42 -76 -75 -144 -72 -152 6 -15 55 -52 61 -45 1 2 38 67 80 144
601 1086 1656 1848 2866 2069 276 51 402 61 750 60 350 0 502 -13 790 -70 998
-196 1888 -757 2501 -1574 52 -69 119 -164 149 -212 l55 -87 53 -1 52 0 -56
88 c-339 527 -793 979 -1316 1307 -175 110 -496 273 -677 344 -556 219 -1177
324 -1741 294z"/>
<path d="M4540 7923 c0 -24 45 -160 71 -213 16 -34 28 -64 26 -67 -3 -2 -24
10 -48 26 -24 17 -81 42 -126 55 -45 14 -92 30 -105 37 -13 6 -21 9 -18 6 3
-3 56 -57 118 -121 82 -84 112 -121 112 -140 0 -23 -2 -24 -30 -16 -17 5 -55
23 -86 40 l-55 32 33 -47 c35 -50 63 -81 148 -160 54 -51 96 -125 86 -151 -7
-18 -28 -8 -71 33 -71 69 -190 151 -201 140 -3 -3 1 -11 9 -18 7 -8 30 -45 51
-84 22 -42 63 -95 101 -132 60 -59 86 -107 70 -133 -4 -6 -30 11 -63 41 -55
51 -139 109 -174 122 -27 10 26 -83 85 -148 64 -72 65 -99 1 -50 -18 14 -37
25 -43 25 -26 0 -6 -40 82 -162 27 -37 52 -81 57 -98 7 -26 6 -30 -10 -30 -11
0 -27 11 -36 25 -20 31 -37 33 -25 3 5 -13 14 -42 20 -65 l12 -43 122 0 122 0
12 28 c7 15 31 52 54 82 34 45 99 162 99 177 0 3 -18 -6 -40 -18 -22 -12 -42
-20 -46 -17 -5 5 39 70 103 153 11 14 33 64 33 75 0 13 -62 -25 -106 -66 -21
-18 -39 -32 -41 -30 -2 2 10 28 27 57 60 104 76 145 115 299 7 30 12 56 11 58
-6 6 -59 -55 -77 -88 l-18 -35 -1 37 c0 20 7 70 15 110 15 66 18 206 7 252 -7
27 -26 -34 -47 -149 -9 -52 -21 -97 -26 -101 -5 -3 -9 21 -9 53 0 32 -5 76
-10 98 -5 22 -11 72 -14 110 -13 163 -36 210 -34 68 2 -88 -16 -203 -32 -203
-4 0 -16 33 -25 73 -24 99 -69 195 -112 240 -33 33 -73 50 -73 30z"/>
<path d="M5719 7424 c-7 -9 -45 -32 -83 -51 -91 -46 -148 -85 -214 -147 -59
-56 -76 -56 -38 1 14 20 26 41 26 46 0 18 -90 -56 -173 -142 -85 -89 -127
-118 -92 -65 9 14 15 28 12 30 -4 5 -90 -85 -124 -131 -13 -16 -38 -51 -57
-76 -38 -50 -138 -214 -149 -241 -5 -16 0 -18 39 -18 44 0 51 -4 134 -80 l88
-80 49 19 c39 16 43 20 23 22 -14 1 -33 1 -42 0 -10 -1 -26 2 -35 8 -14 8 -15
11 -3 11 31 2 73 9 86 14 21 8 17 36 -7 44 -21 8 -21 8 2 24 13 8 50 18 82 22
32 4 75 14 95 21 34 13 30 14 -63 9 -80 -4 -96 -3 -81 7 20 12 186 61 186 54
0 -2 11 6 24 18 13 12 52 33 85 47 34 14 61 28 61 33 0 4 -37 4 -82 1 -91 -7
-208 10 -190 28 12 12 51 21 218 53 72 14 148 31 170 39 l39 14 -39 7 c-22 4
-74 9 -115 10 -152 4 -156 8 -29 35 162 35 224 48 263 56 l40 7 -30 7 c-16 3
-56 5 -87 3 -51 -2 -81 8 -61 20 5 3 62 12 128 22 66 9 131 20 145 25 14 5 38
11 54 15 46 10 17 25 -60 31 -41 4 -111 0 -173 -10 -57 -8 -108 -13 -113 -10
-12 7 296 158 364 178 29 9 71 20 93 26 22 5 49 16 60 24 18 13 8 14 -85 10
-140 -7 -200 -18 -279 -53 -85 -36 -133 -52 -140 -45 -3 3 15 24 40 47 25 23
51 50 58 60 17 21 -2 23 -20 1z"/>
<path d="M3150 7385 c-227 -40 -472 -156 -842 -399 -52 -34 -57 -46 -9 -22 35
18 41 19 41 7 0 -5 -24 -19 -52 -31 -132 -56 -316 -156 -306 -165 4 -4 198 31
223 41 11 4 59 29 107 56 94 53 248 118 248 104 0 -2 -25 -22 -55 -45 -93 -70
-160 -149 -142 -167 23 -24 206 69 387 196 159 111 267 180 282 180 20 0 -62
-77 -167 -157 -108 -82 -132 -106 -171 -170 -22 -37 -31 -43 -72 -48 -26 -4
-69 -14 -97 -23 -37 -12 -94 -16 -215 -18 -145 -1 -177 -4 -265 -28 -83 -22
-126 -28 -255 -31 -93 -2 -177 -9 -210 -18 -53 -14 -46 -15 186 -16 l240 -1
30 -31 c16 -17 50 -48 75 -70 l47 -39 41 15 c46 16 55 4 16 -21 -32 -21 -31
-28 5 -54 l30 -21 117 39 c65 22 145 48 178 59 l60 18 10 50 11 50 330 2 329
3 93 -86 92 -86 0 86 0 85 93 3 c74 3 86 5 59 12 -42 11 -37 24 22 58 49 29
174 74 182 65 3 -2 -17 -21 -43 -40 -54 -40 -112 -97 -97 -97 5 0 43 9 84 19
41 11 106 22 143 26 38 3 80 10 94 16 13 5 34 9 46 9 28 0 14 -14 -48 -44
l-50 -25 262 0 262 -1 -15 42 c-75 212 -268 408 -499 502 -154 64 -184 78
-285 133 -56 31 -152 67 -205 77 -64 13 -252 13 -325 1z m260 -344 c0 -5 -4
-11 -9 -13 -5 -1 -68 -60 -141 -130 -129 -125 -133 -128 -177 -128 -51 0 -50
10 5 41 49 26 90 57 206 157 93 79 116 93 116 73z m-310 -18 c0 -4 -58 -63
-129 -132 -134 -131 -131 -129 -206 -122 -25 2 -17 16 18 33 18 9 93 64 167
122 125 99 150 116 150 99z m495 -46 c-45 -32 -136 -120 -175 -170 -52 -66
-60 -69 -135 -56 -37 6 -65 16 -64 23 0 12 224 159 299 197 84 41 130 45 75 6z
m265 -47 c0 -5 -35 -35 -77 -66 -43 -32 -109 -88 -148 -126 -68 -67 -88 -78
-100 -58 -3 6 -17 10 -30 10 -13 0 -27 5 -30 10 -3 6 -17 10 -30 10 -13 0 -26
4 -29 9 -7 10 143 115 152 106 3 -3 -12 -23 -33 -45 -21 -22 -36 -43 -32 -46
8 -9 84 37 127 76 43 40 121 90 175 111 49 21 55 22 55 9z m-846 -92 c-34 -57
-60 -78 -96 -78 -21 0 -38 3 -38 8 0 9 111 81 128 81 8 1 10 -4 6 -11z"/>
<path d="M5935 6986 c-178 -35 -271 -94 -437 -278 l-70 -78 163 1 c90 0 158 3
151 6 -6 2 -10 9 -6 14 8 14 123 11 211 -6 43 -8 110 -15 148 -15 l70 0 -37
22 c-21 12 -38 27 -38 34 0 14 3 13 130 -29 69 -23 200 -45 200 -34 0 3 -31
23 -70 46 -101 60 -90 75 25 34 49 -18 172 -28 211 -19 l28 7 -49 29 c-27 16
-73 36 -102 45 -72 23 -78 38 -11 29 83 -12 301 -10 321 2 14 8 -9 15 -110 33
-70 12 -129 24 -131 26 -2 1 12 7 30 13 97 29 246 75 268 83 16 5 -28 6 -115
2 -180 -8 -237 -6 -361 17 -141 26 -330 33 -419 16z"/>
<path d="M674 6543 c16 -55 306 -1550 306 -1580 0 -4 4 -3 9 2 5 6 31 106 57
223 l48 214 -93 471 -92 472 -109 108 c-107 104 -137 126 -126 90z"/>
<path d="M1985 6538 c89 -375 293 -1247 320 -1372 20 -93 40 -178 45 -190 8
-23 18 18 64 269 l26 140 -111 480 -111 480 -112 107 c-61 59 -114 107 -119
108 -4 0 -5 -10 -2 -22z"/>
<path d="M3255 6548 c-2 -7 -70 -267 -150 -578 -81 -311 -165 -630 -187 -710
-22 -80 -84 -316 -137 -525 l-97 -380 -323 -5 -323 -5 117 -107 117 -108 324
0 324 0 6 24 c3 13 133 511 289 1107 l283 1084 -37 35 c-143 133 -201 181
-206 168z"/>
<path d="M4890 6346 l0 -216 -410 0 -410 0 0 -220 0 -220 120 0 120 0 0 115 0
115 410 0 410 0 0 214 0 215 -110 103 c-61 57 -115 105 -120 106 -6 2 -10 -78
-10 -212z"/>
<path d="M2440 6414 c-149 -74 -160 -85 -143 -131 l8 -22 95 33 c154 53 173
64 182 111 4 22 10 50 13 63 3 12 2 21 -2 20 -5 0 -73 -34 -153 -74z"/>
<path d="M8720 6426 c72 -106 100 -203 100 -346 0 -115 -14 -183 -56 -268 -37
-77 -142 -179 -221 -217 -35 -17 -63 -32 -62 -35 0 -3 37 -23 82 -44 198 -95
297 -270 297 -524 -1 -190 -57 -331 -180 -453 -135 -134 -298 -196 -535 -206
-198 -8 -364 23 -510 94 l-50 24 97 -95 c80 -79 112 -102 190 -140 114 -56
218 -84 363 -96 420 -34 725 126 832 437 34 102 43 273 19 377 -30 126 -68
187 -198 316 l-118 118 49 31 c159 102 241 263 241 470 0 178 -56 298 -209
454 -58 60 -118 118 -134 129 l-27 20 30 -46z"/>
<path d="M6861 6314 c30 -34 69 -122 85 -191 21 -88 14 -234 -15 -318 -43
-123 -131 -219 -259 -282 l-74 -37 39 -11 c118 -36 252 -148 305 -255 58 -117
79 -295 49 -420 -50 -207 -207 -356 -446 -422 -77 -21 -100 -22 -684 -28
l-605 -5 115 -107 114 -108 530 0 c676 0 752 8 923 92 281 138 389 475 246
766 -29 59 -58 95 -156 193 -66 66 -118 121 -117 123 2 1 24 14 49 28 56 33
124 99 162 158 50 78 70 161 71 285 0 120 -19 196 -70 284 -28 49 -215 241
-254 261 -23 12 -23 12 -8 -6z"/>
<path d="M2459 6221 c-111 -59 -133 -76 -126 -95 8 -20 46 -13 136 23 57 23
66 30 73 59 16 60 8 61 -83 13z"/>
<path d="M7988 6247 c-25 -8 -58 -21 -72 -30 -34 -23 -77 -98 -91 -161 l-11
-51 -255 -5 -255 -5 110 -102 111 -102 264 2 264 2 12 50 c15 67 37 106 79
143 35 30 90 52 132 52 19 0 21 4 14 38 -25 133 -159 209 -302 169z"/>
<path d="M5780 5900 l0 -230 120 0 120 0 0 125 0 125 194 2 193 3 -12 50 c-16
60 -80 124 -142 143 -26 8 -118 12 -257 12 l-216 0 0 -230z"/>
<path d="M3457 5936 c-5 -21 -6 -41 -3 -44 12 -11 17 7 14 44 l-3 39 -8 -39z"/>
<path d="M6050 5791 c0 -74 3 -91 15 -91 20 0 27 33 23 110 -2 52 -6 65 -20
68 -16 3 -18 -6 -18 -87z"/>
<path d="M6125 5793 c4 -49 8 -90 10 -92 2 -2 32 2 66 8 100 17 152 59 169
134 l8 37 -130 0 -130 0 7 -87z"/>
<path d="M4370 5800 l0 -50 190 0 c105 0 190 1 190 3 0 2 -31 25 -68 50 -83
56 -110 59 -136 14 -20 -34 -35 -23 -16 12 10 20 8 21 -75 21 l-85 0 0 -50z"/>
<path d="M4751 5828 c20 -38 161 -169 176 -164 8 3 13 -2 13 -12 0 -15 78 -92
93 -92 3 0 7 9 10 20 9 36 32 23 32 -18 0 -20 5 -44 12 -52 8 -10 13 -60 15
-140 l3 -125 24 50 c44 90 51 138 51 342 0 180 -1 193 -19 203 -12 6 -101 10
-221 10 l-201 0 12 -22z"/>
<path d="M1662 5755 c-6 -22 -38 -150 -72 -284 -34 -134 -74 -289 -90 -345
-15 -55 -65 -253 -110 -438 l-82 -338 -325 -2 -326 -3 119 -107 119 -107 325
-1 325 0 136 542 135 541 -71 291 c-69 281 -72 290 -83 251z"/>
<path d="M4798 5473 l-3 -198 -362 -3 -363 -2 0 -245 0 -245 120 0 120 0 0
135 0 135 360 0 360 0 0 209 0 209 -102 94 c-57 52 -109 98 -115 102 -10 5
-13 -38 -15 -191z"/>
<path d="M7660 5636 c0 -2 9 -26 21 -53 12 -26 34 -88 51 -138 16 -49 34 -94
39 -99 16 -18 11 152 -7 185 -26 52 -104 130 -104 105z"/>
<path d="M3403 5523 c-57 -24 -62 -29 -72 -69 -6 -24 -11 -45 -11 -47 0 -2 30
2 67 9 37 7 71 10 75 8 5 -3 8 24 8 60 0 36 -1 66 -2 65 -2 0 -31 -12 -65 -26z"/>
<path d="M7196 5495 c-3 -9 9 -41 26 -73 40 -73 98 -190 98 -197 0 -17 -19 1
-42 43 -25 43 -118 155 -118 141 0 -4 33 -64 73 -135 l73 -129 41 -3 c39 -3
40 -2 36 23 -3 14 -9 28 -14 31 -5 3 -9 11 -9 19 0 29 -128 276 -150 290 -4 3
-11 -2 -14 -10z"/>
<path d="M7641 5440 c-1 -9 24 -49 54 -90 67 -91 71 -115 9 -52 -46 47 -49 45
-26 -18 4 -9 -7 -5 -29 11 -57 43 -65 45 -39 10 55 -74 150 -161 175 -161 17
0 49 -22 96 -65 39 -36 74 -65 77 -65 4 0 17 18 28 40 19 33 20 41 8 51 -11 9
-18 6 -34 -12 l-20 -24 6 35 c5 35 2 39 -83 121 -48 47 -118 119 -155 160 -37
40 -67 67 -67 59z"/>
<path d="M3415 5381 c-22 -10 -57 -26 -77 -35 -44 -18 -28 27 -158 -470 -50
-192 -89 -354 -87 -360 4 -10 20 23 135 264 22 47 47 94 56 105 31 41 17 -27
-20 -95 -81 -147 -144 -280 -169 -355 -15 -44 -36 -100 -47 -125 -35 -78 -36
-83 -57 -159 -13 -46 -28 -79 -41 -88 -11 -8 -20 -22 -20 -32 0 -9 -4 -21 -9
-26 -5 -6 -12 -30 -16 -55 l-7 -45 21 19 c20 18 101 134 127 181 6 11 24 45
41 75 82 147 194 375 228 465 50 131 68 152 50 59 -20 -107 -43 -198 -64 -261
-30 -91 -44 -170 -33 -190 8 -13 17 -2 47 63 20 43 55 126 77 184 22 58 43
114 48 125 26 58 30 121 30 438 0 185 -3 337 -7 336 -5 0 -26 -8 -48 -18z"/>
<path d="M7094 5357 c-5 -7 -25 -24 -43 -39 l-32 -28 23 -30 c13 -16 50 -51
83 -77 58 -46 62 -48 112 -43 l53 5 -70 99 c-63 89 -95 125 -110 125 -3 0 -10
-5 -16 -12z"/>
<path d="M7952 5236 c53 -47 102 -95 109 -105 12 -16 31 -20 147 -24 90 -3
132 -1 132 6 0 25 -44 98 -75 126 -60 52 -134 74 -279 79 l-129 4 95 -86z"/>
<path d="M5780 5030 l0 -240 120 0 120 0 0 135 0 135 221 0 222 0 -7 31 c-8
44 -42 95 -80 124 -65 50 -100 55 -357 55 l-239 0 0 -240z"/>
<path d="M5100 5183 c0 -30 10 -61 36 -108 20 -36 38 -65 41 -65 2 0 1 4 -2
10 -3 5 -21 54 -40 107 -32 91 -34 95 -35 56z"/>
<path d="M7600 5215 c0 -4 15 -22 34 -41 27 -28 41 -35 65 -32 l30 3 -55 38
c-51 35 -74 44 -74 32z"/>
<path d="M7784 5030 c11 -72 62 -167 106 -196 36 -24 129 -58 137 -50 2 2 1
21 -3 42 -6 33 -21 52 -96 119 -49 44 -103 91 -120 105 l-31 25 7 -45z"/>
<path d="M5100 5028 l0 -38 -297 0 -298 -1 -69 -63 c-40 -37 -66 -68 -62 -75
5 -8 87 -11 275 -11 l268 0 122 -111 c66 -61 121 -108 121 -104 0 3 -12 28
-26 56 -29 57 -26 69 10 45 14 -9 28 -16 31 -16 3 0 5 42 5 94 0 88 -2 98 -40
177 -38 80 -39 82 -40 47z"/>
<path d="M8045 5000 c-30 -48 -31 -56 -6 -70 17 -8 22 -5 34 20 9 16 18 43 22
60 10 45 -19 39 -50 -10z"/>
<path d="M6050 4920 l0 -100 98 0 c112 0 163 12 211 47 35 27 70 92 71 131 l0
22 -190 0 -190 0 0 -100z"/>
<path d="M407 4919 c-22 -322 -16 -598 19 -869 82 -638 305 -1248 651 -1779
583 -895 1474 -1532 2502 -1790 1118 -281 2299 -94 3264 517 268 169 499 354
733 587 606 604 1003 1356 1168 2210 29 154 52 333 43 342 -4 3 -25 -2 -47
-12 -30 -14 -40 -24 -40 -42 0 -18 -5 -23 -24 -23 -13 0 -54 -9 -91 -21 -36
-11 -81 -19 -98 -17 l-32 3 30 17 c29 16 28 16 -60 11 -50 -3 -105 -11 -122
-19 -26 -10 -34 -10 -40 0 -5 7 -45 18 -90 25 -126 18 -260 57 -327 93 -16 9
-24 6 -41 -14 -19 -22 -23 -23 -32 -10 -8 13 -21 2 -72 -63 -35 -44 -77 -96
-93 -115 -17 -19 -58 -70 -91 -112 -33 -43 -64 -78 -68 -78 -17 0 25 78 65
117 22 23 54 66 69 95 15 30 59 91 98 137 38 47 68 88 67 91 -7 17 -168 161
-168 151 0 -24 -37 9 -43 38 -4 18 -18 36 -40 50 -37 22 -133 120 -161 164
-10 15 -22 27 -27 27 -5 0 -9 -12 -9 -27 -1 -75 -75 -223 -157 -313 -29 -34
-33 -43 -23 -55 16 -19 17 -18 -53 -36 -32 -8 -59 -18 -60 -24 -1 -5 25 -14
57 -20 67 -11 89 -35 32 -35 -19 0 -37 -4 -41 -9 -7 -12 57 -31 105 -31 l35
-1 -25 -14 c-14 -8 -34 -15 -45 -15 -20 -1 -20 -1 -1 -13 25 -15 76 -69 76
-79 0 -11 -38 -10 -58 1 -10 5 -51 53 -92 106 -51 65 -80 94 -90 91 -8 -3 -53
-19 -100 -35 -109 -38 -207 -51 -384 -51 l-144 0 -75 -74 c-62 -61 -83 -75
-118 -81 -86 -15 -307 -107 -325 -136 -3 -6 -1 -15 5 -19 7 -4 -15 -20 -56
-40 -80 -38 -108 -60 -92 -70 6 -4 -24 -34 -73 -72 -46 -36 -96 -80 -113 -98
l-30 -32 30 8 30 7 -22 -24 c-45 -50 -154 -229 -139 -229 3 0 28 19 55 43 27
23 73 62 102 87 106 91 115 88 39 -16 -27 -38 -50 -72 -50 -76 0 -21 23 -1 91
75 156 175 229 234 176 145 -14 -24 -35 -61 -47 -83 -12 -22 -27 -47 -34 -55
-15 -21 -36 -58 -36 -67 0 -3 11 4 25 17 l25 23 0 -23 c0 -23 1 -23 36 11 44
41 72 85 134 205 49 95 84 143 97 130 7 -7 -9 -38 -66 -126 -39 -59 -81 -143
-81 -161 0 -23 29 12 74 89 52 89 126 191 126 174 0 -6 -17 -40 -38 -74 -54
-88 -102 -181 -102 -196 0 -26 26 -5 65 54 55 82 84 118 91 111 3 -3 -6 -26
-21 -51 -15 -25 -25 -51 -23 -58 6 -18 64 60 109 147 50 98 132 222 137 207 3
-11 -46 -123 -58 -132 -12 -8 -107 -197 -114 -226 -10 -38 12 -27 54 28 64 84
85 109 117 146 18 20 33 40 33 45 0 4 5 7 11 7 7 0 5 -9 -5 -22 -17 -25 -66
-112 -78 -140 -11 -27 16 -11 42 24 20 27 24 29 29 15 5 -14 16 -6 51 37 25
30 48 55 53 56 4 0 7 -26 7 -57 l0 -56 26 24 26 24 -7 -30 -7 -30 34 39 c34
38 35 38 41 15 14 -52 11 -56 -75 -79 -45 -12 -88 -25 -97 -29 -9 -5 -38 -19
-66 -32 -69 -33 -180 -108 -195 -132 -11 -18 -10 -19 12 -14 20 5 19 2 -11
-25 l-34 -31 27 -19 c54 -40 69 -108 45 -218 -6 -28 -9 -53 -7 -55 2 -2 42 26
88 62 47 36 109 81 138 101 29 20 52 42 52 52 0 10 7 33 15 51 l16 34 -4 -42
-5 -42 33 22 c25 16 37 34 45 64 12 48 33 60 24 13 -6 -30 8 -42 22 -19 11 19
87 49 125 49 35 0 37 2 42 41 9 68 27 72 27 7 0 -49 3 -58 21 -63 11 -4 21 -5
22 -3 21 35 46 93 57 131 8 26 18 47 22 47 11 0 10 -28 -3 -51 -5 -11 -17 -54
-24 -95 -14 -68 -13 -77 2 -100 9 -14 21 -48 28 -76 l11 -51 18 39 c11 21 44
64 74 96 53 54 55 58 56 115 3 85 31 128 99 148 28 8 62 15 76 15 18 0 44 19
88 62 34 34 66 59 70 55 4 -4 -19 -34 -51 -66 l-57 -58 39 -26 c29 -19 42 -23
51 -14 15 15 27 1 13 -16 -8 -9 -6 -26 5 -60 13 -41 14 -57 3 -104 -15 -69
-66 -129 -116 -139 -19 -3 -34 -8 -34 -10 0 -1 10 -19 21 -39 18 -30 21 -47
17 -106 -3 -38 -4 -69 -1 -69 2 0 15 7 28 16 36 24 30 4 -12 -42 -31 -33 -82
-144 -66 -144 3 0 18 9 34 21 16 11 29 16 29 11 0 -9 -42 -53 -72 -75 -16 -12
-92 -167 -82 -167 3 0 21 12 40 26 59 45 47 21 -22 -46 -61 -59 -127 -160
-104 -160 11 0 85 48 170 110 66 49 130 84 138 76 7 -7 -15 -49 -39 -75 -30
-32 -130 -105 -214 -156 -112 -68 -202 -136 -214 -162 -6 -14 -7 -23 -1 -23
14 0 87 39 160 85 111 71 120 76 120 67 0 -5 -24 -32 -53 -59 -113 -107 -119
-168 -6 -66 22 20 39 30 39 22 0 -8 -42 -54 -92 -103 -55 -53 -88 -91 -80 -93
16 -6 48 14 133 83 98 80 105 72 29 -29 -28 -36 -50 -68 -50 -71 0 -10 35 7
58 27 24 22 31 8 8 -16 -8 -7 -29 -38 -47 -68 -18 -30 -38 -61 -44 -69 -7 -8
-16 -26 -20 -39 l-7 -23 43 25 c74 44 151 130 199 222 25 46 46 80 48 75 4
-10 -29 -127 -50 -183 -16 -42 -4 -42 28 0 49 65 63 98 83 195 11 51 23 101
26 111 8 20 25 23 25 5 0 -28 -19 -176 -26 -204 -7 -26 -6 -28 9 -16 9 8 19
34 23 58 8 56 22 57 26 2 l4 -43 19 40 c21 46 25 167 8 250 -16 74 -26 225
-16 225 21 0 67 -172 77 -288 5 -65 12 -74 22 -30 13 60 10 172 -7 248 -10 41
-16 76 -14 78 6 7 62 -96 74 -138 7 -25 19 -56 27 -70 l13 -25 1 29 c0 21 4
27 15 22 11 -4 15 1 15 19 0 35 -26 148 -55 239 -26 83 -26 103 0 70 17 -20
85 -158 85 -171 1 -4 10 -26 21 -48 l20 -40 -5 50 c-2 28 -16 73 -29 100 -29
58 -51 124 -44 131 2 3 33 -40 67 -96 35 -55 65 -98 67 -96 15 14 -40 164
-117 324 -50 102 -89 187 -87 188 12 13 78 -84 147 -216 104 -199 119 -215 84
-88 -13 45 -14 62 -5 71 18 18 35 -8 33 -49 -3 -33 -1 -35 13 -21 8 9 15 23
15 31 0 33 90 220 101 209 9 -9 -15 -98 -60 -223 -17 -47 -31 -88 -31 -92 0
-17 18 -7 23 12 3 11 10 20 15 20 6 0 2 -25 -8 -57 -10 -32 -21 -78 -24 -103
l-7 -45 44 70 c25 39 52 79 61 90 16 20 17 19 11 -5 -4 -14 -10 -34 -15 -45
-17 -39 -50 -163 -50 -187 0 -22 1 -22 24 7 14 17 40 54 58 82 18 29 37 53 42
53 9 0 1 -56 -18 -115 -24 -74 -28 -97 -14 -89 14 9 -59 -96 -140 -201 -115
-149 -258 -308 -402 -448 -517 -502 -1160 -862 -1850 -1036 -165 -41 -357 -78
-365 -69 -3 2 15 42 39 89 84 164 210 401 246 464 29 52 82 150 160 300 123
236 189 358 278 515 23 40 154 255 192 315 8 13 32 48 53 78 37 53 38 56 27
97 -13 50 -7 111 21 190 10 30 19 55 19 57 0 9 -90 -100 -158 -192 -127 -173
-175 -244 -295 -440 -49 -79 -63 -104 -78 -130 -9 -16 -26 -46 -38 -65 -12
-19 -24 -43 -27 -52 -4 -10 -10 -18 -15 -18 -5 0 -9 -4 -9 -9 0 -5 -18 -41
-40 -80 -22 -38 -49 -87 -61 -108 -27 -47 -92 -168 -136 -251 -18 -34 -45 -84
-59 -110 -15 -26 -47 -85 -72 -132 -24 -47 -57 -107 -72 -135 -15 -27 -48 -88
-73 -135 -25 -47 -57 -107 -73 -135 -21 -40 -75 -143 -79 -152 0 -1 -90 -7
-200 -12 -340 -18 -715 11 -1042 80 -198 42 -425 107 -440 126 -9 12 -11 88
-8 307 3 160 7 309 9 331 2 22 7 87 11 145 6 104 25 304 46 475 5 50 12 104
13 120 2 17 7 55 11 85 l7 55 -43 12 c-70 19 -139 79 -175 150 l-30 61 -18
-91 c-9 -51 -41 -218 -71 -372 -29 -154 -56 -305 -60 -335 -3 -30 -12 -91 -20
-135 -16 -95 -37 -238 -41 -280 -1 -16 -7 -73 -13 -125 -6 -52 -13 -128 -15
-168 -2 -41 -7 -77 -11 -80 -16 -17 -392 189 -600 328 -1153 772 -1835 2057
-1835 3458 0 164 -3 194 -26 285 -14 56 -29 108 -33 115 -5 8 -11 -26 -14 -79z
m6499 -841 c65 -49 262 -214 302 -252 23 -22 42 -35 42 -29 0 8 7 8 24 0 23
-11 23 -13 9 -29 -20 -22 -5 -43 37 -52 20 -4 30 -11 30 -24 0 -30 -13 -35
-26 -10 -7 13 -19 23 -26 23 -15 0 -47 24 -152 111 -34 27 -112 92 -173 143
-87 71 -113 99 -113 117 0 30 9 30 46 2z m1227 -29 c20 -5 37 -13 37 -18 0 -4
-16 -15 -36 -25 -35 -16 -41 -16 -115 0 -80 17 -98 30 -56 39 68 14 125 16
170 4z m117 -29 c0 -5 -5 -10 -11 -10 -5 0 -7 5 -4 10 3 6 8 10 11 10 2 0 4
-4 4 -10z m-1940 -49 c0 -20 -18 -31 -51 -31 -27 0 -24 12 9 32 36 22 42 22
42 -1z m120 -1 c0 -5 -5 -10 -11 -10 -5 0 -7 5 -4 10 3 6 8 10 11 10 2 0 4 -4
4 -10z m1590 -7 c0 -5 -19 -15 -43 -25 -45 -17 -177 -25 -177 -10 0 5 28 15
63 24 68 16 157 22 157 11z m-120 -59 c0 -3 -25 -17 -55 -30 -54 -25 -57 -25
-96 -10 -21 9 -43 15 -48 13 -5 -1 -9 3 -10 8 -1 6 33 11 80 11 44 1 83 5 86
8 8 8 43 8 43 0z m-673 -28 c15 -13 24 -28 20 -32 -10 -10 -36 6 -55 34 -19
30 0 28 35 -2z m1082 -112 c40 -52 71 -98 68 -100 -7 -8 -55 7 -65 19 -12 15
-92 164 -92 172 0 19 25 -7 89 -91z m70 19 c32 -39 91 -144 91 -162 0 -22 -40
13 -54 49 -8 19 -35 63 -60 98 -25 34 -46 64 -46 67 0 13 41 -18 69 -52z m261
-78 c0 -8 -3 -15 -7 -15 -9 0 -53 74 -53 87 1 15 60 -57 60 -72z m-512 27 c6
-18 -15 -14 -22 4 -4 10 -1 14 6 12 6 -2 14 -10 16 -16z m-1492 -19 c-10 -10
-19 5 -10 18 6 11 8 11 12 0 2 -7 1 -15 -2 -18z m1965 -46 c11 -21 18 -41 15
-44 -5 -5 -53 66 -63 95 -13 32 27 -9 48 -51z m-2153 -24 c-12 -20 -24 -31
-26 -24 -5 14 24 61 38 61 5 0 0 -16 -12 -37z m1060 -17 c32 -17 65 -51 61
-64 -2 -4 -46 6 -97 24 -79 27 -91 34 -75 43 26 15 79 14 111 -3z m241 -29
c12 -23 41 -149 36 -155 -2 -2 -17 4 -34 13 -31 16 -32 16 -29 90 2 41 6 75 9
75 3 0 11 -10 18 -23z m-775 -14 c-4 -16 -12 -33 -18 -40 -15 -16 -189 -53
-200 -43 -11 11 11 67 30 74 10 4 12 -2 7 -27 l-6 -32 41 38 c47 41 78 49 69
17 -4 -16 -2 -18 12 -11 9 5 25 19 35 30 26 29 38 26 30 -6z m876 -27 c6 -19
26 -65 45 -102 19 -38 35 -77 35 -86 0 -10 4 -18 9 -18 10 0 21 59 21 117 0
23 4 44 9 48 19 11 36 -42 41 -130 l5 -90 22 35 c13 19 23 45 23 57 0 12 4 24
9 27 5 3 9 -11 9 -32 -1 -166 6 -164 52 14 17 65 33 120 36 123 3 3 5 -46 4
-109 -2 -166 -3 -160 19 -130 11 13 25 41 32 62 7 21 16 38 21 38 15 0 8 -71
-14 -151 -11 -44 -18 -82 -14 -87 10 -9 81 69 98 109 14 30 36 42 23 12 -4
-10 -14 -40 -21 -68 -7 -27 -21 -76 -29 -108 -9 -33 -14 -62 -10 -65 12 -12
62 57 101 139 21 43 39 77 41 75 4 -4 -35 -153 -47 -181 -11 -25 -30 -96 -30
-114 0 -8 17 8 37 35 20 27 38 51 40 53 2 2 5 2 8 -1 5 -4 -66 -172 -102 -242
l-15 -29 -52 99 c-109 207 -252 394 -409 530 -34 29 -36 34 -33 85 2 30 4 71
5 92 1 44 15 41 31 -7z m-171 -12 c13 -25 21 -47 18 -50 -2 -3 -18 3 -35 13
-24 14 -30 23 -29 50 1 46 19 41 46 -13z m911 6 c0 -5 -2 -10 -4 -10 -3 0 -8
5 -11 10 -3 6 -1 10 4 10 6 0 11 -4 11 -10z m-1920 -45 c0 -27 -5 -30 -62 -39
-50 -6 -50 12 0 41 49 29 62 28 62 -2z m424 -30 c6 -16 -38 -74 -49 -63 -8 8
24 78 35 78 4 0 10 -7 14 -15z m-129 -143 c-10 -10 -16 -12 -13 -7 3 6 8 19
13 30 5 14 9 16 12 7 3 -8 -3 -21 -12 -30z m-77 -37 c-4 -46 -10 -61 -36 -86
-38 -37 -40 -25 -12 51 12 30 23 63 27 73 12 38 25 15 21 -38z m832 -180 c0
-8 -4 -15 -10 -15 -5 0 -10 7 -10 15 0 8 5 15 10 15 6 0 10 -7 10 -15z m-60
-22 c0 -20 -24 -11 -28 10 -2 12 1 15 12 11 9 -3 16 -13 16 -21z m51 -44 c16
-31 -1 -45 -22 -18 -10 13 -19 29 -19 36 0 18 29 4 41 -18z m80 -11 c-1 -5 -1
-18 -1 -29 0 -18 -2 -19 -15 -9 -20 17 -20 52 1 48 8 -2 15 -6 15 -10z m-16
-67 c8 -17 21 -33 27 -37 7 -4 10 -4 6 1 -8 9 22 65 34 65 15 0 10 -27 -28
-139 -3 -9 -21 13 -44 53 -37 63 -42 86 -20 86 5 0 16 -13 25 -29z m-15 -143
c29 -52 38 -88 22 -88 -5 0 -18 21 -29 48 -44 103 -41 123 7 40z m130 15 c0
-18 -35 -103 -42 -103 -12 0 -9 26 8 70 14 35 34 54 34 33z"/>
<path d="M4370 4954 c0 -33 2 -35 18 -23 9 8 27 24 39 36 l22 23 -39 0 c-39 0
-40 -1 -40 -36z"/>
<path d="M8090 4878 c0 -19 2 -20 10 -8 13 19 13 30 0 30 -5 0 -10 -10 -10
-22z"/>
<path d="M4890 4561 l0 -211 -677 -2 -676 -3 119 -107 119 -108 677 0 678 0
-1 218 0 217 -76 65 c-41 36 -95 82 -119 103 l-44 39 0 -211z"/>
<path d="M3448 4518 c-16 -84 -15 -128 3 -128 17 0 20 24 17 121 l-3 94 -17
-87z"/>
<path d="M3645 4128 c-21 -67 -70 -209 -95 -278 -17 -47 -35 -101 -40 -120 -4
-19 -30 -102 -55 -185 -64 -203 -84 -270 -100 -335 -8 -30 -28 -109 -45 -175
-45 -170 -46 -178 -13 -119 64 111 132 203 223 299 l95 100 24 95 c30 124 52
205 105 380 9 30 27 93 40 140 13 47 29 97 35 113 10 27 10 27 -31 27 -32 0
-48 7 -79 35 -41 37 -57 43 -64 23z"/>
<path d="M5149 4072 l-46 -3 33 -63 c22 -42 35 -82 39 -121 3 -33 8 -61 9 -63
11 -10 26 202 17 233 -5 17 -13 20 -52 17z"/>
<path d="M2331 4053 c-26 -51 -92 -225 -89 -235 6 -17 95 98 141 183 l38 69
-40 0 c-28 0 -43 -5 -50 -17z"/>
<path d="M2466 4037 c-69 -118 -138 -295 -151 -392 l-7 -50 26 38 c14 21 44
62 66 91 22 29 63 100 91 157 52 107 93 169 110 169 13 0 11 -51 -5 -96 -22
-63 -39 -179 -31 -210 l7 -29 37 41 c30 34 151 279 151 307 0 4 -62 7 -137 7
l-138 0 -19 -33z"/>
<path d="M2830 4040 c0 -16 4 -30 8 -30 4 0 16 14 25 30 l18 30 -25 0 c-22 0
-26 -4 -26 -30z"/>
<path d="M4302 4044 c-79 -91 -94 -114 -184 -284 -22 -41 -46 -82 -54 -91 -8
-8 -14 -19 -14 -24 0 -4 30 22 68 60 57 57 199 165 217 165 3 0 33 18 67 40
33 23 63 38 66 36 15 -15 -66 -154 -163 -280 -37 -48 -65 -90 -61 -93 7 -8 81
53 184 151 80 76 92 85 73 48 -5 -9 -16 -33 -24 -52 -9 -19 -41 -75 -73 -125
-131 -207 -201 -356 -183 -388 5 -9 15 -47 22 -84 l12 -68 18 36 c9 20 23 39
31 42 11 4 11 -5 0 -57 -12 -57 -19 -81 -45 -141 -28 -66 -69 -211 -69 -245 0
-56 29 -55 63 3 14 23 57 82 95 130 38 49 83 116 100 150 28 56 81 210 98 280
8 35 16 28 20 -20 8 -76 26 -167 40 -202 l15 -36 19 25 c11 14 22 49 25 80 3
30 13 96 21 147 14 82 20 163 23 331 2 99 36 50 52 -73 12 -103 18 -156 19
-190 l1 -30 19 23 c33 40 58 150 70 307 17 242 21 274 31 281 22 13 79 -190
62 -219 -2 -4 -1 -17 3 -29 6 -20 7 -20 19 8 31 75 48 275 31 372 l-8 42 -341
0 -342 0 -23 -26z"/>
<path d="M5648 4063 c6 -2 18 -2 25 0 6 3 1 5 -13 5 -14 0 -19 -2 -12 -5z"/>
<path d="M5767 4024 c-106 -71 -78 -70 78 2 81 38 86 44 35 44 -37 0 -58 -9
-113 -46z"/>
<path d="M5940 4052 c-67 -45 -130 -95 -130 -103 0 -14 78 24 170 85 l55 36
-35 -1 c-19 0 -46 -8 -60 -17z"/>
<path d="M6035 4023 c-60 -47 -75 -61 -75 -76 0 -11 38 11 94 55 64 51 74 39
13 -16 -61 -56 -65 -88 -6 -51 49 31 100 61 154 88 89 46 88 47 -20 47 l-100
0 -60 -47z"/>
<path d="M5621 2472 c-19 -26 -27 -41 -18 -33 21 16 22 3 2 -23 -8 -11 -15
-29 -15 -40 1 -18 5 -16 35 16 29 32 35 45 35 83 0 25 -1 45 -2 45 -2 -1 -18
-22 -37 -48z m15 -10 c-18 -16 -18 -16 -6 6 6 13 14 21 18 18 3 -4 -2 -14 -12
-24z"/>
</g>
</svg>
