<svg width="250" height="250" viewBox="0 0 250 250" fill="none" xmlns="http://www.w3.org/2000/svg">
<g style="mix-blend-mode:hard-light" filter="url(#filter0_f_195_5076)">
<path d="M208.248 166.508C215.916 152.782 203.863 163.763 165.246 163.763C102.801 167.332 87.8632 126.153 80.8907 148.389C73.9181 170.626 105.266 180.784 165.246 182.98C176.226 182.98 185.105 182.023 192.36 180.167M208.248 166.508C211.534 170.352 202.479 177.58 192.36 180.167M208.248 166.508C200.031 173.097 132.656 180.661 90.2045 154.704M192.36 180.167C181.407 207.688 98.6948 218.12 56.7889 196.158C16.2564 170.077 32.9631 105.288 53.7762 86.6204C77.332 30.342 117.045 34.7345 135.667 54.226C165.246 33.9109 192.36 49.2846 192.36 68.7761C207.962 72.9904 214.547 86.895 215.916 91.2875C220.572 103.367 214.273 118.466 194.553 125.055M194.553 125.055C194.553 125.055 213.999 145.37 208.248 158.822M194.553 125.055C171.547 125.878 161.14 109.681 161.14 94.0328C158.949 88.8167 148.541 88.7593 148.541 95.4054C148.541 104.85 144.369 112.667 138.243 118.191C125.55 129.64 104.472 131.246 94.756 117.093C90.488 110.876 88.4128 101.618 90.2045 88.8167C92.3955 77.5611 106.647 76.6432 148.541 80.3063H163.057C163.057 80.3063 204.961 78.6592 210.439 81.9535" stroke="#FF5C00" stroke-width="3.25" stroke-linecap="round" stroke-linejoin="round"/>
</g>
<g style="mix-blend-mode:hard-light" filter="url(#filter1_f_195_5076)">
<path d="M208.248 166.508C215.916 152.782 203.863 163.763 165.246 163.763C102.801 167.332 87.8632 126.153 80.8907 148.389C73.9181 170.626 105.266 180.784 165.246 182.98C176.226 182.98 185.105 182.023 192.36 180.167M208.248 166.508C211.534 170.352 202.479 177.58 192.36 180.167M208.248 166.508C200.031 173.097 132.656 180.661 90.2045 154.704M192.36 180.167C181.407 207.688 98.6948 218.12 56.7889 196.158C16.2564 170.077 32.9631 105.288 53.7762 86.6204C77.332 30.342 117.045 34.7345 135.667 54.226C165.246 33.9109 192.36 49.2846 192.36 68.7761C207.962 72.9904 214.547 86.895 215.916 91.2875C220.572 103.367 214.273 118.466 194.553 125.055M194.553 125.055C194.553 125.055 213.999 145.37 208.248 158.822M194.553 125.055C171.547 125.878 161.14 109.681 161.14 94.0328C158.949 88.8167 148.541 88.7593 148.541 95.4054C148.541 104.85 144.369 112.667 138.243 118.191C125.55 129.64 104.472 131.246 94.756 117.093C90.488 110.876 88.4128 101.618 90.2045 88.8167C92.3955 77.5611 106.647 76.6432 148.541 80.3063H163.057C163.057 80.3063 204.961 78.6592 210.439 81.9535" stroke="#FF0000" stroke-width="4.25" stroke-linecap="round" stroke-linejoin="round"/>
</g>
<g style="mix-blend-mode:hard-light" filter="url(#filter2_ddi_195_5076)">
<path d="M208.248 166.508C215.916 152.782 203.863 163.763 165.246 163.763C102.801 167.332 87.8632 126.153 80.8907 148.389C73.9181 170.626 105.266 180.784 165.246 182.98C176.226 182.98 185.105 182.023 192.36 180.167M208.248 166.508C211.534 170.352 202.479 177.58 192.36 180.167M208.248 166.508C200.031 173.097 132.656 180.661 90.2045 154.704M192.36 180.167C181.407 207.688 98.6948 218.12 56.7889 196.158C16.2564 170.077 32.9631 105.288 53.7762 86.6204C77.332 30.342 117.045 34.7345 135.667 54.226C165.246 33.9109 192.36 49.2846 192.36 68.7761C207.962 72.9904 214.547 86.895 215.916 91.2875C220.572 103.367 214.273 118.466 194.553 125.055M194.553 125.055C194.553 125.055 213.999 145.37 208.248 158.822M194.553 125.055C171.547 125.878 161.14 109.681 161.14 94.0328C158.949 88.8167 148.541 88.7593 148.541 95.4054C148.541 104.85 144.369 112.667 138.243 118.191C125.55 129.64 104.472 131.246 94.756 117.093C90.488 110.876 88.4128 101.618 90.2045 88.8167C92.3955 77.5611 106.647 76.6432 148.541 80.3063H163.057C163.057 80.3063 204.961 78.6592 210.439 81.9535" stroke="#FF0000" stroke-opacity="0.2" stroke-width="3.25" stroke-linecap="round" stroke-linejoin="round"/>
</g>
<g filter="url(#filter3_f_195_5076)">
<path d="M208.248 166.508C215.916 152.782 203.863 163.763 165.246 163.763C102.801 167.332 87.8632 126.153 80.8907 148.389C73.9181 170.626 105.266 180.784 165.246 182.98C176.226 182.98 185.105 182.023 192.36 180.167M208.248 166.508C211.534 170.352 202.479 177.58 192.36 180.167M208.248 166.508C200.031 173.097 132.656 180.661 90.2045 154.704M192.36 180.167C181.407 207.688 98.6948 218.12 56.7889 196.158C16.2564 170.077 32.9631 105.288 53.7762 86.6204C77.332 30.342 117.045 34.7345 135.667 54.226C165.246 33.9109 192.36 49.2846 192.36 68.7761C207.962 72.9904 214.547 86.895 215.916 91.2875C220.572 103.367 214.273 118.466 194.553 125.055M194.553 125.055C194.553 125.055 213.999 145.37 208.248 158.822M194.553 125.055C171.547 125.878 161.14 109.681 161.14 94.0328C158.949 88.8167 148.541 88.7593 148.541 95.4054C148.541 104.85 144.369 112.667 138.243 118.191C125.55 129.64 104.472 131.246 94.756 117.093C90.488 110.876 88.4128 101.618 90.2045 88.8167C92.3955 77.5611 106.647 76.6432 148.541 80.3063H163.057C163.057 80.3063 204.961 78.6592 210.439 81.9535" stroke="#FF9983" stroke-width="2" stroke-linecap="round" stroke-linejoin="round"/>
</g>
<g filter="url(#filter4_f_195_5076)">
<path d="M208.248 166.508C215.916 152.782 203.863 163.763 165.246 163.763C102.801 167.332 87.8632 126.153 80.8907 148.389C73.9181 170.626 105.266 180.784 165.246 182.98C176.226 182.98 185.105 182.023 192.36 180.167M208.248 166.508C211.534 170.352 202.479 177.58 192.36 180.167M208.248 166.508C200.031 173.097 132.656 180.661 90.2045 154.704M192.36 180.167C181.407 207.688 98.6948 218.12 56.7889 196.158C16.2564 170.077 32.9631 105.288 53.7762 86.6204C77.332 30.342 117.045 34.7345 135.667 54.226C165.246 33.9109 192.36 49.2846 192.36 68.7761C207.962 72.9904 214.547 86.895 215.916 91.2875C220.572 103.367 214.273 118.466 194.553 125.055M194.553 125.055C194.553 125.055 213.999 145.37 208.248 158.822M194.553 125.055C171.547 125.878 161.14 109.681 161.14 94.0328C158.949 88.8167 148.541 88.7593 148.541 95.4054C148.541 104.85 144.369 112.667 138.243 118.191C125.55 129.64 104.472 131.246 94.756 117.093C90.488 110.876 88.4128 101.618 90.2045 88.8167C92.3955 77.5611 106.647 76.6432 148.541 80.3063H163.057C163.057 80.3063 204.961 78.6592 210.439 81.9535" stroke="white" stroke-linecap="round" stroke-linejoin="round"/>
</g>
<g style="mix-blend-mode:hard-light" filter="url(#filter5_f_195_5076)">
<path d="M91.0714 92.7046H150.637M91.0714 99.1065H149.245M91.9065 104.952L147.854 104.395M93.5765 111.354H144.792M96.9167 116.921H140.06M214.935 87.1377H91.9065C91.9065 87.1377 72.4223 83.7976 56 85.4676M162.328 92.7046H217.44M163.163 99.1065H218.553M164.554 104.395H217.44M167.338 110.797H214.935M173.74 116.921H209.646" stroke="#FF5C00" stroke-width="2.6" stroke-linecap="round" stroke-linejoin="round"/>
</g>
<g style="mix-blend-mode:hard-light" filter="url(#filter6_f_195_5076)">
<path d="M91.0714 92.7046H150.637M91.0714 99.1065H149.245M91.9065 104.952L147.854 104.395M93.5765 111.354H144.792M96.9167 116.921H140.06M214.935 87.1377H91.9065C91.9065 87.1377 72.4223 83.7976 56 85.4676M162.328 92.7046H217.44M163.163 99.1065H218.553M164.554 104.395H217.44M167.338 110.797H214.935M173.74 116.921H209.646" stroke="#FF0000" stroke-width="3.4" stroke-linecap="round" stroke-linejoin="round"/>
</g>
<g style="mix-blend-mode:hard-light" filter="url(#filter7_ddi_195_5076)">
<path d="M91.0714 92.7046H150.637M91.0714 99.1065H149.245M91.9065 104.952L147.854 104.395M93.5765 111.354H144.792M96.9167 116.921H140.06M214.935 87.1377H91.9065C91.9065 87.1377 72.4223 83.7976 56 85.4676M162.328 92.7046H217.44M163.163 99.1065H218.553M164.554 104.395H217.44M167.338 110.797H214.935M173.74 116.921H209.646" stroke="#FF0000" stroke-opacity="0.2" stroke-width="2.6" stroke-linecap="round" stroke-linejoin="round"/>
</g>
<g filter="url(#filter8_f_195_5076)">
<path d="M91.0714 92.7046H150.637M91.0714 99.1065H149.245M91.9065 104.952L147.854 104.395M93.5765 111.354H144.792M96.9167 116.921H140.06M214.935 87.1377H91.9065C91.9065 87.1377 72.4223 83.7976 56 85.4676M162.328 92.7046H217.44M163.163 99.1065H218.553M164.554 104.395H217.44M167.338 110.797H214.935M173.74 116.921H209.646" stroke="#FF9983" stroke-width="1.6" stroke-linecap="round" stroke-linejoin="round"/>
</g>
<g filter="url(#filter9_f_195_5076)">
<path d="M91.0714 92.7046H150.637M91.0714 99.1065H149.245M91.9065 104.952L147.854 104.395M93.5765 111.354H144.792M96.9167 116.921H140.06M214.935 87.1377H91.9065C91.9065 87.1377 72.4223 83.7976 56 85.4676M162.328 92.7046H217.44M163.163 99.1065H218.553M164.554 104.395H217.44M167.338 110.797H214.935M173.74 116.921H209.646" stroke="white" stroke-width="0.8" stroke-linecap="round" stroke-linejoin="round"/>
</g>
<defs>
<filter id="filter0_f_195_5076" x="15.3757" y="24.3741" width="218.627" height="200.257" filterUnits="userSpaceOnUse" color-interpolation-filters="sRGB">
<feFlood flood-opacity="0" result="BackgroundImageFix"/>
<feBlend mode="normal" in="SourceGraphic" in2="BackgroundImageFix" result="shape"/>
<feGaussianBlur stdDeviation="7.5" result="effect1_foregroundBlur_195_5076"/>
</filter>
<filter id="filter1_f_195_5076" x="24.876" y="33.8739" width="199.627" height="181.258" filterUnits="userSpaceOnUse" color-interpolation-filters="sRGB">
<feFlood flood-opacity="0" result="BackgroundImageFix"/>
<feBlend mode="normal" in="SourceGraphic" in2="BackgroundImageFix" result="shape"/>
<feGaussianBlur stdDeviation="2.5" result="effect1_foregroundBlur_195_5076"/>
</filter>
<filter id="filter2_ddi_195_5076" x="23.8757" y="37.8741" width="201.627" height="183.257" filterUnits="userSpaceOnUse" color-interpolation-filters="sRGB">
<feFlood flood-opacity="0" result="BackgroundImageFix"/>
<feColorMatrix in="SourceAlpha" type="matrix" values="0 0 0 0 0 0 0 0 0 0 0 0 0 0 0 0 0 0 127 0" result="hardAlpha"/>
<feOffset dy="3.25"/>
<feGaussianBlur stdDeviation="1.25"/>
<feColorMatrix type="matrix" values="0 0 0 0 0.15 0 0 0 0 0 0 0 0 0 0 0 0 0 0.7 0"/>
<feBlend mode="multiply" in2="BackgroundImageFix" result="effect1_dropShadow_195_5076"/>
<feColorMatrix in="SourceAlpha" type="matrix" values="0 0 0 0 0 0 0 0 0 0 0 0 0 0 0 0 0 0 127 0" result="hardAlpha"/>
<feOffset dy="5"/>
<feGaussianBlur stdDeviation="3.25"/>
<feColorMatrix type="matrix" values="0 0 0 0 0.8 0 0 0 0 0.19 0 0 0 0 0.19 0 0 0 1 0"/>
<feBlend mode="color-dodge" in2="effect1_dropShadow_195_5076" result="effect2_dropShadow_195_5076"/>
<feBlend mode="normal" in="SourceGraphic" in2="effect2_dropShadow_195_5076" result="shape"/>
<feColorMatrix in="SourceAlpha" type="matrix" values="0 0 0 0 0 0 0 0 0 0 0 0 0 0 0 0 0 0 127 0" result="hardAlpha"/>
<feOffset dx="-0.325" dy="0.65"/>
<feGaussianBlur stdDeviation="0.1625"/>
<feComposite in2="hardAlpha" operator="arithmetic" k2="-1" k3="1"/>
<feColorMatrix type="matrix" values="0 0 0 0 1 0 0 0 0 1 0 0 0 0 1 0 0 0 0.5 0"/>
<feBlend mode="normal" in2="shape" result="effect3_innerShadow_195_5076"/>
</filter>
<filter id="filter3_f_195_5076" x="30.5005" y="39.4995" width="188.377" height="170.007" filterUnits="userSpaceOnUse" color-interpolation-filters="sRGB">
<feFlood flood-opacity="0" result="BackgroundImageFix"/>
<feBlend mode="normal" in="SourceGraphic" in2="BackgroundImageFix" result="shape"/>
<feGaussianBlur stdDeviation="0.25" result="effect1_foregroundBlur_195_5076"/>
</filter>
<filter id="filter4_f_195_5076" x="31.1669" y="40.1664" width="187.044" height="168.674" filterUnits="userSpaceOnUse" color-interpolation-filters="sRGB">
<feFlood flood-opacity="0" result="BackgroundImageFix"/>
<feBlend mode="normal" in="SourceGraphic" in2="BackgroundImageFix" result="shape"/>
<feGaussianBlur stdDeviation="0.166667" result="effect1_foregroundBlur_195_5076"/>
</filter>
<filter id="filter5_f_195_5076" x="42.7" y="71.7001" width="189.153" height="58.5205" filterUnits="userSpaceOnUse" color-interpolation-filters="sRGB">
<feFlood flood-opacity="0" result="BackgroundImageFix"/>
<feBlend mode="normal" in="SourceGraphic" in2="BackgroundImageFix" result="shape"/>
<feGaussianBlur stdDeviation="6" result="effect1_foregroundBlur_195_5076"/>
</filter>
<filter id="filter6_f_195_5076" x="50.2999" y="79.3" width="173.953" height="43.3206" filterUnits="userSpaceOnUse" color-interpolation-filters="sRGB">
<feFlood flood-opacity="0" result="BackgroundImageFix"/>
<feBlend mode="normal" in="SourceGraphic" in2="BackgroundImageFix" result="shape"/>
<feGaussianBlur stdDeviation="2" result="effect1_foregroundBlur_195_5076"/>
</filter>
<filter id="filter7_ddi_195_5076" x="49.5" y="82.5001" width="175.553" height="44.9205" filterUnits="userSpaceOnUse" color-interpolation-filters="sRGB">
<feFlood flood-opacity="0" result="BackgroundImageFix"/>
<feColorMatrix in="SourceAlpha" type="matrix" values="0 0 0 0 0 0 0 0 0 0 0 0 0 0 0 0 0 0 127 0" result="hardAlpha"/>
<feOffset dy="2.6"/>
<feGaussianBlur stdDeviation="1"/>
<feColorMatrix type="matrix" values="0 0 0 0 0.15 0 0 0 0 0 0 0 0 0 0 0 0 0 0.7 0"/>
<feBlend mode="multiply" in2="BackgroundImageFix" result="effect1_dropShadow_195_5076"/>
<feColorMatrix in="SourceAlpha" type="matrix" values="0 0 0 0 0 0 0 0 0 0 0 0 0 0 0 0 0 0 127 0" result="hardAlpha"/>
<feOffset dy="4"/>
<feGaussianBlur stdDeviation="2.6"/>
<feColorMatrix type="matrix" values="0 0 0 0 0.8 0 0 0 0 0.19 0 0 0 0 0.19 0 0 0 1 0"/>
<feBlend mode="color-dodge" in2="effect1_dropShadow_195_5076" result="effect2_dropShadow_195_5076"/>
<feBlend mode="normal" in="SourceGraphic" in2="effect2_dropShadow_195_5076" result="shape"/>
<feColorMatrix in="SourceAlpha" type="matrix" values="0 0 0 0 0 0 0 0 0 0 0 0 0 0 0 0 0 0 127 0" result="hardAlpha"/>
<feOffset dx="-0.26" dy="0.52"/>
<feGaussianBlur stdDeviation="0.13"/>
<feComposite in2="hardAlpha" operator="arithmetic" k2="-1" k3="1"/>
<feColorMatrix type="matrix" values="0 0 0 0 1 0 0 0 0 1 0 0 0 0 1 0 0 0 0.5 0"/>
<feBlend mode="normal" in2="shape" result="effect3_innerShadow_195_5076"/>
</filter>
<filter id="filter8_f_195_5076" x="54.8" y="83.8" width="164.953" height="34.3206" filterUnits="userSpaceOnUse" color-interpolation-filters="sRGB">
<feFlood flood-opacity="0" result="BackgroundImageFix"/>
<feBlend mode="normal" in="SourceGraphic" in2="BackgroundImageFix" result="shape"/>
<feGaussianBlur stdDeviation="0.2" result="effect1_foregroundBlur_195_5076"/>
</filter>
<filter id="filter9_f_195_5076" x="55.3333" y="84.3333" width="163.887" height="33.2539" filterUnits="userSpaceOnUse" color-interpolation-filters="sRGB">
<feFlood flood-opacity="0" result="BackgroundImageFix"/>
<feBlend mode="normal" in="SourceGraphic" in2="BackgroundImageFix" result="shape"/>
<feGaussianBlur stdDeviation="0.133333" result="effect1_foregroundBlur_195_5076"/>
</filter>
</defs>
</svg>
