<svg width="250" height="250" viewBox="0 0 250 250" fill="none" xmlns="http://www.w3.org/2000/svg">
<g clip-path="url(#clip0_195_5020)">
<g style="mix-blend-mode:hard-light" filter="url(#filter0_f_195_5020)">
<path d="M223.239 176.096C215.451 251.53 104.611 245.046 79.9323 201.497C29.3076 223.05 26.971 146.077 55.7882 151.465L49.5575 142.228C44.6284 136.72 41.5525 133.8 29.3076 132.222C37.3945 121.149 41.1821 115.29 26.9711 114.518C31.4285 111.789 33.268 110.071 33.2018 106.051M205.326 76.032C220.02 43.421 212.193 29.9338 161.711 16.763C119.266 15.9199 97.2622 23.4477 59.6824 44.4732C57.1498 46.695 54.9661 48.7339 53.0792 50.6311M205.326 76.032C211.944 93.3406 216.403 107.317 219.223 121.446C220.029 87.38 220.447 68.3777 209.999 68.3348M205.326 76.032C197.802 81.3697 192.834 81.0228 183.518 78.3412M40.2114 76.032C34.4369 80.3297 32.5258 80.6646 22.298 76.032L26.9711 86.8081C21.3741 88.7511 17.1824 87.8737 7.5 82.1898C16.6199 98.4084 22.1098 104.579 33.2018 106.051M40.2114 76.032C41.2929 67.2599 42.6611 61.1061 53.0792 50.6311M40.2114 76.032C84.754 56.8858 107.835 62.0932 146.913 89.1174M33.2018 106.051C46.2553 109.031 53.5474 107.919 66.692 101.433M183.518 78.3412C171.566 85.8097 163.451 88.0398 146.913 89.1174M183.518 78.3412C152.612 38.5968 122.684 34.4729 53.0792 50.6311M146.913 89.1174C130.201 96.6027 120.808 97.8136 104.076 96.8147C88.8569 95.9285 80.5628 96.4566 66.692 101.433M66.692 101.433C70.6542 126.747 65.7643 134.266 49.5575 140.689M178.845 155.314C184.211 162.054 187.426 164.87 193.643 167.63C190.119 173.818 187.504 176.631 181.961 180.715M166.384 196.109C174.889 192.681 179.799 191.83 188.97 193.031M45.6633 129.143H93.9515L97.8457 125.295H171.057L176.509 129.913H183.518L187.412 125.295L238.037 121.446C242.546 122.409 243.193 125.927 241.931 136.071H238.037C241.931 179.945 206.105 186.103 185.076 144.538L178.845 145.307C169.499 190.721 118.874 198.419 104.076 145.307H93.9515V136.071H45.6633V129.143Z" stroke="#E73795" stroke-width="3.25" stroke-linecap="round" stroke-linejoin="round"/>
</g>
<g style="mix-blend-mode:hard-light" filter="url(#filter1_f_195_5020)">
<path d="M223.239 176.096C215.451 251.53 104.611 245.046 79.9323 201.497C29.3076 223.05 26.971 146.077 55.7882 151.465L49.5575 142.228C44.6284 136.72 41.5525 133.8 29.3076 132.222C37.3945 121.149 41.1821 115.29 26.971 114.518C31.4285 111.789 33.268 110.071 33.2018 106.051M205.326 76.032C220.02 43.421 212.193 29.9338 161.711 16.763C119.266 15.9199 97.2622 23.4477 59.6824 44.4732C57.1498 46.695 54.9661 48.7339 53.0792 50.6311M205.326 76.032C211.944 93.3406 216.403 107.317 219.223 121.446C220.029 87.38 220.447 68.3777 209.999 68.3348M205.326 76.032C197.802 81.3697 192.835 81.0228 183.518 78.3412M40.2114 76.032C34.4369 80.3297 32.5258 80.6646 22.298 76.032L26.971 86.8081C21.3741 88.7511 17.1824 87.8737 7.5 82.1898C16.6199 98.4084 22.1098 104.579 33.2018 106.051M40.2114 76.032C41.2929 67.2599 42.6611 61.1061 53.0792 50.6311M40.2114 76.032C84.754 56.8858 107.835 62.0932 146.913 89.1174M33.2018 106.051C46.2553 109.031 53.5474 107.919 66.692 101.433M183.518 78.3412C171.566 85.8097 163.451 88.0398 146.913 89.1174M183.518 78.3412C152.612 38.5968 122.684 34.4729 53.0792 50.6311M146.913 89.1174C130.201 96.6027 120.808 97.8136 104.076 96.8147C88.8569 95.9285 80.5628 96.4567 66.692 101.433M66.692 101.433C70.6542 126.747 65.7643 134.266 49.5575 140.689M178.845 155.314C184.211 162.054 187.426 164.87 193.643 167.63C190.119 173.818 187.504 176.631 181.961 180.715M166.384 196.109C174.889 192.681 179.799 191.83 188.97 193.031M45.6633 129.143H93.9515L97.8457 125.295H171.057L176.509 129.913H183.518L187.412 125.295L238.037 121.446C242.546 122.409 243.194 125.927 241.931 136.071H238.037C241.931 179.945 206.105 186.103 185.076 144.538L178.845 145.307C169.499 190.721 118.874 198.419 104.076 145.307H93.9515V136.071H45.6633V129.143Z" stroke="#FF26C2" stroke-width="4.25" stroke-linecap="round" stroke-linejoin="round"/>
</g>
<g style="mix-blend-mode:hard-light" filter="url(#filter2_ddi_195_5020)">
<path d="M223.239 176.096C215.451 251.53 104.611 245.046 79.9323 201.497C29.3076 223.05 26.971 146.077 55.7882 151.465L49.5575 142.228C44.6284 136.72 41.5525 133.8 29.3076 132.222C37.3945 121.149 41.1821 115.29 26.971 114.518C31.4285 111.789 33.268 110.071 33.2018 106.051M205.326 76.032C220.02 43.421 212.193 29.9338 161.711 16.763C119.266 15.9199 97.2622 23.4477 59.6824 44.4732C57.1498 46.695 54.9661 48.7339 53.0792 50.6311M205.326 76.032C211.944 93.3406 216.403 107.317 219.223 121.446C220.029 87.38 220.447 68.3777 209.999 68.3348M205.326 76.032C197.802 81.3697 192.835 81.0228 183.518 78.3412M40.2114 76.032C34.4369 80.3297 32.5258 80.6646 22.298 76.032L26.971 86.8081C21.3741 88.7511 17.1824 87.8737 7.5 82.1898C16.6199 98.4084 22.1098 104.579 33.2018 106.051M40.2114 76.032C41.2929 67.2599 42.6611 61.1061 53.0792 50.6311M40.2114 76.032C84.754 56.8858 107.835 62.0932 146.913 89.1174M33.2018 106.051C46.2553 109.031 53.5474 107.919 66.692 101.433M183.518 78.3412C171.566 85.8097 163.451 88.0398 146.913 89.1174M183.518 78.3412C152.612 38.5968 122.684 34.4729 53.0792 50.6311M146.913 89.1174C130.201 96.6027 120.808 97.8136 104.076 96.8147C88.8569 95.9285 80.5628 96.4567 66.692 101.433M66.692 101.433C70.6542 126.747 65.7643 134.266 49.5575 140.689M178.845 155.314C184.211 162.054 187.426 164.87 193.643 167.63C190.119 173.818 187.504 176.631 181.961 180.715M166.384 196.109C174.889 192.681 179.799 191.83 188.97 193.031M45.6633 129.143H93.9515L97.8457 125.295H171.057L176.509 129.913H183.518L187.412 125.295L238.037 121.446C242.546 122.409 243.194 125.927 241.931 136.071H238.037C241.931 179.945 206.105 186.103 185.076 144.538L178.845 145.307C169.499 190.721 118.874 198.419 104.076 145.307H93.9515V136.071H45.6633V129.143Z" stroke="#E73795" stroke-opacity="0.2" stroke-width="3.25" stroke-linecap="round" stroke-linejoin="round"/>
</g>
<g filter="url(#filter3_f_195_5020)">
<path d="M223.239 176.096C215.451 251.53 104.611 245.046 79.9323 201.497C29.3076 223.05 26.971 146.077 55.7882 151.465L49.5575 142.228C44.6284 136.72 41.5525 133.8 29.3076 132.222C37.3945 121.149 41.1821 115.29 26.9711 114.518C31.4285 111.789 33.268 110.071 33.2018 106.051M205.326 76.032C220.02 43.421 212.193 29.9338 161.711 16.763C119.266 15.9199 97.2622 23.4477 59.6824 44.4732C57.1498 46.695 54.9661 48.7339 53.0792 50.6311M205.326 76.032C211.944 93.3406 216.403 107.317 219.223 121.446C220.029 87.38 220.447 68.3777 209.999 68.3348M205.326 76.032C197.802 81.3697 192.834 81.0228 183.518 78.3412M40.2114 76.032C34.4369 80.3297 32.5258 80.6646 22.298 76.032L26.9711 86.8081C21.3741 88.7511 17.1824 87.8737 7.5 82.1898C16.6199 98.4084 22.1098 104.579 33.2018 106.051M40.2114 76.032C41.2929 67.2599 42.6611 61.1061 53.0792 50.6311M40.2114 76.032C84.754 56.8858 107.835 62.0932 146.913 89.1174M33.2018 106.051C46.2553 109.031 53.5474 107.919 66.692 101.433M183.518 78.3412C171.566 85.8097 163.451 88.0398 146.913 89.1174M183.518 78.3412C152.612 38.5968 122.684 34.4729 53.0792 50.6311M146.913 89.1174C130.201 96.6027 120.808 97.8136 104.076 96.8147C88.8569 95.9285 80.5628 96.4566 66.692 101.433M66.692 101.433C70.6542 126.747 65.7643 134.266 49.5575 140.689M178.845 155.314C184.211 162.054 187.426 164.87 193.643 167.63C190.119 173.818 187.504 176.631 181.961 180.715M166.384 196.109C174.889 192.681 179.799 191.83 188.97 193.031M45.6633 129.143H93.9515L97.8457 125.295H171.057L176.509 129.913H183.518L187.412 125.295L238.037 121.446C242.546 122.409 243.193 125.927 241.931 136.071H238.037C241.931 179.945 206.105 186.103 185.076 144.538L178.845 145.307C169.499 190.721 118.874 198.419 104.076 145.307H93.9515V136.071H45.6633V129.143Z" stroke="#FB37FF" stroke-opacity="0.1" stroke-width="2" stroke-linecap="round" stroke-linejoin="round"/>
</g>
<g filter="url(#filter4_f_195_5020)">
<path d="M223.239 176.096C215.451 251.53 104.611 245.046 79.9323 201.497C29.3076 223.05 26.971 146.077 55.7882 151.465L49.5575 142.228C44.6284 136.72 41.5525 133.8 29.3076 132.222C37.3945 121.149 41.1821 115.29 26.9711 114.518C31.4285 111.789 33.268 110.071 33.2018 106.051M205.326 76.032C220.02 43.421 212.193 29.9338 161.711 16.763C119.266 15.9199 97.2622 23.4477 59.6824 44.4732C57.1498 46.695 54.9661 48.7339 53.0792 50.6311M205.326 76.032C211.944 93.3406 216.403 107.317 219.223 121.446C220.029 87.38 220.447 68.3777 209.999 68.3348M205.326 76.032C197.802 81.3697 192.834 81.0228 183.518 78.3412M40.2114 76.032C34.4369 80.3297 32.5258 80.6646 22.298 76.032L26.9711 86.8081C21.3741 88.7511 17.1824 87.8737 7.5 82.1898C16.6199 98.4084 22.1098 104.579 33.2018 106.051M40.2114 76.032C41.2929 67.2599 42.6611 61.1061 53.0792 50.6311M40.2114 76.032C84.754 56.8858 107.835 62.0932 146.913 89.1174M33.2018 106.051C46.2553 109.031 53.5474 107.919 66.692 101.433M183.518 78.3412C171.566 85.8097 163.451 88.0398 146.913 89.1174M183.518 78.3412C152.612 38.5968 122.684 34.4729 53.0792 50.6311M146.913 89.1174C130.201 96.6027 120.808 97.8136 104.076 96.8147C88.8569 95.9285 80.5628 96.4566 66.692 101.433M66.692 101.433C70.6542 126.747 65.7643 134.266 49.5575 140.689M178.845 155.314C184.211 162.054 187.426 164.87 193.643 167.63C190.119 173.818 187.504 176.631 181.961 180.715M166.384 196.109C174.889 192.681 179.799 191.83 188.97 193.031M45.6633 129.143H93.9515L97.8457 125.295H171.057L176.509 129.913H183.518L187.412 125.295L238.037 121.446C242.546 122.409 243.193 125.927 241.931 136.071H238.037C241.931 179.945 206.105 186.103 185.076 144.538L178.845 145.307C169.499 190.721 118.874 198.419 104.076 145.307H93.9515V136.071H45.6633V129.143Z" stroke="white" stroke-linecap="round" stroke-linejoin="round"/>
</g>
</g>
<defs>
<filter id="filter0_f_195_5020" x="-7.92503" y="1.27495" width="265.85" height="247.85" filterUnits="userSpaceOnUse" color-interpolation-filters="sRGB">
<feFlood flood-opacity="0" result="BackgroundImageFix"/>
<feBlend mode="normal" in="SourceGraphic" in2="BackgroundImageFix" result="shape"/>
<feGaussianBlur stdDeviation="6.9" result="effect1_foregroundBlur_195_5020"/>
</filter>
<filter id="filter1_f_195_5020" x="0.774939" y="9.97495" width="248.45" height="230.45" filterUnits="userSpaceOnUse" color-interpolation-filters="sRGB">
<feFlood flood-opacity="0" result="BackgroundImageFix"/>
<feBlend mode="normal" in="SourceGraphic" in2="BackgroundImageFix" result="shape"/>
<feGaussianBlur stdDeviation="2.3" result="effect1_foregroundBlur_195_5020"/>
</filter>
<filter id="filter2_ddi_195_5020" x="-0.105031" y="13.695" width="250.21" height="232.21" filterUnits="userSpaceOnUse" color-interpolation-filters="sRGB">
<feFlood flood-opacity="0" result="BackgroundImageFix"/>
<feColorMatrix in="SourceAlpha" type="matrix" values="0 0 0 0 0 0 0 0 0 0 0 0 0 0 0 0 0 0 127 0" result="hardAlpha"/>
<feOffset dy="3.25"/>
<feGaussianBlur stdDeviation="1.25"/>
<feColorMatrix type="matrix" values="0 0 0 0 0.3 0 0 0 0 0 0 0 0 0 0.26 0 0 0 0.7 0"/>
<feBlend mode="multiply" in2="BackgroundImageFix" result="effect1_dropShadow_195_5020"/>
<feColorMatrix in="SourceAlpha" type="matrix" values="0 0 0 0 0 0 0 0 0 0 0 0 0 0 0 0 0 0 127 0" result="hardAlpha"/>
<feOffset dy="4.6"/>
<feGaussianBlur stdDeviation="2.99"/>
<feColorMatrix type="matrix" values="0 0 0 0 0.6 0 0 0 0 0 0 0 0 0 0.6 0 0 0 1 0"/>
<feBlend mode="color-dodge" in2="effect1_dropShadow_195_5020" result="effect2_dropShadow_195_5020"/>
<feBlend mode="normal" in="SourceGraphic" in2="effect2_dropShadow_195_5020" result="shape"/>
<feColorMatrix in="SourceAlpha" type="matrix" values="0 0 0 0 0 0 0 0 0 0 0 0 0 0 0 0 0 0 127 0" result="hardAlpha"/>
<feOffset dx="-0.325" dy="0.65"/>
<feGaussianBlur stdDeviation="0.1625"/>
<feComposite in2="hardAlpha" operator="arithmetic" k2="-1" k3="1"/>
<feColorMatrix type="matrix" values="0 0 0 0 1 0 0 0 0 1 0 0 0 0 1 0 0 0 0.5 0"/>
<feBlend mode="normal" in2="shape" result="effect3_innerShadow_195_5020"/>
</filter>
<filter id="filter3_f_195_5020" x="5.99997" y="15.2" width="238" height="220" filterUnits="userSpaceOnUse" color-interpolation-filters="sRGB">
<feFlood flood-opacity="0" result="BackgroundImageFix"/>
<feBlend mode="normal" in="SourceGraphic" in2="BackgroundImageFix" result="shape"/>
<feGaussianBlur stdDeviation="0.25" result="effect1_foregroundBlur_195_5020"/>
</filter>
<filter id="filter4_f_195_5020" x="6.66667" y="15.8666" width="236.667" height="218.667" filterUnits="userSpaceOnUse" color-interpolation-filters="sRGB">
<feFlood flood-opacity="0" result="BackgroundImageFix"/>
<feBlend mode="normal" in="SourceGraphic" in2="BackgroundImageFix" result="shape"/>
<feGaussianBlur stdDeviation="0.166667" result="effect1_foregroundBlur_195_5020"/>
</filter>
<clipPath id="clip0_195_5020">
<rect width="250" height="250" fill="white"/>
</clipPath>
</defs>
</svg>
