<svg width="107" height="78" viewBox="0 0 107 78" fill="none" xmlns="http://www.w3.org/2000/svg">
<g filter="url(#filter0_d_475_426)">
<path d="M79.3969 21.4349C85.7115 17.6436 89.3951 15.4319 90.1672 16.7179C90.9394 18.0039 84.6247 21.7953 79.3625 24.9548C-5.37911 75.8345 -3.67616 71.3129 79.3969 21.4349Z" fill="#83CEFF" fill-opacity="0.15" shape-rendering="geometricPrecision"/>
</g>
<path d="M54.7033 38.7622C55.3367 39.8172 56.0906 40.5264 56.9649 40.8899C57.8393 41.2534 58.6583 41.2059 59.4218 40.7475C60.2256 40.2649 60.6685 39.5684 60.7506 38.6579C60.8328 37.7475 60.539 36.7347 59.8695 35.6194C59.2421 34.5746 58.4943 33.8754 57.6259 33.5219C56.7677 33.1625 55.9618 33.2089 55.2083 33.6613C54.3844 34.156 53.9405 34.8736 53.8764 35.8142C53.8064 36.7447 54.082 37.7274 54.7033 38.7622ZM54.2663 39.0246C53.5726 37.8692 53.2798 36.767 53.388 35.7179C53.4963 34.6687 54.0175 33.8637 54.9519 33.3027C55.6351 32.8925 56.3113 32.7667 56.9806 32.9252C57.66 33.0778 58.258 33.368 58.7746 33.7959L57.7069 32.0176L58.1439 31.7552L62.3333 38.7328C63.1839 40.1494 63.5802 41.333 63.5222 42.2837C63.4803 43.2383 62.9318 44.0323 61.8769 44.6657C61.3545 44.9794 60.7978 45.1564 60.207 45.1968C59.6322 45.2412 59.0956 45.167 58.5971 44.9742L58.808 44.54C59.8491 44.8854 60.7967 44.8017 61.6507 44.289C62.565 43.74 63.026 43.0395 63.0338 42.1874C63.0476 41.3453 62.6835 40.3063 61.9415 39.0706L61.0458 37.5786C61.3859 39.1923 60.928 40.3762 59.6722 41.1302C58.7478 41.6852 57.7892 41.7619 56.7963 41.3602C55.8033 40.9586 54.96 40.18 54.2663 39.0246ZM65.6069 37.526L61.0827 29.9908L61.5046 29.7374L62.3733 31.1842L62.4034 31.1661C62.2887 30.6335 62.3267 30.0708 62.5175 29.4779C62.7183 28.8789 63.1452 28.3834 63.7982 27.9913C64.4513 27.5992 65.0592 27.5075 65.622 27.7164C66.1848 27.9252 66.6753 28.2868 67.0935 28.8012C67.0311 28.6746 66.9899 28.4807 66.9697 28.2194C66.9495 27.9582 66.9625 27.6497 67.0086 27.2939C67.0587 26.9221 67.2134 26.5422 67.4725 26.1542C67.7357 25.7502 68.0883 25.4155 68.5303 25.1501C69.2437 24.7218 69.9109 24.6492 70.532 24.9324C71.147 25.2055 71.7501 25.8344 72.3413 26.819L75.282 31.7169L74.845 31.9793L71.9676 27.1869C71.4488 26.3229 70.9362 25.7422 70.4296 25.4449C69.917 25.1376 69.3192 25.189 68.636 25.5992C67.9729 25.9973 67.5651 26.6044 67.4126 27.4204C67.2601 28.2364 67.4432 29.0764 67.962 29.9405L70.6856 34.4767L70.2335 34.7481L67.3651 29.9708C66.3034 28.2025 65.1698 27.6803 63.9642 28.4042C63.2709 28.8204 62.8551 29.4255 62.7166 30.2194C62.5883 31.0073 62.7684 31.8081 63.257 32.6219L66.0439 37.2636L65.6069 37.526Z" fill="white"/>
<defs>
<filter id="filter0_d_475_426" x="0.447754" y="0.350342" width="105.784" height="76.6887" filterUnits="userSpaceOnUse" color-interpolation-filters="sRGB">
<feFlood flood-opacity="0" result="BackgroundImageFix"/>
<feColorMatrix in="SourceAlpha" type="matrix" values="0 0 0 0 0 0 0 0 0 0 0 0 0 0 0 0 0 0 127 0" result="hardAlpha"/>
<feOffset/>
<feGaussianBlur stdDeviation="8"/>
<feComposite in2="hardAlpha" operator="out"/>
<feColorMatrix type="matrix" values="0 0 0 0 0.5125 0 0 0 0 0.807847 0 0 0 0 1 0 0 0 1 0"/>
<feBlend mode="normal" in2="BackgroundImageFix" result="effect1_dropShadow_475_426"/>
<feBlend mode="normal" in="SourceGraphic" in2="effect1_dropShadow_475_426" result="shape"/>
</filter>
</defs>
</svg>
