<svg width="40" height="40" viewBox="0 0 40 40" fill="none" xmlns="http://www.w3.org/2000/svg">
<g clip-path="url(#clip0_182_6110)">
<path d="M33.5989 7.47524C31.0341 6.29793 28.3274 5.45839 25.5466 4.97766C25.5213 4.97295 25.4952 4.97632 25.472 4.9873C25.4488 4.99828 25.4296 5.0163 25.4172 5.03881C25.0694 5.65744 24.6842 6.46431 24.4145 7.09843C21.3738 6.64315 18.3486 6.64315 15.3703 7.09843C15.1006 6.45013 14.7014 5.65744 14.3521 5.03881C14.3392 5.01682 14.3199 4.99923 14.2968 4.98835C14.2738 4.97747 14.2479 4.9738 14.2227 4.97782C11.4416 5.45744 8.7347 6.2969 6.17021 7.47508C6.14827 7.48445 6.12978 7.5004 6.11729 7.52073C0.988612 15.1829 -0.416443 22.6567 0.272898 30.0379C0.274847 30.0559 0.280403 30.0734 0.289237 30.0893C0.298071 30.1052 0.310003 30.1192 0.324327 30.1303C3.70806 32.6154 6.98581 34.124 10.2027 35.1239C10.2277 35.1313 10.2544 35.131 10.2792 35.1228C10.3041 35.1147 10.3258 35.0992 10.3415 35.0784C11.1024 34.0392 11.7807 32.9434 12.3624 31.7912C12.3704 31.7754 12.375 31.7582 12.3758 31.7405C12.3766 31.7228 12.3737 31.7052 12.3672 31.6887C12.3608 31.6723 12.3509 31.6574 12.3382 31.645C12.3256 31.6326 12.3104 31.6231 12.2938 31.617C11.2178 31.2089 10.1933 30.7112 9.20779 30.1462C9.18981 30.1356 9.17472 30.1208 9.16383 30.103C9.15294 30.0853 9.1466 30.0651 9.14536 30.0443C9.14412 30.0235 9.14803 30.0027 9.15673 29.9837C9.16543 29.9648 9.17867 29.9483 9.19526 29.9357C9.40262 29.7802 9.61015 29.6187 9.80812 29.4553C9.82571 29.4408 9.84701 29.4315 9.86961 29.4285C9.89221 29.4254 9.91521 29.4287 9.93603 29.438C16.4104 32.394 23.4195 32.394 29.8175 29.438C29.8383 29.4281 29.8615 29.4243 29.8844 29.4271C29.9073 29.4299 29.929 29.4391 29.9469 29.4537C30.145 29.6169 30.3523 29.7802 30.5614 29.9357C30.578 29.9482 30.5913 29.9646 30.6001 29.9834C30.6089 30.0022 30.613 30.023 30.6119 30.0437C30.6108 30.0645 30.6047 30.0847 30.594 30.1025C30.5832 30.1204 30.5683 30.1353 30.5505 30.146C29.5646 30.7219 28.5318 31.2134 27.4631 31.6153C27.4465 31.6217 27.4315 31.6315 27.4189 31.644C27.4063 31.6566 27.3966 31.6717 27.3902 31.6883C27.3839 31.7049 27.3812 31.7226 27.3821 31.7404C27.3831 31.7581 27.3879 31.7754 27.396 31.7912C27.9901 32.9418 28.6684 34.0376 29.4153 35.0767C29.4305 35.0982 29.4521 35.1142 29.477 35.1227C29.502 35.1312 29.5289 35.1316 29.5541 35.1239C32.7865 34.1238 36.0642 32.6152 39.448 30.1303C39.4625 30.1197 39.4747 30.1061 39.4836 30.0904C39.4925 30.0747 39.4979 30.0573 39.4995 30.0394C40.3244 21.5058 38.1179 14.0934 33.6504 7.52222C33.6394 7.50087 33.6212 7.48431 33.5989 7.47524ZM13.3292 25.5435C11.38 25.5435 9.77383 23.7539 9.77383 21.5561C9.77383 19.3585 11.3488 17.5689 13.3293 17.5689C15.3251 17.5689 16.9156 19.3742 16.8845 21.5563C16.8845 23.7539 15.3095 25.5435 13.3292 25.5435ZM26.4744 25.5435C24.5253 25.5435 22.9191 23.7539 22.9191 21.5561C22.9191 19.3585 24.4939 17.5689 26.4744 17.5689C28.4703 17.5689 30.0608 19.3742 30.0296 21.5563C30.0296 23.7539 28.4703 25.5435 26.4744 25.5435Z" fill="white"/>
</g>
<defs>
<clipPath id="clip0_182_6110">
<rect width="39.5604" height="39.5604" fill="white" transform="translate(0.109375 0.274414)"/>
</clipPath>
</defs>
</svg>
