<svg width="41" height="40" viewBox="0 0 41 40" fill="none" xmlns="http://www.w3.org/2000/svg">
<g clip-path="url(#clip0_1115_18506)">
<path d="M34.6117 7.2828C32.0184 6.09241 29.2816 5.24354 26.4698 4.75747C26.4443 4.7527 26.4179 4.75611 26.3944 4.76721C26.3709 4.77831 26.3515 4.79654 26.339 4.8193C25.9873 5.4448 25.5978 6.26063 25.3252 6.9018C22.2507 6.44147 19.1918 6.44147 16.1805 6.9018C15.9078 6.2463 15.5042 5.4448 15.151 4.8193C15.1379 4.79706 15.1184 4.77928 15.0951 4.76828C15.0718 4.75728 15.0457 4.75357 15.0202 4.75763C12.2081 5.24258 9.47116 6.09137 6.87817 7.28263C6.85599 7.29211 6.8373 7.30824 6.82467 7.3288C1.63901 15.0761 0.21834 22.633 0.91534 30.0961C0.917311 30.1144 0.922929 30.1321 0.931861 30.1482C0.940793 30.1642 0.952857 30.1783 0.96734 30.1896C4.38867 32.7023 7.70284 34.2276 10.9555 35.2386C10.9808 35.2462 11.0078 35.2458 11.0329 35.2376C11.058 35.2294 11.0799 35.2137 11.0958 35.1926C11.8652 34.142 12.551 33.034 13.1392 31.869C13.1473 31.853 13.1519 31.8355 13.1527 31.8177C13.1536 31.7998 13.1506 31.782 13.1441 31.7653C13.1375 31.7487 13.1275 31.7336 13.1147 31.7211C13.1019 31.7086 13.0866 31.699 13.0698 31.6928C11.9818 31.2801 10.946 30.777 9.94951 30.2056C9.93133 30.195 9.91607 30.18 9.90506 30.162C9.89405 30.144 9.88764 30.1236 9.88639 30.1026C9.88514 30.0816 9.88908 30.0605 9.89788 30.0414C9.90668 30.0222 9.92006 30.0056 9.93684 29.9928C10.1465 29.8356 10.3563 29.6723 10.5565 29.5071C10.5743 29.4925 10.5958 29.4831 10.6187 29.48C10.6415 29.4769 10.6648 29.4802 10.6858 29.4896C17.2322 32.4785 24.3192 32.4785 30.7882 29.4896C30.8092 29.4796 30.8327 29.4758 30.8559 29.4786C30.879 29.4814 30.9009 29.4907 30.919 29.5055C31.1193 29.6705 31.329 29.8356 31.5403 29.9928C31.5572 30.0054 31.5706 30.022 31.5795 30.041C31.5884 30.0601 31.5925 30.0811 31.5915 30.1021C31.5904 30.1231 31.5841 30.1435 31.5733 30.1615C31.5625 30.1795 31.5474 30.1946 31.5293 30.2055C30.5325 30.7877 29.4882 31.2847 28.4077 31.6911C28.3909 31.6975 28.3757 31.7074 28.363 31.7201C28.3503 31.7329 28.3404 31.7481 28.334 31.7649C28.3276 31.7817 28.3248 31.7996 28.3258 31.8175C28.3268 31.8355 28.3316 31.853 28.3398 31.869C28.9405 33.0323 29.6263 34.1403 30.3815 35.191C30.3969 35.2126 30.4188 35.2289 30.444 35.2375C30.4692 35.246 30.4964 35.2464 30.5218 35.2386C33.7902 34.2275 37.1043 32.7021 40.5257 30.1896C40.5404 30.1789 40.5527 30.1651 40.5617 30.1493C40.5707 30.1334 40.5762 30.1158 40.5778 30.0976C41.4118 21.4693 39.1808 13.9745 34.6637 7.3303C34.6526 7.30871 34.6341 7.29181 34.6117 7.28263V7.2828ZM14.1167 25.5518C12.1458 25.5518 10.5218 23.7423 10.5218 21.5201C10.5218 19.2981 12.1143 17.4886 14.1168 17.4886C16.1348 17.4886 17.743 19.314 17.7115 21.5203C17.7115 23.7423 16.119 25.5518 14.1167 25.5518ZM27.408 25.5518C25.4372 25.5518 23.8132 23.7423 23.8132 21.5201C23.8132 19.2981 25.4055 17.4886 27.408 17.4886C29.426 17.4886 31.0342 19.314 31.0027 21.5203C31.0027 23.7423 29.426 25.5518 27.408 25.5518Z" fill="url(#paint0_linear_1115_18506)"/>
</g>
<defs>
<linearGradient id="paint0_linear_1115_18506" x1="0.749999" y1="36.8775" x2="46.3819" y2="21.7988" gradientUnits="userSpaceOnUse">
<stop stop-color="#3D2935"/>
<stop offset="1" stop-color="#DE0682"/>
</linearGradient>
<clipPath id="clip0_1115_18506">
<rect width="40" height="40" fill="white" transform="translate(0.75)"/>
</clipPath>
</defs>
</svg>
