<svg width="41" height="40" viewBox="0 0 41 40" fill="none" xmlns="http://www.w3.org/2000/svg">
<g clip-path="url(#clip0_182_6108)">
<path d="M20.5927 0.273926C9.66909 0.273926 0.8125 9.13052 0.8125 20.0541C0.8125 30.9778 9.66909 39.8344 20.5927 39.8344C31.5163 39.8344 40.3729 30.9778 40.3729 20.0541C40.3729 9.13052 31.5163 0.273926 20.5927 0.273926ZM18.4268 8.0459C23.8482 8.0459 28.2444 12.4305 28.2444 17.8421C28.2444 18.6399 27.5949 19.2877 26.7955 19.2877C25.996 19.2877 25.3466 18.6399 25.3466 17.8421C25.3466 14.0294 22.2477 10.9371 18.4268 10.9371C17.6257 10.9371 16.9779 10.2893 16.9779 9.49151C16.9779 8.69371 17.624 8.0459 18.4268 8.0459ZM10.0334 23.7118C9.23228 23.7118 8.58448 23.0624 8.58448 22.2662C8.58448 16.8547 12.979 12.4668 18.4021 12.4668C19.2015 12.4668 19.851 13.1146 19.851 13.9124C19.851 14.7102 19.2015 15.3563 18.4021 15.3563C14.5795 15.3563 11.4823 18.4503 11.4823 22.2646C11.4823 23.0624 10.8312 23.7118 10.0334 23.7118ZM22.7834 32.064C17.3603 32.064 12.9641 27.6761 12.9641 22.2662C12.9641 21.4684 13.6136 20.819 14.4131 20.819C15.2125 20.819 15.862 21.4684 15.862 22.2662C15.862 26.0789 18.9609 29.1712 22.7834 29.1712C23.5828 29.1712 24.2323 29.819 24.2323 30.6168C24.2323 31.4179 23.5828 32.064 22.7834 32.064ZM22.7834 27.6415C21.9839 27.6415 21.3328 26.9937 21.3328 26.1976C21.3328 25.3997 21.9839 24.7503 22.7834 24.7503C26.6043 24.7503 29.7048 21.658 29.7048 17.8437C29.7048 17.0459 30.3526 16.3981 31.1537 16.3981C31.9532 16.3981 32.6026 17.0459 32.6026 17.8437C32.6026 23.2536 28.2065 27.6415 22.7834 27.6415Z" fill="white"/>
</g>
<defs>
<clipPath id="clip0_182_6108">
<rect width="39.5604" height="39.5604" fill="white" transform="translate(0.8125 0.274414)"/>
</clipPath>
</defs>
</svg>
