<svg width="40" height="40" viewBox="0 0 40 40" fill="none" xmlns="http://www.w3.org/2000/svg">
<g clip-path="url(#clip0_182_6104)">
<path d="M22.5375 20.0518C22.5462 23.0217 21.376 25.8737 19.2837 27.9815C17.1913 30.0893 14.348 31.2805 11.3781 31.2936C8.40824 31.2805 5.56494 30.0893 3.47262 27.9815C1.38031 25.8737 0.210035 23.0217 0.218799 20.0518C0.210035 17.0819 1.38031 14.2299 3.47262 12.1221C5.56494 10.0144 8.40824 8.82315 11.3781 8.81006C14.348 8.82315 17.1913 10.0144 19.2837 12.1221C21.376 14.2299 22.5462 17.0819 22.5375 20.0518ZM34.7682 20.0518C34.7682 25.887 32.2792 30.6342 29.1968 30.6342C26.1144 30.6342 23.6089 25.887 23.6089 20.0518C23.6089 14.2167 26.1144 9.4694 29.1968 9.4694C32.2792 9.4694 34.7682 14.2167 34.7682 20.0518ZM39.7792 20.0518C39.7792 25.2771 38.9056 29.5298 37.8177 29.5298C36.7298 29.5298 35.8562 25.2771 35.8562 20.0518C35.8562 14.8265 36.7298 10.5738 37.8177 10.5738C38.9056 10.5738 39.7792 14.8265 39.7792 20.0518Z" fill="white"/>
</g>
<defs>
<clipPath id="clip0_182_6104">
<rect width="39.5604" height="39.5604" fill="white" transform="translate(0.21875 0.274414)"/>
</clipPath>
</defs>
</svg>
