<svg width="40" height="40" viewBox="0 0 40 40" fill="none" xmlns="http://www.w3.org/2000/svg">
<path fill-rule="evenodd" clip-rule="evenodd" d="M20 40C31.04 40 40 31.04 40 20C40 8.96 31.04 0 20 0C8.96 0 0 8.96 0 20C0 31.04 8.96 40 20 40ZM33.0394 23.48V22.2C33.0394 22.08 32.9594 22 32.7194 22.12L26.6394 23.88C26.5994 23.88 26.5994 23.88 26.5594 23.92C26.0457 24.4639 25.6004 24.8709 25.3617 25.0891C25.2844 25.1598 25.2287 25.2107 25.1994 25.24C24.8394 25.56 24.3594 25.72 23.8794 25.72H21.6794V23.48H23.4394C23.4794 23.48 23.5194 23.48 23.5594 23.44L23.7994 23.24C23.9194 23.16 24.0394 23.04 24.1593 22.92C24.2414 22.8654 24.3047 22.792 24.3621 22.7255C24.3887 22.6947 24.414 22.6653 24.4394 22.64C24.5214 22.5853 24.5847 22.512 24.6421 22.4455C24.6687 22.4147 24.694 22.3853 24.7194 22.36C24.7794 22.28 24.8494 22.2 24.9194 22.12C24.9894 22.04 25.0594 21.96 25.1194 21.88C25.2394 21.76 25.3194 21.64 25.3993 21.52C25.4393 21.46 25.4894 21.4 25.5394 21.34C25.5894 21.28 25.6394 21.22 25.6794 21.16C25.7074 21.0758 25.7552 21.0113 25.8088 20.9389C25.8316 20.9081 25.8555 20.8758 25.8794 20.84C25.9594 20.72 26.0394 20.6 26.0794 20.52C26.2393 20.2401 26.3994 19.9599 26.5194 19.68C26.5805 19.5578 26.6183 19.4356 26.6505 19.3312L26.6508 19.3303C26.6607 19.2983 26.67 19.2681 26.6794 19.24C26.6994 19.16 26.7194 19.09 26.7394 19.02C26.7594 18.95 26.7794 18.88 26.7994 18.8L26.8054 18.746C26.8432 18.4077 26.8774 18.1019 26.8394 17.76C26.8394 17.64 26.8394 17.52 26.7994 17.44C26.7994 17.4 26.7994 17.32 26.7594 17.24C26.7194 16.88 26.5994 16.56 26.4394 16.24C26.4194 16.18 26.3894 16.12 26.3594 16.06C26.3294 16 26.2994 15.94 26.2794 15.88C26.1994 15.76 26.1294 15.64 26.0594 15.52C25.9894 15.4 25.9194 15.28 25.8394 15.16C25.8143 15.0847 25.7734 15.0251 25.7366 14.9714C25.7147 14.9396 25.6943 14.9098 25.6794 14.88C25.6194 14.8 25.5494 14.71 25.4794 14.62C25.4094 14.53 25.3394 14.44 25.2794 14.36C25.2194 14.3 25.1694 14.23 25.1194 14.16C25.0694 14.09 25.0194 14.02 24.9594 13.96C24.8994 13.9 24.8494 13.84 24.7994 13.78C24.7494 13.72 24.6994 13.66 24.6394 13.6C24.2394 13.16 23.8394 12.76 23.4794 12.44C23.4535 12.3883 23.411 12.3534 23.3626 12.3135C23.3361 12.2917 23.3077 12.2683 23.2794 12.24C22.9994 12 22.7194 11.76 22.5194 11.6C22.3994 11.52 22.3194 11.44 22.2394 11.36C22.1194 11.28 22.0394 11.2 21.9994 11.16C21.9994 11.12 21.9594 11.12 21.9594 11.12L21.7194 11.04V9.12C21.7194 8.8 21.5994 8.52 21.3994 8.32C21.1994 8.12 20.9194 8 20.5994 8C19.9994 8 19.4794 8.52 19.4794 9.16V10.48L19.3594 10.44L19.0394 10.36L18.7594 10.28L16.5594 9.68C16.4794 9.64 16.3994 9.76 16.4394 9.84L16.7994 10.48L16.9194 10.72C16.9394 10.78 16.9694 10.84 16.9994 10.9C17.0294 10.96 17.0594 11.02 17.0794 11.08C17.0994 11.14 17.1294 11.19 17.1594 11.24C17.1894 11.29 17.2194 11.34 17.2394 11.4C17.3594 11.64 17.4794 11.92 17.5994 12.2L17.8394 12.8C18.0394 13.28 18.2394 13.84 18.3994 14.4C18.4664 14.534 18.5053 14.6961 18.5397 14.8393C18.5417 14.8474 18.5436 14.8555 18.5456 14.8635C18.5502 14.8828 18.5548 14.9016 18.5594 14.92L18.5994 15C18.6794 15.28 18.7194 15.52 18.7594 15.8C18.7994 15.96 18.8394 16.16 18.8394 16.32C18.8394 16.42 18.8494 16.52 18.8594 16.62C18.8694 16.72 18.8794 16.82 18.8794 16.92C18.9194 17.12 18.9194 17.32 18.9194 17.48C18.9194 17.96 18.8794 18.4 18.7994 18.8L18.6794 19.16C18.6645 19.2047 18.6441 19.2549 18.6222 19.3086C18.5854 19.3991 18.5445 19.4996 18.5194 19.6C18.4794 19.72 18.4394 19.8 18.3994 19.88C18.1994 20.36 17.9594 20.88 17.6794 21.32C17.2794 22 16.9194 22.56 16.6394 22.96C16.5994 23.04 16.5594 23.08 16.5194 23.12C16.4394 23.24 16.5194 23.4 16.6794 23.4H19.5194V25.64H16.6394C15.8794 25.64 15.1594 25.24 14.7994 24.52C14.6394 24.16 14.5594 23.76 14.5994 23.4C14.5994 23.32 14.5194 23.2 14.3994 23.2H8.51938C8.43938 23.2 8.35938 23.28 8.35938 23.36V23.48C8.35938 27.2 11.3594 30.2 15.0394 30.2H25.4794C27.4082 30.2 28.5144 28.4336 29.6071 26.6887C29.9193 26.1902 30.2305 25.6934 30.5594 25.24C31.1194 24.44 32.5194 23.8 32.9194 23.64C32.9994 23.6 33.0394 23.56 33.0394 23.48ZM9.95938 20.56L9.87937 20.68C9.79937 20.8 9.87937 20.96 9.99937 21H15.3594C15.4394 21 15.4794 20.96 15.5194 20.92C15.5994 20.84 15.6794 20.72 15.7194 20.6C16.1994 19.84 16.5994 19 16.7594 18.36C17.0794 16.84 16.3594 14.44 15.4794 12.48C15.3994 12.32 15.2394 12.32 15.1594 12.44L9.95938 20.56Z" fill="white"/>
</svg>
