<svg width="335" height="213" viewBox="0 0 335 213" fill="none" xmlns="http://www.w3.org/2000/svg">
<g style="mix-blend-mode:hard-light" filter="url(#filter0_f_1481_27298)">
<g style="mix-blend-mode:hard-light">
<path shape-rendering="geometricPrecision" d="M167.564 100.823C249.061 100.823 315.128 82.7305 315.128 60.4117C315.128 38.0929 249.061 20 167.564 20C86.0667 20 20 38.0929 20 60.4117C20 82.7305 86.0667 100.823 167.564 100.823Z" fill="#FF3780" fill-opacity="0.2"/>
</g>
</g>
<g style="mix-blend-mode:hard-light">
<g style="mix-blend-mode:hard-light">
<path shape-rendering="geometricPrecision" d="M117.623 93.5505L133.83 30.7595H117.534L108.501 76.4665L97.8732 30.7595H81.2232L70.1522 76.4665L61.2072 30.7595H45L60.7642 93.5505H79.0972L89.3712 52.2265L99.2902 93.5505H117.623Z" fill="black" fill-opacity="0.9"/>
</g>
<g style="mix-blend-mode:hard-light">
<path shape-rendering="geometricPrecision" fill-rule="evenodd" clip-rule="evenodd" d="M235.659 66.8065C233.475 63.9445 230.582 62.1255 226.98 61.3505C230.168 60.3965 232.707 58.6965 234.596 56.2515C236.545 53.8075 237.519 50.7365 237.519 47.0385C237.519 42.0305 235.718 38.0645 232.117 35.1425C228.574 32.2205 223.644 30.7595 217.326 30.7595H189.34V93.5505H218.301C224.795 93.5505 229.844 92.0305 233.445 88.9895C237.106 85.8885 238.936 81.7145 238.936 76.4665C238.936 72.8295 237.844 69.6095 235.659 66.8065ZM220.072 54.5525C218.773 55.6255 216.884 56.1625 214.404 56.1625H204.485V43.0135H214.404C216.884 43.0135 218.773 43.5805 220.072 44.7135C221.43 45.8465 222.109 47.4865 222.109 49.6325C222.109 51.7795 221.43 53.4195 220.072 54.5525ZM221.489 79.5075C220.131 80.6405 218.183 81.2075 215.644 81.2075H204.485V67.3435H215.467C218.005 67.3435 219.983 67.9695 221.4 69.2215C222.876 70.4735 223.614 72.2035 223.614 74.4095C223.614 76.6155 222.906 78.3155 221.489 79.5075Z" fill="black" fill-opacity="0.9"/>
</g>
<g style="mix-blend-mode:hard-light">
<path shape-rendering="geometricPrecision" d="M252.945 31.9226C249.048 35.3816 246.982 40.3006 246.746 46.6816H261.536C261.713 44.6536 262.333 42.9546 263.396 41.5826C264.518 40.2116 266.2 39.5256 268.444 39.5256C270.511 39.5256 272.134 40.1216 273.315 41.3146C274.496 42.5076 275.086 44.1766 275.086 46.3236C275.086 49.0066 274.142 50.8856 272.252 51.9586C270.422 52.9726 268.001 53.4796 264.99 53.4796H262.156V65.9126H264.99C268.946 65.9126 271.81 66.5686 273.581 67.8796C275.411 69.1326 276.326 71.1896 276.326 74.0516C276.326 76.2576 275.677 78.0466 274.378 79.4186C273.138 80.7306 271.367 81.3866 269.064 81.3866C266.348 81.3866 264.282 80.6406 262.865 79.1506C261.447 77.5996 260.709 75.5126 260.65 72.8886H245.949C246.185 79.9846 248.399 85.2926 252.591 88.8106C256.842 92.3286 262.51 94.0876 269.595 94.0876C274.024 94.0876 277.832 93.2826 281.02 91.6726C284.268 90.0626 286.718 87.8566 288.371 85.0536C290.083 82.1916 290.939 78.9116 290.939 75.2146C290.939 71.0996 289.965 67.7306 288.017 65.1076C286.068 62.4836 283.411 60.6046 280.046 59.4716V59.1146C282.644 58.2196 284.917 56.5506 286.866 54.1056C288.814 51.6006 289.788 48.3806 289.788 44.4456C289.788 41.1056 288.962 38.0946 287.308 35.4116C285.714 32.7276 283.323 30.6106 280.135 29.0606C277.005 27.5096 273.227 26.7346 268.798 26.7346C262.126 26.7346 256.842 28.4646 252.945 31.9226Z" fill="black" fill-opacity="0.9"/>
</g>
<g style="mix-blend-mode:hard-light">
<path shape-rendering="geometricPrecision" d="M156.57 55.7155V43.0135H179.508V30.7595H141.425V93.5505H179.508V81.2965H156.57V67.5225H176.851V55.7155H156.57Z" fill="black" fill-opacity="0.9"/>
</g>
<g style="mix-blend-mode:hard-light">
<path shape-rendering="geometricPrecision" d="M117.623 93.5505L133.83 30.7595H117.534L108.501 76.4665L97.8732 30.7595H81.2232L70.1522 76.4665L61.2072 30.7595H45L60.7642 93.5505H79.0972L89.3712 52.2265L99.2902 93.5505H117.623Z" stroke="#F32E7C" stroke-width="4.2425" stroke-linecap="round" stroke-linejoin="round"/>
</g>
<g style="mix-blend-mode:hard-light">
<path shape-rendering="geometricPrecision" fill-rule="evenodd" clip-rule="evenodd" d="M235.659 66.8065C233.475 63.9445 230.582 62.1255 226.98 61.3505C230.168 60.3965 232.707 58.6965 234.596 56.2515C236.545 53.8075 237.519 50.7365 237.519 47.0385C237.519 42.0305 235.718 38.0645 232.117 35.1425C228.574 32.2205 223.644 30.7595 217.326 30.7595H189.34V93.5505H218.301C224.795 93.5505 229.844 92.0305 233.445 88.9895C237.106 85.8885 238.936 81.7145 238.936 76.4665C238.936 72.8295 237.844 69.6095 235.659 66.8065ZM220.072 54.5525C218.773 55.6255 216.884 56.1625 214.404 56.1625H204.485V43.0135H214.404C216.884 43.0135 218.773 43.5805 220.072 44.7135C221.43 45.8465 222.109 47.4865 222.109 49.6325C222.109 51.7795 221.43 53.4195 220.072 54.5525ZM221.489 79.5075C220.131 80.6405 218.183 81.2075 215.644 81.2075H204.485V67.3435H215.467C218.005 67.3435 219.983 67.9695 221.4 69.2215C222.876 70.4735 223.614 72.2035 223.614 74.4095C223.614 76.6155 222.906 78.3155 221.489 79.5075Z" stroke="#F32E7C" stroke-width="4.2425" stroke-linecap="round" stroke-linejoin="round"/>
</g>
<g style="mix-blend-mode:hard-light">
<path shape-rendering="geometricPrecision" d="M252.945 31.9226C249.048 35.3816 246.982 40.3006 246.746 46.6816H261.536C261.713 44.6536 262.333 42.9546 263.396 41.5826C264.518 40.2116 266.2 39.5256 268.444 39.5256C270.511 39.5256 272.134 40.1216 273.315 41.3146C274.496 42.5076 275.086 44.1766 275.086 46.3236C275.086 49.0066 274.142 50.8856 272.252 51.9586C270.422 52.9726 268.001 53.4796 264.99 53.4796H262.156V65.9126H264.99C268.946 65.9126 271.81 66.5686 273.581 67.8796C275.411 69.1326 276.326 71.1896 276.326 74.0516C276.326 76.2576 275.677 78.0466 274.378 79.4186C273.138 80.7306 271.367 81.3866 269.064 81.3866C266.348 81.3866 264.282 80.6406 262.865 79.1506C261.447 77.5996 260.709 75.5126 260.65 72.8886H245.949C246.185 79.9846 248.399 85.2926 252.591 88.8106C256.842 92.3286 262.51 94.0876 269.595 94.0876C274.024 94.0876 277.832 93.2826 281.02 91.6726C284.268 90.0626 286.718 87.8566 288.371 85.0536C290.083 82.1916 290.939 78.9116 290.939 75.2146C290.939 71.0996 289.965 67.7306 288.017 65.1076C286.068 62.4836 283.411 60.6046 280.046 59.4716V59.1146C282.644 58.2196 284.917 56.5506 286.866 54.1056C288.814 51.6006 289.788 48.3806 289.788 44.4456C289.788 41.1056 288.962 38.0946 287.308 35.4116C285.714 32.7276 283.323 30.6106 280.135 29.0606C277.005 27.5096 273.227 26.7346 268.798 26.7346C262.126 26.7346 256.842 28.4646 252.945 31.9226Z" stroke="#F32E7C" stroke-width="4.2425" stroke-linecap="round" stroke-linejoin="round"/>
</g>
<g style="mix-blend-mode:hard-light">
<path shape-rendering="geometricPrecision" d="M156.57 55.7155V43.0135H179.508V30.7595H141.425V93.5505H179.508V81.2965H156.57V67.5225H176.851V55.7155H156.57Z" stroke="#F32E7C" stroke-width="4.2425" stroke-linecap="round" stroke-linejoin="round"/>
</g>
</g>
<g style="mix-blend-mode:hard-light" filter="url(#filter1_f_1481_27298)">
<g style="mix-blend-mode:hard-light">
<path shape-rendering="geometricPrecision" d="M117.623 93.5505L133.83 30.7595H117.534L108.501 76.4665L97.8732 30.7595H81.2232L70.1522 76.4665L61.2072 30.7595H45L60.7642 93.5505H79.0972L89.3712 52.2265L99.2902 93.5505H117.623Z" stroke="#FF26C2" stroke-width="5.54789" stroke-linecap="round" stroke-linejoin="round"/>
</g>
<g style="mix-blend-mode:hard-light">
<path shape-rendering="geometricPrecision" fill-rule="evenodd" clip-rule="evenodd" d="M235.659 66.8065C233.475 63.9445 230.582 62.1255 226.98 61.3505C230.168 60.3965 232.707 58.6965 234.596 56.2515C236.545 53.8075 237.519 50.7365 237.519 47.0385C237.519 42.0305 235.718 38.0645 232.117 35.1425C228.574 32.2205 223.644 30.7595 217.326 30.7595H189.34V93.5505H218.301C224.795 93.5505 229.844 92.0305 233.445 88.9895C237.106 85.8885 238.936 81.7145 238.936 76.4665C238.936 72.8295 237.844 69.6095 235.659 66.8065ZM220.072 54.5525C218.773 55.6255 216.884 56.1625 214.404 56.1625H204.485V43.0135H214.404C216.884 43.0135 218.773 43.5805 220.072 44.7135C221.43 45.8465 222.109 47.4865 222.109 49.6325C222.109 51.7795 221.43 53.4195 220.072 54.5525ZM221.489 79.5075C220.131 80.6405 218.183 81.2075 215.644 81.2075H204.485V67.3435H215.467C218.005 67.3435 219.983 67.9695 221.4 69.2215C222.876 70.4735 223.614 72.2035 223.614 74.4095C223.614 76.6155 222.906 78.3155 221.489 79.5075Z" stroke="#FF26C2" stroke-width="5.54789" stroke-linecap="round" stroke-linejoin="round"/>
</g>
<g style="mix-blend-mode:hard-light">
<path shape-rendering="geometricPrecision" d="M252.945 31.9226C249.048 35.3816 246.982 40.3006 246.746 46.6816H261.536C261.713 44.6536 262.333 42.9546 263.396 41.5826C264.518 40.2116 266.2 39.5256 268.444 39.5256C270.511 39.5256 272.134 40.1216 273.315 41.3146C274.496 42.5076 275.086 44.1766 275.086 46.3236C275.086 49.0066 274.142 50.8856 272.252 51.9586C270.422 52.9726 268.001 53.4796 264.99 53.4796H262.156V65.9126H264.99C268.946 65.9126 271.81 66.5686 273.581 67.8796C275.411 69.1326 276.326 71.1896 276.326 74.0516C276.326 76.2576 275.677 78.0466 274.378 79.4186C273.138 80.7306 271.367 81.3866 269.064 81.3866C266.348 81.3866 264.282 80.6406 262.865 79.1506C261.447 77.5996 260.709 75.5126 260.65 72.8886H245.949C246.185 79.9846 248.399 85.2926 252.591 88.8106C256.842 92.3286 262.51 94.0876 269.595 94.0876C274.024 94.0876 277.832 93.2826 281.02 91.6726C284.268 90.0626 286.718 87.8566 288.371 85.0536C290.083 82.1916 290.939 78.9116 290.939 75.2146C290.939 71.0996 289.965 67.7306 288.017 65.1076C286.068 62.4836 283.411 60.6046 280.046 59.4716V59.1146C282.644 58.2196 284.917 56.5506 286.866 54.1056C288.814 51.6006 289.788 48.3806 289.788 44.4456C289.788 41.1056 288.962 38.0946 287.308 35.4116C285.714 32.7276 283.323 30.6106 280.135 29.0606C277.005 27.5096 273.227 26.7346 268.798 26.7346C262.126 26.7346 256.842 28.4646 252.945 31.9226Z" stroke="#FF26C2" stroke-width="5.54789" stroke-linecap="round" stroke-linejoin="round"/>
</g>
<g style="mix-blend-mode:hard-light">
<path shape-rendering="geometricPrecision" d="M156.57 55.7155V43.0135H179.508V30.7595H141.425V93.5505H179.508V81.2965H156.57V67.5225H176.851V55.7155H156.57Z" stroke="#FF26C2" stroke-width="5.54789" stroke-linecap="round" stroke-linejoin="round"/>
</g>
</g>
<g style="mix-blend-mode:hard-light" filter="url(#filter2_ddi_1481_27298)">
<g style="mix-blend-mode:hard-light">
<path shape-rendering="geometricPrecision" d="M117.623 93.5505L133.83 30.7595H117.534L108.501 76.4665L97.8732 30.7595H81.2232L70.1522 76.4665L61.2072 30.7595H45L60.7642 93.5505H79.0972L89.3712 52.2265L99.2902 93.5505H117.623Z" stroke="#FB37FF" stroke-opacity="0.2" stroke-width="4.2425" stroke-linecap="round" stroke-linejoin="round"/>
</g>
<g style="mix-blend-mode:hard-light">
<path shape-rendering="geometricPrecision" fill-rule="evenodd" clip-rule="evenodd" d="M235.659 66.8065C233.475 63.9445 230.582 62.1255 226.98 61.3505C230.168 60.3965 232.707 58.6965 234.596 56.2515C236.545 53.8075 237.519 50.7365 237.519 47.0385C237.519 42.0305 235.718 38.0645 232.117 35.1425C228.574 32.2205 223.644 30.7595 217.326 30.7595H189.34V93.5505H218.301C224.795 93.5505 229.844 92.0305 233.445 88.9895C237.106 85.8885 238.936 81.7145 238.936 76.4665C238.936 72.8295 237.844 69.6095 235.659 66.8065ZM220.072 54.5525C218.773 55.6255 216.884 56.1625 214.404 56.1625H204.485V43.0135H214.404C216.884 43.0135 218.773 43.5805 220.072 44.7135C221.43 45.8465 222.109 47.4865 222.109 49.6325C222.109 51.7795 221.43 53.4195 220.072 54.5525ZM221.489 79.5075C220.131 80.6405 218.183 81.2075 215.644 81.2075H204.485V67.3435H215.467C218.005 67.3435 219.983 67.9695 221.4 69.2215C222.876 70.4735 223.614 72.2035 223.614 74.4095C223.614 76.6155 222.906 78.3155 221.489 79.5075Z" stroke="#FB37FF" stroke-opacity="0.2" stroke-width="4.2425" stroke-linecap="round" stroke-linejoin="round"/>
</g>
<g style="mix-blend-mode:hard-light">
<path shape-rendering="geometricPrecision" d="M252.945 31.9226C249.048 35.3816 246.982 40.3006 246.746 46.6816H261.536C261.713 44.6536 262.333 42.9546 263.396 41.5826C264.518 40.2116 266.2 39.5256 268.444 39.5256C270.511 39.5256 272.134 40.1216 273.315 41.3146C274.496 42.5076 275.086 44.1766 275.086 46.3236C275.086 49.0066 274.142 50.8856 272.252 51.9586C270.422 52.9726 268.001 53.4796 264.99 53.4796H262.156V65.9126H264.99C268.946 65.9126 271.81 66.5686 273.581 67.8796C275.411 69.1326 276.326 71.1896 276.326 74.0516C276.326 76.2576 275.677 78.0466 274.378 79.4186C273.138 80.7306 271.367 81.3866 269.064 81.3866C266.348 81.3866 264.282 80.6406 262.865 79.1506C261.447 77.5996 260.709 75.5126 260.65 72.8886H245.949C246.185 79.9846 248.399 85.2926 252.591 88.8106C256.842 92.3286 262.51 94.0876 269.595 94.0876C274.024 94.0876 277.832 93.2826 281.02 91.6726C284.268 90.0626 286.718 87.8566 288.371 85.0536C290.083 82.1916 290.939 78.9116 290.939 75.2146C290.939 71.0996 289.965 67.7306 288.017 65.1076C286.068 62.4836 283.411 60.6046 280.046 59.4716V59.1146C282.644 58.2196 284.917 56.5506 286.866 54.1056C288.814 51.6006 289.788 48.3806 289.788 44.4456C289.788 41.1056 288.962 38.0946 287.308 35.4116C285.714 32.7276 283.323 30.6106 280.135 29.0606C277.005 27.5096 273.227 26.7346 268.798 26.7346C262.126 26.7346 256.842 28.4646 252.945 31.9226Z" stroke="#FB37FF" stroke-opacity="0.2" stroke-width="4.2425" stroke-linecap="round" stroke-linejoin="round"/>
</g>
<g style="mix-blend-mode:hard-light">
<path shape-rendering="geometricPrecision" d="M156.57 55.7155V43.0135H179.508V30.7595H141.425V93.5505H179.508V81.2965H156.57V67.5225H176.851V55.7155H156.57Z" stroke="#FB37FF" stroke-opacity="0.2" stroke-width="4.2425" stroke-linecap="round" stroke-linejoin="round"/>
</g>
</g>
<g filter="url(#filter3_f_1481_27298)">
<path shape-rendering="geometricPrecision" d="M117.623 93.5505L133.83 30.7595H117.534L108.501 76.4665L97.8732 30.7595H81.2232L70.1522 76.4665L61.2072 30.7595H45L60.7642 93.5505H79.0972L89.3712 52.2265L99.2902 93.5505H117.623Z" stroke="#FB37FF" stroke-width="2.61077" stroke-linecap="round" stroke-linejoin="round"/>
<path shape-rendering="geometricPrecision" fill-rule="evenodd" clip-rule="evenodd" d="M235.659 66.8065C233.475 63.9445 230.582 62.1255 226.98 61.3505C230.168 60.3965 232.707 58.6965 234.596 56.2515C236.545 53.8075 237.519 50.7365 237.519 47.0385C237.519 42.0305 235.718 38.0645 232.117 35.1425C228.574 32.2205 223.644 30.7595 217.326 30.7595H189.34V93.5505H218.301C224.795 93.5505 229.844 92.0305 233.445 88.9895C237.106 85.8885 238.936 81.7145 238.936 76.4665C238.936 72.8295 237.844 69.6095 235.659 66.8065ZM220.072 54.5525C218.773 55.6255 216.884 56.1625 214.404 56.1625H204.485V43.0135H214.404C216.884 43.0135 218.773 43.5805 220.072 44.7135C221.43 45.8465 222.109 47.4865 222.109 49.6325C222.109 51.7795 221.43 53.4195 220.072 54.5525ZM221.489 79.5075C220.131 80.6405 218.183 81.2075 215.644 81.2075H204.485V67.3435H215.467C218.005 67.3435 219.983 67.9695 221.4 69.2215C222.876 70.4735 223.614 72.2035 223.614 74.4095C223.614 76.6155 222.906 78.3155 221.489 79.5075Z" stroke="#FB37FF" stroke-width="2.61077" stroke-linecap="round" stroke-linejoin="round"/>
<path shape-rendering="geometricPrecision" d="M252.945 31.9226C249.048 35.3816 246.982 40.3006 246.746 46.6816H261.536C261.713 44.6536 262.333 42.9546 263.396 41.5826C264.518 40.2116 266.2 39.5256 268.444 39.5256C270.511 39.5256 272.134 40.1216 273.315 41.3146C274.496 42.5076 275.086 44.1766 275.086 46.3236C275.086 49.0066 274.142 50.8856 272.252 51.9586C270.422 52.9726 268.001 53.4796 264.99 53.4796H262.156V65.9126H264.99C268.946 65.9126 271.81 66.5686 273.581 67.8796C275.411 69.1326 276.326 71.1896 276.326 74.0516C276.326 76.2576 275.677 78.0466 274.378 79.4186C273.138 80.7306 271.367 81.3866 269.064 81.3866C266.348 81.3866 264.282 80.6406 262.865 79.1506C261.447 77.5996 260.709 75.5126 260.65 72.8886H245.949C246.185 79.9846 248.399 85.2926 252.591 88.8106C256.842 92.3286 262.51 94.0876 269.595 94.0876C274.024 94.0876 277.832 93.2826 281.02 91.6726C284.268 90.0626 286.718 87.8566 288.371 85.0536C290.083 82.1916 290.939 78.9116 290.939 75.2146C290.939 71.0996 289.965 67.7306 288.017 65.1076C286.068 62.4836 283.411 60.6046 280.046 59.4716V59.1146C282.644 58.2196 284.917 56.5506 286.866 54.1056C288.814 51.6006 289.788 48.3806 289.788 44.4456C289.788 41.1056 288.962 38.0946 287.308 35.4116C285.714 32.7276 283.323 30.6106 280.135 29.0606C277.005 27.5096 273.227 26.7346 268.798 26.7346C262.126 26.7346 256.842 28.4646 252.945 31.9226Z" stroke="#FB37FF" stroke-width="2.61077" stroke-linecap="round" stroke-linejoin="round"/>
<path shape-rendering="geometricPrecision" d="M156.57 55.7155V43.0135H179.508V30.7595H141.425V93.5505H179.508V81.2965H156.57V67.5225H176.851V55.7155H156.57Z" stroke="#FB37FF" stroke-width="2.61077" stroke-linecap="round" stroke-linejoin="round"/>
</g>
<g filter="url(#filter4_f_1481_27298)">
<path shape-rendering="geometricPrecision" d="M117.623 93.5505L133.83 30.7595H117.534L108.501 76.4665L97.8732 30.7595H81.2232L70.1522 76.4665L61.2072 30.7595H45L60.7642 93.5505H79.0972L89.3712 52.2265L99.2902 93.5505H117.623Z" stroke="white" stroke-width="1.30538" stroke-linecap="round" stroke-linejoin="round"/>
<path shape-rendering="geometricPrecision" fill-rule="evenodd" clip-rule="evenodd" d="M235.659 66.8065C233.475 63.9445 230.582 62.1255 226.98 61.3505C230.168 60.3965 232.707 58.6965 234.596 56.2515C236.545 53.8075 237.519 50.7365 237.519 47.0385C237.519 42.0305 235.718 38.0645 232.117 35.1425C228.574 32.2205 223.644 30.7595 217.326 30.7595H189.34V93.5505H218.301C224.795 93.5505 229.844 92.0305 233.445 88.9895C237.106 85.8885 238.936 81.7145 238.936 76.4665C238.936 72.8295 237.844 69.6095 235.659 66.8065ZM220.072 54.5525C218.773 55.6255 216.884 56.1625 214.404 56.1625H204.485V43.0135H214.404C216.884 43.0135 218.773 43.5805 220.072 44.7135C221.43 45.8465 222.109 47.4865 222.109 49.6325C222.109 51.7795 221.43 53.4195 220.072 54.5525ZM221.489 79.5075C220.131 80.6405 218.183 81.2075 215.644 81.2075H204.485V67.3435H215.467C218.005 67.3435 219.983 67.9695 221.4 69.2215C222.876 70.4735 223.614 72.2035 223.614 74.4095C223.614 76.6155 222.906 78.3155 221.489 79.5075Z" stroke="white" stroke-width="1.30538" stroke-linecap="round" stroke-linejoin="round"/>
<path shape-rendering="geometricPrecision" d="M252.945 31.9226C249.048 35.3816 246.982 40.3006 246.746 46.6816H261.536C261.713 44.6536 262.333 42.9546 263.396 41.5826C264.518 40.2116 266.2 39.5256 268.444 39.5256C270.511 39.5256 272.134 40.1216 273.315 41.3146C274.496 42.5076 275.086 44.1766 275.086 46.3236C275.086 49.0066 274.142 50.8856 272.252 51.9586C270.422 52.9726 268.001 53.4796 264.99 53.4796H262.156V65.9126H264.99C268.946 65.9126 271.81 66.5686 273.581 67.8796C275.411 69.1326 276.326 71.1896 276.326 74.0516C276.326 76.2576 275.677 78.0466 274.378 79.4186C273.138 80.7306 271.367 81.3866 269.064 81.3866C266.348 81.3866 264.282 80.6406 262.865 79.1506C261.447 77.5996 260.709 75.5126 260.65 72.8886H245.949C246.185 79.9846 248.399 85.2926 252.591 88.8106C256.842 92.3286 262.51 94.0876 269.595 94.0876C274.024 94.0876 277.832 93.2826 281.02 91.6726C284.268 90.0626 286.718 87.8566 288.371 85.0536C290.083 82.1916 290.939 78.9116 290.939 75.2146C290.939 71.0996 289.965 67.7306 288.017 65.1076C286.068 62.4836 283.411 60.6046 280.046 59.4716V59.1146C282.644 58.2196 284.917 56.5506 286.866 54.1056C288.814 51.6006 289.788 48.3806 289.788 44.4456C289.788 41.1056 288.962 38.0946 287.308 35.4116C285.714 32.7276 283.323 30.6106 280.135 29.0606C277.005 27.5096 273.227 26.7346 268.798 26.7346C262.126 26.7346 256.842 28.4646 252.945 31.9226Z" stroke="white" stroke-width="1.30538" stroke-linecap="round" stroke-linejoin="round"/>
<path shape-rendering="geometricPrecision" d="M156.57 55.7155V43.0135H179.508V30.7595H141.425V93.5505H179.508V81.2965H156.57V67.5225H176.851V55.7155H156.57Z" stroke="white" stroke-width="1.30538" stroke-linecap="round" stroke-linejoin="round"/>
</g>
<g style="mix-blend-mode:hard-light" filter="url(#filter5_f_1481_27298)">
<mask id="mask0_1481_27298" style="mask-type:alpha" maskUnits="userSpaceOnUse" x="49" y="95" width="238" height="94">
<g style="mix-blend-mode:hard-light">
<g style="mix-blend-mode:hard-light">
<path shape-rendering="geometricPrecision" d="M287 95.0586H49V188.059H287V95.0586Z" fill="white"/>
</g>
<g style="mix-blend-mode:hard-light">
<path shape-rendering="geometricPrecision" d="M54 181.628L55.0154 123.184C57.5694 122.846 59.9484 122.387 62.1514 121.807C64.4034 121.168 66.6414 120.667 68.8634 120.304C68.8684 120.359 68.8374 120.937 68.7714 122.038C68.7014 123.086 68.6074 124.491 68.4914 126.255C68.3694 127.964 68.2434 129.921 68.1114 132.124C67.9744 134.273 67.7474 137.252 67.4294 141.061C67.1664 144.865 66.8154 150.13 66.3744 156.854L67.6024 156.744C68.5714 151.617 69.3774 147.435 70.0214 144.2C70.6614 140.91 71.1654 138.262 71.5354 136.257C71.9544 134.192 72.3264 132.214 72.6514 130.322C73.0314 128.425 73.3684 126.669 73.6624 125.054C74.0124 123.434 74.2744 122.068 74.4494 120.956L75.1864 120.891C76.1684 120.803 77.1454 120.661 78.1174 120.465C79.1444 120.264 80.0894 120.07 80.9524 119.883C81.8654 119.637 82.8034 119.362 83.7654 119.057C83.7004 119.556 83.6544 120.573 83.6284 122.11C83.6554 123.642 83.6584 125.504 83.6354 127.698C83.6074 129.837 83.6024 132.221 83.6184 134.85C83.6294 137.424 83.6384 139.972 83.6454 142.492C83.6474 144.957 83.6394 147.313 83.6214 149.561C83.6574 151.804 83.6654 153.721 83.6434 155.312L85.1164 155.181L89.7394 119.428C91.5694 118.99 93.3754 118.583 95.1564 118.205C96.7194 117.846 98.3364 117.483 100.008 117.114C101.68 116.746 103.158 116.367 104.443 115.979C103.83 118.335 103.241 120.962 102.677 123.862C102.108 126.707 101.526 129.718 100.932 132.894C100.337 136.07 99.7734 139.271 99.2384 142.497C98.7574 145.718 98.2674 148.83 97.7674 151.833C96.6474 158.946 95.5984 166.245 94.6214 173.729L76.4034 178.479L77.1754 146.686L76.1934 146.772L70.7514 177.092L54 181.628Z" fill="black"/>
</g>
<g style="mix-blend-mode:hard-light">
<path shape-rendering="geometricPrecision" d="M136.385 172.305C135.04 172.644 133.562 173.022 131.95 173.44C130.337 173.858 128.886 174.234 127.596 174.568C127.653 172.755 127.712 170.969 127.774 169.21C127.801 167.674 127.801 166.139 127.773 164.608C127.8 163.071 127.819 161.754 127.83 160.658L120.71 161.293L118.492 173.326C117.306 173.596 115.905 173.913 114.288 174.276C112.666 174.586 111.152 174.885 109.749 175.175C108.022 175.548 106.323 175.919 104.651 176.287C106.184 168.863 107.699 161.55 109.196 154.348C109.805 151.335 110.429 148.184 111.068 144.894C111.762 141.599 112.431 138.334 113.075 135.099C113.769 131.804 114.42 128.65 115.029 125.637C115.639 122.624 116.16 119.865 116.595 117.361C120.281 116.758 124.016 116.096 127.801 115.375C131.641 114.649 135.359 113.796 138.956 112.818C138.949 114.572 138.953 116.763 138.97 119.392C139.036 121.961 139.124 124.775 139.234 127.833C139.344 130.892 139.466 134.086 139.6 137.417C139.735 140.747 139.864 144.023 139.989 147.244C140.391 154.77 140.807 162.76 141.237 171.214C139.624 171.632 138.007 171.995 136.385 172.305ZM121.941 152.964C122.16 152.945 122.541 152.911 123.087 152.862C123.682 152.754 124.28 152.673 124.88 152.62C125.53 152.507 126.128 152.426 126.673 152.378C127.214 152.275 127.591 152.186 127.805 152.112C127.775 151.786 127.754 151.24 127.74 150.474C127.776 149.649 127.777 148.745 127.743 147.762C127.76 146.719 127.769 145.595 127.77 144.39C127.772 143.184 127.776 142.006 127.782 140.855C127.751 138.063 127.755 135.049 127.794 131.813L127.648 124.676L126.427 124.867L125.175 132.047L121.941 152.964Z" fill="black"/>
</g>
<g style="mix-blend-mode:hard-light">
<path shape-rendering="geometricPrecision" d="M171.539 168.181C169.848 168.332 168.052 168.547 166.152 168.826C164.307 169.101 162.439 169.432 160.549 169.82C158.659 170.207 156.804 170.674 154.983 171.22C153.212 171.707 151.611 172.261 150.182 172.881C150.29 170.406 150.427 167.654 150.595 164.626C150.763 161.597 150.975 158.455 151.232 155.2C151.544 151.939 151.826 148.654 152.079 145.344C152.386 142.029 152.705 138.85 153.036 135.807C153.76 128.564 154.553 121.179 155.417 113.65L169.57 110.497C168.664 116.934 167.798 123.202 166.971 129.303C166.601 131.912 166.24 134.629 165.889 137.454C165.533 140.226 165.2 142.94 164.889 145.598C164.578 148.256 164.314 150.827 164.097 153.312C163.881 155.797 163.722 158.003 163.62 159.93C164.974 159.699 166.415 159.516 167.943 159.379C169.52 159.184 170.909 159.033 172.109 158.925C172.257 159.953 172.431 160.979 172.633 162.002C172.831 162.97 173.02 163.858 173.203 164.663C173.44 165.464 173.615 166.188 173.728 166.835C173.891 167.424 174.009 167.824 174.084 168.036C173.647 168.075 173.211 168.114 172.774 168.153C172.387 168.133 171.976 168.142 171.539 168.181Z" fill="black"/>
</g>
<g style="mix-blend-mode:hard-light">
<path shape-rendering="geometricPrecision" d="M203.121 165.363C201.43 165.514 199.634 165.729 197.735 166.008C195.889 166.282 194.022 166.613 192.132 167.001C190.241 167.389 188.386 167.856 186.565 168.402C184.794 168.889 183.194 169.443 181.765 170.063C181.872 167.588 182.01 164.836 182.177 161.808C182.345 158.779 182.558 155.637 182.815 152.381C183.127 149.121 183.409 145.836 183.661 142.526C183.968 139.211 184.287 136.032 184.619 132.989C185.342 125.746 186.136 118.361 186.999 110.832L201.153 107.679C200.246 114.115 199.38 120.384 198.554 126.485C198.183 129.093 197.822 131.81 197.471 134.636C197.116 137.407 196.782 140.122 196.471 142.78C196.16 145.437 195.896 148.009 195.68 150.494C195.463 152.979 195.304 155.185 195.202 157.111C196.557 156.881 197.997 156.698 199.525 156.561C201.103 156.366 202.491 156.214 203.692 156.107C203.839 157.135 204.014 158.161 204.216 159.184C204.413 160.152 204.603 161.039 204.785 161.845C205.022 162.646 205.197 163.37 205.31 164.017C205.473 164.605 205.592 165.006 205.666 165.218C205.229 165.257 204.793 165.296 204.356 165.335C203.97 165.315 203.558 165.324 203.121 165.363Z" fill="black"/>
</g>
<g style="mix-blend-mode:hard-light">
<path shape-rendering="geometricPrecision" d="M213.492 167.15L219.001 108.223L244.665 103.714C244.391 104.944 244.173 106.196 244.013 107.47C243.833 108.527 243.658 109.639 243.488 110.805C243.367 111.911 243.264 112.907 243.179 113.791C242.638 113.894 241.852 114.019 240.82 114.166C239.838 114.254 238.776 114.376 237.635 114.532C236.49 114.634 235.316 114.739 234.116 114.846C232.97 114.949 231.961 115.039 231.088 115.116L229.536 129.967C231.217 129.707 232.792 129.484 234.261 129.298C235.456 129.137 236.681 129 237.936 128.888C239.191 128.776 240.116 128.666 240.711 128.558C240.63 130.1 240.546 131.614 240.46 133.101C240.428 134.583 240.344 136.098 240.208 137.644C239.668 137.747 238.772 137.882 237.522 138.048C236.322 138.155 235.097 138.292 233.847 138.458C232.433 138.639 230.883 138.832 229.196 139.038L227.763 154.288L239.543 151.346L239.56 160.714L213.492 167.15Z" fill="black"/>
</g>
<g style="mix-blend-mode:hard-light">
<path shape-rendering="geometricPrecision" d="M255.462 163.405C256.179 157.314 256.849 151.309 257.472 145.391C257.743 142.901 258.004 140.302 258.256 137.595C258.508 134.888 258.737 132.237 258.944 129.644C259.2 126.991 259.384 124.454 259.497 122.033C259.659 119.553 259.786 117.295 259.878 115.26C258.608 115.209 257.321 115.269 256.017 115.44C254.767 115.606 253.497 115.555 252.208 115.287C252.184 114.412 252.121 113.404 252.019 112.263C251.916 111.121 251.841 109.977 251.792 108.831C251.735 107.576 251.669 106.239 251.597 104.821C253.025 104.803 254.451 104.758 255.875 104.686C257.298 104.614 258.719 104.514 260.138 104.388C262.92 104.139 265.589 103.846 268.144 103.509C270.748 103.112 273.134 102.735 275.302 102.377C277.519 101.96 279.679 101.521 281.783 101.059L281.279 105.542C281.118 106.817 280.96 108.118 280.805 109.447C280.704 110.771 280.586 111.905 280.45 112.849C279.279 113.282 278.074 113.636 276.834 113.911C275.643 114.127 274.457 114.397 273.277 114.722C273.061 116.604 272.837 118.706 272.606 121.028C272.37 123.295 272.144 125.671 271.927 128.156C271.76 130.582 271.598 133.062 271.441 135.597C271.284 138.131 271.117 140.557 270.94 142.874C270.551 148.333 270.234 153.977 269.988 159.807L255.462 163.405Z" fill="black"/>
</g>
</g>
</mask>
<g mask="url(#mask0_1481_27298)">
<g style="mix-blend-mode:hard-light">
<path shape-rendering="geometricPrecision" d="M54 181.628L55.0154 123.184C57.5694 122.846 59.9484 122.387 62.1514 121.807C64.4034 121.168 66.6414 120.667 68.8634 120.304C68.8684 120.359 68.8374 120.937 68.7714 122.038C68.7014 123.086 68.6074 124.491 68.4914 126.255C68.3694 127.964 68.2434 129.921 68.1114 132.124C67.9744 134.273 67.7474 137.252 67.4294 141.061C67.1664 144.865 66.8154 150.13 66.3744 156.854L67.6024 156.744C68.5714 151.617 69.3774 147.435 70.0214 144.2C70.6614 140.91 71.1654 138.262 71.5354 136.257C71.9544 134.192 72.3264 132.214 72.6514 130.322C73.0314 128.425 73.3684 126.669 73.6624 125.054C74.0124 123.434 74.2744 122.068 74.4494 120.956L75.1864 120.891C76.1684 120.803 77.1454 120.661 78.1174 120.465C79.1444 120.264 80.0894 120.07 80.9524 119.883C81.8654 119.637 82.8034 119.362 83.7654 119.057C83.7004 119.556 83.6544 120.573 83.6284 122.11C83.6554 123.642 83.6584 125.504 83.6354 127.698C83.6074 129.837 83.6024 132.221 83.6184 134.85C83.6294 137.424 83.6384 139.972 83.6454 142.492C83.6474 144.957 83.6394 147.313 83.6214 149.561C83.6574 151.804 83.6654 153.721 83.6434 155.312L85.1164 155.181L89.7394 119.428C91.5694 118.99 93.3754 118.583 95.1564 118.205C96.7194 117.846 98.3364 117.483 100.008 117.114C101.68 116.746 103.158 116.367 104.443 115.979C103.83 118.335 103.241 120.962 102.677 123.862C102.108 126.707 101.526 129.718 100.932 132.894C100.337 136.07 99.7734 139.271 99.2384 142.497C98.7574 145.718 98.2674 148.83 97.7674 151.833C96.6474 158.946 95.5984 166.245 94.6214 173.729L76.4034 178.479L77.1754 146.686L76.1934 146.772L70.7514 177.092L54 181.628Z" fill="black"/>
</g>
<g style="mix-blend-mode:hard-light">
<path shape-rendering="geometricPrecision" d="M136.385 172.305C135.04 172.644 133.562 173.022 131.95 173.44C130.337 173.858 128.886 174.234 127.596 174.568C127.653 172.755 127.712 170.969 127.774 169.21C127.801 167.674 127.801 166.139 127.773 164.608C127.8 163.071 127.819 161.754 127.83 160.658L120.71 161.293L118.492 173.326C117.306 173.596 115.905 173.913 114.288 174.276C112.666 174.586 111.152 174.885 109.749 175.175C108.022 175.548 106.323 175.919 104.651 176.287C106.184 168.863 107.699 161.55 109.196 154.348C109.805 151.335 110.429 148.184 111.068 144.894C111.762 141.599 112.431 138.334 113.075 135.099C113.769 131.804 114.42 128.65 115.029 125.637C115.639 122.624 116.16 119.865 116.595 117.361C120.281 116.758 124.016 116.096 127.801 115.375C131.641 114.649 135.359 113.796 138.956 112.818C138.949 114.572 138.953 116.763 138.97 119.392C139.036 121.961 139.124 124.775 139.234 127.833C139.344 130.892 139.466 134.086 139.6 137.417C139.735 140.747 139.864 144.023 139.989 147.244C140.391 154.77 140.807 162.76 141.237 171.214C139.624 171.632 138.007 171.995 136.385 172.305ZM121.941 152.964C122.16 152.945 122.541 152.911 123.087 152.862C123.682 152.754 124.28 152.673 124.88 152.62C125.53 152.507 126.128 152.426 126.673 152.378C127.214 152.275 127.591 152.186 127.805 152.112C127.775 151.786 127.754 151.24 127.74 150.474C127.776 149.649 127.777 148.745 127.743 147.762C127.76 146.719 127.769 145.595 127.77 144.39C127.772 143.184 127.776 142.006 127.782 140.855C127.751 138.063 127.755 135.049 127.794 131.813L127.648 124.676L126.427 124.867L125.175 132.047L121.941 152.964Z" fill="black"/>
</g>
<g style="mix-blend-mode:hard-light">
<path shape-rendering="geometricPrecision" d="M171.539 168.181C169.848 168.332 168.052 168.547 166.152 168.826C164.307 169.101 162.439 169.432 160.549 169.82C158.659 170.207 156.804 170.674 154.983 171.22C153.212 171.707 151.611 172.261 150.182 172.881C150.29 170.406 150.427 167.654 150.595 164.626C150.763 161.597 150.975 158.455 151.232 155.2C151.544 151.939 151.826 148.654 152.079 145.344C152.386 142.029 152.705 138.85 153.036 135.807C153.76 128.564 154.553 121.179 155.417 113.65L169.57 110.497C168.664 116.934 167.798 123.202 166.971 129.303C166.601 131.912 166.24 134.629 165.889 137.454C165.533 140.226 165.2 142.94 164.889 145.598C164.578 148.256 164.314 150.827 164.097 153.312C163.881 155.797 163.722 158.003 163.62 159.93C164.974 159.699 166.415 159.516 167.943 159.379C169.52 159.184 170.909 159.033 172.109 158.925C172.257 159.953 172.431 160.979 172.633 162.002C172.831 162.97 173.02 163.858 173.203 164.663C173.44 165.464 173.615 166.188 173.728 166.835C173.891 167.424 174.009 167.824 174.084 168.036C173.647 168.075 173.211 168.114 172.774 168.153C172.387 168.133 171.976 168.142 171.539 168.181Z" fill="black"/>
</g>
<g style="mix-blend-mode:hard-light">
<path shape-rendering="geometricPrecision" d="M203.121 165.363C201.43 165.514 199.634 165.729 197.735 166.008C195.889 166.282 194.022 166.613 192.132 167.001C190.241 167.389 188.386 167.856 186.565 168.402C184.794 168.889 183.194 169.443 181.765 170.063C181.872 167.588 182.01 164.836 182.177 161.808C182.345 158.779 182.558 155.637 182.815 152.381C183.127 149.121 183.409 145.836 183.661 142.526C183.968 139.211 184.287 136.032 184.619 132.989C185.342 125.746 186.136 118.361 186.999 110.832L201.153 107.679C200.246 114.115 199.38 120.384 198.554 126.485C198.183 129.093 197.822 131.81 197.471 134.636C197.116 137.407 196.782 140.122 196.471 142.78C196.16 145.437 195.896 148.009 195.68 150.494C195.463 152.979 195.304 155.185 195.202 157.111C196.557 156.881 197.997 156.698 199.525 156.561C201.103 156.366 202.491 156.214 203.692 156.107C203.839 157.135 204.014 158.161 204.216 159.184C204.413 160.152 204.603 161.039 204.785 161.845C205.022 162.646 205.197 163.37 205.31 164.017C205.473 164.605 205.592 165.006 205.666 165.218C205.229 165.257 204.793 165.296 204.356 165.335C203.97 165.315 203.558 165.324 203.121 165.363Z" fill="black"/>
</g>
<g style="mix-blend-mode:hard-light">
<path shape-rendering="geometricPrecision" d="M213.492 167.15L219.001 108.223L244.665 103.714C244.391 104.944 244.173 106.196 244.013 107.47C243.833 108.527 243.658 109.639 243.488 110.805C243.367 111.911 243.264 112.907 243.179 113.791C242.638 113.894 241.852 114.019 240.82 114.166C239.838 114.254 238.776 114.376 237.635 114.532C236.49 114.634 235.316 114.739 234.116 114.846C232.97 114.949 231.961 115.039 231.088 115.116L229.536 129.967C231.217 129.707 232.792 129.484 234.261 129.298C235.456 129.137 236.681 129 237.936 128.888C239.191 128.776 240.116 128.666 240.711 128.558C240.63 130.1 240.546 131.614 240.46 133.101C240.428 134.583 240.344 136.098 240.208 137.644C239.668 137.747 238.772 137.882 237.522 138.048C236.322 138.155 235.097 138.292 233.847 138.458C232.433 138.639 230.883 138.832 229.196 139.038L227.763 154.288L239.543 151.346L239.56 160.714L213.492 167.15Z" fill="black"/>
</g>
<g style="mix-blend-mode:hard-light">
<path shape-rendering="geometricPrecision" d="M255.462 163.405C256.179 157.314 256.849 151.309 257.472 145.391C257.743 142.901 258.004 140.302 258.256 137.595C258.508 134.888 258.737 132.237 258.944 129.644C259.2 126.991 259.384 124.454 259.497 122.033C259.659 119.553 259.786 117.295 259.878 115.26C258.608 115.209 257.321 115.269 256.017 115.44C254.767 115.606 253.497 115.555 252.208 115.287C252.184 114.412 252.121 113.404 252.019 112.263C251.916 111.121 251.841 109.977 251.792 108.831C251.735 107.576 251.669 106.239 251.597 104.821C253.025 104.803 254.451 104.758 255.875 104.686C257.298 104.614 258.719 104.514 260.138 104.388C262.92 104.139 265.589 103.846 268.144 103.509C270.748 103.112 273.134 102.735 275.302 102.377C277.519 101.96 279.679 101.521 281.783 101.059L281.279 105.542C281.118 106.817 280.96 108.118 280.805 109.447C280.704 110.771 280.586 111.905 280.45 112.849C279.279 113.282 278.074 113.636 276.834 113.911C275.643 114.127 274.457 114.397 273.277 114.722C273.061 116.604 272.837 118.706 272.606 121.028C272.37 123.295 272.144 125.671 271.927 128.156C271.76 130.582 271.598 133.062 271.441 135.597C271.284 138.131 271.117 140.557 270.94 142.874C270.551 148.333 270.234 153.977 269.988 159.807L255.462 163.405Z" fill="black"/>
</g>
<g style="mix-blend-mode:hard-light">
<path shape-rendering="geometricPrecision" d="M54 181.628L55.0154 123.184C57.5694 122.846 59.9484 122.387 62.1514 121.807C64.4034 121.168 66.6414 120.667 68.8634 120.304C68.8684 120.359 68.8374 120.937 68.7714 122.038C68.7014 123.086 68.6074 124.491 68.4914 126.255C68.3694 127.964 68.2434 129.921 68.1114 132.124C67.9744 134.273 67.7474 137.252 67.4294 141.061C67.1664 144.865 66.8154 150.13 66.3744 156.854L67.6024 156.744C68.5714 151.617 69.3774 147.435 70.0214 144.2C70.6614 140.91 71.1654 138.262 71.5354 136.257C71.9544 134.192 72.3264 132.214 72.6514 130.322C73.0314 128.425 73.3684 126.669 73.6624 125.054C74.0124 123.434 74.2744 122.068 74.4494 120.956L75.1864 120.891C76.1684 120.803 77.1454 120.661 78.1174 120.465C79.1444 120.264 80.0894 120.07 80.9524 119.883C81.8654 119.637 82.8034 119.362 83.7654 119.057C83.7004 119.556 83.6544 120.573 83.6284 122.11C83.6554 123.642 83.6584 125.504 83.6354 127.698C83.6074 129.837 83.6024 132.221 83.6184 134.85C83.6294 137.424 83.6384 139.972 83.6454 142.492C83.6474 144.957 83.6394 147.313 83.6214 149.561C83.6574 151.804 83.6654 153.721 83.6434 155.312L85.1164 155.181L89.7394 119.428C91.5694 118.99 93.3754 118.583 95.1564 118.205C96.7194 117.846 98.3364 117.483 100.008 117.114C101.68 116.746 103.158 116.367 104.443 115.979C103.83 118.335 103.241 120.962 102.677 123.862C102.108 126.707 101.526 129.718 100.932 132.894C100.337 136.07 99.7734 139.271 99.2384 142.497C98.7574 145.718 98.2674 148.83 97.7674 151.833C96.6474 158.946 95.5984 166.245 94.6214 173.729L76.4034 178.479L77.1754 146.686L76.1934 146.772L70.7514 177.092L54 181.628Z" stroke="#FFAB2D" stroke-width="8.35123"/>
</g>
<g style="mix-blend-mode:hard-light">
<path shape-rendering="geometricPrecision" d="M136.385 172.305C135.04 172.644 133.562 173.022 131.95 173.44C130.337 173.858 128.886 174.234 127.596 174.568C127.653 172.755 127.712 170.969 127.774 169.21C127.801 167.674 127.801 166.139 127.773 164.608C127.8 163.071 127.819 161.754 127.83 160.658L120.71 161.293L118.492 173.326C117.306 173.596 115.905 173.913 114.288 174.276C112.666 174.586 111.152 174.885 109.749 175.175C108.022 175.548 106.323 175.919 104.651 176.287C106.184 168.863 107.699 161.55 109.196 154.348C109.805 151.335 110.429 148.184 111.068 144.894C111.762 141.599 112.431 138.334 113.075 135.099C113.769 131.804 114.42 128.65 115.029 125.637C115.639 122.624 116.16 119.865 116.595 117.361C120.281 116.758 124.016 116.096 127.801 115.375C131.641 114.649 135.359 113.796 138.956 112.818C138.949 114.572 138.953 116.763 138.97 119.392C139.036 121.961 139.124 124.775 139.234 127.833C139.344 130.892 139.466 134.086 139.6 137.417C139.735 140.747 139.864 144.023 139.989 147.244C140.391 154.77 140.807 162.76 141.237 171.214C139.624 171.632 138.007 171.995 136.385 172.305ZM121.941 152.964C122.16 152.945 122.541 152.911 123.087 152.862C123.682 152.754 124.28 152.673 124.88 152.62C125.53 152.507 126.128 152.426 126.673 152.378C127.214 152.275 127.591 152.186 127.805 152.112C127.775 151.786 127.754 151.24 127.74 150.474C127.776 149.649 127.777 148.745 127.743 147.762C127.76 146.719 127.769 145.595 127.77 144.39C127.772 143.184 127.776 142.006 127.782 140.855C127.751 138.063 127.755 135.049 127.794 131.813L127.648 124.676L126.427 124.867L125.175 132.047L121.941 152.964Z" stroke="#FFAB2D" stroke-width="8.35123"/>
</g>
<g style="mix-blend-mode:hard-light">
<path shape-rendering="geometricPrecision" d="M171.539 168.181C169.848 168.332 168.052 168.547 166.152 168.826C164.307 169.101 162.439 169.432 160.549 169.82C158.659 170.207 156.804 170.674 154.983 171.22C153.212 171.707 151.611 172.261 150.182 172.881C150.29 170.406 150.427 167.654 150.595 164.626C150.763 161.597 150.975 158.455 151.232 155.2C151.544 151.939 151.826 148.654 152.079 145.344C152.386 142.029 152.705 138.85 153.036 135.807C153.76 128.564 154.553 121.179 155.417 113.65L169.57 110.497C168.664 116.934 167.798 123.202 166.971 129.303C166.601 131.912 166.24 134.629 165.889 137.454C165.533 140.226 165.2 142.94 164.889 145.598C164.578 148.256 164.314 150.827 164.097 153.312C163.881 155.797 163.722 158.003 163.62 159.93C164.974 159.699 166.415 159.516 167.943 159.379C169.52 159.184 170.909 159.033 172.109 158.925C172.257 159.953 172.431 160.979 172.633 162.002C172.831 162.97 173.02 163.858 173.203 164.663C173.44 165.464 173.615 166.188 173.728 166.835C173.891 167.424 174.009 167.824 174.084 168.036C173.647 168.075 173.211 168.114 172.774 168.153C172.387 168.133 171.976 168.142 171.539 168.181Z" stroke="#FFAB2D" stroke-width="8.35123"/>
</g>
<g style="mix-blend-mode:hard-light">
<path shape-rendering="geometricPrecision" d="M203.121 165.363C201.43 165.514 199.634 165.729 197.735 166.008C195.889 166.282 194.022 166.613 192.132 167.001C190.241 167.389 188.386 167.856 186.565 168.402C184.794 168.889 183.194 169.443 181.765 170.063C181.872 167.588 182.01 164.836 182.177 161.808C182.345 158.779 182.558 155.637 182.815 152.381C183.127 149.121 183.409 145.836 183.661 142.526C183.968 139.211 184.287 136.032 184.619 132.989C185.342 125.746 186.136 118.361 186.999 110.832L201.153 107.679C200.246 114.115 199.38 120.384 198.554 126.485C198.183 129.093 197.822 131.81 197.471 134.636C197.116 137.407 196.782 140.122 196.471 142.78C196.16 145.437 195.896 148.009 195.68 150.494C195.463 152.979 195.304 155.185 195.202 157.111C196.557 156.881 197.997 156.698 199.525 156.561C201.103 156.366 202.491 156.214 203.692 156.107C203.839 157.135 204.014 158.161 204.216 159.184C204.413 160.152 204.603 161.039 204.785 161.845C205.022 162.646 205.197 163.37 205.31 164.017C205.473 164.605 205.592 165.006 205.666 165.218C205.229 165.257 204.793 165.296 204.356 165.335C203.97 165.315 203.558 165.324 203.121 165.363Z" stroke="#FFAB2D" stroke-width="8.35123"/>
</g>
<g style="mix-blend-mode:hard-light">
<path shape-rendering="geometricPrecision" d="M213.492 167.15L219.001 108.223L244.665 103.714C244.391 104.944 244.173 106.196 244.013 107.47C243.833 108.527 243.658 109.639 243.488 110.805C243.367 111.911 243.264 112.907 243.179 113.791C242.638 113.894 241.852 114.019 240.82 114.166C239.838 114.254 238.776 114.376 237.635 114.532C236.49 114.634 235.316 114.739 234.116 114.846C232.97 114.949 231.961 115.039 231.088 115.116L229.536 129.967C231.217 129.707 232.792 129.484 234.261 129.298C235.456 129.137 236.681 129 237.936 128.888C239.191 128.776 240.116 128.666 240.711 128.558C240.63 130.1 240.546 131.614 240.46 133.101C240.428 134.583 240.344 136.098 240.208 137.644C239.668 137.747 238.772 137.882 237.522 138.048C236.322 138.155 235.097 138.292 233.847 138.458C232.433 138.639 230.883 138.832 229.196 139.038L227.763 154.288L239.543 151.346L239.56 160.714L213.492 167.15Z" stroke="#FFAB2D" stroke-width="8.35123"/>
</g>
<g style="mix-blend-mode:hard-light">
<path shape-rendering="geometricPrecision" d="M255.462 163.405C256.179 157.314 256.849 151.309 257.472 145.391C257.743 142.901 258.004 140.302 258.256 137.595C258.508 134.888 258.737 132.237 258.944 129.644C259.2 126.991 259.384 124.454 259.497 122.033C259.659 119.553 259.786 117.295 259.878 115.26C258.608 115.209 257.321 115.269 256.017 115.44C254.767 115.606 253.497 115.555 252.208 115.287C252.184 114.412 252.121 113.404 252.019 112.263C251.916 111.121 251.841 109.977 251.792 108.831C251.735 107.576 251.669 106.239 251.597 104.821C253.025 104.803 254.451 104.758 255.875 104.686C257.298 104.614 258.719 104.514 260.138 104.388C262.92 104.139 265.589 103.846 268.144 103.509C270.748 103.112 273.134 102.735 275.302 102.377C277.519 101.96 279.679 101.521 281.783 101.059L281.279 105.542C281.118 106.817 280.96 108.118 280.805 109.447C280.704 110.771 280.586 111.905 280.45 112.849C279.279 113.282 278.074 113.636 276.834 113.911C275.643 114.127 274.457 114.397 273.277 114.722C273.061 116.604 272.837 118.706 272.606 121.028C272.37 123.295 272.144 125.671 271.927 128.156C271.76 130.582 271.598 133.062 271.441 135.597C271.284 138.131 271.117 140.557 270.94 142.874C270.551 148.333 270.234 153.977 269.988 159.807L255.462 163.405Z" stroke="#FFAB2D" stroke-width="8.35123"/>
</g>
</g>
</g>
<g style="mix-blend-mode:hard-light" filter="url(#filter6_f_1481_27298)">
<mask id="mask1_1481_27298" style="mask-type:alpha" maskUnits="userSpaceOnUse" x="47" y="94" width="241" height="96">
<g style="mix-blend-mode:hard-light">
<g style="mix-blend-mode:hard-light">
<path shape-rendering="geometricPrecision" d="M288 94.0586H47V189.059H288V94.0586Z" fill="white"/>
</g>
<g style="mix-blend-mode:hard-light">
<path shape-rendering="geometricPrecision" d="M53 181.628L54.0154 123.184C56.5694 122.846 58.9484 122.387 61.1514 121.807C63.4034 121.168 65.6414 120.667 67.8634 120.304C67.8684 120.359 67.8374 120.937 67.7714 122.038C67.7014 123.086 67.6074 124.491 67.4914 126.255C67.3694 127.964 67.2434 129.921 67.1114 132.124C66.9744 134.273 66.7474 137.252 66.4294 141.061C66.1664 144.865 65.8154 150.13 65.3744 156.854L66.6024 156.744C67.5714 151.617 68.3774 147.435 69.0214 144.2C69.6614 140.91 70.1654 138.262 70.5354 136.257C70.9544 134.192 71.3264 132.214 71.6514 130.322C72.0314 128.425 72.3684 126.669 72.6624 125.054C73.0124 123.434 73.2744 122.068 73.4494 120.956L74.1864 120.891C75.1684 120.803 76.1454 120.661 77.1174 120.465C78.1444 120.264 79.0894 120.07 79.9524 119.883C80.8654 119.637 81.8034 119.362 82.7654 119.057C82.7004 119.556 82.6544 120.573 82.6284 122.11C82.6554 123.642 82.6584 125.504 82.6354 127.698C82.6074 129.837 82.6024 132.221 82.6184 134.85C82.6294 137.424 82.6384 139.972 82.6454 142.492C82.6474 144.957 82.6394 147.313 82.6214 149.561C82.6574 151.804 82.6654 153.721 82.6434 155.312L84.1164 155.181L88.7394 119.428C90.5694 118.99 92.3754 118.583 94.1564 118.205C95.7194 117.846 97.3364 117.483 99.0084 117.114C100.68 116.746 102.158 116.367 103.443 115.979C102.83 118.335 102.241 120.962 101.677 123.862C101.108 126.707 100.526 129.718 99.9324 132.894C99.3374 136.07 98.7734 139.271 98.2384 142.497C97.7574 145.718 97.2674 148.83 96.7674 151.833C95.6474 158.946 94.5984 166.245 93.6214 173.729L75.4034 178.479L76.1754 146.686L75.1934 146.772L69.7514 177.092L53 181.628Z" fill="black"/>
</g>
<g style="mix-blend-mode:hard-light">
<path shape-rendering="geometricPrecision" d="M135.385 172.305C134.04 172.644 132.562 173.022 130.95 173.44C129.337 173.858 127.886 174.234 126.596 174.568C126.653 172.755 126.712 170.969 126.774 169.21C126.801 167.674 126.801 166.139 126.773 164.608C126.8 163.071 126.819 161.754 126.83 160.658L119.71 161.293L117.492 173.326C116.306 173.596 114.905 173.913 113.288 174.276C111.666 174.586 110.152 174.885 108.749 175.175C107.022 175.548 105.323 175.919 103.651 176.287C105.184 168.863 106.699 161.55 108.196 154.348C108.805 151.335 109.429 148.184 110.068 144.894C110.762 141.599 111.431 138.334 112.075 135.099C112.769 131.804 113.42 128.65 114.029 125.637C114.639 122.624 115.16 119.865 115.595 117.361C119.281 116.758 123.016 116.096 126.801 115.375C130.641 114.649 134.359 113.796 137.956 112.818C137.949 114.572 137.953 116.763 137.97 119.392C138.036 121.961 138.124 124.775 138.234 127.833C138.344 130.892 138.466 134.086 138.6 137.417C138.735 140.747 138.864 144.023 138.989 147.244C139.391 154.77 139.807 162.76 140.237 171.214C138.624 171.632 137.007 171.995 135.385 172.305ZM120.941 152.964C121.16 152.945 121.541 152.911 122.087 152.862C122.682 152.754 123.28 152.673 123.88 152.62C124.53 152.507 125.128 152.426 125.673 152.378C126.214 152.275 126.591 152.186 126.805 152.112C126.775 151.786 126.754 151.24 126.74 150.474C126.776 149.649 126.777 148.745 126.743 147.762C126.76 146.719 126.769 145.595 126.77 144.39C126.772 143.184 126.776 142.006 126.782 140.855C126.751 138.063 126.755 135.049 126.794 131.813L126.648 124.676L125.427 124.867L124.175 132.047L120.941 152.964Z" fill="black"/>
</g>
<g style="mix-blend-mode:hard-light">
<path shape-rendering="geometricPrecision" d="M170.539 168.181C168.848 168.332 167.052 168.547 165.152 168.826C163.307 169.101 161.439 169.432 159.549 169.82C157.659 170.207 155.804 170.674 153.983 171.22C152.212 171.707 150.611 172.261 149.182 172.881C149.29 170.406 149.427 167.654 149.595 164.626C149.763 161.597 149.975 158.455 150.232 155.2C150.544 151.939 150.826 148.654 151.079 145.344C151.386 142.029 151.705 138.85 152.036 135.807C152.76 128.564 153.553 121.179 154.417 113.65L168.57 110.497C167.664 116.934 166.798 123.202 165.971 129.303C165.601 131.912 165.24 134.629 164.889 137.454C164.533 140.226 164.2 142.94 163.889 145.598C163.578 148.256 163.314 150.827 163.097 153.312C162.881 155.797 162.722 158.003 162.62 159.93C163.974 159.699 165.415 159.516 166.943 159.379C168.52 159.184 169.909 159.033 171.109 158.925C171.257 159.953 171.431 160.979 171.633 162.002C171.831 162.97 172.02 163.858 172.203 164.663C172.44 165.464 172.615 166.188 172.728 166.835C172.891 167.424 173.009 167.824 173.084 168.036C172.647 168.075 172.211 168.114 171.774 168.153C171.387 168.133 170.976 168.142 170.539 168.181Z" fill="black"/>
</g>
<g style="mix-blend-mode:hard-light">
<path shape-rendering="geometricPrecision" d="M202.121 165.363C200.43 165.514 198.634 165.729 196.735 166.008C194.889 166.282 193.022 166.613 191.132 167.001C189.241 167.389 187.386 167.856 185.565 168.402C183.794 168.889 182.194 169.443 180.765 170.063C180.872 167.588 181.01 164.836 181.177 161.808C181.345 158.779 181.558 155.637 181.815 152.381C182.127 149.121 182.409 145.836 182.661 142.526C182.968 139.211 183.287 136.032 183.619 132.989C184.342 125.746 185.136 118.361 185.999 110.832L200.153 107.679C199.246 114.115 198.38 120.384 197.554 126.485C197.183 129.093 196.822 131.81 196.471 134.636C196.116 137.407 195.782 140.122 195.471 142.78C195.16 145.437 194.896 148.009 194.68 150.494C194.463 152.979 194.304 155.185 194.202 157.111C195.557 156.881 196.997 156.698 198.525 156.561C200.103 156.366 201.491 156.214 202.692 156.107C202.839 157.135 203.014 158.161 203.216 159.184C203.413 160.152 203.603 161.039 203.785 161.845C204.022 162.646 204.197 163.37 204.31 164.017C204.473 164.605 204.592 165.006 204.666 165.218C204.229 165.257 203.793 165.296 203.356 165.335C202.97 165.315 202.558 165.324 202.121 165.363Z" fill="black"/>
</g>
<g style="mix-blend-mode:hard-light">
<path shape-rendering="geometricPrecision" d="M212.492 167.15L218.001 108.223L243.665 103.714C243.391 104.944 243.173 106.196 243.013 107.47C242.833 108.527 242.658 109.639 242.488 110.805C242.367 111.911 242.264 112.907 242.179 113.791C241.638 113.894 240.852 114.019 239.82 114.166C238.838 114.254 237.776 114.376 236.635 114.532C235.49 114.634 234.316 114.739 233.116 114.846C231.97 114.949 230.961 115.039 230.088 115.116L228.536 129.967C230.217 129.707 231.792 129.484 233.261 129.298C234.456 129.137 235.681 129 236.936 128.888C238.191 128.776 239.116 128.666 239.711 128.558C239.63 130.1 239.546 131.614 239.46 133.101C239.428 134.583 239.344 136.098 239.208 137.644C238.668 137.747 237.772 137.882 236.522 138.048C235.322 138.155 234.097 138.292 232.847 138.458C231.433 138.639 229.883 138.832 228.196 139.038L226.763 154.288L238.543 151.346L238.56 160.714L212.492 167.15Z" fill="black"/>
</g>
<g style="mix-blend-mode:hard-light">
<path shape-rendering="geometricPrecision" d="M254.462 163.405C255.179 157.314 255.849 151.309 256.472 145.391C256.743 142.901 257.004 140.302 257.256 137.595C257.508 134.888 257.737 132.237 257.944 129.644C258.2 126.991 258.384 124.454 258.497 122.033C258.659 119.553 258.786 117.295 258.878 115.26C257.608 115.209 256.321 115.269 255.017 115.44C253.767 115.606 252.497 115.555 251.208 115.287C251.184 114.412 251.121 113.404 251.019 112.263C250.916 111.121 250.841 109.977 250.792 108.831C250.735 107.576 250.669 106.239 250.597 104.821C252.025 104.803 253.451 104.758 254.875 104.686C256.298 104.614 257.719 104.514 259.138 104.388C261.92 104.139 264.589 103.846 267.144 103.509C269.748 103.112 272.134 102.735 274.302 102.377C276.519 101.96 278.679 101.521 280.783 101.059L280.279 105.542C280.118 106.817 279.96 108.118 279.805 109.447C279.704 110.771 279.586 111.905 279.45 112.849C278.279 113.282 277.074 113.636 275.834 113.911C274.643 114.127 273.457 114.397 272.277 114.722C272.061 116.604 271.837 118.706 271.606 121.028C271.37 123.295 271.144 125.671 270.927 128.156C270.76 130.582 270.598 133.062 270.441 135.597C270.284 138.131 270.117 140.557 269.94 142.874C269.551 148.333 269.234 153.977 268.988 159.807L254.462 163.405Z" fill="black"/>
</g>
</g>
</mask>
<g mask="url(#mask1_1481_27298)">
<g style="mix-blend-mode:hard-light">
<path shape-rendering="geometricPrecision" d="M53 181.628L54.0154 123.184C56.5694 122.846 58.9484 122.387 61.1514 121.807C63.4034 121.168 65.6414 120.667 67.8634 120.304C67.8684 120.359 67.8374 120.937 67.7714 122.038C67.7014 123.086 67.6074 124.491 67.4914 126.255C67.3694 127.964 67.2434 129.921 67.1114 132.124C66.9744 134.273 66.7474 137.252 66.4294 141.061C66.1664 144.865 65.8154 150.13 65.3744 156.854L66.6024 156.744C67.5714 151.617 68.3774 147.435 69.0214 144.2C69.6614 140.91 70.1654 138.262 70.5354 136.257C70.9544 134.192 71.3264 132.214 71.6514 130.322C72.0314 128.425 72.3684 126.669 72.6624 125.054C73.0124 123.434 73.2744 122.068 73.4494 120.956L74.1864 120.891C75.1684 120.803 76.1454 120.661 77.1174 120.465C78.1444 120.264 79.0894 120.07 79.9524 119.883C80.8654 119.637 81.8034 119.362 82.7654 119.057C82.7004 119.556 82.6544 120.573 82.6284 122.11C82.6554 123.642 82.6584 125.504 82.6354 127.698C82.6074 129.837 82.6024 132.221 82.6184 134.85C82.6294 137.424 82.6384 139.972 82.6454 142.492C82.6474 144.957 82.6394 147.313 82.6214 149.561C82.6574 151.804 82.6654 153.721 82.6434 155.312L84.1164 155.181L88.7394 119.428C90.5694 118.99 92.3754 118.583 94.1564 118.205C95.7194 117.846 97.3364 117.483 99.0084 117.114C100.68 116.746 102.158 116.367 103.443 115.979C102.83 118.335 102.241 120.962 101.677 123.862C101.108 126.707 100.526 129.718 99.9324 132.894C99.3374 136.07 98.7734 139.271 98.2384 142.497C97.7574 145.718 97.2674 148.83 96.7674 151.833C95.6474 158.946 94.5984 166.245 93.6214 173.729L75.4034 178.479L76.1754 146.686L75.1934 146.772L69.7514 177.092L53 181.628Z" stroke="#FFAB2D" stroke-width="10.9208"/>
</g>
<g style="mix-blend-mode:hard-light">
<path shape-rendering="geometricPrecision" d="M135.385 172.305C134.04 172.644 132.562 173.022 130.95 173.44C129.337 173.858 127.886 174.234 126.596 174.568C126.653 172.755 126.712 170.969 126.774 169.21C126.801 167.674 126.801 166.139 126.773 164.608C126.8 163.071 126.819 161.754 126.83 160.658L119.71 161.293L117.492 173.326C116.306 173.596 114.905 173.913 113.288 174.276C111.666 174.586 110.152 174.885 108.749 175.175C107.022 175.548 105.323 175.919 103.651 176.287C105.184 168.863 106.699 161.55 108.196 154.348C108.805 151.335 109.429 148.184 110.068 144.894C110.762 141.599 111.431 138.334 112.075 135.099C112.769 131.804 113.42 128.65 114.029 125.637C114.639 122.624 115.16 119.865 115.595 117.361C119.281 116.758 123.016 116.096 126.801 115.375C130.641 114.649 134.359 113.796 137.956 112.818C137.949 114.572 137.953 116.763 137.97 119.392C138.036 121.961 138.124 124.775 138.234 127.833C138.344 130.892 138.466 134.086 138.6 137.417C138.735 140.747 138.864 144.023 138.989 147.244C139.391 154.77 139.807 162.76 140.237 171.214C138.624 171.632 137.007 171.995 135.385 172.305ZM120.941 152.964C121.16 152.945 121.541 152.911 122.087 152.862C122.682 152.754 123.28 152.673 123.88 152.62C124.53 152.507 125.128 152.426 125.673 152.378C126.214 152.275 126.591 152.186 126.805 152.112C126.775 151.786 126.754 151.24 126.74 150.474C126.776 149.649 126.777 148.745 126.743 147.762C126.76 146.719 126.769 145.595 126.77 144.39C126.772 143.184 126.776 142.006 126.782 140.855C126.751 138.063 126.755 135.049 126.794 131.813L126.648 124.676L125.427 124.867L124.175 132.047L120.941 152.964Z" stroke="#FFAB2D" stroke-width="10.9208"/>
</g>
<g style="mix-blend-mode:hard-light">
<path shape-rendering="geometricPrecision" d="M170.539 168.181C168.848 168.332 167.052 168.547 165.152 168.826C163.307 169.101 161.439 169.432 159.549 169.82C157.659 170.207 155.804 170.674 153.983 171.22C152.212 171.707 150.611 172.261 149.182 172.881C149.29 170.406 149.427 167.654 149.595 164.626C149.763 161.597 149.975 158.455 150.232 155.2C150.544 151.939 150.826 148.654 151.079 145.344C151.386 142.029 151.705 138.85 152.036 135.807C152.76 128.564 153.553 121.179 154.417 113.65L168.57 110.497C167.664 116.934 166.798 123.202 165.971 129.303C165.601 131.912 165.24 134.629 164.889 137.454C164.533 140.226 164.2 142.94 163.889 145.598C163.578 148.256 163.314 150.827 163.097 153.312C162.881 155.797 162.722 158.003 162.62 159.93C163.974 159.699 165.415 159.516 166.943 159.379C168.52 159.184 169.909 159.033 171.109 158.925C171.257 159.953 171.431 160.979 171.633 162.002C171.831 162.97 172.02 163.858 172.203 164.663C172.44 165.464 172.615 166.188 172.728 166.835C172.891 167.424 173.009 167.824 173.084 168.036C172.647 168.075 172.211 168.114 171.774 168.153C171.387 168.133 170.976 168.142 170.539 168.181Z" stroke="#FFAB2D" stroke-width="10.9208"/>
</g>
<g style="mix-blend-mode:hard-light">
<path shape-rendering="geometricPrecision" d="M202.121 165.363C200.43 165.514 198.634 165.729 196.735 166.008C194.889 166.282 193.022 166.613 191.132 167.001C189.241 167.389 187.386 167.856 185.565 168.402C183.794 168.889 182.194 169.443 180.765 170.063C180.872 167.588 181.01 164.836 181.177 161.808C181.345 158.779 181.558 155.637 181.815 152.381C182.127 149.121 182.409 145.836 182.661 142.526C182.968 139.211 183.287 136.032 183.619 132.989C184.342 125.746 185.136 118.361 185.999 110.832L200.153 107.679C199.246 114.115 198.38 120.384 197.554 126.485C197.183 129.093 196.822 131.81 196.471 134.636C196.116 137.407 195.782 140.122 195.471 142.78C195.16 145.437 194.896 148.009 194.68 150.494C194.463 152.979 194.304 155.185 194.202 157.111C195.557 156.881 196.997 156.698 198.525 156.561C200.103 156.366 201.491 156.214 202.692 156.107C202.839 157.135 203.014 158.161 203.216 159.184C203.413 160.152 203.603 161.039 203.785 161.845C204.022 162.646 204.197 163.37 204.31 164.017C204.473 164.605 204.592 165.006 204.666 165.218C204.229 165.257 203.793 165.296 203.356 165.335C202.97 165.315 202.558 165.324 202.121 165.363Z" stroke="#FFAB2D" stroke-width="10.9208"/>
</g>
<g style="mix-blend-mode:hard-light">
<path shape-rendering="geometricPrecision" d="M212.492 167.15L218.001 108.223L243.665 103.714C243.391 104.944 243.173 106.196 243.013 107.47C242.833 108.527 242.658 109.639 242.488 110.805C242.367 111.911 242.264 112.907 242.179 113.791C241.638 113.894 240.852 114.019 239.82 114.166C238.838 114.254 237.776 114.376 236.635 114.532C235.49 114.634 234.316 114.739 233.116 114.846C231.97 114.949 230.961 115.039 230.088 115.116L228.536 129.967C230.217 129.707 231.792 129.484 233.261 129.298C234.456 129.137 235.681 129 236.936 128.888C238.191 128.776 239.116 128.666 239.711 128.558C239.63 130.1 239.546 131.614 239.46 133.101C239.428 134.583 239.344 136.098 239.208 137.644C238.668 137.747 237.772 137.882 236.522 138.048C235.322 138.155 234.097 138.292 232.847 138.458C231.433 138.639 229.883 138.832 228.196 139.038L226.763 154.288L238.543 151.346L238.56 160.714L212.492 167.15Z" stroke="#FFAB2D" stroke-width="10.9208"/>
</g>
<g style="mix-blend-mode:hard-light">
<path shape-rendering="geometricPrecision" d="M254.462 163.405C255.179 157.314 255.849 151.309 256.472 145.391C256.743 142.901 257.004 140.302 257.256 137.595C257.508 134.888 257.737 132.237 257.944 129.644C258.2 126.991 258.384 124.454 258.497 122.033C258.659 119.553 258.786 117.295 258.878 115.26C257.608 115.209 256.321 115.269 255.017 115.44C253.767 115.606 252.497 115.555 251.208 115.287C251.184 114.412 251.121 113.404 251.019 112.263C250.916 111.121 250.841 109.977 250.792 108.831C250.735 107.576 250.669 106.239 250.597 104.821C252.025 104.803 253.451 104.758 254.875 104.686C256.298 104.614 257.719 104.514 259.138 104.388C261.92 104.139 264.589 103.846 267.144 103.509C269.748 103.112 272.134 102.735 274.302 102.377C276.519 101.96 278.679 101.521 280.783 101.059L280.279 105.542C280.118 106.817 279.96 108.118 279.805 109.447C279.704 110.771 279.586 111.905 279.45 112.849C278.279 113.282 277.074 113.636 275.834 113.911C274.643 114.127 273.457 114.397 272.277 114.722C272.061 116.604 271.837 118.706 271.606 121.028C271.37 123.295 271.144 125.671 270.927 128.156C270.76 130.582 270.598 133.062 270.441 135.597C270.284 138.131 270.117 140.557 269.94 142.874C269.551 148.333 269.234 153.977 268.988 159.807L254.462 163.405Z" stroke="#FFAB2D" stroke-width="10.9208"/>
</g>
</g>
</g>
<g style="mix-blend-mode:hard-light" filter="url(#filter7_ddi_1481_27298)">
<mask id="mask2_1481_27298" style="mask-type:alpha" maskUnits="userSpaceOnUse" x="49" y="95" width="238" height="94">
<g style="mix-blend-mode:hard-light">
<g style="mix-blend-mode:hard-light">
<path shape-rendering="geometricPrecision" d="M287 95.0586H49V188.059H287V95.0586Z" fill="white"/>
</g>
<g style="mix-blend-mode:hard-light">
<path shape-rendering="geometricPrecision" d="M54 181.628L55.0154 123.184C57.5694 122.846 59.9484 122.387 62.1514 121.807C64.4034 121.168 66.6414 120.667 68.8634 120.304C68.8684 120.359 68.8374 120.937 68.7714 122.038C68.7014 123.086 68.6074 124.491 68.4914 126.255C68.3694 127.964 68.2434 129.921 68.1114 132.124C67.9744 134.273 67.7474 137.252 67.4294 141.061C67.1664 144.865 66.8154 150.13 66.3744 156.854L67.6024 156.744C68.5714 151.617 69.3774 147.435 70.0214 144.2C70.6614 140.91 71.1654 138.262 71.5354 136.257C71.9544 134.192 72.3264 132.214 72.6514 130.322C73.0314 128.425 73.3684 126.669 73.6624 125.054C74.0124 123.434 74.2744 122.068 74.4494 120.956L75.1864 120.891C76.1684 120.803 77.1454 120.661 78.1174 120.465C79.1444 120.264 80.0894 120.07 80.9524 119.883C81.8654 119.637 82.8034 119.362 83.7654 119.057C83.7004 119.556 83.6544 120.573 83.6284 122.11C83.6554 123.642 83.6584 125.504 83.6354 127.698C83.6074 129.837 83.6024 132.221 83.6184 134.85C83.6294 137.424 83.6384 139.972 83.6454 142.492C83.6474 144.957 83.6394 147.313 83.6214 149.561C83.6574 151.804 83.6654 153.721 83.6434 155.312L85.1164 155.181L89.7394 119.428C91.5694 118.99 93.3754 118.583 95.1564 118.205C96.7194 117.846 98.3364 117.483 100.008 117.114C101.68 116.746 103.158 116.367 104.443 115.979C103.83 118.335 103.241 120.962 102.677 123.862C102.108 126.707 101.526 129.718 100.932 132.894C100.337 136.07 99.7734 139.271 99.2384 142.497C98.7574 145.718 98.2674 148.83 97.7674 151.833C96.6474 158.946 95.5984 166.245 94.6214 173.729L76.4034 178.479L77.1754 146.686L76.1934 146.772L70.7514 177.092L54 181.628Z" fill="black"/>
</g>
<g style="mix-blend-mode:hard-light">
<path shape-rendering="geometricPrecision" d="M136.385 172.305C135.04 172.644 133.562 173.022 131.95 173.44C130.337 173.858 128.886 174.234 127.596 174.568C127.653 172.755 127.712 170.969 127.774 169.21C127.801 167.674 127.801 166.139 127.773 164.608C127.8 163.071 127.819 161.754 127.83 160.658L120.71 161.293L118.492 173.326C117.306 173.596 115.905 173.913 114.288 174.276C112.666 174.586 111.152 174.885 109.749 175.175C108.022 175.548 106.323 175.919 104.651 176.287C106.184 168.863 107.699 161.55 109.196 154.348C109.805 151.335 110.429 148.184 111.068 144.894C111.762 141.599 112.431 138.334 113.075 135.099C113.769 131.804 114.42 128.65 115.029 125.637C115.639 122.624 116.16 119.865 116.595 117.361C120.281 116.758 124.016 116.096 127.801 115.375C131.641 114.649 135.359 113.796 138.956 112.818C138.949 114.572 138.953 116.763 138.97 119.392C139.036 121.961 139.124 124.775 139.234 127.833C139.344 130.892 139.466 134.086 139.6 137.417C139.735 140.747 139.864 144.023 139.989 147.244C140.391 154.77 140.807 162.76 141.237 171.214C139.624 171.632 138.007 171.995 136.385 172.305ZM121.941 152.964C122.16 152.945 122.541 152.911 123.087 152.862C123.682 152.754 124.28 152.673 124.88 152.62C125.53 152.507 126.128 152.426 126.673 152.378C127.214 152.275 127.591 152.186 127.805 152.112C127.775 151.786 127.754 151.24 127.74 150.474C127.776 149.649 127.777 148.745 127.743 147.762C127.76 146.719 127.769 145.595 127.77 144.39C127.772 143.184 127.776 142.006 127.782 140.855C127.751 138.063 127.755 135.049 127.794 131.813L127.648 124.676L126.427 124.867L125.175 132.047L121.941 152.964Z" fill="black"/>
</g>
<g style="mix-blend-mode:hard-light">
<path shape-rendering="geometricPrecision" d="M171.539 168.181C169.848 168.332 168.052 168.547 166.152 168.826C164.307 169.101 162.439 169.432 160.549 169.82C158.659 170.207 156.804 170.674 154.983 171.22C153.212 171.707 151.611 172.261 150.182 172.881C150.29 170.406 150.427 167.654 150.595 164.626C150.763 161.597 150.975 158.455 151.232 155.2C151.544 151.939 151.826 148.654 152.079 145.344C152.386 142.029 152.705 138.85 153.036 135.807C153.76 128.564 154.553 121.179 155.417 113.65L169.57 110.497C168.664 116.934 167.798 123.202 166.971 129.303C166.601 131.912 166.24 134.629 165.889 137.454C165.533 140.226 165.2 142.94 164.889 145.598C164.578 148.256 164.314 150.827 164.097 153.312C163.881 155.797 163.722 158.003 163.62 159.93C164.974 159.699 166.415 159.516 167.943 159.379C169.52 159.184 170.909 159.033 172.109 158.925C172.257 159.953 172.431 160.979 172.633 162.002C172.831 162.97 173.02 163.858 173.203 164.663C173.44 165.464 173.615 166.188 173.728 166.835C173.891 167.424 174.009 167.824 174.084 168.036C173.647 168.075 173.211 168.114 172.774 168.153C172.387 168.133 171.976 168.142 171.539 168.181Z" fill="black"/>
</g>
<g style="mix-blend-mode:hard-light">
<path shape-rendering="geometricPrecision" d="M203.121 165.363C201.43 165.514 199.634 165.729 197.735 166.008C195.889 166.282 194.022 166.613 192.132 167.001C190.241 167.389 188.386 167.856 186.565 168.402C184.794 168.889 183.194 169.443 181.765 170.063C181.872 167.588 182.01 164.836 182.177 161.808C182.345 158.779 182.558 155.637 182.815 152.381C183.127 149.121 183.409 145.836 183.661 142.526C183.968 139.211 184.287 136.032 184.619 132.989C185.342 125.746 186.136 118.361 186.999 110.832L201.153 107.679C200.246 114.115 199.38 120.384 198.554 126.485C198.183 129.093 197.822 131.81 197.471 134.636C197.116 137.407 196.782 140.122 196.471 142.78C196.16 145.437 195.896 148.009 195.68 150.494C195.463 152.979 195.304 155.185 195.202 157.111C196.557 156.881 197.997 156.698 199.525 156.561C201.103 156.366 202.491 156.214 203.692 156.107C203.839 157.135 204.014 158.161 204.216 159.184C204.413 160.152 204.603 161.039 204.785 161.845C205.022 162.646 205.197 163.37 205.31 164.017C205.473 164.605 205.592 165.006 205.666 165.218C205.229 165.257 204.793 165.296 204.356 165.335C203.97 165.315 203.558 165.324 203.121 165.363Z" fill="black"/>
</g>
<g style="mix-blend-mode:hard-light">
<path shape-rendering="geometricPrecision" d="M213.492 167.15L219.001 108.223L244.665 103.714C244.391 104.944 244.173 106.196 244.013 107.47C243.833 108.527 243.658 109.639 243.488 110.805C243.367 111.911 243.264 112.907 243.179 113.791C242.638 113.894 241.852 114.019 240.82 114.166C239.838 114.254 238.776 114.376 237.635 114.532C236.49 114.634 235.316 114.739 234.116 114.846C232.97 114.949 231.961 115.039 231.088 115.116L229.536 129.967C231.217 129.707 232.792 129.484 234.261 129.298C235.456 129.137 236.681 129 237.936 128.888C239.191 128.776 240.116 128.666 240.711 128.558C240.63 130.1 240.546 131.614 240.46 133.101C240.428 134.583 240.344 136.098 240.208 137.644C239.668 137.747 238.772 137.882 237.522 138.048C236.322 138.155 235.097 138.292 233.847 138.458C232.433 138.639 230.883 138.832 229.196 139.038L227.763 154.288L239.543 151.346L239.56 160.714L213.492 167.15Z" fill="black"/>
</g>
<g style="mix-blend-mode:hard-light">
<path shape-rendering="geometricPrecision" d="M255.462 163.405C256.179 157.314 256.849 151.309 257.472 145.391C257.743 142.901 258.004 140.302 258.256 137.595C258.508 134.888 258.737 132.237 258.944 129.644C259.2 126.991 259.384 124.454 259.497 122.033C259.659 119.553 259.786 117.295 259.878 115.26C258.608 115.209 257.321 115.269 256.017 115.44C254.767 115.606 253.497 115.555 252.208 115.287C252.184 114.412 252.121 113.404 252.019 112.263C251.916 111.121 251.841 109.977 251.792 108.831C251.735 107.576 251.669 106.239 251.597 104.821C253.025 104.803 254.451 104.758 255.875 104.686C257.298 104.614 258.719 104.514 260.138 104.388C262.92 104.139 265.589 103.846 268.144 103.509C270.748 103.112 273.134 102.735 275.302 102.377C277.519 101.96 279.679 101.521 281.783 101.059L281.279 105.542C281.118 106.817 280.96 108.118 280.805 109.447C280.704 110.771 280.586 111.905 280.45 112.849C279.279 113.282 278.074 113.636 276.834 113.911C275.643 114.127 274.457 114.397 273.277 114.722C273.061 116.604 272.837 118.706 272.606 121.028C272.37 123.295 272.144 125.671 271.927 128.156C271.76 130.582 271.598 133.062 271.441 135.597C271.284 138.131 271.117 140.557 270.94 142.874C270.551 148.333 270.234 153.977 269.988 159.807L255.462 163.405Z" fill="black"/>
</g>
</g>
</mask>
<g mask="url(#mask2_1481_27298)">
<g style="mix-blend-mode:hard-light">
<path shape-rendering="geometricPrecision" d="M54 181.628L55.0154 123.184C57.5694 122.846 59.9484 122.387 62.1514 121.807C64.4034 121.168 66.6414 120.667 68.8634 120.304C68.8684 120.359 68.8374 120.937 68.7714 122.038C68.7014 123.086 68.6074 124.491 68.4914 126.255C68.3694 127.964 68.2434 129.921 68.1114 132.124C67.9744 134.273 67.7474 137.252 67.4294 141.061C67.1664 144.865 66.8154 150.13 66.3744 156.854L67.6024 156.744C68.5714 151.617 69.3774 147.435 70.0214 144.2C70.6614 140.91 71.1654 138.262 71.5354 136.257C71.9544 134.192 72.3264 132.214 72.6514 130.322C73.0314 128.425 73.3684 126.669 73.6624 125.054C74.0124 123.434 74.2744 122.068 74.4494 120.956L75.1864 120.891C76.1684 120.803 77.1454 120.661 78.1174 120.465C79.1444 120.264 80.0894 120.07 80.9524 119.883C81.8654 119.637 82.8034 119.362 83.7654 119.057C83.7004 119.556 83.6544 120.573 83.6284 122.11C83.6554 123.642 83.6584 125.504 83.6354 127.698C83.6074 129.837 83.6024 132.221 83.6184 134.85C83.6294 137.424 83.6384 139.972 83.6454 142.492C83.6474 144.957 83.6394 147.313 83.6214 149.561C83.6574 151.804 83.6654 153.721 83.6434 155.312L85.1164 155.181L89.7394 119.428C91.5694 118.99 93.3754 118.583 95.1564 118.205C96.7194 117.846 98.3364 117.483 100.008 117.114C101.68 116.746 103.158 116.367 104.443 115.979C103.83 118.335 103.241 120.962 102.677 123.862C102.108 126.707 101.526 129.718 100.932 132.894C100.337 136.07 99.7734 139.271 99.2384 142.497C98.7574 145.718 98.2674 148.83 97.7674 151.833C96.6474 158.946 95.5984 166.245 94.6214 173.729L76.4034 178.479L77.1754 146.686L76.1934 146.772L70.7514 177.092L54 181.628Z" stroke="#FFC940" stroke-opacity="0.2" stroke-width="8.35123"/>
</g>
<g style="mix-blend-mode:hard-light">
<path shape-rendering="geometricPrecision" d="M136.385 172.305C135.04 172.644 133.562 173.022 131.95 173.44C130.337 173.858 128.886 174.234 127.596 174.568C127.653 172.755 127.712 170.969 127.774 169.21C127.801 167.674 127.801 166.139 127.773 164.608C127.8 163.071 127.819 161.754 127.83 160.658L120.71 161.293L118.492 173.326C117.306 173.596 115.905 173.913 114.288 174.276C112.666 174.586 111.152 174.885 109.749 175.175C108.022 175.548 106.323 175.919 104.651 176.287C106.184 168.863 107.699 161.55 109.196 154.348C109.805 151.335 110.429 148.184 111.068 144.894C111.762 141.599 112.431 138.334 113.075 135.099C113.769 131.804 114.42 128.65 115.029 125.637C115.639 122.624 116.16 119.865 116.595 117.361C120.281 116.758 124.016 116.096 127.801 115.375C131.641 114.649 135.359 113.796 138.956 112.818C138.949 114.572 138.953 116.763 138.97 119.392C139.036 121.961 139.124 124.775 139.234 127.833C139.344 130.892 139.466 134.086 139.6 137.417C139.735 140.747 139.864 144.023 139.989 147.244C140.391 154.77 140.807 162.76 141.237 171.214C139.624 171.632 138.007 171.995 136.385 172.305ZM121.941 152.964C122.16 152.945 122.541 152.911 123.087 152.862C123.682 152.754 124.28 152.673 124.88 152.62C125.53 152.507 126.128 152.426 126.673 152.378C127.214 152.275 127.591 152.186 127.805 152.112C127.775 151.786 127.754 151.24 127.74 150.474C127.776 149.649 127.777 148.745 127.743 147.762C127.76 146.719 127.769 145.595 127.77 144.39C127.772 143.184 127.776 142.006 127.782 140.855C127.751 138.063 127.755 135.049 127.794 131.813L127.648 124.676L126.427 124.867L125.175 132.047L121.941 152.964Z" stroke="#FFC940" stroke-opacity="0.2" stroke-width="8.35123"/>
</g>
<g style="mix-blend-mode:hard-light">
<path shape-rendering="geometricPrecision" d="M171.539 168.181C169.848 168.332 168.052 168.547 166.152 168.826C164.307 169.101 162.439 169.432 160.549 169.82C158.659 170.207 156.804 170.674 154.983 171.22C153.212 171.707 151.611 172.261 150.182 172.881C150.29 170.406 150.427 167.654 150.595 164.626C150.763 161.597 150.975 158.455 151.232 155.2C151.544 151.939 151.826 148.654 152.079 145.344C152.386 142.029 152.705 138.85 153.036 135.807C153.76 128.564 154.553 121.179 155.417 113.65L169.57 110.497C168.664 116.934 167.798 123.202 166.971 129.303C166.601 131.912 166.24 134.629 165.889 137.454C165.533 140.226 165.2 142.94 164.889 145.598C164.578 148.256 164.314 150.827 164.097 153.312C163.881 155.797 163.722 158.003 163.62 159.93C164.974 159.699 166.415 159.516 167.943 159.379C169.52 159.184 170.909 159.033 172.109 158.925C172.257 159.953 172.431 160.979 172.633 162.002C172.831 162.97 173.02 163.858 173.203 164.663C173.44 165.464 173.615 166.188 173.728 166.835C173.891 167.424 174.009 167.824 174.084 168.036C173.647 168.075 173.211 168.114 172.774 168.153C172.387 168.133 171.976 168.142 171.539 168.181Z" stroke="#FFC940" stroke-opacity="0.2" stroke-width="8.35123"/>
</g>
<g style="mix-blend-mode:hard-light">
<path shape-rendering="geometricPrecision" d="M203.121 165.363C201.43 165.514 199.634 165.729 197.735 166.008C195.889 166.282 194.022 166.613 192.132 167.001C190.241 167.389 188.386 167.856 186.565 168.402C184.794 168.889 183.194 169.443 181.765 170.063C181.872 167.588 182.01 164.836 182.177 161.808C182.345 158.779 182.558 155.637 182.815 152.381C183.127 149.121 183.409 145.836 183.661 142.526C183.968 139.211 184.287 136.032 184.619 132.989C185.342 125.746 186.136 118.361 186.999 110.832L201.153 107.679C200.246 114.115 199.38 120.384 198.554 126.485C198.183 129.093 197.822 131.81 197.471 134.636C197.116 137.407 196.782 140.122 196.471 142.78C196.16 145.437 195.896 148.009 195.68 150.494C195.463 152.979 195.304 155.185 195.202 157.111C196.557 156.881 197.997 156.698 199.525 156.561C201.103 156.366 202.491 156.214 203.692 156.107C203.839 157.135 204.014 158.161 204.216 159.184C204.413 160.152 204.603 161.039 204.785 161.845C205.022 162.646 205.197 163.37 205.31 164.017C205.473 164.605 205.592 165.006 205.666 165.218C205.229 165.257 204.793 165.296 204.356 165.335C203.97 165.315 203.558 165.324 203.121 165.363Z" stroke="#FFC940" stroke-opacity="0.2" stroke-width="8.35123"/>
</g>
<g style="mix-blend-mode:hard-light">
<path shape-rendering="geometricPrecision" d="M213.492 167.15L219.001 108.223L244.665 103.714C244.391 104.944 244.173 106.196 244.013 107.47C243.833 108.527 243.658 109.639 243.488 110.805C243.367 111.911 243.264 112.907 243.179 113.791C242.638 113.894 241.852 114.019 240.82 114.166C239.838 114.254 238.776 114.376 237.635 114.532C236.49 114.634 235.316 114.739 234.116 114.846C232.97 114.949 231.961 115.039 231.088 115.116L229.536 129.967C231.217 129.707 232.792 129.484 234.261 129.298C235.456 129.137 236.681 129 237.936 128.888C239.191 128.776 240.116 128.666 240.711 128.558C240.63 130.1 240.546 131.614 240.46 133.101C240.428 134.583 240.344 136.098 240.208 137.644C239.668 137.747 238.772 137.882 237.522 138.048C236.322 138.155 235.097 138.292 233.847 138.458C232.433 138.639 230.883 138.832 229.196 139.038L227.763 154.288L239.543 151.346L239.56 160.714L213.492 167.15Z" stroke="#FFC940" stroke-opacity="0.2" stroke-width="8.35123"/>
</g>
<g style="mix-blend-mode:hard-light">
<path shape-rendering="geometricPrecision" d="M255.462 163.405C256.179 157.314 256.849 151.309 257.472 145.391C257.743 142.901 258.004 140.302 258.256 137.595C258.508 134.888 258.737 132.237 258.944 129.644C259.2 126.991 259.384 124.454 259.497 122.033C259.659 119.553 259.786 117.295 259.878 115.26C258.608 115.209 257.321 115.269 256.017 115.44C254.767 115.606 253.497 115.555 252.208 115.287C252.184 114.412 252.121 113.404 252.019 112.263C251.916 111.121 251.841 109.977 251.792 108.831C251.735 107.576 251.669 106.239 251.597 104.821C253.025 104.803 254.451 104.758 255.875 104.686C257.298 104.614 258.719 104.514 260.138 104.388C262.92 104.139 265.589 103.846 268.144 103.509C270.748 103.112 273.134 102.735 275.302 102.377C277.519 101.96 279.679 101.521 281.783 101.059L281.279 105.542C281.118 106.817 280.96 108.118 280.805 109.447C280.704 110.771 280.586 111.905 280.45 112.849C279.279 113.282 278.074 113.636 276.834 113.911C275.643 114.127 274.457 114.397 273.277 114.722C273.061 116.604 272.837 118.706 272.606 121.028C272.37 123.295 272.144 125.671 271.927 128.156C271.76 130.582 271.598 133.062 271.441 135.597C271.284 138.131 271.117 140.557 270.94 142.874C270.551 148.333 270.234 153.977 269.988 159.807L255.462 163.405Z" stroke="#FFC940" stroke-opacity="0.2" stroke-width="8.35123"/>
</g>
</g>
</g>
<g filter="url(#filter8_f_1481_27298)">
<mask id="mask3_1481_27298" style="mask-type:alpha" maskUnits="userSpaceOnUse" x="52" y="99" width="232" height="86">
<path shape-rendering="geometricPrecision" d="M284 99.0586H52V184.059H284V99.0586Z" fill="white"/>
<path shape-rendering="geometricPrecision" d="M54 181.628L55.0154 123.184C57.5694 122.846 59.9484 122.387 62.1514 121.807C64.4034 121.168 66.6414 120.667 68.8634 120.304C68.8684 120.359 68.8374 120.937 68.7714 122.038C68.7014 123.086 68.6074 124.491 68.4914 126.255C68.3694 127.964 68.2434 129.921 68.1114 132.124C67.9744 134.273 67.7474 137.252 67.4294 141.061C67.1664 144.865 66.8154 150.13 66.3744 156.854L67.6024 156.744C68.5714 151.617 69.3774 147.435 70.0214 144.2C70.6614 140.91 71.1654 138.262 71.5354 136.257C71.9544 134.192 72.3264 132.214 72.6514 130.322C73.0314 128.425 73.3684 126.669 73.6624 125.054C74.0124 123.434 74.2744 122.068 74.4494 120.956L75.1864 120.891C76.1684 120.803 77.1454 120.661 78.1174 120.465C79.1444 120.264 80.0894 120.07 80.9524 119.883C81.8654 119.637 82.8034 119.362 83.7654 119.057C83.7004 119.556 83.6544 120.573 83.6284 122.11C83.6554 123.642 83.6584 125.504 83.6354 127.698C83.6074 129.837 83.6024 132.221 83.6184 134.85C83.6294 137.424 83.6384 139.972 83.6454 142.492C83.6474 144.957 83.6394 147.313 83.6214 149.561C83.6574 151.804 83.6654 153.721 83.6434 155.312L85.1164 155.181L89.7394 119.428C91.5694 118.99 93.3754 118.583 95.1564 118.205C96.7194 117.846 98.3364 117.483 100.008 117.114C101.68 116.746 103.158 116.367 104.443 115.979C103.83 118.335 103.241 120.962 102.677 123.862C102.108 126.707 101.526 129.718 100.932 132.894C100.337 136.07 99.7734 139.271 99.2384 142.497C98.7574 145.718 98.2674 148.83 97.7674 151.833C96.6474 158.946 95.5984 166.245 94.6214 173.729L76.4034 178.479L77.1754 146.686L76.1934 146.772L70.7514 177.092L54 181.628Z" fill="black"/>
<path shape-rendering="geometricPrecision" d="M136.385 172.305C135.04 172.644 133.562 173.022 131.95 173.44C130.337 173.858 128.886 174.234 127.596 174.568C127.653 172.755 127.712 170.969 127.774 169.21C127.801 167.674 127.801 166.139 127.773 164.608C127.8 163.071 127.819 161.754 127.83 160.658L120.71 161.293L118.492 173.326C117.306 173.596 115.905 173.913 114.288 174.276C112.666 174.586 111.152 174.885 109.749 175.175C108.022 175.548 106.323 175.919 104.651 176.287C106.184 168.863 107.699 161.55 109.196 154.348C109.805 151.335 110.429 148.184 111.068 144.894C111.762 141.599 112.431 138.334 113.075 135.099C113.769 131.804 114.42 128.65 115.029 125.637C115.639 122.624 116.16 119.865 116.595 117.361C120.281 116.758 124.016 116.096 127.801 115.375C131.641 114.649 135.359 113.796 138.956 112.818C138.949 114.572 138.953 116.763 138.97 119.392C139.036 121.961 139.124 124.775 139.234 127.833C139.344 130.892 139.466 134.086 139.6 137.417C139.735 140.747 139.864 144.023 139.989 147.244C140.391 154.77 140.807 162.76 141.237 171.214C139.624 171.632 138.007 171.995 136.385 172.305ZM121.941 152.964C122.16 152.945 122.541 152.911 123.087 152.862C123.682 152.754 124.28 152.673 124.88 152.62C125.53 152.507 126.128 152.426 126.673 152.378C127.214 152.275 127.591 152.186 127.805 152.112C127.775 151.786 127.754 151.24 127.74 150.474C127.776 149.649 127.777 148.745 127.743 147.762C127.76 146.719 127.769 145.595 127.77 144.39C127.772 143.184 127.776 142.006 127.782 140.855C127.751 138.063 127.755 135.049 127.794 131.813L127.648 124.676L126.427 124.867L125.175 132.047L121.941 152.964Z" fill="black"/>
<path shape-rendering="geometricPrecision" d="M171.539 168.181C169.848 168.332 168.052 168.547 166.152 168.826C164.307 169.101 162.439 169.432 160.549 169.82C158.659 170.207 156.804 170.674 154.983 171.22C153.212 171.707 151.611 172.261 150.182 172.881C150.29 170.406 150.427 167.654 150.595 164.626C150.763 161.597 150.975 158.455 151.232 155.2C151.544 151.939 151.826 148.654 152.079 145.344C152.386 142.029 152.705 138.85 153.036 135.807C153.76 128.564 154.553 121.179 155.417 113.65L169.57 110.497C168.664 116.934 167.798 123.202 166.971 129.303C166.601 131.912 166.24 134.629 165.889 137.454C165.533 140.226 165.2 142.94 164.889 145.598C164.578 148.256 164.314 150.827 164.097 153.312C163.881 155.797 163.722 158.003 163.62 159.93C164.974 159.699 166.415 159.516 167.943 159.379C169.52 159.184 170.909 159.033 172.109 158.925C172.257 159.953 172.431 160.979 172.633 162.002C172.831 162.97 173.02 163.858 173.203 164.663C173.44 165.464 173.615 166.188 173.728 166.835C173.891 167.424 174.009 167.824 174.084 168.036C173.647 168.075 173.211 168.114 172.774 168.153C172.387 168.133 171.976 168.142 171.539 168.181Z" fill="black"/>
<path shape-rendering="geometricPrecision" d="M203.121 165.363C201.43 165.514 199.634 165.729 197.735 166.008C195.889 166.282 194.022 166.613 192.132 167.001C190.241 167.389 188.386 167.856 186.565 168.402C184.794 168.889 183.194 169.443 181.765 170.063C181.872 167.588 182.01 164.836 182.177 161.808C182.345 158.779 182.558 155.637 182.815 152.381C183.127 149.121 183.409 145.836 183.661 142.526C183.968 139.211 184.287 136.032 184.619 132.989C185.342 125.746 186.136 118.361 186.999 110.832L201.153 107.679C200.246 114.115 199.38 120.384 198.554 126.485C198.183 129.093 197.822 131.81 197.471 134.636C197.116 137.407 196.782 140.122 196.471 142.78C196.16 145.437 195.896 148.009 195.68 150.494C195.463 152.979 195.304 155.185 195.202 157.111C196.557 156.881 197.997 156.698 199.525 156.561C201.103 156.366 202.491 156.214 203.692 156.107C203.839 157.135 204.014 158.161 204.216 159.184C204.413 160.152 204.603 161.039 204.785 161.845C205.022 162.646 205.197 163.37 205.31 164.017C205.473 164.605 205.592 165.006 205.666 165.218C205.229 165.257 204.793 165.296 204.356 165.335C203.97 165.315 203.558 165.324 203.121 165.363Z" fill="black"/>
<path shape-rendering="geometricPrecision" d="M213.492 167.15L219.001 108.223L244.665 103.714C244.391 104.944 244.173 106.196 244.013 107.47C243.833 108.527 243.658 109.639 243.488 110.805C243.367 111.911 243.264 112.907 243.179 113.791C242.638 113.894 241.852 114.019 240.82 114.166C239.838 114.254 238.776 114.376 237.635 114.532C236.49 114.634 235.316 114.739 234.116 114.846C232.97 114.949 231.961 115.039 231.088 115.116L229.536 129.967C231.217 129.707 232.792 129.484 234.261 129.298C235.456 129.137 236.681 129 237.936 128.888C239.191 128.776 240.116 128.666 240.711 128.558C240.63 130.1 240.546 131.614 240.46 133.101C240.428 134.583 240.344 136.098 240.208 137.644C239.668 137.747 238.772 137.882 237.522 138.048C236.322 138.155 235.097 138.292 233.847 138.458C232.433 138.639 230.883 138.832 229.196 139.038L227.763 154.288L239.543 151.346L239.56 160.714L213.492 167.15Z" fill="black"/>
<path shape-rendering="geometricPrecision" d="M255.462 163.405C256.179 157.314 256.849 151.309 257.472 145.391C257.743 142.901 258.004 140.302 258.256 137.595C258.508 134.888 258.737 132.237 258.944 129.644C259.2 126.991 259.384 124.454 259.497 122.033C259.659 119.553 259.786 117.295 259.878 115.26C258.608 115.209 257.321 115.269 256.017 115.44C254.767 115.606 253.497 115.555 252.208 115.287C252.184 114.412 252.121 113.404 252.019 112.263C251.916 111.121 251.841 109.977 251.792 108.831C251.735 107.576 251.669 106.239 251.597 104.821C253.025 104.803 254.451 104.758 255.875 104.686C257.298 104.614 258.719 104.514 260.138 104.388C262.92 104.139 265.589 103.846 268.144 103.509C270.748 103.112 273.134 102.735 275.302 102.377C277.519 101.96 279.679 101.521 281.783 101.059L281.279 105.542C281.118 106.817 280.96 108.118 280.805 109.447C280.704 110.771 280.586 111.905 280.45 112.849C279.279 113.282 278.074 113.636 276.834 113.911C275.643 114.127 274.457 114.397 273.277 114.722C273.061 116.604 272.837 118.706 272.606 121.028C272.37 123.295 272.144 125.671 271.927 128.156C271.76 130.582 271.598 133.062 271.441 135.597C271.284 138.131 271.117 140.557 270.94 142.874C270.551 148.333 270.234 153.977 269.988 159.807L255.462 163.405Z" fill="black"/>
</mask>
<g mask="url(#mask3_1481_27298)">
<path shape-rendering="geometricPrecision" d="M54 181.628L55.0154 123.184C57.5694 122.846 59.9484 122.387 62.1514 121.807C64.4034 121.168 66.6414 120.667 68.8634 120.304C68.8684 120.359 68.8374 120.937 68.7714 122.038C68.7014 123.086 68.6074 124.491 68.4914 126.255C68.3694 127.964 68.2434 129.921 68.1114 132.124C67.9744 134.273 67.7474 137.252 67.4294 141.061C67.1664 144.865 66.8154 150.13 66.3744 156.854L67.6024 156.744C68.5714 151.617 69.3774 147.435 70.0214 144.2C70.6614 140.91 71.1654 138.262 71.5354 136.257C71.9544 134.192 72.3264 132.214 72.6514 130.322C73.0314 128.425 73.3684 126.669 73.6624 125.054C74.0124 123.434 74.2744 122.068 74.4494 120.956L75.1864 120.891C76.1684 120.803 77.1454 120.661 78.1174 120.465C79.1444 120.264 80.0894 120.07 80.9524 119.883C81.8654 119.637 82.8034 119.362 83.7654 119.057C83.7004 119.556 83.6544 120.573 83.6284 122.11C83.6554 123.642 83.6584 125.504 83.6354 127.698C83.6074 129.837 83.6024 132.221 83.6184 134.85C83.6294 137.424 83.6384 139.972 83.6454 142.492C83.6474 144.957 83.6394 147.313 83.6214 149.561C83.6574 151.804 83.6654 153.721 83.6434 155.312L85.1164 155.181L89.7394 119.428C91.5694 118.99 93.3754 118.583 95.1564 118.205C96.7194 117.846 98.3364 117.483 100.008 117.114C101.68 116.746 103.158 116.367 104.443 115.979C103.83 118.335 103.241 120.962 102.677 123.862C102.108 126.707 101.526 129.718 100.932 132.894C100.337 136.07 99.7734 139.271 99.2384 142.497C98.7574 145.718 98.2674 148.83 97.7674 151.833C96.6474 158.946 95.5984 166.245 94.6214 173.729L76.4034 178.479L77.1754 146.686L76.1934 146.772L70.7514 177.092L54 181.628Z" stroke="white" stroke-width="2.56961"/>
<path shape-rendering="geometricPrecision" d="M136.385 172.305C135.04 172.644 133.562 173.022 131.95 173.44C130.337 173.858 128.886 174.234 127.596 174.568C127.653 172.755 127.712 170.969 127.774 169.21C127.801 167.674 127.801 166.139 127.773 164.608C127.8 163.071 127.819 161.754 127.83 160.658L120.71 161.293L118.492 173.326C117.306 173.596 115.905 173.913 114.288 174.276C112.666 174.586 111.152 174.885 109.749 175.175C108.022 175.548 106.323 175.919 104.651 176.287C106.184 168.863 107.699 161.55 109.196 154.348C109.805 151.335 110.429 148.184 111.068 144.894C111.762 141.599 112.431 138.334 113.075 135.099C113.769 131.804 114.42 128.65 115.029 125.637C115.639 122.624 116.16 119.865 116.595 117.361C120.281 116.758 124.016 116.096 127.801 115.375C131.641 114.649 135.359 113.796 138.956 112.818C138.949 114.572 138.953 116.763 138.97 119.392C139.036 121.961 139.124 124.775 139.234 127.833C139.344 130.892 139.466 134.086 139.6 137.417C139.735 140.747 139.864 144.023 139.989 147.244C140.391 154.77 140.807 162.76 141.237 171.214C139.624 171.632 138.007 171.995 136.385 172.305ZM121.941 152.964C122.16 152.945 122.541 152.911 123.087 152.862C123.682 152.754 124.28 152.673 124.88 152.62C125.53 152.507 126.128 152.426 126.673 152.378C127.214 152.275 127.591 152.186 127.805 152.112C127.775 151.786 127.754 151.24 127.74 150.474C127.776 149.649 127.777 148.745 127.743 147.762C127.76 146.719 127.769 145.595 127.77 144.39C127.772 143.184 127.776 142.006 127.782 140.855C127.751 138.063 127.755 135.049 127.794 131.813L127.648 124.676L126.427 124.867L125.175 132.047L121.941 152.964Z" stroke="white" stroke-width="2.56961"/>
<path shape-rendering="geometricPrecision" d="M171.539 168.181C169.848 168.332 168.052 168.547 166.152 168.826C164.307 169.101 162.439 169.432 160.549 169.82C158.659 170.207 156.804 170.674 154.983 171.22C153.212 171.707 151.611 172.261 150.182 172.881C150.29 170.406 150.427 167.654 150.595 164.626C150.763 161.597 150.975 158.455 151.232 155.2C151.544 151.939 151.826 148.654 152.079 145.344C152.386 142.029 152.705 138.85 153.036 135.807C153.76 128.564 154.553 121.179 155.417 113.65L169.57 110.497C168.664 116.934 167.798 123.202 166.971 129.303C166.601 131.912 166.24 134.629 165.889 137.454C165.533 140.226 165.2 142.94 164.889 145.598C164.578 148.256 164.314 150.827 164.097 153.312C163.881 155.797 163.722 158.003 163.62 159.93C164.974 159.699 166.415 159.516 167.943 159.379C169.52 159.184 170.909 159.033 172.109 158.925C172.257 159.953 172.431 160.979 172.633 162.002C172.831 162.97 173.02 163.858 173.203 164.663C173.44 165.464 173.615 166.188 173.728 166.835C173.891 167.424 174.009 167.824 174.084 168.036C173.647 168.075 173.211 168.114 172.774 168.153C172.387 168.133 171.976 168.142 171.539 168.181Z" stroke="white" stroke-width="2.56961"/>
<path shape-rendering="geometricPrecision" d="M203.121 165.363C201.43 165.514 199.634 165.729 197.735 166.008C195.889 166.282 194.022 166.613 192.132 167.001C190.241 167.389 188.386 167.856 186.565 168.402C184.794 168.889 183.194 169.443 181.765 170.063C181.872 167.588 182.01 164.836 182.177 161.808C182.345 158.779 182.558 155.637 182.815 152.381C183.127 149.121 183.409 145.836 183.661 142.526C183.968 139.211 184.287 136.032 184.619 132.989C185.342 125.746 186.136 118.361 186.999 110.832L201.153 107.679C200.246 114.115 199.38 120.384 198.554 126.485C198.183 129.093 197.822 131.81 197.471 134.636C197.116 137.407 196.782 140.122 196.471 142.78C196.16 145.437 195.896 148.009 195.68 150.494C195.463 152.979 195.304 155.185 195.202 157.111C196.557 156.881 197.997 156.698 199.525 156.561C201.103 156.366 202.491 156.214 203.692 156.107C203.839 157.135 204.014 158.161 204.216 159.184C204.413 160.152 204.603 161.039 204.785 161.845C205.022 162.646 205.197 163.37 205.31 164.017C205.473 164.605 205.592 165.006 205.666 165.218C205.229 165.257 204.793 165.296 204.356 165.335C203.97 165.315 203.558 165.324 203.121 165.363Z" stroke="white" stroke-width="2.56961"/>
<path shape-rendering="geometricPrecision" d="M213.492 167.15L219.001 108.223L244.665 103.714C244.391 104.944 244.173 106.196 244.013 107.47C243.833 108.527 243.658 109.639 243.488 110.805C243.367 111.911 243.264 112.907 243.179 113.791C242.638 113.894 241.852 114.019 240.82 114.166C239.838 114.254 238.776 114.376 237.635 114.532C236.49 114.634 235.316 114.739 234.116 114.846C232.97 114.949 231.961 115.039 231.088 115.116L229.536 129.967C231.217 129.707 232.792 129.484 234.261 129.298C235.456 129.137 236.681 129 237.936 128.888C239.191 128.776 240.116 128.666 240.711 128.558C240.63 130.1 240.546 131.614 240.46 133.101C240.428 134.583 240.344 136.098 240.208 137.644C239.668 137.747 238.772 137.882 237.522 138.048C236.322 138.155 235.097 138.292 233.847 138.458C232.433 138.639 230.883 138.832 229.196 139.038L227.763 154.288L239.543 151.346L239.56 160.714L213.492 167.15Z" stroke="white" stroke-width="2.56961"/>
<path shape-rendering="geometricPrecision" d="M255.462 163.405C256.179 157.314 256.849 151.309 257.472 145.391C257.743 142.901 258.004 140.302 258.256 137.595C258.508 134.888 258.737 132.237 258.944 129.644C259.2 126.991 259.384 124.454 259.497 122.033C259.659 119.553 259.786 117.295 259.878 115.26C258.608 115.209 257.321 115.269 256.017 115.44C254.767 115.606 253.497 115.555 252.208 115.287C252.184 114.412 252.121 113.404 252.019 112.263C251.916 111.121 251.841 109.977 251.792 108.831C251.735 107.576 251.669 106.239 251.597 104.821C253.025 104.803 254.451 104.758 255.875 104.686C257.298 104.614 258.719 104.514 260.138 104.388C262.92 104.139 265.589 103.846 268.144 103.509C270.748 103.112 273.134 102.735 275.302 102.377C277.519 101.96 279.679 101.521 281.783 101.059L281.279 105.542C281.118 106.817 280.96 108.118 280.805 109.447C280.704 110.771 280.586 111.905 280.45 112.849C279.279 113.282 278.074 113.636 276.834 113.911C275.643 114.127 274.457 114.397 273.277 114.722C273.061 116.604 272.837 118.706 272.606 121.028C272.37 123.295 272.144 125.671 271.927 128.156C271.76 130.582 271.598 133.062 271.441 135.597C271.284 138.131 271.117 140.557 270.94 142.874C270.551 148.333 270.234 153.977 269.988 159.807L255.462 163.405Z" stroke="white" stroke-width="2.56961"/>
</g>
</g>
<defs>
<filter id="filter0_f_1481_27298" x="0.41922" y="0.41922" width="334.289" height="119.985" filterUnits="userSpaceOnUse" color-interpolation-filters="sRGB">
<feFlood flood-opacity="0" result="BackgroundImageFix"/>
<feBlend mode="normal" in="SourceGraphic" in2="BackgroundImageFix" result="shape"/>
<feGaussianBlur stdDeviation="9.79039" result="effect1_foregroundBlur_1481_27298"/>
</filter>
<filter id="filter1_f_1481_27298" x="35.6992" y="17.4338" width="264.541" height="85.9547" filterUnits="userSpaceOnUse" color-interpolation-filters="sRGB">
<feFlood flood-opacity="0" result="BackgroundImageFix"/>
<feBlend mode="normal" in="SourceGraphic" in2="BackgroundImageFix" result="shape"/>
<feGaussianBlur stdDeviation="3.26346" result="effect1_foregroundBlur_1481_27298"/>
</filter>
<filter id="filter2_ddi_1481_27298" x="34.3937" y="22.6552" width="267.152" height="88.5657" filterUnits="userSpaceOnUse" color-interpolation-filters="sRGB">
<feFlood flood-opacity="0" result="BackgroundImageFix"/>
<feColorMatrix in="SourceAlpha" type="matrix" values="0 0 0 0 0 0 0 0 0 0 0 0 0 0 0 0 0 0 127 0" result="hardAlpha"/>
<feOffset dy="4.2425"/>
<feGaussianBlur stdDeviation="1.63173"/>
<feColorMatrix type="matrix" values="0 0 0 0 0.3 0 0 0 0 0 0 0 0 0 0.26 0 0 0 0.7 0"/>
<feBlend mode="multiply" in2="BackgroundImageFix" result="effect1_dropShadow_1481_27298"/>
<feColorMatrix in="SourceAlpha" type="matrix" values="0 0 0 0 0 0 0 0 0 0 0 0 0 0 0 0 0 0 127 0" result="hardAlpha"/>
<feOffset dy="6.52693"/>
<feGaussianBlur stdDeviation="4.2425"/>
<feColorMatrix type="matrix" values="0 0 0 0 0.6 0 0 0 0 0 0 0 0 0 0.6 0 0 0 1 0"/>
<feBlend mode="color-dodge" in2="effect1_dropShadow_1481_27298" result="effect2_dropShadow_1481_27298"/>
<feBlend mode="normal" in="SourceGraphic" in2="effect2_dropShadow_1481_27298" result="shape"/>
<feColorMatrix in="SourceAlpha" type="matrix" values="0 0 0 0 0 0 0 0 0 0 0 0 0 0 0 0 0 0 127 0" result="hardAlpha"/>
<feOffset dx="-0.42425" dy="0.8485"/>
<feGaussianBlur stdDeviation="0.212125"/>
<feComposite in2="hardAlpha" operator="arithmetic" k2="-1" k3="1"/>
<feColorMatrix type="matrix" values="0 0 0 0 1 0 0 0 0 1 0 0 0 0 1 0 0 0 0.5 0"/>
<feBlend mode="normal" in2="shape" result="effect3_innerShadow_1481_27298"/>
</filter>
<filter id="filter3_f_1481_27298" x="43.0419" y="24.7765" width="249.855" height="71.2693" filterUnits="userSpaceOnUse" color-interpolation-filters="sRGB">
<feFlood flood-opacity="0" result="BackgroundImageFix"/>
<feBlend mode="normal" in="SourceGraphic" in2="BackgroundImageFix" result="shape"/>
<feGaussianBlur stdDeviation="0.326346" result="effect1_foregroundBlur_1481_27298"/>
</filter>
<filter id="filter4_f_1481_27298" x="43.9123" y="25.6469" width="248.115" height="69.5285" filterUnits="userSpaceOnUse" color-interpolation-filters="sRGB">
<feFlood flood-opacity="0" result="BackgroundImageFix"/>
<feBlend mode="normal" in="SourceGraphic" in2="BackgroundImageFix" result="shape"/>
<feGaussianBlur stdDeviation="0.217564" result="effect1_foregroundBlur_1481_27298"/>
</filter>
<filter id="filter5_f_1481_27298" x="24.0003" y="70.001" width="288.312" height="142.838" filterUnits="userSpaceOnUse" color-interpolation-filters="sRGB">
<feFlood flood-opacity="0" result="BackgroundImageFix"/>
<feBlend mode="normal" in="SourceGraphic" in2="BackgroundImageFix" result="shape"/>
<feGaussianBlur stdDeviation="12.8641" result="effect1_foregroundBlur_1481_27298"/>
</filter>
<filter id="filter6_f_1481_27298" x="38.8382" y="85.5135" width="256.8" height="111.861" filterUnits="userSpaceOnUse" color-interpolation-filters="sRGB">
<feFlood flood-opacity="0" result="BackgroundImageFix"/>
<feBlend mode="normal" in="SourceGraphic" in2="BackgroundImageFix" result="shape"/>
<feGaussianBlur stdDeviation="4.28803" result="effect1_foregroundBlur_1481_27298"/>
</filter>
<filter id="filter7_ddi_1481_27298" x="38.5796" y="93.1564" width="259.154" height="113.68" filterUnits="userSpaceOnUse" color-interpolation-filters="sRGB">
<feFlood flood-opacity="0" result="BackgroundImageFix"/>
<feColorMatrix in="SourceAlpha" type="matrix" values="0 0 0 0 0 0 0 0 0 0 0 0 0 0 0 0 0 0 127 0" result="hardAlpha"/>
<feOffset dy="4.17561"/>
<feGaussianBlur stdDeviation="1.60601"/>
<feColorMatrix type="matrix" values="0 0 0 0 0.224 0 0 0 0 0.15 0 0 0 0 0 0 0 0 0.7 0"/>
<feBlend mode="multiply" in2="BackgroundImageFix" result="effect1_dropShadow_1481_27298"/>
<feColorMatrix in="SourceAlpha" type="matrix" values="0 0 0 0 0 0 0 0 0 0 0 0 0 0 0 0 0 0 127 0" result="hardAlpha"/>
<feOffset dy="8.57607"/>
<feGaussianBlur stdDeviation="5.57444"/>
<feColorMatrix type="matrix" values="0 0 0 0 0.56 0 0 0 0 0.44 0 0 0 0 0 0 0 0 1 0"/>
<feBlend mode="color-dodge" in2="effect1_dropShadow_1481_27298" result="effect2_dropShadow_1481_27298"/>
<feBlend mode="normal" in="SourceGraphic" in2="effect2_dropShadow_1481_27298" result="shape"/>
<feColorMatrix in="SourceAlpha" type="matrix" values="0 0 0 0 0 0 0 0 0 0 0 0 0 0 0 0 0 0 127 0" result="hardAlpha"/>
<feOffset dx="-0.417561" dy="0.835123"/>
<feGaussianBlur stdDeviation="0.208781"/>
<feComposite in2="hardAlpha" operator="arithmetic" k2="-1" k3="1"/>
<feColorMatrix type="matrix" values="0 0 0 0 1 0 0 0 0 1 0 0 0 0 1 0 0 0 0.5 0"/>
<feBlend mode="normal" in2="shape" result="effect3_innerShadow_1481_27298"/>
</filter>
<filter id="filter8_f_1481_27298" x="52.2575" y="98.9904" width="231.431" height="84.7533" filterUnits="userSpaceOnUse" color-interpolation-filters="sRGB">
<feFlood flood-opacity="0" result="BackgroundImageFix"/>
<feBlend mode="normal" in="SourceGraphic" in2="BackgroundImageFix" result="shape"/>
<feGaussianBlur stdDeviation="0.214134" result="effect1_foregroundBlur_1481_27298"/>
</filter>
</defs>
</svg>
