<svg width="323" height="228" viewBox="0 0 323 228" fill="none" xmlns="http://www.w3.org/2000/svg">
<g filter="url(#filter0_d_1115_17537)">
<g style="mix-blend-mode:color-burn" opacity="0.76" filter="url(#filter1_d_1115_17537)">
<path d="M32.3453 213.214C137.201 224.712 221.271 219.434 293.863 213.214C308.444 211.66 310.616 208.861 313.097 193.311C324.886 120.539 313.097 25.0652 313.097 25.0652C313.097 25.0652 315.579 9.58572 293.863 6.40578C266.254 2.36276 130.996 -5.72278 32.3453 6.40578C9.38867 6.40578 10.2675 19.7784 9.38867 25.0652C7.83785 34.3948 -1.15923 124.271 9.38867 193.311C13.1112 206.062 9.38867 210.697 32.3453 213.214Z" fill="url(#paint0_linear_1115_17537)"/>
<path d="M307.893 192.468L307.891 192.48C307.275 196.337 306.723 199.099 306.067 201.176C305.425 203.212 304.782 204.256 304.181 204.894C302.998 206.149 300.743 207.175 293.358 207.966C220.903 214.173 137.244 219.413 32.92 207.974C27.2969 207.357 23.6725 206.644 21.2775 205.838C18.9663 205.061 18.1763 204.323 17.8038 203.848C17.3497 203.268 16.9525 202.375 16.4501 200.239C16.3262 199.712 16.1916 199.085 16.0405 198.38C15.67 196.653 15.2007 194.464 14.5494 192.179C4.19368 123.915 13.0967 34.9113 14.5896 25.9297C14.7417 25.0149 14.8469 24.1622 14.9463 23.356C15.2544 20.8581 15.5073 18.8076 16.9289 16.745C18.3585 14.6709 21.8856 11.6781 32.3453 11.6781H32.6682L32.9887 11.6387C131.111 -0.424943 265.892 7.63835 293.1 11.6225C302.545 13.0056 305.689 16.8021 306.891 19.2505C307.57 20.6359 307.816 21.9738 307.887 22.9705C307.922 23.4631 307.912 23.8491 307.898 24.0819C307.892 24.1878 307.885 24.2593 307.882 24.2917C307.881 24.2947 307.881 24.2973 307.881 24.2996L307.773 24.969L307.865 25.7113L307.865 25.7134L307.866 25.7243L307.872 25.7719L307.896 25.9695C307.917 26.1463 307.949 26.4126 307.99 26.7648C308.072 27.4691 308.191 28.517 308.339 29.8797C308.636 32.605 309.047 36.5884 309.505 41.5994C310.42 51.6235 311.519 65.7489 312.251 82.1342C313.719 114.974 313.701 156.613 307.893 192.468Z" stroke="black" stroke-width="10.5447"/>
</g>
<mask id="mask0_1115_17537" style="mask-type:alpha" maskUnits="userSpaceOnUse" x="14" y="10" width="294" height="200">
<path d="M26.8366 201.5C123.837 214.5 223.331 208.626 290.837 203C301.337 202.125 301.337 202 302.837 192C313.837 126 302.837 24 302.837 24C302.837 24 302.837 18.3531 293.337 17C267.661 13.3429 124.337 5.00008 31.8366 17C18.8365 17 20.4346 22 19.8365 25.5C18.3943 33.9391 8.83667 131.5 20.3365 194C21.8366 201.5 22.8366 200.964 26.8366 201.5Z" fill="url(#paint1_linear_1115_17537)"/>
</mask>
<g mask="url(#mask0_1115_17537)">
<g opacity="0.1">
<ellipse cx="82.5006" cy="171.785" rx="62.5395" ry="82.2372" fill="#E160BA"/>
<ellipse cx="249.19" cy="180.296" rx="65.694" ry="86.7501" fill="#913776"/>
<ellipse cx="164.553" cy="116.751" rx="79.4628" ry="69.8232" fill="#AC398A"/>
<ellipse cx="263.22" cy="55.5424" rx="88.4774" ry="73.5004" fill="#EA73C6"/>
<g style="mix-blend-mode:color-burn">
<ellipse cx="48.1529" cy="21.6301" rx="74.1253" ry="70.8118" fill="#CF44A5"/>
</g>
</g>
<mask id="mask1_1115_17537" style="mask-type:alpha" maskUnits="userSpaceOnUse" x="18" y="10" width="290" height="198">
<path d="M44.2977 201.008C140.677 211.265 217.953 206.556 284.677 201.008C298.079 199.621 300.075 197.124 302.356 183.252C313.192 118.334 302.356 33.1636 302.356 33.1636C302.356 33.1636 304.638 19.3547 284.677 16.5179C259.299 12.9112 134.974 5.6983 44.2977 16.5179C23.1966 16.5179 24.0044 28.4474 23.1966 33.1636C21.7712 41.4864 13.5013 121.663 23.1966 183.252C26.6183 194.627 23.1966 198.762 44.2977 201.008Z" fill="url(#paint2_linear_1115_17537)" fill-opacity="0.01"/>
</mask>
<g mask="url(#mask1_1115_17537)">
</g>
<g style="mix-blend-mode:color-burn" filter="url(#filter2_b_1115_17537)">
<path d="M32.285 212.816C136.915 224.292 220.806 219.024 293.242 212.816C307.792 211.264 309.958 208.47 312.435 192.949C324.198 120.314 312.435 25.0183 312.435 25.0183C312.435 25.0183 314.911 9.56779 293.242 6.39379C265.692 2.35834 130.724 -5.71207 32.285 6.39379C9.37759 6.39379 10.2545 19.7414 9.37759 25.0183C7.8301 34.3305 -1.14769 124.039 9.37759 192.949C13.0922 205.676 9.37759 210.303 32.285 212.816Z" fill="url(#paint3_linear_1115_17537)" fill-opacity="0.01"/>
<path d="M307.218 24.2532L307.111 24.9221L307.202 25.6642L307.202 25.6664L307.204 25.6772L307.21 25.7247L307.233 25.9219C307.254 26.0984 307.286 26.3642 307.327 26.7157C307.409 27.4187 307.528 28.4646 307.676 29.8247C307.971 32.5449 308.382 36.5208 308.838 41.5224C309.752 51.5276 310.848 65.6265 311.579 81.9809C313.044 114.759 313.026 156.32 307.23 192.107L307.228 192.119C306.614 195.968 306.063 198.725 305.409 200.797C304.768 202.829 304.128 203.87 303.529 204.504C302.352 205.754 300.105 206.777 292.737 207.567C220.437 213.763 136.959 218.993 32.8598 207.575C27.2491 206.959 23.6335 206.248 21.2449 205.444C18.9402 204.669 18.1541 203.933 17.784 203.461C17.3323 202.884 16.9362 201.994 16.435 199.862C16.3114 199.337 16.1771 198.711 16.0264 198.008C15.6567 196.283 15.1883 194.099 14.5384 191.818C4.20519 123.682 13.0889 34.8468 14.5786 25.8826C14.7305 24.9686 14.8355 24.117 14.9347 23.3121C15.2421 20.8195 15.4942 18.7754 16.9113 16.7187C18.3352 14.6523 21.8504 11.6661 32.285 11.6661H32.608L32.9285 11.6267C130.84 -0.414225 265.33 7.63394 292.478 11.6105C301.9 12.9905 305.034 16.7778 306.231 19.2184C306.909 20.5998 307.153 21.9341 307.224 22.9281C307.259 23.4193 307.249 23.8043 307.236 24.0364C307.229 24.1416 307.223 24.2127 307.219 24.2451C307.219 24.2481 307.218 24.2508 307.218 24.2532ZM307.218 24.2532L307.218 24.2571C307.216 24.2683 307.217 24.2668 307.218 24.2532Z" stroke="black" stroke-opacity="0.01" stroke-width="10.5447"/>
</g>
<circle cx="161.336" cy="110" r="49" fill="#A8185E"/>
<path d="M127.708 115.348H128.698C129.446 115.348 130.113 115.231 130.7 114.996C131.286 114.761 131.778 114.439 132.174 114.028C132.584 113.617 132.892 113.133 133.098 112.576C133.318 112.004 133.428 111.381 133.428 110.706C133.428 110.046 133.318 109.43 133.098 108.858C132.878 108.286 132.562 107.795 132.152 107.384C131.756 106.973 131.264 106.651 130.678 106.416C130.091 106.181 129.431 106.064 128.698 106.064H127.708V115.348ZM123.396 102.412H129.776C130.905 102.412 131.961 102.639 132.944 103.094C133.941 103.549 134.806 104.157 135.54 104.92C136.288 105.668 136.874 106.548 137.3 107.56C137.725 108.557 137.938 109.606 137.938 110.706C137.938 111.791 137.725 112.84 137.3 113.852C136.889 114.849 136.31 115.729 135.562 116.492C134.828 117.255 133.963 117.863 132.966 118.318C131.983 118.773 130.92 119 129.776 119H123.396V102.412ZM149.248 106.064H144.122V108.836H148.962V112.488H144.122V115.348H149.248V119H139.81V102.412H149.248V106.064ZM156.229 110.156L151.059 102.412H156.383L158.627 106.702L161.399 102.412H166.723L161.245 110.156L167.427 119H162.169L158.847 113.588L154.953 119H149.739L156.229 110.156ZM177.717 106.064H172.591V108.836H177.431V112.488H172.591V115.348H177.717V119H168.279V102.412H177.717V106.064ZM189.054 106.658C188.584 106.277 188.115 105.998 187.646 105.822C187.176 105.631 186.722 105.536 186.282 105.536C185.724 105.536 185.27 105.668 184.918 105.932C184.566 106.196 184.39 106.541 184.39 106.966C184.39 107.259 184.478 107.501 184.654 107.692C184.83 107.883 185.057 108.051 185.336 108.198C185.629 108.33 185.952 108.447 186.304 108.55C186.67 108.653 187.03 108.763 187.382 108.88C188.79 109.349 189.816 109.98 190.462 110.772C191.122 111.549 191.452 112.569 191.452 113.83C191.452 114.681 191.305 115.451 191.012 116.14C190.733 116.829 190.315 117.423 189.758 117.922C189.215 118.406 188.54 118.78 187.734 119.044C186.942 119.323 186.04 119.462 185.028 119.462C182.93 119.462 180.987 118.839 179.198 117.592L181.046 114.116C181.691 114.688 182.329 115.113 182.96 115.392C183.59 115.671 184.214 115.81 184.83 115.81C185.534 115.81 186.054 115.649 186.392 115.326C186.744 115.003 186.92 114.637 186.92 114.226C186.92 113.977 186.876 113.764 186.788 113.588C186.7 113.397 186.553 113.229 186.348 113.082C186.142 112.921 185.871 112.774 185.534 112.642C185.211 112.51 184.815 112.363 184.346 112.202C183.788 112.026 183.238 111.835 182.696 111.63C182.168 111.41 181.691 111.124 181.266 110.772C180.855 110.42 180.518 109.98 180.254 109.452C180.004 108.909 179.88 108.227 179.88 107.406C179.88 106.585 180.012 105.844 180.276 105.184C180.554 104.509 180.936 103.937 181.42 103.468C181.918 102.984 182.52 102.61 183.224 102.346C183.942 102.082 184.742 101.95 185.622 101.95C186.443 101.95 187.301 102.067 188.196 102.302C189.09 102.522 189.948 102.852 190.77 103.292L189.054 106.658ZM193.706 113.368V102.412H197.842V113.368H193.706ZM193.2 116.888C193.2 116.536 193.266 116.206 193.398 115.898C193.53 115.575 193.714 115.297 193.948 115.062C194.183 114.827 194.454 114.644 194.762 114.512C195.085 114.38 195.422 114.314 195.774 114.314C196.126 114.314 196.456 114.38 196.764 114.512C197.087 114.644 197.366 114.827 197.6 115.062C197.835 115.297 198.018 115.575 198.15 115.898C198.282 116.206 198.348 116.536 198.348 116.888C198.348 117.24 198.282 117.577 198.15 117.9C198.018 118.208 197.835 118.479 197.6 118.714C197.366 118.949 197.087 119.132 196.764 119.264C196.456 119.396 196.126 119.462 195.774 119.462C195.422 119.462 195.085 119.396 194.762 119.264C194.454 119.132 194.183 118.949 193.948 118.714C193.714 118.479 193.53 118.208 193.398 117.9C193.266 117.577 193.2 117.24 193.2 116.888Z" fill="#F5F5F7"/>
<path d="M127.708 115.348H124.708V118.348H127.708V115.348ZM130.7 114.996L129.585 112.211H129.585L130.7 114.996ZM132.174 114.028L130.052 111.907L130.033 111.926L130.014 111.946L132.174 114.028ZM133.098 112.576L130.297 111.499L130.29 111.519L130.282 111.539L133.098 112.576ZM133.098 108.858L135.898 107.781L135.898 107.781L133.098 108.858ZM132.152 107.384L129.992 109.466L130.011 109.486L130.03 109.505L132.152 107.384ZM130.678 106.416L131.792 103.631L131.792 103.631L130.678 106.416ZM127.708 106.064V103.064H124.708V106.064H127.708ZM123.396 102.412V99.412H120.396V102.412H123.396ZM132.944 103.094L131.684 105.817L131.691 105.82L131.699 105.824L132.944 103.094ZM135.54 104.92L133.377 106.999L133.397 107.021L133.418 107.041L135.54 104.92ZM137.3 107.56L134.534 108.722L134.537 108.73L134.54 108.737L137.3 107.56ZM137.3 113.852L134.534 112.69L134.53 112.7L134.525 112.71L137.3 113.852ZM135.562 116.492L133.42 114.391L133.409 114.402L133.399 114.413L135.562 116.492ZM132.966 118.318L131.721 115.588L131.713 115.592L131.706 115.595L132.966 118.318ZM123.396 119H120.396V122H123.396V119ZM127.708 118.348H128.698V112.348H127.708V118.348ZM128.698 118.348C129.758 118.348 130.814 118.181 131.814 117.781L129.585 112.211C129.412 112.28 129.133 112.348 128.698 112.348V118.348ZM131.814 117.781C132.752 117.406 133.612 116.858 134.333 116.11L130.014 111.946C129.943 112.019 129.82 112.117 129.585 112.211L131.814 117.781ZM134.295 116.149C135.02 115.425 135.561 114.568 135.913 113.613L130.282 111.539C130.224 111.698 130.149 111.81 130.052 111.907L134.295 116.149ZM135.898 113.653C136.262 112.704 136.428 111.712 136.428 110.706H130.428C130.428 111.05 130.373 111.304 130.297 111.499L135.898 113.653ZM136.428 110.706C136.428 109.706 136.26 108.722 135.898 107.781L130.297 109.935C130.375 110.138 130.428 110.386 130.428 110.706H136.428ZM135.898 107.781C135.535 106.839 134.997 105.986 134.273 105.263L130.03 109.505C130.128 109.603 130.22 109.733 130.297 109.935L135.898 107.781ZM134.311 105.302C133.59 104.554 132.73 104.006 131.792 103.631L129.563 109.201C129.798 109.295 129.921 109.393 129.992 109.466L134.311 105.302ZM131.792 103.631C130.799 103.233 129.752 103.064 128.698 103.064V109.064C129.11 109.064 129.383 109.129 129.563 109.201L131.792 103.631ZM128.698 103.064H127.708V109.064H128.698V103.064ZM124.708 106.064V115.348H130.708V106.064H124.708ZM123.396 105.412H129.776V99.412H123.396V105.412ZM129.776 105.412C130.489 105.412 131.113 105.553 131.684 105.817L134.203 100.371C132.809 99.7261 131.321 99.412 129.776 99.412V105.412ZM131.699 105.824C132.365 106.127 132.915 106.519 133.377 106.999L137.702 102.841C136.697 101.795 135.517 100.97 134.188 100.364L131.699 105.824ZM133.418 107.041C133.881 107.504 134.253 108.055 134.534 108.722L140.065 106.398C139.495 105.041 138.694 103.832 137.661 102.799L133.418 107.041ZM134.54 108.737C134.804 109.357 134.938 110.004 134.938 110.706H140.938C140.938 109.208 140.645 107.758 140.059 106.383L134.54 108.737ZM134.938 110.706C134.938 111.387 134.806 112.041 134.534 112.69L140.065 115.014C140.643 113.639 140.938 112.195 140.938 110.706H134.938ZM134.525 112.71C134.26 113.353 133.895 113.907 133.42 114.391L137.703 118.593C138.724 117.551 139.517 116.345 140.074 114.994L134.525 112.71ZM133.399 114.413C132.937 114.893 132.387 115.285 131.721 115.588L134.21 121.048C135.539 120.442 136.719 119.617 137.724 118.571L133.399 114.413ZM131.706 115.595C131.14 115.857 130.51 116 129.776 116V122C131.329 122 132.826 121.688 134.225 121.041L131.706 115.595ZM129.776 116H123.396V122H129.776V116ZM126.396 119V102.412H120.396V119H126.396ZM149.248 106.064V109.064H152.248V106.064H149.248ZM144.122 106.064V103.064H141.122V106.064H144.122ZM144.122 108.836H141.122V111.836H144.122V108.836ZM148.962 108.836H151.962V105.836H148.962V108.836ZM148.962 112.488V115.488H151.962V112.488H148.962ZM144.122 112.488V109.488H141.122V112.488H144.122ZM144.122 115.348H141.122V118.348H144.122V115.348ZM149.248 115.348H152.248V112.348H149.248V115.348ZM149.248 119V122H152.248V119H149.248ZM139.81 119H136.81V122H139.81V119ZM139.81 102.412V99.412H136.81V102.412H139.81ZM149.248 102.412H152.248V99.412H149.248V102.412ZM149.248 103.064H144.122V109.064H149.248V103.064ZM141.122 106.064V108.836H147.122V106.064H141.122ZM144.122 111.836H148.962V105.836H144.122V111.836ZM145.962 108.836V112.488H151.962V108.836H145.962ZM148.962 109.488H144.122V115.488H148.962V109.488ZM141.122 112.488V115.348H147.122V112.488H141.122ZM144.122 118.348H149.248V112.348H144.122V118.348ZM146.248 115.348V119H152.248V115.348H146.248ZM149.248 116H139.81V122H149.248V116ZM142.81 119V102.412H136.81V119H142.81ZM139.81 105.412H149.248V99.412H139.81V105.412ZM146.248 102.412V106.064H152.248V102.412H146.248ZM156.229 110.156L158.648 111.931L159.891 110.237L158.724 108.49L156.229 110.156ZM151.059 102.412V99.412H145.449L148.564 104.078L151.059 102.412ZM156.383 102.412L159.042 101.022L158.2 99.412H156.383V102.412ZM158.627 106.702L155.969 108.092L158.354 112.652L161.147 108.33L158.627 106.702ZM161.399 102.412V99.412H159.766L158.88 100.784L161.399 102.412ZM166.723 102.412L169.172 104.145L172.52 99.412H166.723V102.412ZM161.245 110.156L158.796 108.423L157.578 110.146L158.786 111.875L161.245 110.156ZM167.427 119V122H173.185L169.886 117.281L167.427 119ZM162.169 119L159.613 120.569L160.491 122H162.169V119ZM158.847 113.588L161.404 112.019L159.045 108.176L156.412 111.836L158.847 113.588ZM154.953 119V122H156.491L157.388 120.752L154.953 119ZM149.739 119L147.321 117.225L143.817 122H149.739V119ZM158.724 108.49L153.554 100.746L148.564 104.078L153.734 111.822L158.724 108.49ZM151.059 105.412H156.383V99.412H151.059V105.412ZM153.725 103.802L155.969 108.092L161.286 105.312L159.042 101.022L153.725 103.802ZM161.147 108.33L163.919 104.04L158.88 100.784L156.108 105.074L161.147 108.33ZM161.399 105.412H166.723V99.412H161.399V105.412ZM164.274 100.679L158.796 108.423L163.694 111.889L169.172 104.145L164.274 100.679ZM158.786 111.875L164.968 120.719L169.886 117.281L163.704 108.437L158.786 111.875ZM167.427 116H162.169V122H167.427V116ZM164.726 117.431L161.404 112.019L156.291 115.157L159.613 120.569L164.726 117.431ZM156.412 111.836L152.518 117.248L157.388 120.752L161.282 115.34L156.412 111.836ZM154.953 116H149.739V122H154.953V116ZM152.158 120.775L158.648 111.931L153.811 108.381L147.321 117.225L152.158 120.775ZM177.717 106.064V109.064H180.717V106.064H177.717ZM172.591 106.064V103.064H169.591V106.064H172.591ZM172.591 108.836H169.591V111.836H172.591V108.836ZM177.431 108.836H180.431V105.836H177.431V108.836ZM177.431 112.488V115.488H180.431V112.488H177.431ZM172.591 112.488V109.488H169.591V112.488H172.591ZM172.591 115.348H169.591V118.348H172.591V115.348ZM177.717 115.348H180.717V112.348H177.717V115.348ZM177.717 119V122H180.717V119H177.717ZM168.279 119H165.279V122H168.279V119ZM168.279 102.412V99.412H165.279V102.412H168.279ZM177.717 102.412H180.717V99.412H177.717V102.412ZM177.717 103.064H172.591V109.064H177.717V103.064ZM169.591 106.064V108.836H175.591V106.064H169.591ZM172.591 111.836H177.431V105.836H172.591V111.836ZM174.431 108.836V112.488H180.431V108.836H174.431ZM177.431 109.488H172.591V115.488H177.431V109.488ZM169.591 112.488V115.348H175.591V112.488H169.591ZM172.591 118.348H177.717V112.348H172.591V118.348ZM174.717 115.348V119H180.717V115.348H174.717ZM177.717 116H168.279V122H177.717V116ZM171.279 119V102.412H165.279V119H171.279ZM168.279 105.412H177.717V99.412H168.279V105.412ZM174.717 102.412V106.064H180.717V102.412H174.717ZM189.054 106.658L187.162 108.986L190.041 111.326L191.727 108.021L189.054 106.658ZM187.646 105.822L186.517 108.601L186.554 108.617L186.592 108.631L187.646 105.822ZM184.918 105.932L183.118 103.532V103.532L184.918 105.932ZM184.654 107.692L182.449 109.727L182.449 109.727L184.654 107.692ZM185.336 108.198L183.939 110.853L184.02 110.896L184.105 110.934L185.336 108.198ZM186.304 108.55L185.464 111.43L185.479 111.435L185.495 111.439L186.304 108.55ZM187.382 108.88L186.433 111.726L187.382 108.88ZM190.462 110.772L188.136 112.667L188.155 112.691L188.175 112.714L190.462 110.772ZM191.012 116.14L188.251 114.965L188.241 114.99L188.23 115.016L191.012 116.14ZM189.758 117.922L191.755 120.161L191.758 120.158L189.758 117.922ZM187.734 119.044L186.801 116.193L186.769 116.203L186.738 116.214L187.734 119.044ZM179.198 117.592L176.549 116.184L175.3 118.533L177.483 120.053L179.198 117.592ZM181.046 114.116L183.036 111.871L180.185 109.344L178.397 112.708L181.046 114.116ZM182.96 115.392L181.747 118.136V118.136L182.96 115.392ZM186.392 115.326L184.365 113.115L184.341 113.136L184.318 113.158L186.392 115.326ZM186.788 113.588L184.064 114.845L184.084 114.888L184.105 114.93L186.788 113.588ZM186.348 113.082L184.494 115.441L184.548 115.483L184.604 115.523L186.348 113.082ZM185.534 112.642L184.398 115.419L184.419 115.427L184.441 115.436L185.534 112.642ZM184.346 112.202L185.321 109.365L185.285 109.353L185.249 109.341L184.346 112.202ZM182.696 111.63L181.542 114.399L181.588 114.418L181.634 114.436L182.696 111.63ZM181.266 110.772L179.313 113.05L179.333 113.067L179.353 113.083L181.266 110.772ZM180.254 109.452L177.528 110.705L177.548 110.749L177.571 110.794L180.254 109.452ZM180.276 105.184L177.503 104.039L177.497 104.054L177.49 104.07L180.276 105.184ZM181.42 103.468L183.508 105.622L183.509 105.621L181.42 103.468ZM183.224 102.346L182.189 99.53L182.18 99.5335L182.17 99.537L183.224 102.346ZM188.196 102.302L187.435 105.204L187.457 105.21L187.479 105.215L188.196 102.302ZM190.77 103.292L193.443 104.655L194.778 102.036L192.186 100.648L190.77 103.292ZM190.946 104.33C190.275 103.785 189.527 103.324 188.699 103.013L186.592 108.631C186.703 108.672 186.894 108.769 187.162 108.986L190.946 104.33ZM188.775 103.043C188.001 102.728 187.163 102.536 186.282 102.536V108.536C186.284 108.536 186.301 108.536 186.337 108.544C186.374 108.551 186.433 108.568 186.517 108.601L188.775 103.043ZM186.282 102.536C185.25 102.536 184.114 102.785 183.118 103.532L186.718 108.332C186.583 108.433 186.453 108.489 186.359 108.516C186.272 108.541 186.238 108.536 186.282 108.536V102.536ZM183.118 103.532C182.041 104.34 181.39 105.559 181.39 106.966H187.39C187.39 107.18 187.342 107.462 187.194 107.753C187.047 108.04 186.857 108.227 186.718 108.332L183.118 103.532ZM181.39 106.966C181.39 107.908 181.694 108.909 182.449 109.727L186.858 105.657C187.038 105.852 187.182 106.086 187.275 106.342C187.366 106.592 187.39 106.811 187.39 106.966H181.39ZM182.449 109.727C182.901 110.216 183.42 110.58 183.939 110.853L186.733 105.543C186.694 105.523 186.759 105.55 186.858 105.657L182.449 109.727ZM184.105 110.934C184.541 111.13 184.996 111.294 185.464 111.43L187.144 105.67C186.907 105.601 186.717 105.53 186.567 105.462L184.105 110.934ZM185.495 111.439C185.816 111.529 186.129 111.625 186.433 111.726L188.331 106.034C187.931 105.901 187.525 105.777 187.113 105.661L185.495 111.439ZM186.433 111.726C187.532 112.092 187.978 112.473 188.136 112.667L192.788 108.877C191.655 107.487 190.047 106.606 188.331 106.034L186.433 111.726ZM188.175 112.714C188.273 112.829 188.452 113.106 188.452 113.83H194.452C194.452 112.032 193.971 110.269 192.749 108.83L188.175 112.714ZM188.452 113.83C188.452 114.331 188.367 114.695 188.251 114.965L193.772 117.315C194.244 116.207 194.452 115.03 194.452 113.83H188.452ZM188.23 115.016C188.125 115.277 187.975 115.492 187.757 115.686L191.758 120.158C192.655 119.355 193.342 118.382 193.793 117.264L188.23 115.016ZM187.761 115.683C187.574 115.85 187.279 116.036 186.801 116.193L188.667 121.895C189.802 121.524 190.856 120.962 191.755 120.161L187.761 115.683ZM186.738 116.214C186.324 116.36 185.768 116.462 185.028 116.462V122.462C186.311 122.462 187.56 122.286 188.73 121.874L186.738 116.214ZM185.028 116.462C183.569 116.462 182.22 116.041 180.913 115.131L177.483 120.053C179.754 121.636 182.292 122.462 185.028 122.462V116.462ZM181.847 119L183.695 115.524L178.397 112.708L176.549 116.184L181.847 119ZM179.056 116.361C179.878 117.089 180.773 117.705 181.747 118.136L184.172 112.648C183.886 112.521 183.505 112.287 183.036 111.871L179.056 116.361ZM181.747 118.136C182.714 118.563 183.749 118.81 184.83 118.81V112.81C184.679 112.81 184.467 112.778 184.172 112.648L181.747 118.136ZM184.83 118.81C185.922 118.81 187.343 118.568 188.465 117.494L184.318 113.158C184.537 112.948 184.751 112.857 184.86 112.823C184.957 112.793 184.964 112.81 184.83 112.81V118.81ZM188.419 117.537C189.28 116.748 189.92 115.617 189.92 114.226H183.92C183.92 113.986 183.975 113.737 184.083 113.511C184.187 113.295 184.307 113.167 184.365 113.115L188.419 117.537ZM189.92 114.226C189.92 113.632 189.815 112.935 189.471 112.246L184.105 114.93C183.936 114.593 183.92 114.321 183.92 114.226H189.92ZM189.512 112.331C189.165 111.58 188.635 111.029 188.092 110.641L184.604 115.523C184.471 115.428 184.234 115.215 184.064 114.845L189.512 112.331ZM188.201 110.723C187.695 110.325 187.14 110.049 186.627 109.848L184.441 115.436C184.514 115.465 184.553 115.484 184.564 115.49C184.569 115.493 184.565 115.491 184.553 115.484C184.542 115.476 184.522 115.462 184.494 115.441L188.201 110.723ZM186.67 109.865C186.277 109.705 185.824 109.538 185.321 109.365L183.371 115.039C183.806 115.189 184.145 115.315 184.398 115.419L186.67 109.865ZM185.249 109.341C184.745 109.182 184.248 109.01 183.758 108.824L181.634 114.436C182.229 114.661 182.832 114.87 183.442 115.063L185.249 109.341ZM183.85 108.861C183.586 108.751 183.367 108.617 183.179 108.461L179.353 113.083C180.016 113.631 180.75 114.069 181.542 114.399L183.85 108.861ZM183.218 108.494C183.138 108.425 183.039 108.314 182.937 108.11L177.571 110.794C177.997 111.646 178.572 112.415 179.313 113.05L183.218 108.494ZM182.98 108.199C182.965 108.168 182.88 107.948 182.88 107.406H176.88C176.88 108.507 177.044 109.651 177.528 110.705L182.98 108.199ZM182.88 107.406C182.88 106.908 182.959 106.553 183.061 106.298L177.49 104.07C177.064 105.135 176.88 106.262 176.88 107.406H182.88ZM183.049 106.329C183.184 106.002 183.343 105.782 183.508 105.622L179.331 101.314C178.529 102.092 177.925 103.016 177.503 104.039L183.049 106.329ZM183.509 105.621C183.688 105.447 183.928 105.286 184.277 105.155L182.17 99.537C181.112 99.9341 180.149 100.521 179.33 101.315L183.509 105.621ZM184.258 105.162C184.6 105.036 185.043 104.95 185.622 104.95V98.95C184.441 98.95 183.285 99.1276 182.189 99.53L184.258 105.162ZM185.622 104.95C186.156 104.95 186.758 105.026 187.435 105.204L188.957 99.4002C187.845 99.1084 186.73 98.95 185.622 98.95V104.95ZM187.479 105.215C188.128 105.375 188.751 105.614 189.353 105.936L192.186 100.648C191.146 100.09 190.053 99.6694 188.912 99.3888L187.479 105.215ZM188.097 101.929L186.381 105.295L191.727 108.021L193.443 104.655L188.097 101.929ZM193.706 113.368H190.706V116.368H193.706V113.368ZM193.706 102.412V99.412H190.706V102.412H193.706ZM197.842 102.412H200.842V99.412H197.842V102.412ZM197.842 113.368V116.368H200.842V113.368H197.842ZM193.398 115.898L196.156 117.08L196.166 117.057L196.175 117.034L193.398 115.898ZM193.948 115.062L196.07 117.183V117.183L193.948 115.062ZM194.762 114.512L193.627 111.735L193.604 111.745L193.581 111.755L194.762 114.512ZM196.764 114.512L195.583 117.269L195.606 117.279L195.629 117.289L196.764 114.512ZM198.15 115.898L195.374 117.034L195.383 117.057L195.393 117.08L198.15 115.898ZM198.15 117.9L200.908 119.082L200.918 119.059L200.927 119.036L198.15 117.9ZM197.6 118.714L199.722 120.835V120.835L197.6 118.714ZM196.764 119.264L195.629 116.487L195.606 116.497L195.583 116.507L196.764 119.264ZM194.762 119.264L193.581 122.021L193.604 122.031L193.627 122.041L194.762 119.264ZM193.948 118.714L196.07 116.593L193.948 118.714ZM193.398 117.9L190.622 119.036L190.631 119.059L190.641 119.082L193.398 117.9ZM196.706 113.368V102.412H190.706V113.368H196.706ZM193.706 105.412H197.842V99.412H193.706V105.412ZM194.842 102.412V113.368H200.842V102.412H194.842ZM197.842 110.368H193.706V116.368H197.842V110.368ZM196.2 116.888C196.2 116.901 196.199 116.927 196.192 116.965C196.184 117.003 196.172 117.042 196.156 117.08L190.641 114.716C190.341 115.416 190.2 116.151 190.2 116.888H196.2ZM196.175 117.034C196.171 117.044 196.161 117.066 196.141 117.096C196.122 117.126 196.097 117.156 196.07 117.183L191.827 112.941C191.297 113.471 190.897 114.09 190.622 114.762L196.175 117.034ZM196.07 117.183C196.054 117.199 196.033 117.217 196.008 117.234C195.983 117.251 195.96 117.263 195.944 117.269L193.581 111.755C192.925 112.035 192.334 112.433 191.827 112.941L196.07 117.183ZM195.898 117.289C195.882 117.296 195.859 117.303 195.834 117.308C195.808 117.313 195.787 117.314 195.774 117.314V111.314C195.037 111.314 194.313 111.454 193.627 111.735L195.898 117.289ZM195.774 117.314C195.762 117.314 195.735 117.313 195.698 117.305C195.66 117.298 195.62 117.286 195.583 117.269L197.946 111.755C197.246 111.454 196.512 111.314 195.774 111.314V117.314ZM195.629 117.289C195.619 117.285 195.596 117.274 195.567 117.255C195.537 117.235 195.507 117.211 195.479 117.183L199.722 112.941C199.191 112.41 198.573 112.01 197.9 111.735L195.629 117.289ZM195.479 117.183C195.452 117.156 195.427 117.126 195.408 117.096C195.388 117.066 195.378 117.044 195.374 117.034L200.927 114.762C200.652 114.09 200.252 113.471 199.722 112.941L195.479 117.183ZM195.393 117.08C195.377 117.042 195.365 117.003 195.357 116.965C195.35 116.927 195.348 116.901 195.348 116.888H201.348C201.348 116.151 201.208 115.416 200.908 114.716L195.393 117.08ZM195.348 116.888C195.348 116.875 195.35 116.855 195.355 116.829C195.36 116.803 195.367 116.781 195.374 116.764L200.927 119.036C201.208 118.349 201.348 117.626 201.348 116.888H195.348ZM195.393 116.718C195.4 116.702 195.411 116.68 195.428 116.655C195.445 116.63 195.463 116.609 195.479 116.593L199.722 120.835C200.229 120.328 200.627 119.737 200.908 119.082L195.393 116.718ZM195.479 116.593C195.507 116.565 195.537 116.541 195.567 116.521C195.596 116.502 195.619 116.491 195.629 116.487L197.9 122.041C198.573 121.766 199.191 121.366 199.722 120.835L195.479 116.593ZM195.583 116.507C195.62 116.49 195.66 116.478 195.698 116.471C195.735 116.463 195.762 116.462 195.774 116.462V122.462C196.512 122.462 197.246 122.322 197.946 122.021L195.583 116.507ZM195.774 116.462C195.787 116.462 195.808 116.463 195.834 116.468C195.859 116.473 195.882 116.48 195.898 116.487L193.627 122.041C194.313 122.322 195.037 122.462 195.774 122.462V116.462ZM195.944 116.507C195.96 116.513 195.983 116.525 196.008 116.542C196.033 116.559 196.054 116.577 196.07 116.593L191.827 120.835C192.334 121.343 192.925 121.741 193.581 122.021L195.944 116.507ZM196.07 116.593C196.086 116.609 196.104 116.63 196.121 116.655C196.138 116.68 196.149 116.702 196.156 116.718L190.641 119.082C190.922 119.737 191.32 120.328 191.827 120.835L196.07 116.593ZM196.175 116.764C196.182 116.781 196.189 116.803 196.194 116.829C196.199 116.855 196.2 116.875 196.2 116.888H190.2C190.2 117.626 190.341 118.349 190.622 119.036L196.175 116.764Z" fill="#171515"/>
<g filter="url(#filter3_i_1115_17537)">
<path d="M62.5068 178.213H62.999C63.1357 178.213 63.251 178.262 63.3447 178.359C63.4424 178.457 63.4912 178.572 63.4912 178.705C63.4912 178.842 63.4424 178.959 63.3447 179.057C63.251 179.15 63.1357 179.197 62.999 179.197V182.449H66.4678C66.6006 182.449 66.7158 182.5 66.8135 182.602C66.9111 182.699 66.9599 182.816 66.9599 182.953V185.496C66.9599 185.633 66.9092 185.75 66.8076 185.848C66.7099 185.941 66.5928 185.988 66.456 185.988H62.5068C62.3701 185.988 62.251 185.939 62.1494 185.842C62.0517 185.744 62.0029 185.629 62.0029 185.496V178.705C62.0029 178.568 62.0517 178.453 62.1494 178.359C62.247 178.262 62.3662 178.213 62.5068 178.213ZM62.9873 183.445V185.004H65.9638V183.445H62.9873ZM68.3338 185.004H69.8456V179.197H68.3573C68.2206 179.197 68.1034 179.15 68.0057 179.057C67.912 178.959 67.8651 178.842 67.8651 178.705C67.8651 178.568 67.912 178.453 68.0057 178.359C68.1034 178.262 68.2206 178.213 68.3573 178.213H70.8299V185.004H71.8143V182.953C71.8143 182.82 71.8612 182.705 71.9549 182.607C72.0526 182.51 72.1698 182.461 72.3065 182.461C72.4432 182.461 72.5585 182.51 72.6522 182.607C72.7499 182.701 72.7987 182.816 72.7987 182.953V185.496C72.7987 185.633 72.7499 185.75 72.6522 185.848C72.5585 185.941 72.4432 185.988 72.3065 185.988H68.3338C68.1971 185.988 68.0799 185.939 67.9823 185.842C67.8885 185.74 67.8417 185.621 67.8417 185.484C67.8417 185.352 67.8885 185.238 67.9823 185.145C68.0799 185.051 68.1971 185.004 68.3338 185.004ZM78.2156 185.988H73.739V182.59C73.739 182.316 73.8347 182.082 74.0261 181.887C74.2214 181.691 74.4538 181.594 74.7234 181.594H77.7117V179.197H74.196C74.0554 179.197 73.9382 179.15 73.8445 179.057C73.7507 178.959 73.7038 178.842 73.7038 178.705C73.7038 178.568 73.7507 178.453 73.8445 178.359C73.9382 178.262 74.0554 178.213 74.196 178.213H77.7117C77.9851 178.213 78.2195 178.311 78.4148 178.506C78.6101 178.697 78.7078 178.928 78.7078 179.197V181.594C78.7078 181.871 78.6101 182.107 78.4148 182.303C78.2195 182.494 77.9851 182.59 77.7117 182.59H74.7234V185.004H78.2156C78.3484 185.004 78.4636 185.053 78.5613 185.15C78.6589 185.244 78.7078 185.359 78.7078 185.496C78.7078 185.633 78.6589 185.75 78.5613 185.848C78.4636 185.941 78.3484 185.988 78.2156 185.988ZM84.0895 185.988H79.6129V182.59C79.6129 182.316 79.7086 182.082 79.9 181.887C80.0953 181.691 80.3278 181.594 80.5973 181.594H83.5856V179.197H80.0699C79.9293 179.197 79.8121 179.15 79.7184 179.057C79.6246 178.959 79.5778 178.842 79.5778 178.705C79.5778 178.568 79.6246 178.453 79.7184 178.359C79.8121 178.262 79.9293 178.213 80.0699 178.213H83.5856C83.859 178.213 84.0934 178.311 84.2887 178.506C84.484 178.697 84.5817 178.928 84.5817 179.197V181.594C84.5817 181.871 84.484 182.107 84.2887 182.303C84.0934 182.494 83.859 182.59 83.5856 182.59H80.5973V185.004H84.0895C84.2223 185.004 84.3375 185.053 84.4352 185.15C84.5328 185.244 84.5817 185.359 84.5817 185.496C84.5817 185.633 84.5328 185.75 84.4352 185.848C84.3375 185.941 84.2223 185.988 84.0895 185.988ZM85.4751 185.039V179.15C85.4751 178.893 85.5688 178.67 85.7563 178.482C85.9438 178.295 86.1665 178.201 86.4243 178.201H89.4946C89.7485 178.201 89.9673 178.295 90.1509 178.482C90.3384 178.67 90.4321 178.893 90.4321 179.15V185.039C90.4321 185.301 90.3384 185.525 90.1509 185.713C89.9673 185.896 89.7446 185.988 89.4829 185.988H86.4243C86.1587 185.988 85.9341 185.896 85.7505 185.713C85.5669 185.525 85.4751 185.301 85.4751 185.039ZM89.4595 185.004V179.197H86.4595V185.004H89.4595ZM91.349 185.039V179.15C91.349 178.893 91.4427 178.67 91.6302 178.482C91.8177 178.295 92.0404 178.201 92.2982 178.201H95.3685C95.6224 178.201 95.8412 178.295 96.0248 178.482C96.2123 178.67 96.306 178.893 96.306 179.15V185.039C96.306 185.301 96.2123 185.525 96.0248 185.713C95.8412 185.896 95.6185 185.988 95.3568 185.988H92.2982C92.0326 185.988 91.808 185.896 91.6244 185.713C91.4408 185.525 91.349 185.301 91.349 185.039ZM95.3334 185.004V179.197H92.3334V185.004H95.3334ZM100.463 185.496V183.445H97.4983V178.705C97.4983 178.568 97.5471 178.451 97.6448 178.354C97.7463 178.252 97.8655 178.201 98.0022 178.201C98.135 178.201 98.2503 178.252 98.3479 178.354C98.4456 178.451 98.4944 178.568 98.4944 178.705V182.449H100.463V179.566C100.463 179.43 100.51 179.312 100.604 179.215C100.701 179.113 100.819 179.062 100.955 179.062C101.092 179.062 101.207 179.113 101.301 179.215C101.399 179.312 101.448 179.43 101.448 179.566V182.449C101.584 182.449 101.699 182.498 101.793 182.596C101.891 182.689 101.94 182.805 101.94 182.941C101.94 183.078 101.891 183.195 101.793 183.293C101.699 183.387 101.584 183.434 101.448 183.434V185.496C101.448 185.633 101.399 185.75 101.301 185.848C101.203 185.941 101.088 185.988 100.955 185.988C100.819 185.988 100.701 185.941 100.604 185.848C100.51 185.75 100.463 185.633 100.463 185.496ZM107.585 185.988H103.109V182.59C103.109 182.316 103.204 182.082 103.396 181.887C103.591 181.691 103.823 181.594 104.093 181.594H107.081V179.197H103.566C103.425 179.197 103.308 179.15 103.214 179.057C103.12 178.959 103.073 178.842 103.073 178.705C103.073 178.568 103.12 178.453 103.214 178.359C103.308 178.262 103.425 178.213 103.566 178.213H107.081C107.355 178.213 107.589 178.311 107.784 178.506C107.98 178.697 108.077 178.928 108.077 179.197V181.594C108.077 181.871 107.98 182.107 107.784 182.303C107.589 182.494 107.355 182.59 107.081 182.59H104.093V185.004H107.585C107.718 185.004 107.833 185.053 107.931 185.15C108.028 185.244 108.077 185.359 108.077 185.496C108.077 185.633 108.028 185.75 107.931 185.848C107.833 185.941 107.718 185.988 107.585 185.988ZM110.793 185.004H113.072V182.59H110.096V178.213H113.564C113.697 178.213 113.813 178.262 113.91 178.359C114.008 178.457 114.057 178.572 114.057 178.705C114.057 178.842 114.008 178.959 113.91 179.057C113.816 179.15 113.701 179.197 113.564 179.197H111.092V181.605H113.072C113.338 181.605 113.568 181.703 113.764 181.898C113.959 182.094 114.057 182.324 114.057 182.59V185.004C114.057 185.273 113.959 185.506 113.764 185.701C113.572 185.893 113.342 185.988 113.072 185.988H110.793C110.59 185.988 110.373 185.939 110.143 185.842L109.398 185.531C109.199 185.449 109.1 185.293 109.1 185.062C109.1 184.926 109.145 184.811 109.234 184.717C109.324 184.619 109.434 184.57 109.563 184.57C109.66 184.57 109.773 184.6 109.902 184.658L110.553 184.934C110.631 184.98 110.711 185.004 110.793 185.004ZM114.845 185.039V179.15C114.845 178.893 114.938 178.67 115.126 178.482C115.313 178.295 115.536 178.201 115.794 178.201H118.864C119.118 178.201 119.337 178.295 119.52 178.482C119.708 178.67 119.802 178.893 119.802 179.15V185.039C119.802 185.301 119.708 185.525 119.52 185.713C119.337 185.896 119.114 185.988 118.852 185.988H115.794C115.528 185.988 115.304 185.896 115.12 185.713C114.936 185.525 114.845 185.301 114.845 185.039ZM118.829 185.004V179.197H115.829V185.004H118.829ZM125.207 185.988H120.73V182.59C120.73 182.316 120.826 182.082 121.017 181.887C121.213 181.691 121.445 181.594 121.715 181.594H124.703V179.197H121.187C121.047 179.197 120.929 179.15 120.836 179.057C120.742 178.959 120.695 178.842 120.695 178.705C120.695 178.568 120.742 178.453 120.836 178.359C120.929 178.262 121.047 178.213 121.187 178.213H124.703C124.976 178.213 125.211 178.311 125.406 178.506C125.601 178.697 125.699 178.928 125.699 179.197V181.594C125.699 181.871 125.601 182.107 125.406 182.303C125.211 182.494 124.976 182.59 124.703 182.59H121.715V185.004H125.207C125.34 185.004 125.455 185.053 125.553 185.15C125.65 185.244 125.699 185.359 125.699 185.496C125.699 185.633 125.65 185.75 125.553 185.848C125.455 185.941 125.34 185.988 125.207 185.988ZM126.592 179.139V178.717C126.592 178.58 126.639 178.465 126.733 178.371C126.831 178.273 126.948 178.225 127.085 178.225H131.549V181.248C131.549 181.408 131.489 181.541 131.368 181.646L129.557 183.193V185.484C129.557 185.621 129.508 185.74 129.411 185.842C129.317 185.939 129.202 185.988 129.065 185.988C128.928 185.988 128.809 185.939 128.708 185.842C128.61 185.744 128.561 185.629 128.561 185.496V183.012C128.561 182.824 128.62 182.68 128.737 182.578L130.553 181.043V179.209H127.577C127.507 179.49 127.342 179.631 127.085 179.631C126.948 179.631 126.831 179.584 126.733 179.49C126.639 179.393 126.592 179.275 126.592 179.139ZM132.466 179.139V178.717C132.466 178.58 132.513 178.465 132.607 178.371C132.705 178.273 132.822 178.225 132.959 178.225H137.423V181.248C137.423 181.408 137.363 181.541 137.242 181.646L135.431 183.193V185.484C135.431 185.621 135.382 185.74 135.285 185.842C135.191 185.939 135.076 185.988 134.939 185.988C134.802 185.988 134.683 185.939 134.582 185.842C134.484 185.744 134.435 185.629 134.435 185.496V183.012C134.435 182.824 134.494 182.68 134.611 182.578L136.427 181.043V179.209H133.451C133.38 179.49 133.216 179.631 132.959 179.631C132.822 179.631 132.705 179.584 132.607 179.49C132.513 179.393 132.466 179.275 132.466 179.139ZM143.321 179.197V181.043C143.321 181.473 143.188 181.82 142.922 182.086C143.196 182.391 143.332 182.723 143.332 183.082V185.004C143.332 185.273 143.235 185.506 143.039 185.701C142.844 185.893 142.61 185.988 142.336 185.988H138.856C138.719 185.988 138.602 185.941 138.504 185.848C138.411 185.75 138.364 185.633 138.364 185.496C138.364 185.359 138.411 185.244 138.504 185.15C138.602 185.053 138.719 185.004 138.856 185.004H142.325V183.082C142.325 182.945 142.276 182.828 142.178 182.73C142.084 182.629 141.969 182.578 141.832 182.578H139.852C139.715 182.578 139.598 182.531 139.5 182.438C139.407 182.344 139.36 182.227 139.36 182.086C139.36 181.949 139.407 181.834 139.5 181.74C139.598 181.643 139.715 181.594 139.852 181.594H141.844C141.977 181.594 142.092 181.547 142.19 181.453C142.288 181.355 142.336 181.238 142.336 181.102V179.197H138.821C138.684 179.197 138.567 179.15 138.469 179.057C138.375 178.959 138.329 178.842 138.329 178.705C138.329 178.568 138.375 178.453 138.469 178.359C138.567 178.262 138.684 178.213 138.821 178.213H142.336C142.61 178.213 142.842 178.311 143.034 178.506C143.225 178.697 143.321 178.928 143.321 179.197ZM144.214 185.039V179.15C144.214 178.893 144.308 178.67 144.495 178.482C144.683 178.295 144.906 178.201 145.163 178.201H148.234C148.488 178.201 148.706 178.295 148.89 178.482C149.077 178.67 149.171 178.893 149.171 179.15V185.039C149.171 185.301 149.077 185.525 148.89 185.713C148.706 185.896 148.484 185.988 148.222 185.988H145.163C144.898 185.988 144.673 185.896 144.49 185.713C144.306 185.525 144.214 185.301 144.214 185.039ZM148.199 185.004V179.197H145.199V185.004H148.199ZM150.569 185.004H152.08V179.197H150.592C150.455 179.197 150.338 179.15 150.24 179.057C150.147 178.959 150.1 178.842 150.1 178.705C150.1 178.568 150.147 178.453 150.24 178.359C150.338 178.262 150.455 178.213 150.592 178.213H153.065V185.004H154.049V182.953C154.049 182.82 154.096 182.705 154.19 182.607C154.287 182.51 154.404 182.461 154.541 182.461C154.678 182.461 154.793 182.51 154.887 182.607C154.985 182.701 155.033 182.816 155.033 182.953V185.496C155.033 185.633 154.985 185.75 154.887 185.848C154.793 185.941 154.678 185.988 154.541 185.988H150.569C150.432 185.988 150.315 185.939 150.217 185.842C150.123 185.74 150.076 185.621 150.076 185.484C150.076 185.352 150.123 185.238 150.217 185.145C150.315 185.051 150.432 185.004 150.569 185.004ZM157.784 185.004H160.064V182.59H157.087V178.213H160.556C160.689 178.213 160.804 178.262 160.901 178.359C160.999 178.457 161.048 178.572 161.048 178.705C161.048 178.842 160.999 178.959 160.901 179.057C160.808 179.15 160.692 179.197 160.556 179.197H158.083V181.605H160.064C160.329 181.605 160.56 181.703 160.755 181.898C160.95 182.094 161.048 182.324 161.048 182.59V185.004C161.048 185.273 160.95 185.506 160.755 185.701C160.564 185.893 160.333 185.988 160.064 185.988H157.784C157.581 185.988 157.364 185.939 157.134 185.842L156.39 185.531C156.19 185.449 156.091 185.293 156.091 185.062C156.091 184.926 156.136 184.811 156.226 184.717C156.315 184.619 156.425 184.57 156.554 184.57C156.651 184.57 156.765 184.6 156.894 184.658L157.544 184.934C157.622 184.98 157.702 185.004 157.784 185.004ZM161.824 184.992V182.59C161.824 182.32 161.922 182.09 162.117 181.898C162.312 181.703 162.547 181.605 162.82 181.605V178.705C162.82 178.568 162.867 178.453 162.961 178.359C163.055 178.262 163.172 178.213 163.312 178.213H165.316C165.453 178.213 165.568 178.262 165.662 178.359C165.76 178.453 165.809 178.568 165.809 178.705V181.605C166.074 181.605 166.305 181.701 166.5 181.893C166.695 182.08 166.793 182.312 166.793 182.59V185.004C166.793 185.273 166.695 185.506 166.5 185.701C166.305 185.893 166.074 185.988 165.809 185.988H162.82C162.543 185.988 162.307 185.887 162.111 185.684C161.92 185.48 161.824 185.25 161.824 184.992ZM163.805 179.197V181.605H164.824V179.197H163.805ZM162.82 182.59V185.004H165.809V182.59H162.82ZM172.69 179.197V181.043C172.69 181.473 172.557 181.82 172.292 182.086C172.565 182.391 172.702 182.723 172.702 183.082V185.004C172.702 185.273 172.604 185.506 172.409 185.701C172.214 185.893 171.979 185.988 171.706 185.988H168.225C168.089 185.988 167.972 185.941 167.874 185.848C167.78 185.75 167.733 185.633 167.733 185.496C167.733 185.359 167.78 185.244 167.874 185.15C167.972 185.053 168.089 185.004 168.225 185.004H171.694V183.082C171.694 182.945 171.645 182.828 171.548 182.73C171.454 182.629 171.339 182.578 171.202 182.578H169.222C169.085 182.578 168.968 182.531 168.87 182.438C168.776 182.344 168.729 182.227 168.729 182.086C168.729 181.949 168.776 181.834 168.87 181.74C168.968 181.643 169.085 181.594 169.222 181.594H171.214C171.347 181.594 171.462 181.547 171.559 181.453C171.657 181.355 171.706 181.238 171.706 181.102V179.197H168.19C168.054 179.197 167.936 179.15 167.839 179.057C167.745 178.959 167.698 178.842 167.698 178.705C167.698 178.568 167.745 178.453 167.839 178.359C167.936 178.262 168.054 178.213 168.19 178.213H171.706C171.979 178.213 172.212 178.311 172.403 178.506C172.595 178.697 172.69 178.928 172.69 179.197ZM173.572 184.992V182.59C173.572 182.32 173.67 182.09 173.865 181.898C174.06 181.703 174.295 181.605 174.568 181.605V178.705C174.568 178.568 174.615 178.453 174.709 178.359C174.802 178.262 174.92 178.213 175.06 178.213H177.064C177.201 178.213 177.316 178.262 177.41 178.359C177.508 178.453 177.556 178.568 177.556 178.705V181.605C177.822 181.605 178.052 181.701 178.248 181.893C178.443 182.08 178.541 182.312 178.541 182.59V185.004C178.541 185.273 178.443 185.506 178.248 185.701C178.052 185.893 177.822 185.988 177.556 185.988H174.568C174.291 185.988 174.054 185.887 173.859 185.684C173.668 185.48 173.572 185.25 173.572 184.992ZM175.552 179.197V181.605H176.572V179.197H175.552ZM174.568 182.59V185.004H177.556V182.59H174.568ZM182.698 185.496V183.445H179.733V178.705C179.733 178.568 179.782 178.451 179.879 178.354C179.981 178.252 180.1 178.201 180.237 178.201C180.37 178.201 180.485 178.252 180.583 178.354C180.68 178.451 180.729 178.568 180.729 178.705V182.449H182.698V179.566C182.698 179.43 182.745 179.312 182.838 179.215C182.936 179.113 183.053 179.062 183.19 179.062C183.327 179.062 183.442 179.113 183.536 179.215C183.633 179.312 183.682 179.43 183.682 179.566V182.449C183.819 182.449 183.934 182.498 184.028 182.596C184.126 182.689 184.174 182.805 184.174 182.941C184.174 183.078 184.126 183.195 184.028 183.293C183.934 183.387 183.819 183.434 183.682 183.434V185.496C183.682 185.633 183.633 185.75 183.536 185.848C183.438 185.941 183.323 185.988 183.19 185.988C183.053 185.988 182.936 185.941 182.838 185.848C182.745 185.75 182.698 185.633 182.698 185.496ZM185.32 184.992V182.59C185.32 182.32 185.417 182.09 185.613 181.898C185.808 181.703 186.042 181.605 186.316 181.605V178.705C186.316 178.568 186.363 178.453 186.456 178.359C186.55 178.262 186.667 178.213 186.808 178.213H188.812C188.949 178.213 189.064 178.262 189.158 178.359C189.255 178.453 189.304 178.568 189.304 178.705V181.605C189.57 181.605 189.8 181.701 189.996 181.893C190.191 182.08 190.289 182.312 190.289 182.59V185.004C190.289 185.273 190.191 185.506 189.996 185.701C189.8 185.893 189.57 185.988 189.304 185.988H186.316C186.039 185.988 185.802 185.887 185.607 185.684C185.415 185.48 185.32 185.25 185.32 184.992ZM187.3 179.197V181.605H188.32V179.197H187.3ZM186.316 182.59V185.004H189.304V182.59H186.316ZM191.205 185.039V179.15C191.205 178.893 191.299 178.67 191.487 178.482C191.674 178.295 191.897 178.201 192.155 178.201H195.225C195.479 178.201 195.698 178.295 195.881 178.482C196.069 178.67 196.162 178.893 196.162 179.15V185.039C196.162 185.301 196.069 185.525 195.881 185.713C195.698 185.896 195.475 185.988 195.213 185.988H192.155C191.889 185.988 191.664 185.896 191.481 185.713C191.297 185.525 191.205 185.301 191.205 185.039ZM195.19 185.004V179.197H192.19V185.004H195.19ZM197.068 184.992V182.59C197.068 182.32 197.165 182.09 197.361 181.898C197.556 181.703 197.79 181.605 198.064 181.605V178.705C198.064 178.568 198.111 178.453 198.204 178.359C198.298 178.262 198.415 178.213 198.556 178.213H200.56C200.697 178.213 200.812 178.262 200.905 178.359C201.003 178.453 201.052 178.568 201.052 178.705V181.605C201.318 181.605 201.548 181.701 201.743 181.893C201.939 182.08 202.036 182.312 202.036 182.59V185.004C202.036 185.273 201.939 185.506 201.743 185.701C201.548 185.893 201.318 185.988 201.052 185.988H198.064C197.786 185.988 197.55 185.887 197.355 185.684C197.163 185.48 197.068 185.25 197.068 184.992ZM199.048 179.197V181.605H200.068V179.197H199.048ZM198.064 182.59V185.004H201.052V182.59H198.064ZM207.441 185.988H202.965V182.59C202.965 182.316 203.061 182.082 203.252 181.887C203.447 181.691 203.68 181.594 203.949 181.594H206.938V179.197H203.422C203.281 179.197 203.164 179.15 203.07 179.057C202.977 178.959 202.93 178.842 202.93 178.705C202.93 178.568 202.977 178.453 203.07 178.359C203.164 178.262 203.281 178.213 203.422 178.213H206.938C207.211 178.213 207.445 178.311 207.641 178.506C207.836 178.697 207.934 178.928 207.934 179.197V181.594C207.934 181.871 207.836 182.107 207.641 182.303C207.445 182.494 207.211 182.59 206.938 182.59H203.949V185.004H207.441C207.574 185.004 207.69 185.053 207.787 185.15C207.885 185.244 207.934 185.359 207.934 185.496C207.934 185.633 207.885 185.75 207.787 185.848C207.69 185.941 207.574 185.988 207.441 185.988ZM209.308 185.004H210.819V179.197H209.331C209.194 179.197 209.077 179.15 208.979 179.057C208.886 178.959 208.839 178.842 208.839 178.705C208.839 178.568 208.886 178.453 208.979 178.359C209.077 178.262 209.194 178.213 209.331 178.213H211.804V185.004H212.788V182.953C212.788 182.82 212.835 182.705 212.929 182.607C213.026 182.51 213.144 182.461 213.28 182.461C213.417 182.461 213.532 182.51 213.626 182.607C213.724 182.701 213.772 182.816 213.772 182.953V185.496C213.772 185.633 213.724 185.75 213.626 185.848C213.532 185.941 213.417 185.988 213.28 185.988H209.308C209.171 185.988 209.054 185.939 208.956 185.842C208.862 185.74 208.815 185.621 208.815 185.484C208.815 185.352 208.862 185.238 208.956 185.145C209.054 185.051 209.171 185.004 209.308 185.004ZM219.189 185.988H214.713V182.59C214.713 182.316 214.808 182.082 215 181.887C215.195 181.691 215.428 181.594 215.697 181.594H218.685V179.197H215.17C215.029 179.197 214.912 179.15 214.818 179.057C214.724 178.959 214.678 178.842 214.678 178.705C214.678 178.568 214.724 178.453 214.818 178.359C214.912 178.262 215.029 178.213 215.17 178.213H218.685C218.959 178.213 219.193 178.311 219.389 178.506C219.584 178.697 219.681 178.928 219.681 179.197V181.594C219.681 181.871 219.584 182.107 219.389 182.303C219.193 182.494 218.959 182.59 218.685 182.59H215.697V185.004H219.189C219.322 185.004 219.437 185.053 219.535 185.15C219.633 185.244 219.681 185.359 219.681 185.496C219.681 185.633 219.633 185.75 219.535 185.848C219.437 185.941 219.322 185.988 219.189 185.988ZM222.397 185.004H224.677V182.59H221.7V178.213H225.169C225.302 178.213 225.417 178.262 225.514 178.359C225.612 178.457 225.661 178.572 225.661 178.705C225.661 178.842 225.612 178.959 225.514 179.057C225.421 179.15 225.305 179.197 225.169 179.197H222.696V181.605H224.677C224.942 181.605 225.173 181.703 225.368 181.898C225.563 182.094 225.661 182.324 225.661 182.59V185.004C225.661 185.273 225.563 185.506 225.368 185.701C225.177 185.893 224.946 185.988 224.677 185.988H222.397C222.194 185.988 221.977 185.939 221.747 185.842L221.003 185.531C220.803 185.449 220.704 185.293 220.704 185.062C220.704 184.926 220.749 184.811 220.839 184.717C220.928 184.619 221.038 184.57 221.167 184.57C221.264 184.57 221.378 184.6 221.507 184.658L222.157 184.934C222.235 184.98 222.315 185.004 222.397 185.004ZM226.929 185.004H228.441V179.197H226.953C226.816 179.197 226.699 179.15 226.601 179.057C226.507 178.959 226.461 178.842 226.461 178.705C226.461 178.568 226.507 178.453 226.601 178.359C226.699 178.262 226.816 178.213 226.953 178.213H229.425V185.004H230.41V182.953C230.41 182.82 230.457 182.705 230.55 182.607C230.648 182.51 230.765 182.461 230.902 182.461C231.039 182.461 231.154 182.51 231.248 182.607C231.345 182.701 231.394 182.816 231.394 182.953V185.496C231.394 185.633 231.345 185.75 231.248 185.848C231.154 185.941 231.039 185.988 230.902 185.988H226.929C226.793 185.988 226.675 185.939 226.578 185.842C226.484 185.74 226.437 185.621 226.437 185.484C226.437 185.352 226.484 185.238 226.578 185.145C226.675 185.051 226.793 185.004 226.929 185.004ZM232.311 184.992V182.59C232.311 182.32 232.409 182.09 232.604 181.898C232.799 181.703 233.034 181.605 233.307 181.605V178.705C233.307 178.568 233.354 178.453 233.448 178.359C233.542 178.262 233.659 178.213 233.799 178.213H235.803C235.94 178.213 236.055 178.262 236.149 178.359C236.247 178.453 236.295 178.568 236.295 178.705V181.605C236.561 181.605 236.792 181.701 236.987 181.893C237.182 182.08 237.28 182.312 237.28 182.59V185.004C237.28 185.273 237.182 185.506 236.987 185.701C236.792 185.893 236.561 185.988 236.295 185.988H233.307C233.03 185.988 232.793 185.887 232.598 185.684C232.407 185.48 232.311 185.25 232.311 184.992ZM234.292 179.197V181.605H235.311V179.197H234.292ZM233.307 182.59V185.004H236.295V182.59H233.307ZM240.019 185.004H242.298V182.59H239.322V178.213H242.79C242.923 178.213 243.038 178.262 243.136 178.359C243.234 178.457 243.283 178.572 243.283 178.705C243.283 178.842 243.234 178.959 243.136 179.057C243.042 179.15 242.927 179.197 242.79 179.197H240.318V181.605H242.298C242.564 181.605 242.794 181.703 242.99 181.898C243.185 182.094 243.283 182.324 243.283 182.59V185.004C243.283 185.273 243.185 185.506 242.99 185.701C242.798 185.893 242.568 185.988 242.298 185.988H240.019C239.816 185.988 239.599 185.939 239.369 185.842L238.624 185.531C238.425 185.449 238.326 185.293 238.326 185.062C238.326 184.926 238.37 184.811 238.46 184.717C238.55 184.619 238.66 184.57 238.788 184.57C238.886 184.57 238.999 184.6 239.128 184.658L239.779 184.934C239.857 184.98 239.937 185.004 240.019 185.004ZM248.559 185.977H248.067C247.934 185.977 247.819 185.93 247.721 185.836C247.623 185.738 247.574 185.621 247.574 185.484C247.574 185.348 247.621 185.232 247.715 185.139C247.813 185.041 247.93 184.992 248.067 184.992V181.74H244.598C244.465 181.74 244.35 181.691 244.252 181.594C244.155 181.496 244.106 181.381 244.106 181.248V178.693C244.106 178.561 244.155 178.445 244.252 178.348C244.35 178.25 244.465 178.201 244.598 178.201H248.559C248.692 178.201 248.807 178.25 248.905 178.348C249.002 178.445 249.051 178.561 249.051 178.693V185.484C249.051 185.621 249.002 185.738 248.905 185.836C248.811 185.93 248.696 185.977 248.559 185.977ZM248.078 180.744V179.197H245.09V180.744H248.078ZM249.944 179.139V178.717C249.944 178.58 249.991 178.465 250.085 178.371C250.183 178.273 250.3 178.225 250.437 178.225H254.901V181.248C254.901 181.408 254.841 181.541 254.72 181.646L252.909 183.193V185.484C252.909 185.621 252.86 185.74 252.763 185.842C252.669 185.939 252.554 185.988 252.417 185.988C252.28 185.988 252.161 185.939 252.06 185.842C251.962 185.744 251.913 185.629 251.913 185.496V183.012C251.913 182.824 251.972 182.68 252.089 182.578L253.905 181.043V179.209H250.929C250.859 179.49 250.694 179.631 250.437 179.631C250.3 179.631 250.183 179.584 250.085 179.49C249.991 179.393 249.944 179.275 249.944 179.139ZM256.299 185.004H257.811V179.197H256.322C256.186 179.197 256.068 179.15 255.971 179.057C255.877 178.959 255.83 178.842 255.83 178.705C255.83 178.568 255.877 178.453 255.971 178.359C256.068 178.262 256.186 178.213 256.322 178.213H258.795V185.004H259.779V182.953C259.779 182.82 259.826 182.705 259.92 182.607C260.018 182.51 260.135 182.461 260.272 182.461C260.408 182.461 260.523 182.51 260.617 182.607C260.715 182.701 260.764 182.816 260.764 182.953V185.496C260.764 185.633 260.715 185.75 260.617 185.848C260.523 185.941 260.408 185.988 260.272 185.988H256.299C256.162 185.988 256.045 185.939 255.947 185.842C255.854 185.74 255.807 185.621 255.807 185.484C255.807 185.352 255.854 185.238 255.947 185.145C256.045 185.051 256.162 185.004 256.299 185.004Z" fill="#852B9C"/>
</g>
<g style="mix-blend-mode:hard-light" filter="url(#filter4_f_1115_17537)">
<circle cx="161.337" cy="108" r="58.8" fill="#FF3780" fill-opacity="0.139"/>
</g>
<g style="mix-blend-mode:hard-light" filter="url(#filter5_f_1115_17537)">
<circle cx="161.336" cy="108" r="47.6729" stroke="#F32E7C" stroke-width="2.65417"/>
</g>
<g style="mix-blend-mode:hard-light" filter="url(#filter6_f_1115_17537)">
<circle cx="161.336" cy="108" r="47.2646" stroke="#FF26C2" stroke-width="3.47083"/>
</g>
<g style="mix-blend-mode:hard-light" filter="url(#filter7_ddi_1115_17537)">
<circle cx="161.336" cy="108" r="47.6729" stroke="#FB37FF" stroke-opacity="0.2" stroke-width="2.65417"/>
</g>
<g filter="url(#filter8_f_1115_17537)">
<circle cx="161.336" cy="108" r="48.1833" stroke="#FB37FF" stroke-width="1.63333"/>
</g>
<g filter="url(#filter9_f_1115_17537)">
<circle cx="161.336" cy="108" r="48.5917" stroke="white" stroke-width="0.816667"/>
</g>
</g>
</g>
<defs>
<filter id="filter0_d_1115_17537" x="0.33667" y="0" width="322" height="228" filterUnits="userSpaceOnUse" color-interpolation-filters="sRGB">
<feFlood flood-opacity="0" result="BackgroundImageFix"/>
<feColorMatrix in="SourceAlpha" type="matrix" values="0 0 0 0 0 0 0 0 0 0 0 0 0 0 0 0 0 0 127 0" result="hardAlpha"/>
<feOffset dy="4"/>
<feGaussianBlur stdDeviation="2"/>
<feComposite in2="hardAlpha" operator="out"/>
<feColorMatrix type="matrix" values="0 0 0 0 0 0 0 0 0 0 0 0 0 0 0 0 0 0 0.25 0"/>
<feBlend mode="normal" in2="BackgroundImageFix" result="effect1_dropShadow_1115_17537"/>
<feBlend mode="normal" in="SourceGraphic" in2="effect1_dropShadow_1115_17537" result="shape"/>
</filter>
<filter id="filter1_d_1115_17537" x="1.85557" y="0" width="318.962" height="224.962" filterUnits="userSpaceOnUse" color-interpolation-filters="sRGB">
<feFlood flood-opacity="0" result="BackgroundImageFix"/>
<feColorMatrix in="SourceAlpha" type="matrix" values="0 0 0 0 0 0 0 0 0 0 0 0 0 0 0 0 0 0 127 0" result="hardAlpha"/>
<feOffset dy="2.4811"/>
<feGaussianBlur stdDeviation="1.24055"/>
<feComposite in2="hardAlpha" operator="out"/>
<feColorMatrix type="matrix" values="0 0 0 0 0 0 0 0 0 0 0 0 0 0 0 0 0 0 0.25 0"/>
<feBlend mode="normal" in2="BackgroundImageFix" result="effect1_dropShadow_1115_17537"/>
<feBlend mode="normal" in="SourceGraphic" in2="effect1_dropShadow_1115_17537" result="shape"/>
</filter>
<filter id="filter2_b_1115_17537" x="-102.325" y="-106.662" width="526.65" height="432.912" filterUnits="userSpaceOnUse" color-interpolation-filters="sRGB">
<feFlood flood-opacity="0" result="BackgroundImageFix"/>
<feGaussianBlur in="BackgroundImage" stdDeviation="53.3309"/>
<feComposite in2="SourceAlpha" operator="in" result="effect1_backgroundBlur_1115_17537"/>
<feBlend mode="normal" in="SourceGraphic" in2="effect1_backgroundBlur_1115_17537" result="shape"/>
</filter>
<filter id="filter3_i_1115_17537" x="62.0029" y="178.201" width="198.761" height="8.78711" filterUnits="userSpaceOnUse" color-interpolation-filters="sRGB">
<feFlood flood-opacity="0" result="BackgroundImageFix"/>
<feBlend mode="normal" in="SourceGraphic" in2="BackgroundImageFix" result="shape"/>
<feColorMatrix in="SourceAlpha" type="matrix" values="0 0 0 0 0 0 0 0 0 0 0 0 0 0 0 0 0 0 127 0" result="hardAlpha"/>
<feOffset dy="1"/>
<feGaussianBlur stdDeviation="0.5"/>
<feComposite in2="hardAlpha" operator="arithmetic" k2="-1" k3="1"/>
<feColorMatrix type="matrix" values="0 0 0 0 0 0 0 0 0 0 0 0 0 0 0 0 0 0 0.25 0"/>
<feBlend mode="normal" in2="shape" result="effect1_innerShadow_1115_17537"/>
</filter>
<filter id="filter4_f_1115_17537" x="94.0229" y="40.6862" width="134.628" height="134.627" filterUnits="userSpaceOnUse" color-interpolation-filters="sRGB">
<feFlood flood-opacity="0" result="BackgroundImageFix"/>
<feBlend mode="normal" in="SourceGraphic" in2="BackgroundImageFix" result="shape"/>
<feGaussianBlur stdDeviation="4.25688" result="effect1_foregroundBlur_1115_17537"/>
</filter>
<filter id="filter5_f_1115_17537" x="103.823" y="50.4862" width="115.028" height="115.028" filterUnits="userSpaceOnUse" color-interpolation-filters="sRGB">
<feFlood flood-opacity="0" result="BackgroundImageFix"/>
<feBlend mode="normal" in="SourceGraphic" in2="BackgroundImageFix" result="shape"/>
<feGaussianBlur stdDeviation="4.25688" result="effect1_foregroundBlur_1115_17537"/>
</filter>
<filter id="filter6_f_1115_17537" x="109.499" y="56.1621" width="103.676" height="103.676" filterUnits="userSpaceOnUse" color-interpolation-filters="sRGB">
<feFlood flood-opacity="0" result="BackgroundImageFix"/>
<feBlend mode="normal" in="SourceGraphic" in2="BackgroundImageFix" result="shape"/>
<feGaussianBlur stdDeviation="1.41896" result="effect1_foregroundBlur_1115_17537"/>
</filter>
<filter id="filter7_ddi_1115_17537" x="108.647" y="58.1486" width="105.379" height="105.379" filterUnits="userSpaceOnUse" color-interpolation-filters="sRGB">
<feFlood flood-opacity="0" result="BackgroundImageFix"/>
<feColorMatrix in="SourceAlpha" type="matrix" values="0 0 0 0 0 0 0 0 0 0 0 0 0 0 0 0 0 0 127 0" result="hardAlpha"/>
<feOffset dy="2.65417"/>
<feGaussianBlur stdDeviation="1.02083"/>
<feColorMatrix type="matrix" values="0 0 0 0 0.3 0 0 0 0 0 0 0 0 0 0.26 0 0 0 0.7 0"/>
<feBlend mode="multiply" in2="BackgroundImageFix" result="effect1_dropShadow_1115_17537"/>
<feColorMatrix in="SourceAlpha" type="matrix" values="0 0 0 0 0 0 0 0 0 0 0 0 0 0 0 0 0 0 127 0" result="hardAlpha"/>
<feOffset dy="2.83792"/>
<feGaussianBlur stdDeviation="1.84465"/>
<feColorMatrix type="matrix" values="0 0 0 0 0.6 0 0 0 0 0 0 0 0 0 0.6 0 0 0 1 0"/>
<feBlend mode="color-dodge" in2="effect1_dropShadow_1115_17537" result="effect2_dropShadow_1115_17537"/>
<feBlend mode="normal" in="SourceGraphic" in2="effect2_dropShadow_1115_17537" result="shape"/>
<feColorMatrix in="SourceAlpha" type="matrix" values="0 0 0 0 0 0 0 0 0 0 0 0 0 0 0 0 0 0 127 0" result="hardAlpha"/>
<feOffset dx="-0.265417" dy="0.530833"/>
<feGaussianBlur stdDeviation="0.132708"/>
<feComposite in2="hardAlpha" operator="arithmetic" k2="-1" k3="1"/>
<feColorMatrix type="matrix" values="0 0 0 0 1 0 0 0 0 1 0 0 0 0 1 0 0 0 0.5 0"/>
<feBlend mode="normal" in2="shape" result="effect3_innerShadow_1115_17537"/>
</filter>
<filter id="filter8_f_1115_17537" x="111.928" y="58.5917" width="98.8167" height="98.8167" filterUnits="userSpaceOnUse" color-interpolation-filters="sRGB">
<feFlood flood-opacity="0" result="BackgroundImageFix"/>
<feBlend mode="normal" in="SourceGraphic" in2="BackgroundImageFix" result="shape"/>
<feGaussianBlur stdDeviation="0.204167" result="effect1_foregroundBlur_1115_17537"/>
</filter>
<filter id="filter9_f_1115_17537" x="112.064" y="58.7278" width="98.5444" height="98.5444" filterUnits="userSpaceOnUse" color-interpolation-filters="sRGB">
<feFlood flood-opacity="0" result="BackgroundImageFix"/>
<feBlend mode="normal" in="SourceGraphic" in2="BackgroundImageFix" result="shape"/>
<feGaussianBlur stdDeviation="0.136111" result="effect1_foregroundBlur_1115_17537"/>
</filter>
<linearGradient id="paint0_linear_1115_17537" x1="4.33666" y1="231.786" x2="356.19" y2="105.299" gradientUnits="userSpaceOnUse">
<stop stop-color="#3D2935"/>
<stop offset="1" stop-color="#DE0682"/>
</linearGradient>
<linearGradient id="paint1_linear_1115_17537" x1="162.566" y1="182.303" x2="78.4828" y2="-16.2372" gradientUnits="userSpaceOnUse">
<stop stop-color="#223E7B"/>
<stop offset="1" stop-color="#3461BE"/>
</linearGradient>
<linearGradient id="paint2_linear_1115_17537" x1="177.104" y1="173.957" x2="177.104" y2="39.1781" gradientUnits="userSpaceOnUse">
<stop offset="0.0078125" stop-color="#9C4EA6"/>
<stop offset="0.304688" stop-color="#BA2C96"/>
<stop offset="0.627604" stop-color="#D01389"/>
<stop offset="0.981771" stop-color="#DD0582"/>
</linearGradient>
<linearGradient id="paint3_linear_1115_17537" x1="176.46" y1="182.549" x2="176.46" y2="31.7477" gradientUnits="userSpaceOnUse">
<stop offset="0.0078125" stop-color="#9C4EA6"/>
<stop offset="0.304688" stop-color="#BA2C96"/>
<stop offset="0.627604" stop-color="#D01389"/>
<stop offset="0.981771" stop-color="#DD0582"/>
</linearGradient>
</defs>
</svg>
