<svg width="40" height="40" viewBox="0 0 40 40" fill="none" xmlns="http://www.w3.org/2000/svg">
<path d="M39.1633 10.3099C38.9374 9.45866 38.4917 8.68176 37.871 8.05698C37.2503 7.43219 36.4764 6.98144 35.6267 6.74987C32.5083 5.9082 20 5.9082 20 5.9082C20 5.9082 7.49167 5.9082 4.37167 6.74987C3.52235 6.98185 2.74882 7.43276 2.12846 8.05751C1.5081 8.68225 1.06265 9.45894 0.836667 10.3099C0 13.4499 0 19.9999 0 19.9999C0 19.9999 0 26.5499 0.836667 29.6899C1.06264 30.5411 1.50829 31.318 2.12899 31.9428C2.74968 32.5676 3.52363 33.0183 4.37333 33.2499C7.49167 34.0915 20 34.0915 20 34.0915C20 34.0915 32.5083 34.0915 35.6283 33.2499C36.4781 33.0185 37.2521 32.5678 37.8729 31.9429C38.4936 31.3181 38.9392 30.5412 39.165 29.6899C40 26.5499 40 19.9999 40 19.9999C40 19.9999 40 13.4499 39.1633 10.3099ZM15.9083 25.9465V14.0532L26.3633 19.9999L15.9083 25.9465Z" fill="url(#paint0_linear_1115_18508)"/>
<defs>
<linearGradient id="paint0_linear_1115_18508" x1="-1.27705e-06" y1="35.6014" x2="44.8795" y2="19.5581" gradientUnits="userSpaceOnUse">
<stop stop-color="#3D2935"/>
<stop offset="1" stop-color="#DE0682"/>
</linearGradient>
</defs>
</svg>
