<svg width="234" height="178" viewBox="0 0 234 178" fill="none" xmlns="http://www.w3.org/2000/svg">
<g filter="url(#filter0_d_476_525)">
<path d="M62.3885 53.7109C60.8299 52.7923 61.7349 50.2086 62.9081 49.9522C65.5491 48.7111 68.8614 50.7247 72.0432 53.0838C68.1817 54.1132 66.909 54.6885 62.3885 53.7109Z" fill="#83CEFF" fill-opacity="0.8" shape-rendering="geometricPrecision"/>
<path d="M62.3885 53.7109C60.8299 52.7923 61.7349 50.2086 62.9081 49.9522C65.5491 48.7111 68.8614 50.7247 72.0432 53.0838C68.1817 54.1132 66.909 54.6885 62.3885 53.7109Z" stroke="#83CEFF" stroke-opacity="0.8" stroke-linecap="round" stroke-linejoin="round" shape-rendering="geometricPrecision"/>
</g>
<g filter="url(#filter1_d_476_525)">
<path d="M52.8481 77.1997C44.4378 87.1159 44.2469 102.127 36.5716 119.897C34.4537 124.801 35.4575 127.528 33.1241 133.548C20.9765 135.262 18.1462 139.674 17.3294 151.206C28.1153 153.056 33.8182 153.382 42.8693 151.667L42.5235 143.174C56.0123 142.625 38.4886 117.818 63.0611 106.809M61.3386 101.374C87.0456 134.257 76.6108 124.777 105.698 121.586M127.031 80.1844C127.031 80.1844 123.034 80.3471 121.524 92.4182C118.026 96.8168 117.242 104.172 113.284 111.269C108.622 136.98 85.0404 130.434 91.2795 136.185C91.2795 136.185 78.8002 146.224 76.5653 155.8C89.5069 157.475 96.4772 157.08 108.539 154.498C108.07 151.26 107.697 149.507 106.715 146.566C110.212 146.423 113.517 129.275 130.534 117.072C163.091 93.2282 145.954 77.9127 145.954 77.9127M141.261 110.13C164.615 107.852 175.798 100.212 192.976 77.4994M104.432 29.0614C108.752 27.5159 112.938 26.6037 117.029 26.1604M181.698 95.4728C203.117 117.62 180.206 132.565 185.438 133.352C179.471 139.1 180.714 145.054 180.714 145.054C189.263 148.397 193.973 148.487 202.278 146.178C202.889 141.676 203.35 135.626 200.811 134.728C201.638 133.477 201.549 128.271 202.382 124.155C207.97 113.92 208.266 106.68 209.838 98.3304C216.213 88.0358 216.88 82.906 216.855 74.0248C217.597 40.1931 209.236 35.7251 192.644 32.4756C167.68 38.5347 147.384 26.3648 124.818 25.8433M171.512 103.394C143.605 118.542 155.767 134.561 148.232 133.866C148.232 133.866 150.902 139.475 150.036 141.299C141.805 142.947 136.764 143.005 127.514 141.215C127.514 141.215 132.664 134.9 136.62 131.336C136.62 131.336 136.091 118.347 139.844 112.189M44.8101 14.9749L44.8656 15.3985M47.8026 63.8937L50.6171 59.2753C39.5375 50.2842 38.7764 40.2173 44.8656 15.3985M47.8026 63.8937C46.6586 67.832 47.6267 69.2082 51.0849 70.7658C50.1825 73.6294 51.0531 74.5873 52.8074 76.2002C78.3171 82.6719 97.6888 72.3713 101.88 64.6944C99.3007 62.7978 79.9859 69.4619 65.0733 70.1963C56.4338 70.6217 49.9603 67.2936 47.8026 63.8937ZM44.8656 15.3985C46.4939 26.4081 48.2035 31.5657 52.3014 39.1902C67.9462 20.4859 73.2035 19.7207 79.79 26.0611C92.876 18.9894 99.3421 21.7502 109.713 35.8522M103.921 41.0918C118.088 37.5881 119.213 30.423 118.392 15.4819C129.436 41.2636 129.848 52.4693 110.75 61.3307M99.199 60.2998C103.204 58.813 104.001 60.9079 105.877 64.5317M70.1124 46.4717C80.2782 38.0511 93.7264 36.5031 100.088 45.2512M65.6161 46.6547C58.8774 40.9241 51.4039 41.7288 49.1908 48.8247M72.2442 37.3777C80.8275 28.0706 86.3713 26.7108 98.1413 34.3213M52.6244 71.704C56.2435 74.5591 76.3896 77.7409 98.4439 66.3355M60.132 34.8681C63.2495 32.4574 66.587 31.3395 71.0823 33.4214M184.07 30.8228C178.075 18.771 137.591 7.71165 150.966 16.6577C164.341 25.6038 195.572 18.3445 195.572 18.3445M50.312 51.7816C57.6733 47.1382 61.6273 47.6338 68.3988 53.5472C59.9878 56.34 55.6837 56.8439 50.312 51.7816ZM71.8959 53.4048C73.9329 46.4583 78.3819 44.4759 96.6514 46.8924C88.4885 53.0007 83.3982 55.2087 71.8959 53.4048Z" stroke="#83CEFF" stroke-opacity="0.8" stroke-width="2" stroke-linecap="round" stroke-linejoin="round" shape-rendering="geometricPrecision"/>
</g>
<g filter="url(#filter2_d_476_525)">
<path d="M85.0113 52.0549C84.1478 50.6024 84.1936 49.7162 84.8486 48.0582C87.3063 46.9572 96.3187 47.0905 97.3789 48.5488C97.4196 49.5478 88.5695 53.411 85.0113 52.0549Z" fill="#83CEFF" fill-opacity="0.8" shape-rendering="geometricPrecision"/>
<path d="M85.0113 52.0549C84.1478 50.6024 84.1936 49.7162 84.8486 48.0582C87.3063 46.9572 96.3187 47.0905 97.3789 48.5488C97.4196 49.5478 88.5695 53.411 85.0113 52.0549Z" stroke="#83CEFF" stroke-opacity="0.8" shape-rendering="geometricPrecision"/>
</g>
<defs>
<filter id="filter0_d_476_525" x="45.0596" y="33.074" width="43.4834" height="37.6401" filterUnits="userSpaceOnUse" color-interpolation-filters="sRGB">
<feFlood flood-opacity="0" result="BackgroundImageFix"/>
<feColorMatrix in="SourceAlpha" type="matrix" values="0 0 0 0 0 0 0 0 0 0 0 0 0 0 0 0 0 0 127 0" result="hardAlpha"/>
<feOffset/>
<feGaussianBlur stdDeviation="8"/>
<feComposite in2="hardAlpha" operator="out"/>
<feColorMatrix type="matrix" values="0 0 0 0 0.5125 0 0 0 0 0.807847 0 0 0 0 1 0 0 0 1 0"/>
<feBlend mode="normal" in2="BackgroundImageFix" result="effect1_dropShadow_476_525"/>
<feBlend mode="normal" in="SourceGraphic" in2="effect1_dropShadow_476_525" result="shape"/>
</filter>
<filter id="filter1_d_476_525" x="0.329102" y="0.401367" width="233.571" height="177.407" filterUnits="userSpaceOnUse" color-interpolation-filters="sRGB">
<feFlood flood-opacity="0" result="BackgroundImageFix"/>
<feColorMatrix in="SourceAlpha" type="matrix" values="0 0 0 0 0 0 0 0 0 0 0 0 0 0 0 0 0 0 127 0" result="hardAlpha"/>
<feOffset dy="4"/>
<feGaussianBlur stdDeviation="8"/>
<feComposite in2="hardAlpha" operator="out"/>
<feColorMatrix type="matrix" values="0 0 0 0 0.5125 0 0 0 0 0.807847 0 0 0 0 1 0 0 0 1 0"/>
<feBlend mode="normal" in2="BackgroundImageFix" result="effect1_dropShadow_476_525"/>
<feBlend mode="normal" in="SourceGraphic" in2="effect1_dropShadow_476_525" result="shape"/>
</filter>
<filter id="filter2_d_476_525" x="67.8599" y="30.8296" width="46.019" height="38.0107" filterUnits="userSpaceOnUse" color-interpolation-filters="sRGB">
<feFlood flood-opacity="0" result="BackgroundImageFix"/>
<feColorMatrix in="SourceAlpha" type="matrix" values="0 0 0 0 0 0 0 0 0 0 0 0 0 0 0 0 0 0 127 0" result="hardAlpha"/>
<feOffset/>
<feGaussianBlur stdDeviation="8"/>
<feComposite in2="hardAlpha" operator="out"/>
<feColorMatrix type="matrix" values="0 0 0 0 0.5125 0 0 0 0 0.807847 0 0 0 0 1 0 0 0 1 0"/>
<feBlend mode="normal" in2="BackgroundImageFix" result="effect1_dropShadow_476_525"/>
<feBlend mode="normal" in="SourceGraphic" in2="effect1_dropShadow_476_525" result="shape"/>
</filter>
</defs>
</svg>
