<svg width="103" height="234" fill="none" xmlns="http://www.w3.org/2000/svg">
    <g filter="url(#vitalik__b)">
        <path d="M39.928 26.135c-.325 2.592 1.257 6.571 1.257 6.571s-2.79.25 2.94 7.951c.745 2.412.826 5.802-.164 6.559 0 0-17.61 7.342-18.426 13.458-5.826 36.304-.648 70.788-1.977 72.745-1.328 1.957 8.218 4.387 8.975 5.378.757.99 3.19 43.377.478 60.356 2.038 4.719 3.902 4.078 3.902 4.078l1.31 6.845c7.96 8.977 14.035 8.099 12.4 1.033 0 0-1.664-10.182-1.116-10.287.547-.105 11.95 9.066 11.95 9.066 5.84 3.448 8.954-3.318 6.88-5.573-.588-1.591-6.249-4.481-7.256-8.261-1.007-3.781 10.019-60.378 10.461-61.03.443-.652 7.09-4.478 7.259-5.078.169-.6-2.51-7.182-1.519-7.939l-1.987-56.379s.083-9.949-5.683-13.386c-5.725-1.743-11.817-5.402-11.817-5.402-.757-.99.31-4.316.31-4.316l2.994-5.114c2.693-8.177.229-7.706.229-7.706s-.174-5.359-.657-6.401c-8.537-11.99-19.536-4.21-20.743 2.832Z"
              stroke="#83CEFF" stroke-opacity=".8" stroke-width="2" shape-rendering="geometricPrecision"/>
    </g>
    <g filter="url(#vitalik__c)">
        <path d="M35.545 72.948s-1.776 29.287-3.2 42.614" stroke="#83CEFF" stroke-opacity=".8" stroke-width="2"
              stroke-linecap="round" stroke-linejoin="round" shape-rendering="geometricPrecision"/>
    </g>
    <defs>
        <filter id="vitalik__b" x="0" y="0" width="103" height="234" filterUnits="userSpaceOnUse"
                color-interpolation-filters="sRGB">
            <feFlood flood-opacity="0" result="BackgroundImageFix"/>
            <feColorMatrix in="SourceAlpha" values="0 0 0 0 0 0 0 0 0 0 0 0 0 0 0 0 0 0 127 0" result="hardAlpha"/>
            <feOffset/>
            <feGaussianBlur stdDeviation="8"/>
            <feComposite in2="hardAlpha" operator="out"/>
            <feColorMatrix values="0 0 0 0 0.5125 0 0 0 0 0.807847 0 0 0 0 1 0 0 0 1 0"/>
            <feBlend in2="BackgroundImageFix" result="effect1_dropShadow_475_454"/>
            <feBlend in="SourceGraphic" in2="effect1_dropShadow_475_454" result="shape"/>
        </filter>
        <filter id="vitalik__c" x="0" y="0" width="103" height="234" filterUnits="userSpaceOnUse"
                color-interpolation-filters="sRGB" >
            <feFlood flood-opacity="0" result="BackgroundImageFix"/>
            <feColorMatrix in="SourceAlpha" values="0 0 0 0 0 0 0 0 0 0 0 0 0 0 0 0 0 0 127 0" result="hardAlpha"/>
            <feOffset/>
            <feGaussianBlur stdDeviation="8"/>
            <feComposite in2="hardAlpha" operator="out"/>
            <feColorMatrix values="0 0 0 0 0.5125 0 0 0 0 0.807847 0 0 0 0 1 0 0 0 1 0"/>
            <feBlend in2="BackgroundImageFix" result="effect1_dropShadow_475_454"/>
            <feBlend in="SourceGraphic" in2="effect1_dropShadow_475_454" result="shape"/>
        </filter>
    </defs>
</svg>