<svg width="131" height="179" viewBox="0 0 131 179" fill="none" xmlns="http://www.w3.org/2000/svg">
<g filter="url(#filter0_d_475_458)">
<path d="M114 145.208C114 145.208 91.7866 151.317 90.3055 151.317C88.8244 151.317 85.8062 152.501 87.1584 146.874M87.1584 146.874C100.857 137.248 96.2157 131.125 97.8952 123.179C99.7248 114.523 102.523 105.408 99.7462 100.225C91.2311 93.376 95.4887 78.9371 85.8626 75.4198C81.9754 49.5039 18.5128 50.0766 17 96.8931C19.8234 119.331 23.6397 128.294 34.771 137.248C36.9853 139.666 38.2689 143.383 40.5095 154.093C31.6657 154.985 27.0761 158.018 20.7025 161.128M87.1584 146.874C74.941 154.093 41.9906 142.431 41.9906 124.66M68.2769 134.286C76.4219 136.323 82.9774 133.42 89.0097 129.103M79.1987 105.964C80.1242 112.628 93.8227 113.368 83.8265 121.513M71.4238 120.218C68.2769 123.179 69.2025 125.771 74.5708 125.771M55.3189 110.962C63.4381 108.506 67.0364 107.163 62.1681 101.891M80.4945 100.225C87.3022 99.1576 91.0329 98.5422 89.0097 95.7825M49.2101 103.002C49.2101 103.002 57.2328 95.1171 60.1319 90.0439M74.5708 83.9351C79.2213 86.0441 87.1584 87.8225 87.1584 87.8225M39.5842 95.7825C53.9338 85.8127 62.2972 81.8772 78.088 79.1222M41.9906 86.897C54.0497 79.9238 59.9669 76.2953 76.2368 73.939" stroke="#DF4891" stroke-opacity="0.8" stroke-width="2" stroke-linecap="round" stroke-linejoin="round" shape-rendering="geometricPrecision"/>
</g>
<g filter="url(#filter1_d_475_458)">
<path d="M23.5315 65V43.3008H20L26.9369 36L34 43.3008H30.4685V58.5556" stroke="#DF4891" stroke-opacity="0.8" stroke-width="2" stroke-linecap="round" stroke-linejoin="round" shape-rendering="geometricPrecision"/>
</g>
<g filter="url(#filter2_d_475_458)">
<path d="M66.7838 51.275V36.8398H63L70.4324 30L78 36.8398H74.2162V53" stroke="#DF4891" stroke-opacity="0.8" stroke-width="2" stroke-linecap="round" stroke-linejoin="round" shape-rendering="geometricPrecision"/>
</g>
<g filter="url(#filter3_d_475_458)">
<path d="M42.2973 53V28.0047H37L47.4054 17L58 28.0047H52.7027V51.2632" stroke="#DF4891" stroke-opacity="0.8" stroke-width="2" stroke-linecap="round" stroke-linejoin="round" shape-rendering="geometricPrecision"/>
</g>
<defs>
<filter id="filter0_d_475_458" x="0" y="41.2465" width="131" height="136.882" filterUnits="userSpaceOnUse" color-interpolation-filters="sRGB">
<feFlood flood-opacity="0" result="BackgroundImageFix"/>
<feColorMatrix in="SourceAlpha" type="matrix" values="0 0 0 0 0 0 0 0 0 0 0 0 0 0 0 0 0 0 127 0" result="hardAlpha"/>
<feOffset/>
<feGaussianBlur stdDeviation="8"/>
<feComposite in2="hardAlpha" operator="out"/>
<feColorMatrix type="matrix" values="0 0 0 0 0.87451 0 0 0 0 0.282353 0 0 0 0 0.568627 0 0 0 1 0"/>
<feBlend mode="normal" in2="BackgroundImageFix" result="effect1_dropShadow_475_458"/>
<feBlend mode="normal" in="SourceGraphic" in2="effect1_dropShadow_475_458" result="shape"/>
</filter>
<filter id="filter1_d_475_458" x="3" y="19" width="48" height="63" filterUnits="userSpaceOnUse" color-interpolation-filters="sRGB">
<feFlood flood-opacity="0" result="BackgroundImageFix"/>
<feColorMatrix in="SourceAlpha" type="matrix" values="0 0 0 0 0 0 0 0 0 0 0 0 0 0 0 0 0 0 127 0" result="hardAlpha"/>
<feOffset/>
<feGaussianBlur stdDeviation="8"/>
<feComposite in2="hardAlpha" operator="out"/>
<feColorMatrix type="matrix" values="0 0 0 0 0.87451 0 0 0 0 0.282353 0 0 0 0 0.568627 0 0 0 1 0"/>
<feBlend mode="normal" in2="BackgroundImageFix" result="effect1_dropShadow_475_458"/>
<feBlend mode="normal" in="SourceGraphic" in2="effect1_dropShadow_475_458" result="shape"/>
</filter>
<filter id="filter2_d_475_458" x="46" y="13" width="49" height="57" filterUnits="userSpaceOnUse" color-interpolation-filters="sRGB">
<feFlood flood-opacity="0" result="BackgroundImageFix"/>
<feColorMatrix in="SourceAlpha" type="matrix" values="0 0 0 0 0 0 0 0 0 0 0 0 0 0 0 0 0 0 127 0" result="hardAlpha"/>
<feOffset/>
<feGaussianBlur stdDeviation="8"/>
<feComposite in2="hardAlpha" operator="out"/>
<feColorMatrix type="matrix" values="0 0 0 0 0.87451 0 0 0 0 0.282353 0 0 0 0 0.568627 0 0 0 1 0"/>
<feBlend mode="normal" in2="BackgroundImageFix" result="effect1_dropShadow_475_458"/>
<feBlend mode="normal" in="SourceGraphic" in2="effect1_dropShadow_475_458" result="shape"/>
</filter>
<filter id="filter3_d_475_458" x="20" y="0" width="55" height="70" filterUnits="userSpaceOnUse" color-interpolation-filters="sRGB">
<feFlood flood-opacity="0" result="BackgroundImageFix"/>
<feColorMatrix in="SourceAlpha" type="matrix" values="0 0 0 0 0 0 0 0 0 0 0 0 0 0 0 0 0 0 127 0" result="hardAlpha"/>
<feOffset/>
<feGaussianBlur stdDeviation="8"/>
<feComposite in2="hardAlpha" operator="out"/>
<feColorMatrix type="matrix" values="0 0 0 0 0.87451 0 0 0 0 0.282353 0 0 0 0 0.568627 0 0 0 1 0"/>
<feBlend mode="normal" in2="BackgroundImageFix" result="effect1_dropShadow_475_458"/>
<feBlend mode="normal" in="SourceGraphic" in2="effect1_dropShadow_475_458" result="shape"/>
</filter>
</defs>
</svg>
