<svg width="180" height="154" viewBox="0 0 180 154" fill="none" xmlns="http://www.w3.org/2000/svg">
<path d="M13.3459 110.076L14.0887 67.3164C15.9577 67.0694 17.698 66.7338 19.3097 66.3093C20.9577 65.8416 22.5946 65.475 24.2205 65.2097C24.2241 65.2494 24.2018 65.6724 24.1535 66.4784C24.1017 67.2447 24.0332 68.273 23.948 69.5634C23.8593 70.8141 23.7667 72.2454 23.6702 73.8575C23.5701 75.4299 23.4039 77.6094 23.1716 80.3962C22.9792 83.1794 22.7219 87.0307 22.3997 91.9502L23.2978 91.87C24.0068 88.1187 24.5969 85.0595 25.0681 82.6924C25.5357 80.2855 25.9048 78.3484 26.1753 76.8811C26.4821 75.3705 26.7543 73.9231 26.992 72.5389C27.2697 71.1511 27.5163 69.8664 27.7319 68.6846C27.9875 67.4993 28.1794 66.5 28.3074 65.6868L28.8463 65.6387C29.5649 65.5746 30.2798 65.4707 30.9912 65.3271C31.7425 65.1799 32.4339 65.038 33.0655 64.9014C33.7334 64.7216 34.4194 64.5201 35.1237 64.2969C35.076 64.6619 35.0423 65.4065 35.0227 66.5307C35.043 67.6514 35.0448 69.0142 35.0281 70.6192C35.0079 72.1844 35.0038 73.9286 35.0157 75.8517C35.0241 77.7351 35.0307 79.5985 35.0355 81.4421C35.0367 83.246 35.0308 84.9703 35.0177 86.615C35.0446 88.2562 35.05 89.6588 35.0339 90.8228L36.1117 90.7266L39.4939 64.5683C40.8332 64.2484 42.1544 63.9501 43.4574 63.6735C44.6007 63.4111 45.784 63.1452 47.0071 62.8757C48.2303 62.6062 49.312 62.3293 50.2522 62.0449C49.8036 63.7686 49.3728 65.6912 48.96 67.8126C48.5435 69.8942 48.1179 72.0969 47.683 74.4207C47.2481 76.7445 46.835 79.0864 46.4436 81.4464C46.0921 83.8028 45.7335 86.0797 45.3677 88.2771C44.548 93.4814 43.7807 98.8214 43.0658 104.297L29.7372 107.771L30.3016 84.5103L29.5831 84.5745L25.6021 106.757L13.3459 110.076Z" fill="#F5F5F7"/>
<path d="M73.6217 103.254C72.6381 103.502 71.5564 103.779 70.3767 104.085C69.197 104.39 68.1353 104.666 67.1916 104.91C67.2333 103.584 67.2767 102.277 67.322 100.99C67.3416 99.8658 67.3413 98.7434 67.321 97.6228C67.3407 96.4986 67.3547 95.5352 67.363 94.7327L62.1536 95.1976L60.5308 104.001C59.6634 104.199 58.638 104.431 57.4547 104.697C56.2679 104.923 55.1609 105.142 54.1338 105.354C52.8707 105.627 51.6275 105.898 50.4044 106.168C51.5256 100.736 52.6339 95.3856 53.7295 90.1166C54.1751 87.9121 54.6318 85.6064 55.0994 83.1995C55.607 80.789 56.0964 78.4002 56.5676 76.0331C57.0752 73.6227 57.5518 71.3152 57.9974 69.1107C58.4431 66.9062 58.8249 64.8878 59.143 63.0555C61.8396 62.6144 64.5726 62.13 67.3418 61.6023C70.151 61.071 72.8714 60.4474 75.503 59.7315C75.4977 61.0148 75.501 62.618 75.513 64.5412C75.5613 66.421 75.6257 68.4797 75.7061 70.7174C75.7866 72.9552 75.876 75.2923 75.9744 77.7289C76.0727 80.1654 76.1675 82.5622 76.2587 84.9192C76.5525 90.4251 76.8568 96.2707 77.1715 102.456C75.9918 102.762 74.8086 103.028 73.6217 103.254ZM63.0544 89.1041C63.214 89.0898 63.4935 89.0649 63.8927 89.0293C64.3282 88.9503 64.7655 88.8913 65.2046 88.8521C65.68 88.7696 66.1174 88.7105 66.5165 88.6749C66.9122 88.5995 67.188 88.5348 67.3441 88.4808C67.3227 88.2421 67.3069 87.8427 67.2967 87.2824C67.3229 86.6787 67.3238 86.0172 67.2994 85.2978C67.3113 84.5351 67.3178 83.7127 67.319 82.8307C67.3202 81.9486 67.3231 81.0865 67.3279 80.2442C67.3052 78.2018 67.3081 75.9967 67.3367 73.629L67.2293 68.4072L66.3365 68.547L65.4206 73.8L63.0544 89.1041Z" fill="#F5F5F7"/>
<path d="M99.3418 100.237C98.1043 100.348 96.7906 100.505 95.4006 100.709C94.0505 100.91 92.684 101.152 91.3012 101.436C89.9183 101.72 88.5608 102.061 87.2286 102.461C85.9328 102.817 84.762 103.222 83.7164 103.676C83.795 101.865 83.8957 99.8518 84.0183 97.6361C84.141 95.4203 84.2965 93.1214 84.4847 90.7395C84.7129 88.354 84.9193 85.9503 85.1039 83.5286C85.3285 81.1033 85.562 78.7775 85.8045 76.551C86.334 71.2523 86.9145 65.8488 87.546 60.3406L97.9012 58.0335C97.2382 62.7428 96.6043 67.3293 95.9997 71.7929C95.7286 73.7012 95.4647 75.689 95.208 77.7564C94.9477 79.784 94.7037 81.77 94.4762 83.7145C94.2486 85.659 94.0556 87.5403 93.8971 89.3584C93.7387 91.1765 93.6223 92.7904 93.5478 94.2001C94.5386 94.0315 95.5929 93.8973 96.7106 93.7976C97.8647 93.6545 98.8808 93.5438 99.759 93.4654C99.8669 94.2175 99.9947 94.9677 100.142 95.7162C100.287 96.4249 100.425 97.074 100.559 97.6634C100.732 98.2492 100.86 98.7789 100.943 99.2526C101.062 99.6829 101.149 99.9759 101.203 100.131C100.884 100.16 100.565 100.188 100.245 100.217C99.9623 100.202 99.6611 100.209 99.3418 100.237Z" fill="#F5F5F7"/>
<path d="M122.449 98.1754C121.211 98.2859 119.897 98.4432 118.507 98.6474C117.157 98.848 115.791 99.0902 114.408 99.374C113.025 99.6577 111.668 99.9994 110.335 100.399C109.039 100.755 107.869 101.16 106.823 101.614C106.902 99.8033 107.002 97.7899 107.125 95.5742C107.248 93.3584 107.403 91.0595 107.591 88.6776C107.82 86.2921 108.026 83.8884 108.211 81.4667C108.435 79.0414 108.669 76.7155 108.911 74.4891C109.441 69.1904 110.021 63.7869 110.653 58.2787L121.008 55.9716C120.345 60.6809 119.711 65.2674 119.106 69.7309C118.835 71.6392 118.571 73.6271 118.315 75.6944C118.054 77.7221 117.81 79.7081 117.583 81.6526C117.355 83.5971 117.162 85.4784 117.004 87.2965C116.845 89.1146 116.729 90.7285 116.655 92.1382C117.645 91.9696 118.7 91.8354 119.817 91.7357C120.971 91.5926 121.988 91.4819 122.866 91.4035C122.974 92.1555 123.101 92.9058 123.249 93.6543C123.393 94.363 123.532 95.012 123.666 95.6014C123.839 96.1873 123.967 96.717 124.05 97.1907C124.169 97.621 124.256 97.9139 124.31 98.0695C123.991 98.098 123.671 98.1264 123.352 98.1549C123.069 98.1401 122.768 98.1469 122.449 98.1754Z" fill="#F5F5F7"/>
<path d="M130.036 99.4827L134.066 56.3697L152.843 53.0707C152.642 53.9705 152.483 54.8867 152.366 55.8192C152.234 56.5926 152.106 57.4058 151.982 58.2587C151.893 59.0683 151.818 59.7966 151.756 60.4436C151.36 60.519 150.785 60.6104 150.03 60.7179C149.311 60.782 148.535 60.8713 147.7 60.9859C146.862 61.0607 146.003 61.1373 145.125 61.2157C144.287 61.2905 143.548 61.3564 142.91 61.4133L141.774 72.2782C143.004 72.0882 144.157 71.9253 145.231 71.7893C146.106 71.6712 147.002 71.5712 147.92 71.4892C148.838 71.4073 149.515 71.3269 149.951 71.2479C149.891 72.3757 149.83 73.4836 149.766 74.5715C149.743 75.656 149.682 76.7639 149.582 77.8952C149.187 77.9706 148.532 78.0691 147.617 78.1908C146.739 78.2692 145.843 78.3692 144.928 78.4909C143.894 78.6233 142.76 78.7646 141.526 78.9148L140.477 90.0725L149.096 87.9204L149.108 94.7743L130.036 99.4827Z" fill="#F5F5F7"/>
<path d="M160.742 96.7426C161.267 92.2862 161.757 87.8929 162.213 83.5629C162.412 81.7413 162.603 79.8401 162.787 77.8594C162.971 75.8787 163.139 73.9395 163.29 72.0419C163.477 70.101 163.612 68.2449 163.695 66.4737C163.813 64.6592 163.906 63.0073 163.973 61.5181C163.044 61.4807 162.103 61.5247 161.148 61.6499C160.234 61.7716 159.305 61.7342 158.362 61.5378C158.344 60.8979 158.298 60.1604 158.223 59.3253C158.148 58.4902 158.093 57.6532 158.058 56.8145C158.016 55.8963 157.968 54.9184 157.915 53.8809C158.96 53.8678 160.003 53.8348 161.045 53.782C162.086 53.7291 163.126 53.6564 164.164 53.5638C166.199 53.3821 168.152 53.1678 170.021 52.9209C171.926 52.6306 173.672 52.3545 175.258 52.0927C176.88 51.7876 178.461 51.4662 180 51.1284L179.631 54.4084C179.513 55.3409 179.398 56.2933 179.284 57.2655C179.21 58.2342 179.124 59.0637 179.025 59.754C178.168 60.071 177.286 60.3301 176.379 60.5314C175.508 60.6893 174.64 60.8869 173.776 61.1244C173.618 62.5014 173.455 64.0394 173.286 65.7381C173.113 67.3971 172.947 69.1357 172.789 70.9537C172.667 72.7285 172.548 74.543 172.433 76.3973C172.318 78.2516 172.196 80.0263 172.067 81.7215C171.782 85.7156 171.55 89.8453 171.37 94.1106L160.742 96.7426Z" fill="#F5F5F7"/>
<path d="M53.1334 48.8849L64.9912 2.94487H53.0686L46.4593 36.3855L38.6837 2.94487H26.5019L18.4023 36.3855L11.8578 2.94487H0L11.5338 48.8849H24.9468L32.4632 18.6509L39.7204 48.8849H53.1334Z" fill="#F5F5F7"/>
<path fill-rule="evenodd" clip-rule="evenodd" d="M139.493 29.3178C137.895 27.2237 135.778 25.8931 133.143 25.3259C135.475 24.6279 137.333 23.3845 138.715 21.5957C140.141 19.807 140.854 17.5602 140.854 14.8552C140.854 11.1905 139.536 8.28927 136.901 6.15151C134.309 4.01375 130.702 2.94487 126.08 2.94487H105.604V48.8849H126.793C131.544 48.8849 135.238 47.7724 137.873 45.5474C140.551 43.2787 141.89 40.2248 141.89 36.3855C141.89 33.7242 141.091 31.3683 139.493 29.3178ZM128.089 20.3523C127.138 21.1376 125.756 21.5303 123.942 21.5303H116.684V11.9104H123.942C125.756 11.9104 127.138 12.3248 128.089 13.1538C129.082 13.9827 129.579 15.1825 129.579 16.7531C129.579 18.3237 129.082 19.5234 128.089 20.3523ZM129.125 38.6105C128.132 39.4395 126.706 39.8539 124.849 39.8539H116.684V29.7105H124.719C126.577 29.7105 128.024 30.1686 129.061 31.0848C130.14 32.0009 130.68 33.2662 130.68 34.8804C130.68 36.4946 130.162 37.738 129.125 38.6105Z" fill="#F5F5F7"/>
<path d="M152.14 3.79561C149.289 6.32602 147.777 9.92531 147.604 14.5935H158.425C158.555 13.1101 159.008 11.8667 159.786 10.8633C160.607 9.85987 161.838 9.35815 163.479 9.35815C164.991 9.35815 166.179 9.79443 167.043 10.667C167.907 11.5395 168.339 12.7611 168.339 14.3317C168.339 16.295 167.648 17.6692 166.266 18.4545C164.926 19.1962 163.155 19.567 160.952 19.567H158.879V28.6634H160.952C163.846 28.6634 165.942 29.1433 167.237 30.1031C168.577 31.0193 169.246 32.5245 169.246 34.6186C169.246 36.2328 168.771 37.5417 167.821 38.5451C166.913 39.5049 165.618 39.9848 163.933 39.9848C161.946 39.9848 160.434 39.4395 159.397 38.3488C158.36 37.2145 157.82 35.6875 157.777 33.7679H147.021C147.194 38.9596 148.814 42.8424 151.881 45.4165C154.991 47.9905 159.138 49.2775 164.322 49.2775C167.561 49.2775 170.348 48.6886 172.68 47.5106C175.056 46.3327 176.849 44.7184 178.059 42.6679C179.311 40.5738 179.938 38.1743 179.938 35.4694C179.938 32.459 179.225 29.9941 177.799 28.0744C176.374 26.1548 174.43 24.7806 171.968 23.9516V23.6899C173.868 23.0354 175.531 21.8139 176.957 20.0251C178.383 18.1928 179.095 15.8369 179.095 12.9574C179.095 10.5143 178.491 8.31108 177.281 6.34784C176.115 4.38459 174.365 2.8358 172.032 1.70148C169.743 0.567161 166.978 0 163.738 0C158.857 0 154.991 1.2652 152.14 3.79561Z" fill="#F5F5F7"/>
<path d="M81.6283 21.2031V11.9104H98.4106V2.94487H70.548V48.8849H98.4106V39.9194H81.6283V29.8414H96.4667V21.2031H81.6283Z" fill="#F5F5F7"/>
<path d="M20.5095 133.414V132.38H27.2415C28.4735 132.38 29.5882 132.563 30.5855 132.93C31.5975 133.282 32.4702 133.795 33.2035 134.47C33.9369 135.145 34.5015 135.966 34.8975 136.934C35.2935 137.887 35.4915 138.958 35.4915 140.146C35.4915 141.334 35.2935 142.412 34.8975 143.38C34.5015 144.333 33.9369 145.162 33.2035 145.866C32.4702 146.555 31.5975 147.083 30.5855 147.45C29.5882 147.817 28.4735 148 27.2415 148H20.5095V146.966H20.7735C21.3162 146.966 21.7635 146.915 22.1155 146.812C22.4675 146.709 22.6435 146.497 22.6435 146.174V134.206C22.6435 133.913 22.4675 133.707 22.1155 133.59C21.7635 133.473 21.3162 133.414 20.7735 133.414H20.5095ZM27.2415 133.678H24.6675V146.702H27.2415C28.1802 146.702 29.0162 146.555 29.7495 146.262C30.4975 145.969 31.1355 145.543 31.6635 144.986C32.1915 144.414 32.5949 143.725 32.8735 142.918C33.1522 142.097 33.2915 141.173 33.2915 140.146C33.2915 139.119 33.1522 138.203 32.8735 137.396C32.5949 136.589 32.1915 135.915 31.6635 135.372C31.1355 134.815 30.4975 134.397 29.7495 134.118C29.0162 133.825 28.1802 133.678 27.2415 133.678ZM39.6566 142.5C39.6566 143.204 39.7446 143.835 39.9206 144.392C40.1112 144.949 40.3752 145.419 40.7126 145.8C41.0499 146.181 41.4459 146.475 41.9006 146.68C42.3552 146.871 42.8466 146.966 43.3746 146.966C43.9759 146.966 44.4892 146.849 44.9146 146.614C45.3546 146.379 45.7212 146.093 46.0146 145.756C46.3226 145.404 46.5792 145.059 46.7846 144.722L47.8186 145.646C47.5399 146.115 47.1952 146.548 46.7846 146.944C46.3739 147.34 45.8826 147.655 45.3106 147.89C44.7532 148.11 44.0932 148.22 43.3306 148.22C42.2599 148.22 41.2919 147.985 40.4266 147.516C39.5759 147.047 38.9012 146.379 38.4026 145.514C37.9039 144.649 37.6546 143.629 37.6546 142.456C37.6546 141.297 37.8892 140.285 38.3586 139.42C38.8279 138.54 39.4586 137.851 40.2506 137.352C41.0572 136.853 41.9519 136.604 42.9346 136.604C43.7412 136.604 44.4452 136.736 45.0466 137C45.6626 137.264 46.1759 137.66 46.5866 138.188C47.0119 138.701 47.3346 139.354 47.5546 140.146C47.7746 140.938 47.8846 141.855 47.8846 142.896H39.2606V141.686H46.4106L45.7946 142.17C45.7799 141.437 45.7139 140.799 45.5966 140.256C45.4792 139.713 45.3032 139.266 45.0686 138.914C44.8339 138.547 44.5406 138.276 44.1886 138.1C43.8366 137.924 43.4186 137.836 42.9346 137.836C42.4799 137.836 42.0546 137.946 41.6586 138.166C41.2626 138.386 40.9106 138.701 40.6026 139.112C40.3092 139.508 40.0746 139.992 39.8986 140.564C39.7372 141.136 39.6566 141.781 39.6566 142.5ZM60.9954 138.386C60.35 138.327 59.8 138.298 59.3454 138.298C58.8907 138.298 58.5094 138.342 58.2014 138.43C57.908 138.518 57.666 138.687 57.4754 138.936L57.1894 138.606C57.3947 138.181 57.6294 137.821 57.8934 137.528C58.172 137.22 58.4727 136.971 58.7954 136.78C59.118 136.589 59.4627 136.465 59.8294 136.406C60.196 136.333 60.5847 136.318 60.9954 136.362V138.386ZM54.5714 144.678C53.7207 144.678 52.958 144.517 52.2834 144.194C51.6234 143.857 51.1027 143.387 50.7214 142.786C50.34 142.185 50.1494 141.481 50.1494 140.674C50.1494 139.867 50.34 139.163 50.7214 138.562C51.1174 137.946 51.6454 137.469 52.3054 137.132C52.98 136.78 53.7354 136.604 54.5714 136.604C55.422 136.604 56.1774 136.78 56.8374 137.132C57.512 137.469 58.04 137.946 58.4214 138.562C58.8174 139.163 59.0154 139.867 59.0154 140.674C59.0154 141.481 58.8174 142.185 58.4214 142.786C58.04 143.387 57.512 143.857 56.8374 144.194C56.1774 144.517 55.422 144.678 54.5714 144.678ZM54.5714 143.402C55.0847 143.402 55.5247 143.299 55.8914 143.094C56.2727 142.874 56.566 142.566 56.7714 142.17C56.9767 141.759 57.0794 141.261 57.0794 140.674C57.0794 140.087 56.9767 139.589 56.7714 139.178C56.566 138.753 56.2727 138.43 55.8914 138.21C55.5247 137.975 55.0847 137.858 54.5714 137.858C54.0727 137.858 53.6327 137.975 53.2514 138.21C52.8847 138.43 52.5987 138.753 52.3934 139.178C52.188 139.589 52.0854 140.087 52.0854 140.674C52.0854 141.261 52.188 141.759 52.3934 142.17C52.5987 142.566 52.8847 142.874 53.2514 143.094C53.6327 143.299 54.0727 143.402 54.5714 143.402ZM54.2414 153.192C53.2587 153.192 52.3714 153.097 51.5794 152.906C50.7874 152.73 50.1567 152.429 49.6874 152.004C49.2327 151.579 49.0054 151.014 49.0054 150.31C49.0054 149.958 49.0934 149.635 49.2694 149.342C49.46 149.049 49.7387 148.77 50.1054 148.506C50.472 148.257 50.9414 148 51.5134 147.736L52.3274 148.308C51.9607 148.484 51.66 148.675 51.4254 148.88C51.1907 149.085 51.0147 149.298 50.8974 149.518C50.7947 149.738 50.7434 149.973 50.7434 150.222C50.7434 150.574 50.868 150.875 51.1174 151.124C51.3667 151.373 51.748 151.564 52.2614 151.696C52.7894 151.828 53.4567 151.894 54.2634 151.894H55.0334C55.7814 151.894 56.4414 151.799 57.0134 151.608C57.6 151.432 58.0547 151.175 58.3774 150.838C58.7147 150.515 58.8834 150.149 58.8834 149.738C58.8834 149.313 58.722 149.005 58.3994 148.814C58.0914 148.638 57.5047 148.55 56.6394 148.55H51.7114H51.6234C51.154 148.301 50.78 148.066 50.5014 147.846C50.2227 147.611 50.0247 147.369 49.9074 147.12C49.8047 146.871 49.7534 146.607 49.7534 146.328C49.7534 145.976 49.8414 145.646 50.0174 145.338C50.1934 145.03 50.4574 144.737 50.8094 144.458C51.1614 144.165 51.6087 143.893 52.1514 143.644L52.9874 144.238C52.694 144.385 52.4374 144.539 52.2174 144.7C51.9974 144.861 51.8287 145.03 51.7114 145.206C51.6087 145.382 51.5574 145.573 51.5574 145.778C51.5574 146.086 51.7114 146.313 52.0194 146.46C52.342 146.592 52.7967 146.658 53.3834 146.658H56.6834C57.5634 146.658 58.2967 146.761 58.8834 146.966C59.4847 147.157 59.9394 147.457 60.2474 147.868C60.5554 148.264 60.7094 148.77 60.7094 149.386C60.7094 150.251 60.4454 150.963 59.9174 151.52C59.404 152.092 58.7147 152.51 57.8494 152.774C56.9987 153.053 56.0674 153.192 55.0554 153.192H54.2414ZM63.5687 142.5C63.5687 143.204 63.6567 143.835 63.8327 144.392C64.0234 144.949 64.2874 145.419 64.6247 145.8C64.962 146.181 65.358 146.475 65.8127 146.68C66.2674 146.871 66.7587 146.966 67.2867 146.966C67.888 146.966 68.4014 146.849 68.8267 146.614C69.2667 146.379 69.6334 146.093 69.9267 145.756C70.2347 145.404 70.4914 145.059 70.6967 144.722L71.7307 145.646C71.452 146.115 71.1074 146.548 70.6967 146.944C70.286 147.34 69.7947 147.655 69.2227 147.89C68.6654 148.11 68.0054 148.22 67.2427 148.22C66.172 148.22 65.204 147.985 64.3387 147.516C63.488 147.047 62.8134 146.379 62.3147 145.514C61.816 144.649 61.5667 143.629 61.5667 142.456C61.5667 141.297 61.8014 140.285 62.2707 139.42C62.74 138.54 63.3707 137.851 64.1627 137.352C64.9694 136.853 65.864 136.604 66.8467 136.604C67.6534 136.604 68.3574 136.736 68.9587 137C69.5747 137.264 70.088 137.66 70.4987 138.188C70.924 138.701 71.2467 139.354 71.4667 140.146C71.6867 140.938 71.7967 141.855 71.7967 142.896H63.1727V141.686H70.3227L69.7067 142.17C69.692 141.437 69.626 140.799 69.5087 140.256C69.3914 139.713 69.2154 139.266 68.9807 138.914C68.746 138.547 68.4527 138.276 68.1007 138.1C67.7487 137.924 67.3307 137.836 66.8467 137.836C66.392 137.836 65.9667 137.946 65.5707 138.166C65.1747 138.386 64.8227 138.701 64.5147 139.112C64.2214 139.508 63.9867 139.992 63.8107 140.564C63.6494 141.136 63.5687 141.781 63.5687 142.5ZM73.4649 148V147.01H73.5089C73.8609 147.01 74.1689 146.988 74.4329 146.944C74.7116 146.9 74.9242 146.819 75.0709 146.702C75.2322 146.585 75.3129 146.423 75.3129 146.218V138.87C75.3129 138.65 75.2542 138.489 75.1369 138.386C75.0196 138.269 74.8362 138.173 74.5869 138.1C74.3522 138.027 74.0516 137.953 73.6849 137.88L73.4649 137.836V136.824H77.0729V139.156L77.2709 139.398V146.79C77.2709 146.834 77.3589 146.878 77.5349 146.922C77.7109 146.951 77.9236 146.973 78.1729 146.988C78.4222 147.003 78.6496 147.01 78.8549 147.01H78.9209V148H73.4649ZM86.3129 148H80.8569V147.01H80.9009C81.1062 147.01 81.3336 147.003 81.5829 146.988C81.8322 146.973 82.0449 146.951 82.2209 146.922C82.4116 146.878 82.5069 146.834 82.5069 146.79V140.388C82.5069 139.831 82.4482 139.376 82.3309 139.024C82.2136 138.657 82.0156 138.393 81.7369 138.232C81.4729 138.056 81.1062 137.968 80.6369 137.968C80.1529 137.968 79.6909 138.071 79.2509 138.276C78.8109 138.467 78.3929 138.753 77.9969 139.134C77.6156 139.501 77.2489 139.963 76.8969 140.52V139.024C77.2929 138.481 77.6889 138.034 78.0849 137.682C78.4956 137.315 78.9356 137.044 79.4049 136.868C79.8742 136.692 80.3949 136.604 80.9669 136.604C81.6709 136.604 82.2796 136.729 82.7929 136.978C83.3209 137.227 83.7316 137.616 84.0249 138.144C84.3182 138.657 84.4649 139.325 84.4649 140.146V146.218C84.4649 146.423 84.5382 146.585 84.6849 146.702C84.8462 146.819 85.0589 146.9 85.3229 146.944C85.6016 146.988 85.9169 147.01 86.2689 147.01H86.3129V148ZM94.6846 145.096C94.6846 144.788 94.6039 144.531 94.4426 144.326C94.2813 144.121 94.0613 143.952 93.7826 143.82C93.5186 143.673 93.2106 143.556 92.8586 143.468C92.5213 143.365 92.1619 143.27 91.7806 143.182C91.3259 143.065 90.8713 142.933 90.4166 142.786C89.9766 142.639 89.5733 142.449 89.2066 142.214C88.8399 141.965 88.5466 141.657 88.3266 141.29C88.1066 140.909 87.9966 140.432 87.9966 139.86C87.9966 139.215 88.1579 138.65 88.4806 138.166C88.8033 137.667 89.2653 137.286 89.8666 137.022C90.4826 136.743 91.2233 136.604 92.0886 136.604C92.7633 136.604 93.3499 136.655 93.8486 136.758C94.3619 136.861 94.7873 136.993 95.1246 137.154C95.4619 137.301 95.7113 137.44 95.8726 137.572V139.97H93.9806V137.902C94.1419 137.887 94.2739 137.909 94.3766 137.968C94.4939 138.027 94.5819 138.107 94.6406 138.21C94.6993 138.298 94.7359 138.408 94.7506 138.54C94.7653 138.672 94.7506 138.811 94.7066 138.958C94.5453 138.709 94.3326 138.503 94.0686 138.342C93.8046 138.166 93.5039 138.041 93.1666 137.968C92.8439 137.88 92.4846 137.836 92.0886 137.836C91.3259 137.836 90.7539 138.005 90.3726 138.342C89.9913 138.679 89.8006 139.105 89.8006 139.618C89.8006 139.941 89.8813 140.212 90.0426 140.432C90.2186 140.652 90.4459 140.835 90.7246 140.982C91.0179 141.114 91.3406 141.231 91.6926 141.334C92.0593 141.437 92.4406 141.539 92.8366 141.642C93.2766 141.745 93.7166 141.869 94.1566 142.016C94.5966 142.163 94.9926 142.353 95.3446 142.588C95.7113 142.823 95.9973 143.123 96.2026 143.49C96.4226 143.857 96.5326 144.319 96.5326 144.876C96.5326 145.507 96.3566 146.079 96.0046 146.592C95.6526 147.091 95.1466 147.487 94.4866 147.78C93.8413 148.073 93.0566 148.22 92.1326 148.22C91.4286 148.22 90.7906 148.161 90.2186 148.044C89.6613 147.941 89.1626 147.802 88.7226 147.626C88.2826 147.435 87.8866 147.23 87.5346 147.01V144.48H89.4706V147.274C89.2506 147.142 89.0819 147.01 88.9646 146.878C88.8473 146.746 88.7666 146.614 88.7226 146.482C88.6786 146.35 88.6639 146.218 88.6786 146.086C88.6933 145.939 88.7226 145.793 88.7666 145.646C89.0159 145.954 89.3093 146.203 89.6466 146.394C89.9839 146.585 90.3579 146.731 90.7686 146.834C91.1793 146.922 91.6266 146.966 92.1106 146.966C92.6386 146.966 93.0933 146.893 93.4746 146.746C93.8559 146.599 94.1493 146.387 94.3546 146.108C94.5746 145.829 94.6846 145.492 94.6846 145.096ZM106.379 134.382C105.998 134.382 105.675 134.265 105.411 134.03C105.162 133.781 105.037 133.451 105.037 133.04C105.037 132.629 105.162 132.307 105.411 132.072C105.675 131.837 105.998 131.72 106.379 131.72C106.76 131.72 107.076 131.837 107.325 132.072C107.589 132.307 107.721 132.629 107.721 133.04C107.721 133.451 107.589 133.781 107.325 134.03C107.076 134.265 106.76 134.382 106.379 134.382ZM107.457 136.824V146.218C107.457 146.541 107.626 146.753 107.963 146.856C108.315 146.959 108.755 147.01 109.283 147.01H109.305V148H103.651V147.01H103.673C104.201 147.01 104.634 146.959 104.971 146.856C105.323 146.753 105.499 146.541 105.499 146.218V138.87C105.499 138.547 105.367 138.327 105.103 138.21C104.839 138.093 104.428 137.983 103.871 137.88L103.629 137.836V136.824H107.457ZM110.654 148V147.01H110.698C111.05 147.01 111.358 146.988 111.622 146.944C111.901 146.9 112.114 146.819 112.26 146.702C112.422 146.585 112.502 146.423 112.502 146.218V138.87C112.502 138.65 112.444 138.489 112.326 138.386C112.209 138.269 112.026 138.173 111.776 138.1C111.542 138.027 111.241 137.953 110.874 137.88L110.654 137.836V136.824H114.262V139.156L114.46 139.398V146.79C114.46 146.834 114.548 146.878 114.724 146.922C114.9 146.951 115.113 146.973 115.362 146.988C115.612 147.003 115.839 147.01 116.044 147.01H116.11V148H110.654ZM123.502 148H118.046V147.01H118.09C118.296 147.01 118.523 147.003 118.772 146.988C119.022 146.973 119.234 146.951 119.41 146.922C119.601 146.878 119.696 146.834 119.696 146.79V140.388C119.696 139.831 119.638 139.376 119.52 139.024C119.403 138.657 119.205 138.393 118.926 138.232C118.662 138.056 118.296 137.968 117.826 137.968C117.342 137.968 116.88 138.071 116.44 138.276C116 138.467 115.582 138.753 115.186 139.134C114.805 139.501 114.438 139.963 114.086 140.52V139.024C114.482 138.481 114.878 138.034 115.274 137.682C115.685 137.315 116.125 137.044 116.594 136.868C117.064 136.692 117.584 136.604 118.156 136.604C118.86 136.604 119.469 136.729 119.982 136.978C120.51 137.227 120.921 137.616 121.214 138.144C121.508 138.657 121.654 139.325 121.654 140.146V146.218C121.654 146.423 121.728 146.585 121.874 146.702C122.036 146.819 122.248 146.9 122.512 146.944C122.791 146.988 123.106 147.01 123.458 147.01H123.502V148ZM131.874 145.096C131.874 144.788 131.793 144.531 131.632 144.326C131.471 144.121 131.251 143.952 130.972 143.82C130.708 143.673 130.4 143.556 130.048 143.468C129.711 143.365 129.351 143.27 128.97 143.182C128.515 143.065 128.061 142.933 127.606 142.786C127.166 142.639 126.763 142.449 126.396 142.214C126.029 141.965 125.736 141.657 125.516 141.29C125.296 140.909 125.186 140.432 125.186 139.86C125.186 139.215 125.347 138.65 125.67 138.166C125.993 137.667 126.455 137.286 127.056 137.022C127.672 136.743 128.413 136.604 129.278 136.604C129.953 136.604 130.539 136.655 131.038 136.758C131.551 136.861 131.977 136.993 132.314 137.154C132.651 137.301 132.901 137.44 133.062 137.572V139.97H131.17V137.902C131.331 137.887 131.463 137.909 131.566 137.968C131.683 138.027 131.771 138.107 131.83 138.21C131.889 138.298 131.925 138.408 131.94 138.54C131.955 138.672 131.94 138.811 131.896 138.958C131.735 138.709 131.522 138.503 131.258 138.342C130.994 138.166 130.693 138.041 130.356 137.968C130.033 137.88 129.674 137.836 129.278 137.836C128.515 137.836 127.943 138.005 127.562 138.342C127.181 138.679 126.99 139.105 126.99 139.618C126.99 139.941 127.071 140.212 127.232 140.432C127.408 140.652 127.635 140.835 127.914 140.982C128.207 141.114 128.53 141.231 128.882 141.334C129.249 141.437 129.63 141.539 130.026 141.642C130.466 141.745 130.906 141.869 131.346 142.016C131.786 142.163 132.182 142.353 132.534 142.588C132.901 142.823 133.187 143.123 133.392 143.49C133.612 143.857 133.722 144.319 133.722 144.876C133.722 145.507 133.546 146.079 133.194 146.592C132.842 147.091 132.336 147.487 131.676 147.78C131.031 148.073 130.246 148.22 129.322 148.22C128.618 148.22 127.98 148.161 127.408 148.044C126.851 147.941 126.352 147.802 125.912 147.626C125.472 147.435 125.076 147.23 124.724 147.01V144.48H126.66V147.274C126.44 147.142 126.271 147.01 126.154 146.878C126.037 146.746 125.956 146.614 125.912 146.482C125.868 146.35 125.853 146.218 125.868 146.086C125.883 145.939 125.912 145.793 125.956 145.646C126.205 145.954 126.499 146.203 126.836 146.394C127.173 146.585 127.547 146.731 127.958 146.834C128.369 146.922 128.816 146.966 129.3 146.966C129.828 146.966 130.283 146.893 130.664 146.746C131.045 146.599 131.339 146.387 131.544 146.108C131.764 145.829 131.874 145.492 131.874 145.096ZM138.025 134.382C137.644 134.382 137.321 134.265 137.057 134.03C136.808 133.781 136.683 133.451 136.683 133.04C136.683 132.629 136.808 132.307 137.057 132.072C137.321 131.837 137.644 131.72 138.025 131.72C138.407 131.72 138.722 131.837 138.971 132.072C139.235 132.307 139.367 132.629 139.367 133.04C139.367 133.451 139.235 133.781 138.971 134.03C138.722 134.265 138.407 134.382 138.025 134.382ZM139.103 136.824V146.218C139.103 146.541 139.272 146.753 139.609 146.856C139.961 146.959 140.401 147.01 140.929 147.01H140.951V148H135.297V147.01H135.319C135.847 147.01 136.28 146.959 136.617 146.856C136.969 146.753 137.145 146.541 137.145 146.218V138.87C137.145 138.547 137.013 138.327 136.749 138.21C136.485 138.093 136.075 137.983 135.517 137.88L135.275 137.836V136.824H139.103ZM153.279 146.218C153.279 146.541 153.448 146.753 153.785 146.856C154.137 146.959 154.577 147.01 155.105 147.01H155.127V148H151.497V145.536L151.321 145.47V133.876C151.321 133.656 151.262 133.487 151.145 133.37C151.028 133.253 150.844 133.157 150.595 133.084C150.346 133.011 150.03 132.945 149.649 132.886L149.407 132.842V131.83H153.279V146.218ZM147.757 136.604C148.344 136.604 148.864 136.685 149.319 136.846C149.774 137.007 150.199 137.264 150.595 137.616C150.991 137.968 151.365 138.415 151.717 138.958L151.695 140.916C151.387 140.212 151.035 139.633 150.639 139.178C150.258 138.723 149.832 138.393 149.363 138.188C148.894 137.968 148.38 137.858 147.823 137.858C147.295 137.858 146.826 137.968 146.415 138.188C146.004 138.408 145.66 138.723 145.381 139.134C145.102 139.53 144.89 140.014 144.743 140.586C144.611 141.158 144.545 141.796 144.545 142.5C144.545 143.175 144.611 143.791 144.743 144.348C144.89 144.891 145.095 145.36 145.359 145.756C145.638 146.152 145.975 146.453 146.371 146.658C146.782 146.863 147.244 146.966 147.757 146.966C148.344 146.966 148.872 146.849 149.341 146.614C149.81 146.365 150.236 146.005 150.617 145.536C151.013 145.067 151.372 144.487 151.695 143.798L151.717 145.624C151.321 146.196 150.925 146.68 150.529 147.076C150.133 147.457 149.7 147.743 149.231 147.934C148.762 148.125 148.226 148.22 147.625 148.22C146.598 148.22 145.696 147.985 144.919 147.516C144.156 147.032 143.555 146.365 143.115 145.514C142.69 144.649 142.477 143.644 142.477 142.5C142.477 141.327 142.697 140.3 143.137 139.42C143.577 138.54 144.193 137.851 144.985 137.352C145.792 136.853 146.716 136.604 147.757 136.604ZM158.573 142.5C158.573 143.204 158.661 143.835 158.837 144.392C159.027 144.949 159.291 145.419 159.629 145.8C159.966 146.181 160.362 146.475 160.817 146.68C161.271 146.871 161.763 146.966 162.291 146.966C162.892 146.966 163.405 146.849 163.831 146.614C164.271 146.379 164.637 146.093 164.931 145.756C165.239 145.404 165.495 145.059 165.701 144.722L166.735 145.646C166.456 146.115 166.111 146.548 165.701 146.944C165.29 147.34 164.799 147.655 164.227 147.89C163.669 148.11 163.009 148.22 162.247 148.22C161.176 148.22 160.208 147.985 159.343 147.516C158.492 147.047 157.817 146.379 157.319 145.514C156.82 144.649 156.571 143.629 156.571 142.456C156.571 141.297 156.805 140.285 157.275 139.42C157.744 138.54 158.375 137.851 159.167 137.352C159.973 136.853 160.868 136.604 161.851 136.604C162.657 136.604 163.361 136.736 163.963 137C164.579 137.264 165.092 137.66 165.503 138.188C165.928 138.701 166.251 139.354 166.471 140.146C166.691 140.938 166.801 141.855 166.801 142.896H158.177V141.686H165.327L164.711 142.17C164.696 141.437 164.63 140.799 164.513 140.256C164.395 139.713 164.219 139.266 163.985 138.914C163.75 138.547 163.457 138.276 163.105 138.1C162.753 137.924 162.335 137.836 161.851 137.836C161.396 137.836 160.971 137.946 160.575 138.166C160.179 138.386 159.827 138.701 159.519 139.112C159.225 139.508 158.991 139.992 158.815 140.564C158.653 141.136 158.573 141.781 158.573 142.5Z" fill="white"/>
<path d="M171.187 129.331V130.087H169.048V135.679H168.175V130.087H166.036V129.331H171.187Z" fill="white"/>
<path d="M171.956 129.331H173.187L175.01 134.698L176.821 129.331H178.039V135.679H177.223V131.932C177.223 131.803 177.226 131.588 177.231 131.289C177.237 130.989 177.24 130.668 177.24 130.325L175.43 135.679H174.578L172.755 130.325V130.52C172.755 130.675 172.758 130.913 172.764 131.232C172.772 131.549 172.777 131.783 172.777 131.932V135.679H171.956V129.331Z" fill="white"/>
</svg>
