<svg width="250" height="250" viewBox="0 0 250 250" fill="none" xmlns="http://www.w3.org/2000/svg">
<g clip-path="url(#clip0_204_3107)">
<g style="mix-blend-mode:hard-light" filter="url(#filter0_f_204_3107)">
<path d="M198 210.891C198 210.891 164.565 220.085 162.336 220.085C160.107 220.085 155.564 221.867 157.599 213.398M157.599 213.398C178.218 198.91 171.232 189.694 173.76 177.734C176.514 164.705 180.725 150.986 176.546 143.184C163.729 132.875 170.138 111.143 155.649 105.849C149.798 66.8411 54.2771 67.7031 52 138.169C56.2497 171.941 61.9938 185.432 78.7481 198.91C82.081 202.549 84.0129 208.143 87.3855 224.265C74.0742 225.606 67.1661 230.172 57.5728 234.852M157.599 213.398C139.21 224.265 89.6148 206.711 89.6148 179.963M129.18 194.452C141.439 197.517 151.306 193.149 160.386 186.65M145.619 151.822C147.012 161.852 167.63 162.967 152.584 175.227M133.916 173.276C129.18 177.734 130.573 181.635 138.653 181.635M109.676 159.345C121.896 155.648 127.313 153.627 119.985 145.692M147.569 143.184C157.816 141.578 163.431 140.651 160.386 136.498M100.481 147.364C100.481 147.364 112.557 135.496 116.92 127.86M138.653 118.665C145.653 121.84 157.599 124.517 157.599 124.517M85.9926 136.498C107.591 121.491 120.179 115.568 143.947 111.421M89.6148 123.123C107.766 112.628 116.672 107.166 141.161 103.62" stroke="#0094FF" stroke-width="3.25" stroke-linecap="round" stroke-linejoin="round"/>
</g>
<g style="mix-blend-mode:hard-light" filter="url(#filter1_f_204_3107)">
<path d="M198 210.891C198 210.891 164.565 220.085 162.336 220.085C160.107 220.085 155.564 221.867 157.599 213.398M157.599 213.398C178.218 198.91 171.232 189.694 173.76 177.734C176.514 164.705 180.725 150.986 176.546 143.184C163.729 132.875 170.138 111.143 155.649 105.849C149.798 66.8411 54.2771 67.7031 52 138.169C56.2497 171.941 61.9938 185.432 78.7481 198.91C82.081 202.549 84.0129 208.143 87.3855 224.265C74.0742 225.606 67.1661 230.172 57.5728 234.852M157.599 213.398C139.21 224.265 89.6148 206.711 89.6148 179.963M129.18 194.452C141.439 197.517 151.306 193.149 160.386 186.65M145.619 151.822C147.012 161.852 167.63 162.967 152.584 175.227M133.916 173.276C129.18 177.734 130.573 181.635 138.653 181.635M109.676 159.345C121.896 155.648 127.313 153.627 119.985 145.692M147.569 143.184C157.816 141.578 163.431 140.651 160.386 136.498M100.481 147.364C100.481 147.364 112.557 135.496 116.92 127.86M138.653 118.665C145.653 121.84 157.599 124.517 157.599 124.517M85.9926 136.498C107.591 121.491 120.179 115.568 143.947 111.421M89.6148 123.123C107.766 112.628 116.672 107.166 141.161 103.62" stroke="#0094FF" stroke-width="4.25" stroke-linecap="round" stroke-linejoin="round"/>
</g>
<g style="mix-blend-mode:hard-light" filter="url(#filter2_ddi_204_3107)">
<path d="M198 210.891C198 210.891 164.565 220.085 162.336 220.085C160.107 220.085 155.564 221.867 157.599 213.398M157.599 213.398C178.218 198.91 171.232 189.694 173.76 177.734C176.514 164.705 180.725 150.986 176.546 143.184C163.729 132.875 170.138 111.143 155.649 105.849C149.798 66.8411 54.2771 67.7031 52 138.169C56.2497 171.941 61.9938 185.432 78.7481 198.91C82.081 202.549 84.0129 208.143 87.3855 224.265C74.0742 225.606 67.1661 230.172 57.5728 234.852M157.599 213.398C139.21 224.265 89.6148 206.711 89.6148 179.963M129.18 194.452C141.439 197.517 151.306 193.149 160.386 186.65M145.619 151.822C147.012 161.852 167.63 162.967 152.584 175.227M133.916 173.276C129.18 177.734 130.573 181.635 138.653 181.635M109.676 159.345C121.896 155.648 127.313 153.627 119.985 145.692M147.569 143.184C157.816 141.578 163.431 140.651 160.386 136.498M100.481 147.364C100.481 147.364 112.557 135.496 116.92 127.86M138.653 118.665C145.653 121.84 157.599 124.517 157.599 124.517M85.9926 136.498C107.591 121.491 120.179 115.568 143.947 111.421M89.6148 123.123C107.766 112.628 116.672 107.166 141.161 103.62" stroke="#00B3FF" stroke-opacity="0.2" stroke-width="3.25" stroke-linecap="round" stroke-linejoin="round"/>
</g>
<g filter="url(#filter3_f_204_3107)">
<path d="M198 210.891C198 210.891 164.565 220.085 162.336 220.085C160.107 220.085 155.564 221.867 157.599 213.398M157.599 213.398C178.218 198.91 171.232 189.694 173.76 177.734C176.514 164.705 180.725 150.986 176.546 143.184C163.729 132.875 170.138 111.143 155.649 105.849C149.798 66.8411 54.2771 67.7031 52 138.169C56.2497 171.941 61.9938 185.432 78.7481 198.91C82.081 202.549 84.0129 208.143 87.3855 224.265C74.0742 225.606 67.1661 230.172 57.5728 234.852M157.599 213.398C139.21 224.265 89.6148 206.711 89.6148 179.963M129.18 194.452C141.439 197.517 151.306 193.149 160.386 186.65M145.619 151.822C147.012 161.852 167.63 162.967 152.584 175.227M133.916 173.276C129.18 177.734 130.573 181.635 138.653 181.635M109.676 159.345C121.896 155.648 127.313 153.627 119.985 145.692M147.569 143.184C157.816 141.578 163.431 140.651 160.386 136.498M100.481 147.364C100.481 147.364 112.557 135.496 116.92 127.86M138.653 118.665C145.653 121.84 157.599 124.517 157.599 124.517M85.9926 136.498C107.591 121.491 120.179 115.568 143.947 111.421M89.6148 123.123C107.766 112.628 116.672 107.166 141.161 103.62" stroke="#82D9FF" stroke-width="2" stroke-linecap="round" stroke-linejoin="round"/>
</g>
<g filter="url(#filter4_f_204_3107)">
<path d="M198 210.891C198 210.891 164.565 220.085 162.336 220.085C160.107 220.085 155.564 221.867 157.599 213.398M157.599 213.398C178.218 198.91 171.232 189.694 173.76 177.734C176.514 164.705 180.725 150.986 176.546 143.184C163.729 132.875 170.138 111.143 155.649 105.849C149.798 66.8411 54.2771 67.7031 52 138.169C56.2497 171.941 61.9938 185.432 78.7481 198.91C82.081 202.549 84.0129 208.143 87.3855 224.265C74.0742 225.606 67.1661 230.172 57.5728 234.852M157.599 213.398C139.21 224.265 89.6148 206.711 89.6148 179.963M129.18 194.452C141.439 197.517 151.306 193.149 160.386 186.65M145.619 151.822C147.012 161.852 167.63 162.967 152.584 175.227M133.916 173.276C129.18 177.734 130.573 181.635 138.653 181.635M109.676 159.345C121.896 155.648 127.313 153.627 119.985 145.692M147.569 143.184C157.816 141.578 163.431 140.651 160.386 136.498M100.481 147.364C100.481 147.364 112.557 135.496 116.92 127.86M138.653 118.665C145.653 121.84 157.599 124.517 157.599 124.517M85.9926 136.498C107.591 121.491 120.179 115.568 143.947 111.421M89.6148 123.123C107.766 112.628 116.672 107.166 141.161 103.62" stroke="white" stroke-linecap="round" stroke-linejoin="round"/>
</g>
<g style="mix-blend-mode:hard-light" filter="url(#filter5_f_204_3107)">
<ellipse cx="98.6084" cy="44.1857" rx="18.9649" ry="32.5113" fill="#33E9C6" fill-opacity="0.1"/>
</g>
<g style="mix-blend-mode:hard-light" filter="url(#filter6_f_204_3107)">
<path d="M90.7776 71.2783V33.6565H82.8043L98.4661 17.0928L114.413 33.6565H106.439V68.6641" stroke="#00A8A8" stroke-width="3.25" stroke-linecap="round" stroke-linejoin="round"/>
</g>
<g style="mix-blend-mode:hard-light" filter="url(#filter7_f_204_3107)">
<path d="M90.7776 71.2783V33.6565H82.8043L98.4661 17.0928L114.413 33.6565H106.439V68.6641" stroke="#00A8A8" stroke-width="4.25" stroke-linecap="round" stroke-linejoin="round"/>
</g>
<g style="mix-blend-mode:hard-light" filter="url(#filter8_ddi_204_3107)">
<path d="M90.7776 71.2783V33.6565H82.8043L98.4661 17.0928L114.413 33.6565H106.439V68.6641" stroke="#33E9C6" stroke-opacity="0.2" stroke-width="3.25" stroke-linecap="round" stroke-linejoin="round"/>
</g>
<g filter="url(#filter9_f_204_3107)">
<path d="M90.7776 71.2783V33.6565H82.8043L98.4661 17.0928L114.413 33.6565H106.439V68.6641" stroke="#33E9E9" stroke-width="2" stroke-linecap="round" stroke-linejoin="round"/>
</g>
<g filter="url(#filter10_f_204_3107)">
<path d="M90.7776 71.2783V33.6565H82.8043L98.4661 17.0928L114.413 33.6565H106.439V68.6641" stroke="white" stroke-linecap="round" stroke-linejoin="round"/>
</g>
<g style="mix-blend-mode:hard-light" filter="url(#filter11_f_204_3107)">
<path d="M126.695 69.0222V47.2949H121L132.187 37L143.577 47.2949H137.882V71.6186" stroke="#CC00FF" stroke-width="2.6" stroke-linecap="round" stroke-linejoin="round"/>
</g>
<g style="mix-blend-mode:hard-light" filter="url(#filter12_f_204_3107)">
<path d="M126.695 69.0222V47.2949H121L132.187 37L143.577 47.2949H137.882V71.6186" stroke="#CC00FF" stroke-width="3.4" stroke-linecap="round" stroke-linejoin="round"/>
</g>
<g style="mix-blend-mode:hard-light" filter="url(#filter13_ddi_204_3107)">
<path d="M126.695 69.0222V47.2949H121L132.187 37L143.577 47.2949H137.882V71.6186" stroke="#6100FF" stroke-opacity="0.2" stroke-width="2.6" stroke-linecap="round" stroke-linejoin="round"/>
</g>
<g filter="url(#filter14_f_204_3107)">
<path d="M126.695 69.0222V47.2949H121L132.187 37L143.577 47.2949H137.882V71.6186" stroke="#C882FF" stroke-width="1.6" stroke-linecap="round" stroke-linejoin="round"/>
</g>
<g filter="url(#filter15_f_204_3107)">
<path d="M126.695 69.0222V47.2949H121L132.187 37L143.577 47.2949H137.882V71.6186" stroke="white" stroke-width="0.8" stroke-linecap="round" stroke-linejoin="round"/>
</g>
<g style="mix-blend-mode:hard-light" filter="url(#filter16_f_204_3107)">
<path d="M61.3155 89.6495V56.9889H56L66.4412 46L77.0722 56.9889H71.7567V79.9496" stroke="#FFAB2D" stroke-width="2.6" stroke-linecap="round" stroke-linejoin="round"/>
</g>
<g style="mix-blend-mode:hard-light" filter="url(#filter17_f_204_3107)">
<path d="M61.3155 89.6495V56.9889H56L66.4412 46L77.0722 56.9889H71.7567V79.9496" stroke="#FFAB2D" stroke-width="3.4" stroke-linecap="round" stroke-linejoin="round"/>
</g>
<g style="mix-blend-mode:hard-light" filter="url(#filter18_ddi_204_3107)">
<path d="M61.3155 89.6495V56.9889H56L66.4412 46L77.0722 56.9889H71.7567V79.9496" stroke="#FFC940" stroke-opacity="0.2" stroke-width="2.6" stroke-linecap="round" stroke-linejoin="round"/>
</g>
<g filter="url(#filter19_f_204_3107)">
<path d="M61.3155 89.6495V56.9889H56L66.4412 46L77.0722 56.9889H71.7567V79.9496" stroke="#FFD56A" stroke-width="1.6" stroke-linecap="round" stroke-linejoin="round"/>
</g>
<g filter="url(#filter20_f_204_3107)">
<path d="M61.3155 89.6495V56.9889H56L66.4412 46L77.0722 56.9889H71.7567V79.9496" stroke="white" stroke-width="0.8" stroke-linecap="round" stroke-linejoin="round"/>
</g>
</g>
<defs>
<filter id="filter0_f_204_3107" x="32.9" y="60.9001" width="184.2" height="193.053" filterUnits="userSpaceOnUse" color-interpolation-filters="sRGB">
<feFlood flood-opacity="0" result="BackgroundImageFix"/>
<feBlend mode="normal" in="SourceGraphic" in2="BackgroundImageFix" result="shape"/>
<feGaussianBlur stdDeviation="8.7375" result="effect1_foregroundBlur_204_3107"/>
</filter>
<filter id="filter1_f_204_3107" x="44.05" y="72.0501" width="161.9" height="170.753" filterUnits="userSpaceOnUse" color-interpolation-filters="sRGB">
<feFlood flood-opacity="0" result="BackgroundImageFix"/>
<feBlend mode="normal" in="SourceGraphic" in2="BackgroundImageFix" result="shape"/>
<feGaussianBlur stdDeviation="2.9125" result="effect1_foregroundBlur_204_3107"/>
</filter>
<filter id="filter2_ddi_204_3107" x="42.8025" y="76.6276" width="164.395" height="173.248" filterUnits="userSpaceOnUse" color-interpolation-filters="sRGB">
<feFlood flood-opacity="0" result="BackgroundImageFix"/>
<feColorMatrix in="SourceAlpha" type="matrix" values="0 0 0 0 0 0 0 0 0 0 0 0 0 0 0 0 0 0 127 0" result="hardAlpha"/>
<feOffset dy="3.25"/>
<feGaussianBlur stdDeviation="1.25"/>
<feColorMatrix type="matrix" values="0 0 0 0 0 0 0 0 0 0.051 0 0 0 0 0.082 0 0 0 0.7 0"/>
<feBlend mode="multiply" in2="BackgroundImageFix" result="effect1_dropShadow_204_3107"/>
<feColorMatrix in="SourceAlpha" type="matrix" values="0 0 0 0 0 0 0 0 0 0 0 0 0 0 0 0 0 0 127 0" result="hardAlpha"/>
<feOffset dy="5.825"/>
<feGaussianBlur stdDeviation="3.78625"/>
<feColorMatrix type="matrix" values="0 0 0 0 0 0 0 0 0 0.4 0 0 0 0 1 0 0 0 1 0"/>
<feBlend mode="color-dodge" in2="effect1_dropShadow_204_3107" result="effect2_dropShadow_204_3107"/>
<feBlend mode="normal" in="SourceGraphic" in2="effect2_dropShadow_204_3107" result="shape"/>
<feColorMatrix in="SourceAlpha" type="matrix" values="0 0 0 0 0 0 0 0 0 0 0 0 0 0 0 0 0 0 127 0" result="hardAlpha"/>
<feOffset dx="-0.325" dy="0.65"/>
<feGaussianBlur stdDeviation="0.1625"/>
<feComposite in2="hardAlpha" operator="arithmetic" k2="-1" k3="1"/>
<feColorMatrix type="matrix" values="0 0 0 0 1 0 0 0 0 1 0 0 0 0 1 0 0 0 0.5 0"/>
<feBlend mode="normal" in2="shape" result="effect3_innerShadow_204_3107"/>
</filter>
<filter id="filter3_f_204_3107" x="50.5" y="78.5" width="149" height="157.853" filterUnits="userSpaceOnUse" color-interpolation-filters="sRGB">
<feFlood flood-opacity="0" result="BackgroundImageFix"/>
<feBlend mode="normal" in="SourceGraphic" in2="BackgroundImageFix" result="shape"/>
<feGaussianBlur stdDeviation="0.25" result="effect1_foregroundBlur_204_3107"/>
</filter>
<filter id="filter4_f_204_3107" x="51.1667" y="79.1667" width="147.667" height="156.519" filterUnits="userSpaceOnUse" color-interpolation-filters="sRGB">
<feFlood flood-opacity="0" result="BackgroundImageFix"/>
<feBlend mode="normal" in="SourceGraphic" in2="BackgroundImageFix" result="shape"/>
<feGaussianBlur stdDeviation="0.166667" result="effect1_foregroundBlur_204_3107"/>
</filter>
<filter id="filter5_f_204_3107" x="64.6434" y="-3.32568" width="67.9299" height="95.0227" filterUnits="userSpaceOnUse" color-interpolation-filters="sRGB">
<feFlood flood-opacity="0" result="BackgroundImageFix"/>
<feBlend mode="normal" in="SourceGraphic" in2="BackgroundImageFix" result="shape"/>
<feGaussianBlur stdDeviation="7.5" result="effect1_foregroundBlur_204_3107"/>
</filter>
<filter id="filter6_f_204_3107" x="66.1793" y="0.467773" width="64.8583" height="87.4355" filterUnits="userSpaceOnUse" color-interpolation-filters="sRGB">
<feFlood flood-opacity="0" result="BackgroundImageFix"/>
<feBlend mode="normal" in="SourceGraphic" in2="BackgroundImageFix" result="shape"/>
<feGaussianBlur stdDeviation="7.5" result="effect1_foregroundBlur_204_3107"/>
</filter>
<filter id="filter7_f_204_3107" x="75.6793" y="9.96777" width="45.8583" height="68.4355" filterUnits="userSpaceOnUse" color-interpolation-filters="sRGB">
<feFlood flood-opacity="0" result="BackgroundImageFix"/>
<feBlend mode="normal" in="SourceGraphic" in2="BackgroundImageFix" result="shape"/>
<feGaussianBlur stdDeviation="2.5" result="effect1_foregroundBlur_204_3107"/>
</filter>
<filter id="filter8_ddi_204_3107" x="74.6793" y="13.9678" width="47.8583" height="70.4355" filterUnits="userSpaceOnUse" color-interpolation-filters="sRGB">
<feFlood flood-opacity="0" result="BackgroundImageFix"/>
<feColorMatrix in="SourceAlpha" type="matrix" values="0 0 0 0 0 0 0 0 0 0 0 0 0 0 0 0 0 0 127 0" result="hardAlpha"/>
<feOffset dy="3.25"/>
<feGaussianBlur stdDeviation="1.25"/>
<feColorMatrix type="matrix" values="0 0 0 0 0 0 0 0 0 0.3 0 0 0 0 0.275 0 0 0 0.7 0"/>
<feBlend mode="multiply" in2="BackgroundImageFix" result="effect1_dropShadow_204_3107"/>
<feColorMatrix in="SourceAlpha" type="matrix" values="0 0 0 0 0 0 0 0 0 0 0 0 0 0 0 0 0 0 127 0" result="hardAlpha"/>
<feOffset dy="5"/>
<feGaussianBlur stdDeviation="3.25"/>
<feColorMatrix type="matrix" values="0 0 0 0 0 0 0 0 0 0.6 0 0 0 0 0.6 0 0 0 1 0"/>
<feBlend mode="color-dodge" in2="effect1_dropShadow_204_3107" result="effect2_dropShadow_204_3107"/>
<feBlend mode="normal" in="SourceGraphic" in2="effect2_dropShadow_204_3107" result="shape"/>
<feColorMatrix in="SourceAlpha" type="matrix" values="0 0 0 0 0 0 0 0 0 0 0 0 0 0 0 0 0 0 127 0" result="hardAlpha"/>
<feOffset dx="-0.325" dy="0.65"/>
<feGaussianBlur stdDeviation="0.1625"/>
<feComposite in2="hardAlpha" operator="arithmetic" k2="-1" k3="1"/>
<feColorMatrix type="matrix" values="0 0 0 0 1 0 0 0 0 1 0 0 0 0 1 0 0 0 0.5 0"/>
<feBlend mode="normal" in2="shape" result="effect3_innerShadow_204_3107"/>
</filter>
<filter id="filter9_f_204_3107" x="81.3043" y="15.5928" width="34.6083" height="57.1855" filterUnits="userSpaceOnUse" color-interpolation-filters="sRGB">
<feFlood flood-opacity="0" result="BackgroundImageFix"/>
<feBlend mode="normal" in="SourceGraphic" in2="BackgroundImageFix" result="shape"/>
<feGaussianBlur stdDeviation="0.25" result="effect1_foregroundBlur_204_3107"/>
</filter>
<filter id="filter10_f_204_3107" x="81.971" y="16.2594" width="33.2749" height="55.8522" filterUnits="userSpaceOnUse" color-interpolation-filters="sRGB">
<feFlood flood-opacity="0" result="BackgroundImageFix"/>
<feBlend mode="normal" in="SourceGraphic" in2="BackgroundImageFix" result="shape"/>
<feGaussianBlur stdDeviation="0.166667" result="effect1_foregroundBlur_204_3107"/>
</filter>
<filter id="filter11_f_204_3107" x="107.7" y="23.7" width="49.1774" height="61.2186" filterUnits="userSpaceOnUse" color-interpolation-filters="sRGB">
<feFlood flood-opacity="0" result="BackgroundImageFix"/>
<feBlend mode="normal" in="SourceGraphic" in2="BackgroundImageFix" result="shape"/>
<feGaussianBlur stdDeviation="6" result="effect1_foregroundBlur_204_3107"/>
</filter>
<filter id="filter12_f_204_3107" x="115.3" y="31.3" width="33.9774" height="46.0186" filterUnits="userSpaceOnUse" color-interpolation-filters="sRGB">
<feFlood flood-opacity="0" result="BackgroundImageFix"/>
<feBlend mode="normal" in="SourceGraphic" in2="BackgroundImageFix" result="shape"/>
<feGaussianBlur stdDeviation="2" result="effect1_foregroundBlur_204_3107"/>
</filter>
<filter id="filter13_ddi_204_3107" x="114.5" y="34.5" width="35.5774" height="47.6186" filterUnits="userSpaceOnUse" color-interpolation-filters="sRGB">
<feFlood flood-opacity="0" result="BackgroundImageFix"/>
<feColorMatrix in="SourceAlpha" type="matrix" values="0 0 0 0 0 0 0 0 0 0 0 0 0 0 0 0 0 0 127 0" result="hardAlpha"/>
<feOffset dy="2.6"/>
<feGaussianBlur stdDeviation="1"/>
<feColorMatrix type="matrix" values="0 0 0 0 0.055 0 0 0 0 0 0 0 0 0 0.082 0 0 0 0.7 0"/>
<feBlend mode="multiply" in2="BackgroundImageFix" result="effect1_dropShadow_204_3107"/>
<feColorMatrix in="SourceAlpha" type="matrix" values="0 0 0 0 0 0 0 0 0 0 0 0 0 0 0 0 0 0 127 0" result="hardAlpha"/>
<feOffset dy="4"/>
<feGaussianBlur stdDeviation="2.6"/>
<feColorMatrix type="matrix" values="0 0 0 0 0.514 0 0 0 0 0 0 0 0 0 0.756 0 0 0 1 0"/>
<feBlend mode="color-dodge" in2="effect1_dropShadow_204_3107" result="effect2_dropShadow_204_3107"/>
<feBlend mode="normal" in="SourceGraphic" in2="effect2_dropShadow_204_3107" result="shape"/>
<feColorMatrix in="SourceAlpha" type="matrix" values="0 0 0 0 0 0 0 0 0 0 0 0 0 0 0 0 0 0 127 0" result="hardAlpha"/>
<feOffset dx="-0.26" dy="0.52"/>
<feGaussianBlur stdDeviation="0.13"/>
<feComposite in2="hardAlpha" operator="arithmetic" k2="-1" k3="1"/>
<feColorMatrix type="matrix" values="0 0 0 0 1 0 0 0 0 1 0 0 0 0 1 0 0 0 0.5 0"/>
<feBlend mode="normal" in2="shape" result="effect3_innerShadow_204_3107"/>
</filter>
<filter id="filter14_f_204_3107" x="119.8" y="35.8" width="24.9774" height="37.0186" filterUnits="userSpaceOnUse" color-interpolation-filters="sRGB">
<feFlood flood-opacity="0" result="BackgroundImageFix"/>
<feBlend mode="normal" in="SourceGraphic" in2="BackgroundImageFix" result="shape"/>
<feGaussianBlur stdDeviation="0.2" result="effect1_foregroundBlur_204_3107"/>
</filter>
<filter id="filter15_f_204_3107" x="120.333" y="36.3333" width="23.9107" height="35.9519" filterUnits="userSpaceOnUse" color-interpolation-filters="sRGB">
<feFlood flood-opacity="0" result="BackgroundImageFix"/>
<feBlend mode="normal" in="SourceGraphic" in2="BackgroundImageFix" result="shape"/>
<feGaussianBlur stdDeviation="0.133333" result="effect1_foregroundBlur_204_3107"/>
</filter>
<filter id="filter16_f_204_3107" x="42.7" y="32.7" width="47.6722" height="70.2495" filterUnits="userSpaceOnUse" color-interpolation-filters="sRGB">
<feFlood flood-opacity="0" result="BackgroundImageFix"/>
<feBlend mode="normal" in="SourceGraphic" in2="BackgroundImageFix" result="shape"/>
<feGaussianBlur stdDeviation="6" result="effect1_foregroundBlur_204_3107"/>
</filter>
<filter id="filter17_f_204_3107" x="50.2999" y="40.3" width="32.4723" height="55.0494" filterUnits="userSpaceOnUse" color-interpolation-filters="sRGB">
<feFlood flood-opacity="0" result="BackgroundImageFix"/>
<feBlend mode="normal" in="SourceGraphic" in2="BackgroundImageFix" result="shape"/>
<feGaussianBlur stdDeviation="2" result="effect1_foregroundBlur_204_3107"/>
</filter>
<filter id="filter18_ddi_204_3107" x="49.5" y="43.5" width="34.0722" height="56.6495" filterUnits="userSpaceOnUse" color-interpolation-filters="sRGB">
<feFlood flood-opacity="0" result="BackgroundImageFix"/>
<feColorMatrix in="SourceAlpha" type="matrix" values="0 0 0 0 0 0 0 0 0 0 0 0 0 0 0 0 0 0 127 0" result="hardAlpha"/>
<feOffset dy="2.6"/>
<feGaussianBlur stdDeviation="1"/>
<feColorMatrix type="matrix" values="0 0 0 0 0.224 0 0 0 0 0.15 0 0 0 0 0 0 0 0 0.7 0"/>
<feBlend mode="multiply" in2="BackgroundImageFix" result="effect1_dropShadow_204_3107"/>
<feColorMatrix in="SourceAlpha" type="matrix" values="0 0 0 0 0 0 0 0 0 0 0 0 0 0 0 0 0 0 127 0" result="hardAlpha"/>
<feOffset dy="4"/>
<feGaussianBlur stdDeviation="2.6"/>
<feColorMatrix type="matrix" values="0 0 0 0 0.56 0 0 0 0 0.44 0 0 0 0 0 0 0 0 1 0"/>
<feBlend mode="color-dodge" in2="effect1_dropShadow_204_3107" result="effect2_dropShadow_204_3107"/>
<feBlend mode="normal" in="SourceGraphic" in2="effect2_dropShadow_204_3107" result="shape"/>
<feColorMatrix in="SourceAlpha" type="matrix" values="0 0 0 0 0 0 0 0 0 0 0 0 0 0 0 0 0 0 127 0" result="hardAlpha"/>
<feOffset dx="-0.26" dy="0.52"/>
<feGaussianBlur stdDeviation="0.13"/>
<feComposite in2="hardAlpha" operator="arithmetic" k2="-1" k3="1"/>
<feColorMatrix type="matrix" values="0 0 0 0 1 0 0 0 0 1 0 0 0 0 1 0 0 0 0.5 0"/>
<feBlend mode="normal" in2="shape" result="effect3_innerShadow_204_3107"/>
</filter>
<filter id="filter19_f_204_3107" x="54.8" y="44.8" width="23.4722" height="46.0495" filterUnits="userSpaceOnUse" color-interpolation-filters="sRGB">
<feFlood flood-opacity="0" result="BackgroundImageFix"/>
<feBlend mode="normal" in="SourceGraphic" in2="BackgroundImageFix" result="shape"/>
<feGaussianBlur stdDeviation="0.2" result="effect1_foregroundBlur_204_3107"/>
</filter>
<filter id="filter20_f_204_3107" x="55.3333" y="45.3333" width="22.4055" height="44.9828" filterUnits="userSpaceOnUse" color-interpolation-filters="sRGB">
<feFlood flood-opacity="0" result="BackgroundImageFix"/>
<feBlend mode="normal" in="SourceGraphic" in2="BackgroundImageFix" result="shape"/>
<feGaussianBlur stdDeviation="0.133333" result="effect1_foregroundBlur_204_3107"/>
</filter>
<clipPath id="clip0_204_3107">
<rect width="250" height="250" fill="white"/>
</clipPath>
</defs>
</svg>
