<svg width="323" height="228" viewBox="0 0 323 228" fill="none" xmlns="http://www.w3.org/2000/svg">
<g filter="url(#filter0_d_1115_17537)">
<g style="mix-blend-mode:color-burn" opacity="0.76" filter="url(#filter1_d_1115_17537)">
<mask id="path-1-inside-1_1115_17537" fill="white">
<path d="M32.3453 213.214C137.201 224.712 221.271 219.434 293.863 213.214C308.444 211.66 310.616 208.861 313.097 193.311C324.886 120.539 313.097 25.0652 313.097 25.0652C313.097 25.0652 315.579 9.58572 293.863 6.40578C266.254 2.36276 130.996 -5.72278 32.3453 6.40578C9.38867 6.40578 10.2675 19.7784 9.38867 25.0652C7.83785 34.3948 -1.15923 124.271 9.38867 193.311C13.1112 206.062 9.38867 210.697 32.3453 213.214Z"/>
</mask>
<path d="M32.3453 213.214C137.201 224.712 221.271 219.434 293.863 213.214C308.444 211.66 310.616 208.861 313.097 193.311C324.886 120.539 313.097 25.0652 313.097 25.0652C313.097 25.0652 315.579 9.58572 293.863 6.40578C266.254 2.36276 130.996 -5.72278 32.3453 6.40578C9.38867 6.40578 10.2675 19.7784 9.38867 25.0652C7.83785 34.3948 -1.15923 124.271 9.38867 193.311C13.1112 206.062 9.38867 210.697 32.3453 213.214Z" fill="url(#paint0_linear_1115_17537)"/>
<path d="M32.3453 213.214C137.201 224.712 221.271 219.434 293.863 213.214C308.444 211.66 310.616 208.861 313.097 193.311C324.886 120.539 313.097 25.0652 313.097 25.0652C313.097 25.0652 315.579 9.58572 293.863 6.40578C266.254 2.36276 130.996 -5.72278 32.3453 6.40578C9.38867 6.40578 10.2675 19.7784 9.38867 25.0652C7.83785 34.3948 -1.15923 124.271 9.38867 193.311C13.1112 206.062 9.38867 210.697 32.3453 213.214Z" stroke="black" stroke-width="21.0893" mask="url(#path-1-inside-1_1115_17537)"/>
</g>
<mask id="mask0_1115_17537" style="mask-type:alpha" maskUnits="userSpaceOnUse" x="14" y="10" width="294" height="200">
<path d="M26.8366 201.5C123.837 214.5 223.331 208.626 290.837 203C301.337 202.125 301.337 202 302.837 192C313.837 126 302.837 24 302.837 24C302.837 24 302.837 18.3531 293.337 17C267.661 13.3429 124.337 5.00008 31.8366 17C18.8365 17 20.4346 22 19.8365 25.5C18.3943 33.9391 8.83667 131.5 20.3365 194C21.8366 201.5 22.8366 200.964 26.8366 201.5Z" fill="url(#paint1_linear_1115_17537)"/>
</mask>
<g mask="url(#mask0_1115_17537)">
<g opacity="0.1">
<ellipse cx="82.5006" cy="171.785" rx="62.5395" ry="82.2372" fill="#E160BA"/>
<ellipse cx="249.19" cy="180.296" rx="65.694" ry="86.7501" fill="#913776"/>
<ellipse cx="164.553" cy="116.751" rx="79.4628" ry="69.8232" fill="#AC398A"/>
<ellipse cx="263.22" cy="55.5424" rx="88.4774" ry="73.5004" fill="#EA73C6"/>
<g style="mix-blend-mode:color-burn">
<ellipse cx="48.1529" cy="21.6301" rx="74.1253" ry="70.8118" fill="#CF44A5"/>
</g>
</g>
<mask id="mask1_1115_17537" style="mask-type:alpha" maskUnits="userSpaceOnUse" x="18" y="10" width="290" height="198">
<path d="M44.2977 201.008C140.677 211.265 217.953 206.556 284.677 201.008C298.079 199.621 300.075 197.124 302.356 183.252C313.192 118.334 302.356 33.1636 302.356 33.1636C302.356 33.1636 304.638 19.3547 284.677 16.5179C259.299 12.9112 134.974 5.69829 44.2977 16.5179C23.1966 16.5179 24.0044 28.4474 23.1966 33.1636C21.7712 41.4864 13.5013 121.663 23.1966 183.252C26.6183 194.627 23.1966 198.762 44.2977 201.008Z" fill="url(#paint2_linear_1115_17537)" fill-opacity="0.01"/>
</mask>
<g mask="url(#mask1_1115_17537)">
</g>
<g opacity="0.25" filter="url(#filter2_b_1115_17537)">
<mask id="path-9-inside-2_1115_17537" fill="white">
<path d="M32.285 212.816C136.915 224.292 220.806 219.024 293.242 212.816C307.792 211.264 309.958 208.47 312.435 192.949C324.198 120.314 312.435 25.0183 312.435 25.0183C312.435 25.0183 314.911 9.56779 293.242 6.39379C265.692 2.35834 130.724 -5.71207 32.285 6.39379C9.37759 6.39379 10.2545 19.7414 9.37759 25.0183C7.8301 34.3305 -1.14769 124.039 9.37759 192.949C13.0922 205.676 9.37759 210.303 32.285 212.816Z"/>
</mask>
<path d="M32.285 212.816C136.915 224.292 220.806 219.024 293.242 212.816C307.792 211.264 309.958 208.47 312.435 192.949C324.198 120.314 312.435 25.0183 312.435 25.0183C312.435 25.0183 314.911 9.56779 293.242 6.39379C265.692 2.35834 130.724 -5.71207 32.285 6.39379C9.37759 6.39379 10.2545 19.7414 9.37759 25.0183C7.8301 34.3305 -1.14769 124.039 9.37759 192.949C13.0922 205.676 9.37759 210.303 32.285 212.816Z" fill="url(#paint3_linear_1115_17537)"/>
<path d="M32.285 212.816C136.915 224.292 220.806 219.024 293.242 212.816C307.792 211.264 309.958 208.47 312.435 192.949C324.198 120.314 312.435 25.0183 312.435 25.0183C312.435 25.0183 314.911 9.56779 293.242 6.39379C265.692 2.35834 130.724 -5.71207 32.285 6.39379C9.37759 6.39379 10.2545 19.7414 9.37759 25.0183C7.8301 34.3305 -1.14769 124.039 9.37759 192.949C13.0922 205.676 9.37759 210.303 32.285 212.816Z" stroke="black" stroke-opacity="0.01" stroke-width="21.0893" mask="url(#path-9-inside-2_1115_17537)"/>
</g>
<circle cx="161.336" cy="110" r="49" fill="#00A7FF" fill-opacity="0.25"/>
<g filter="url(#filter3_i_1115_17537)">
<path d="M62.5068 178.213H62.999C63.1357 178.213 63.251 178.262 63.3447 178.359C63.4424 178.457 63.4912 178.572 63.4912 178.705C63.4912 178.842 63.4424 178.959 63.3447 179.057C63.251 179.15 63.1357 179.197 62.999 179.197V182.449H66.4678C66.6006 182.449 66.7158 182.5 66.8135 182.602C66.9111 182.699 66.9599 182.816 66.9599 182.953V185.496C66.9599 185.633 66.9092 185.75 66.8076 185.848C66.7099 185.941 66.5928 185.988 66.456 185.988H62.5068C62.3701 185.988 62.251 185.939 62.1494 185.842C62.0517 185.744 62.0029 185.629 62.0029 185.496V178.705C62.0029 178.568 62.0517 178.453 62.1494 178.359C62.247 178.262 62.3662 178.213 62.5068 178.213ZM62.9873 183.445V185.004H65.9638V183.445H62.9873ZM68.3338 185.004H69.8456V179.197H68.3573C68.2206 179.197 68.1034 179.15 68.0057 179.057C67.912 178.959 67.8651 178.842 67.8651 178.705C67.8651 178.568 67.912 178.453 68.0057 178.359C68.1034 178.262 68.2206 178.213 68.3573 178.213H70.8299V185.004H71.8143V182.953C71.8143 182.82 71.8612 182.705 71.9549 182.607C72.0526 182.51 72.1698 182.461 72.3065 182.461C72.4432 182.461 72.5585 182.51 72.6522 182.607C72.7499 182.701 72.7987 182.816 72.7987 182.953V185.496C72.7987 185.633 72.7499 185.75 72.6522 185.848C72.5585 185.941 72.4432 185.988 72.3065 185.988H68.3338C68.1971 185.988 68.0799 185.939 67.9823 185.842C67.8885 185.74 67.8417 185.621 67.8417 185.484C67.8417 185.352 67.8885 185.238 67.9823 185.145C68.0799 185.051 68.1971 185.004 68.3338 185.004ZM78.2156 185.988H73.739V182.59C73.739 182.316 73.8347 182.082 74.0261 181.887C74.2214 181.691 74.4538 181.594 74.7234 181.594H77.7117V179.197H74.196C74.0554 179.197 73.9382 179.15 73.8445 179.057C73.7507 178.959 73.7038 178.842 73.7038 178.705C73.7038 178.568 73.7507 178.453 73.8445 178.359C73.9382 178.262 74.0554 178.213 74.196 178.213H77.7117C77.9851 178.213 78.2195 178.311 78.4148 178.506C78.6101 178.697 78.7078 178.928 78.7078 179.197V181.594C78.7078 181.871 78.6101 182.107 78.4148 182.303C78.2195 182.494 77.9851 182.59 77.7117 182.59H74.7234V185.004H78.2156C78.3484 185.004 78.4636 185.053 78.5613 185.15C78.6589 185.244 78.7078 185.359 78.7078 185.496C78.7078 185.633 78.6589 185.75 78.5613 185.848C78.4636 185.941 78.3484 185.988 78.2156 185.988ZM84.0895 185.988H79.6129V182.59C79.6129 182.316 79.7086 182.082 79.9 181.887C80.0953 181.691 80.3278 181.594 80.5973 181.594H83.5856V179.197H80.0699C79.9293 179.197 79.8121 179.15 79.7184 179.057C79.6246 178.959 79.5778 178.842 79.5778 178.705C79.5778 178.568 79.6246 178.453 79.7184 178.359C79.8121 178.262 79.9293 178.213 80.0699 178.213H83.5856C83.859 178.213 84.0934 178.311 84.2887 178.506C84.484 178.697 84.5817 178.928 84.5817 179.197V181.594C84.5817 181.871 84.484 182.107 84.2887 182.303C84.0934 182.494 83.859 182.59 83.5856 182.59H80.5973V185.004H84.0895C84.2223 185.004 84.3375 185.053 84.4352 185.15C84.5328 185.244 84.5817 185.359 84.5817 185.496C84.5817 185.633 84.5328 185.75 84.4352 185.848C84.3375 185.941 84.2223 185.988 84.0895 185.988ZM85.4751 185.039V179.15C85.4751 178.893 85.5688 178.67 85.7563 178.482C85.9438 178.295 86.1665 178.201 86.4243 178.201H89.4946C89.7485 178.201 89.9673 178.295 90.1509 178.482C90.3384 178.67 90.4321 178.893 90.4321 179.15V185.039C90.4321 185.301 90.3384 185.525 90.1509 185.713C89.9673 185.896 89.7446 185.988 89.4829 185.988H86.4243C86.1587 185.988 85.9341 185.896 85.7505 185.713C85.5669 185.525 85.4751 185.301 85.4751 185.039ZM89.4595 185.004V179.197H86.4595V185.004H89.4595ZM91.349 185.039V179.15C91.349 178.893 91.4427 178.67 91.6302 178.482C91.8177 178.295 92.0404 178.201 92.2982 178.201H95.3685C95.6224 178.201 95.8412 178.295 96.0248 178.482C96.2123 178.67 96.306 178.893 96.306 179.15V185.039C96.306 185.301 96.2123 185.525 96.0248 185.713C95.8412 185.896 95.6185 185.988 95.3568 185.988H92.2982C92.0326 185.988 91.808 185.896 91.6244 185.713C91.4408 185.525 91.349 185.301 91.349 185.039ZM95.3334 185.004V179.197H92.3334V185.004H95.3334ZM100.463 185.496V183.445H97.4983V178.705C97.4983 178.568 97.5471 178.451 97.6448 178.354C97.7463 178.252 97.8655 178.201 98.0022 178.201C98.135 178.201 98.2503 178.252 98.3479 178.354C98.4456 178.451 98.4944 178.568 98.4944 178.705V182.449H100.463V179.566C100.463 179.43 100.51 179.312 100.604 179.215C100.701 179.113 100.819 179.062 100.955 179.062C101.092 179.062 101.207 179.113 101.301 179.215C101.399 179.312 101.448 179.43 101.448 179.566V182.449C101.584 182.449 101.699 182.498 101.793 182.596C101.891 182.689 101.94 182.805 101.94 182.941C101.94 183.078 101.891 183.195 101.793 183.293C101.699 183.387 101.584 183.434 101.448 183.434V185.496C101.448 185.633 101.399 185.75 101.301 185.848C101.203 185.941 101.088 185.988 100.955 185.988C100.819 185.988 100.701 185.941 100.604 185.848C100.51 185.75 100.463 185.633 100.463 185.496ZM107.585 185.988H103.109V182.59C103.109 182.316 103.204 182.082 103.396 181.887C103.591 181.691 103.823 181.594 104.093 181.594H107.081V179.197H103.566C103.425 179.197 103.308 179.15 103.214 179.057C103.12 178.959 103.073 178.842 103.073 178.705C103.073 178.568 103.12 178.453 103.214 178.359C103.308 178.262 103.425 178.213 103.566 178.213H107.081C107.355 178.213 107.589 178.311 107.784 178.506C107.98 178.697 108.077 178.928 108.077 179.197V181.594C108.077 181.871 107.98 182.107 107.784 182.303C107.589 182.494 107.355 182.59 107.081 182.59H104.093V185.004H107.585C107.718 185.004 107.833 185.053 107.931 185.15C108.028 185.244 108.077 185.359 108.077 185.496C108.077 185.633 108.028 185.75 107.931 185.848C107.833 185.941 107.718 185.988 107.585 185.988ZM110.793 185.004H113.072V182.59H110.096V178.213H113.564C113.697 178.213 113.813 178.262 113.91 178.359C114.008 178.457 114.057 178.572 114.057 178.705C114.057 178.842 114.008 178.959 113.91 179.057C113.816 179.15 113.701 179.197 113.564 179.197H111.092V181.605H113.072C113.338 181.605 113.568 181.703 113.764 181.898C113.959 182.094 114.057 182.324 114.057 182.59V185.004C114.057 185.273 113.959 185.506 113.764 185.701C113.572 185.893 113.342 185.988 113.072 185.988H110.793C110.59 185.988 110.373 185.939 110.143 185.842L109.398 185.531C109.199 185.449 109.1 185.293 109.1 185.062C109.1 184.926 109.145 184.811 109.234 184.717C109.324 184.619 109.434 184.57 109.563 184.57C109.66 184.57 109.773 184.6 109.902 184.658L110.553 184.934C110.631 184.98 110.711 185.004 110.793 185.004ZM114.845 185.039V179.15C114.845 178.893 114.938 178.67 115.126 178.482C115.313 178.295 115.536 178.201 115.794 178.201H118.864C119.118 178.201 119.337 178.295 119.52 178.482C119.708 178.67 119.802 178.893 119.802 179.15V185.039C119.802 185.301 119.708 185.525 119.52 185.713C119.337 185.896 119.114 185.988 118.852 185.988H115.794C115.528 185.988 115.304 185.896 115.12 185.713C114.936 185.525 114.845 185.301 114.845 185.039ZM118.829 185.004V179.197H115.829V185.004H118.829ZM125.207 185.988H120.73V182.59C120.73 182.316 120.826 182.082 121.017 181.887C121.213 181.691 121.445 181.594 121.715 181.594H124.703V179.197H121.187C121.047 179.197 120.929 179.15 120.836 179.057C120.742 178.959 120.695 178.842 120.695 178.705C120.695 178.568 120.742 178.453 120.836 178.359C120.929 178.262 121.047 178.213 121.187 178.213H124.703C124.976 178.213 125.211 178.311 125.406 178.506C125.601 178.697 125.699 178.928 125.699 179.197V181.594C125.699 181.871 125.601 182.107 125.406 182.303C125.211 182.494 124.976 182.59 124.703 182.59H121.715V185.004H125.207C125.34 185.004 125.455 185.053 125.553 185.15C125.65 185.244 125.699 185.359 125.699 185.496C125.699 185.633 125.65 185.75 125.553 185.848C125.455 185.941 125.34 185.988 125.207 185.988ZM126.592 179.139V178.717C126.592 178.58 126.639 178.465 126.733 178.371C126.831 178.273 126.948 178.225 127.085 178.225H131.549V181.248C131.549 181.408 131.489 181.541 131.368 181.646L129.557 183.193V185.484C129.557 185.621 129.508 185.74 129.411 185.842C129.317 185.939 129.202 185.988 129.065 185.988C128.928 185.988 128.809 185.939 128.708 185.842C128.61 185.744 128.561 185.629 128.561 185.496V183.012C128.561 182.824 128.62 182.68 128.737 182.578L130.553 181.043V179.209H127.577C127.507 179.49 127.342 179.631 127.085 179.631C126.948 179.631 126.831 179.584 126.733 179.49C126.639 179.393 126.592 179.275 126.592 179.139ZM132.466 179.139V178.717C132.466 178.58 132.513 178.465 132.607 178.371C132.705 178.273 132.822 178.225 132.959 178.225H137.423V181.248C137.423 181.408 137.363 181.541 137.242 181.646L135.431 183.193V185.484C135.431 185.621 135.382 185.74 135.285 185.842C135.191 185.939 135.076 185.988 134.939 185.988C134.802 185.988 134.683 185.939 134.582 185.842C134.484 185.744 134.435 185.629 134.435 185.496V183.012C134.435 182.824 134.494 182.68 134.611 182.578L136.427 181.043V179.209H133.451C133.38 179.49 133.216 179.631 132.959 179.631C132.822 179.631 132.705 179.584 132.607 179.49C132.513 179.393 132.466 179.275 132.466 179.139ZM143.321 179.197V181.043C143.321 181.473 143.188 181.82 142.922 182.086C143.196 182.391 143.332 182.723 143.332 183.082V185.004C143.332 185.273 143.235 185.506 143.039 185.701C142.844 185.893 142.61 185.988 142.336 185.988H138.856C138.719 185.988 138.602 185.941 138.504 185.848C138.411 185.75 138.364 185.633 138.364 185.496C138.364 185.359 138.411 185.244 138.504 185.15C138.602 185.053 138.719 185.004 138.856 185.004H142.325V183.082C142.325 182.945 142.276 182.828 142.178 182.73C142.084 182.629 141.969 182.578 141.832 182.578H139.852C139.715 182.578 139.598 182.531 139.5 182.438C139.407 182.344 139.36 182.227 139.36 182.086C139.36 181.949 139.407 181.834 139.5 181.74C139.598 181.643 139.715 181.594 139.852 181.594H141.844C141.977 181.594 142.092 181.547 142.19 181.453C142.288 181.355 142.336 181.238 142.336 181.102V179.197H138.821C138.684 179.197 138.567 179.15 138.469 179.057C138.375 178.959 138.329 178.842 138.329 178.705C138.329 178.568 138.375 178.453 138.469 178.359C138.567 178.262 138.684 178.213 138.821 178.213H142.336C142.61 178.213 142.842 178.311 143.034 178.506C143.225 178.697 143.321 178.928 143.321 179.197ZM144.214 185.039V179.15C144.214 178.893 144.308 178.67 144.495 178.482C144.683 178.295 144.906 178.201 145.163 178.201H148.234C148.488 178.201 148.706 178.295 148.89 178.482C149.077 178.67 149.171 178.893 149.171 179.15V185.039C149.171 185.301 149.077 185.525 148.89 185.713C148.706 185.896 148.484 185.988 148.222 185.988H145.163C144.898 185.988 144.673 185.896 144.49 185.713C144.306 185.525 144.214 185.301 144.214 185.039ZM148.199 185.004V179.197H145.199V185.004H148.199ZM150.569 185.004H152.08V179.197H150.592C150.455 179.197 150.338 179.15 150.24 179.057C150.147 178.959 150.1 178.842 150.1 178.705C150.1 178.568 150.147 178.453 150.24 178.359C150.338 178.262 150.455 178.213 150.592 178.213H153.065V185.004H154.049V182.953C154.049 182.82 154.096 182.705 154.19 182.607C154.287 182.51 154.404 182.461 154.541 182.461C154.678 182.461 154.793 182.51 154.887 182.607C154.985 182.701 155.033 182.816 155.033 182.953V185.496C155.033 185.633 154.985 185.75 154.887 185.848C154.793 185.941 154.678 185.988 154.541 185.988H150.569C150.432 185.988 150.315 185.939 150.217 185.842C150.123 185.74 150.076 185.621 150.076 185.484C150.076 185.352 150.123 185.238 150.217 185.145C150.315 185.051 150.432 185.004 150.569 185.004ZM157.784 185.004H160.064V182.59H157.087V178.213H160.556C160.689 178.213 160.804 178.262 160.901 178.359C160.999 178.457 161.048 178.572 161.048 178.705C161.048 178.842 160.999 178.959 160.901 179.057C160.808 179.15 160.692 179.197 160.556 179.197H158.083V181.605H160.064C160.329 181.605 160.56 181.703 160.755 181.898C160.95 182.094 161.048 182.324 161.048 182.59V185.004C161.048 185.273 160.95 185.506 160.755 185.701C160.564 185.893 160.333 185.988 160.064 185.988H157.784C157.581 185.988 157.364 185.939 157.134 185.842L156.39 185.531C156.19 185.449 156.091 185.293 156.091 185.062C156.091 184.926 156.136 184.811 156.226 184.717C156.315 184.619 156.425 184.57 156.554 184.57C156.651 184.57 156.765 184.6 156.894 184.658L157.544 184.934C157.622 184.98 157.702 185.004 157.784 185.004ZM161.824 184.992V182.59C161.824 182.32 161.922 182.09 162.117 181.898C162.312 181.703 162.547 181.605 162.82 181.605V178.705C162.82 178.568 162.867 178.453 162.961 178.359C163.055 178.262 163.172 178.213 163.312 178.213H165.316C165.453 178.213 165.568 178.262 165.662 178.359C165.76 178.453 165.809 178.568 165.809 178.705V181.605C166.074 181.605 166.305 181.701 166.5 181.893C166.695 182.08 166.793 182.312 166.793 182.59V185.004C166.793 185.273 166.695 185.506 166.5 185.701C166.305 185.893 166.074 185.988 165.809 185.988H162.82C162.543 185.988 162.307 185.887 162.111 185.684C161.92 185.48 161.824 185.25 161.824 184.992ZM163.805 179.197V181.605H164.824V179.197H163.805ZM162.82 182.59V185.004H165.809V182.59H162.82ZM172.69 179.197V181.043C172.69 181.473 172.557 181.82 172.292 182.086C172.565 182.391 172.702 182.723 172.702 183.082V185.004C172.702 185.273 172.604 185.506 172.409 185.701C172.214 185.893 171.979 185.988 171.706 185.988H168.225C168.089 185.988 167.972 185.941 167.874 185.848C167.78 185.75 167.733 185.633 167.733 185.496C167.733 185.359 167.78 185.244 167.874 185.15C167.972 185.053 168.089 185.004 168.225 185.004H171.694V183.082C171.694 182.945 171.645 182.828 171.548 182.73C171.454 182.629 171.339 182.578 171.202 182.578H169.222C169.085 182.578 168.968 182.531 168.87 182.438C168.776 182.344 168.729 182.227 168.729 182.086C168.729 181.949 168.776 181.834 168.87 181.74C168.968 181.643 169.085 181.594 169.222 181.594H171.214C171.347 181.594 171.462 181.547 171.559 181.453C171.657 181.355 171.706 181.238 171.706 181.102V179.197H168.19C168.054 179.197 167.936 179.15 167.839 179.057C167.745 178.959 167.698 178.842 167.698 178.705C167.698 178.568 167.745 178.453 167.839 178.359C167.936 178.262 168.054 178.213 168.19 178.213H171.706C171.979 178.213 172.212 178.311 172.403 178.506C172.595 178.697 172.69 178.928 172.69 179.197ZM173.572 184.992V182.59C173.572 182.32 173.67 182.09 173.865 181.898C174.06 181.703 174.295 181.605 174.568 181.605V178.705C174.568 178.568 174.615 178.453 174.709 178.359C174.802 178.262 174.92 178.213 175.06 178.213H177.064C177.201 178.213 177.316 178.262 177.41 178.359C177.508 178.453 177.556 178.568 177.556 178.705V181.605C177.822 181.605 178.052 181.701 178.248 181.893C178.443 182.08 178.541 182.312 178.541 182.59V185.004C178.541 185.273 178.443 185.506 178.248 185.701C178.052 185.893 177.822 185.988 177.556 185.988H174.568C174.291 185.988 174.054 185.887 173.859 185.684C173.668 185.48 173.572 185.25 173.572 184.992ZM175.552 179.197V181.605H176.572V179.197H175.552ZM174.568 182.59V185.004H177.556V182.59H174.568ZM182.698 185.496V183.445H179.733V178.705C179.733 178.568 179.782 178.451 179.879 178.354C179.981 178.252 180.1 178.201 180.237 178.201C180.37 178.201 180.485 178.252 180.583 178.354C180.68 178.451 180.729 178.568 180.729 178.705V182.449H182.698V179.566C182.698 179.43 182.745 179.312 182.838 179.215C182.936 179.113 183.053 179.062 183.19 179.062C183.327 179.062 183.442 179.113 183.536 179.215C183.633 179.312 183.682 179.43 183.682 179.566V182.449C183.819 182.449 183.934 182.498 184.028 182.596C184.126 182.689 184.174 182.805 184.174 182.941C184.174 183.078 184.126 183.195 184.028 183.293C183.934 183.387 183.819 183.434 183.682 183.434V185.496C183.682 185.633 183.633 185.75 183.536 185.848C183.438 185.941 183.323 185.988 183.19 185.988C183.053 185.988 182.936 185.941 182.838 185.848C182.745 185.75 182.698 185.633 182.698 185.496ZM185.32 184.992V182.59C185.32 182.32 185.417 182.09 185.613 181.898C185.808 181.703 186.042 181.605 186.316 181.605V178.705C186.316 178.568 186.363 178.453 186.456 178.359C186.55 178.262 186.667 178.213 186.808 178.213H188.812C188.949 178.213 189.064 178.262 189.158 178.359C189.255 178.453 189.304 178.568 189.304 178.705V181.605C189.57 181.605 189.8 181.701 189.996 181.893C190.191 182.08 190.289 182.312 190.289 182.59V185.004C190.289 185.273 190.191 185.506 189.996 185.701C189.8 185.893 189.57 185.988 189.304 185.988H186.316C186.039 185.988 185.802 185.887 185.607 185.684C185.415 185.48 185.32 185.25 185.32 184.992ZM187.3 179.197V181.605H188.32V179.197H187.3ZM186.316 182.59V185.004H189.304V182.59H186.316ZM191.205 185.039V179.15C191.205 178.893 191.299 178.67 191.487 178.482C191.674 178.295 191.897 178.201 192.155 178.201H195.225C195.479 178.201 195.698 178.295 195.881 178.482C196.069 178.67 196.162 178.893 196.162 179.15V185.039C196.162 185.301 196.069 185.525 195.881 185.713C195.698 185.896 195.475 185.988 195.213 185.988H192.155C191.889 185.988 191.664 185.896 191.481 185.713C191.297 185.525 191.205 185.301 191.205 185.039ZM195.19 185.004V179.197H192.19V185.004H195.19ZM197.068 184.992V182.59C197.068 182.32 197.165 182.09 197.361 181.898C197.556 181.703 197.79 181.605 198.064 181.605V178.705C198.064 178.568 198.111 178.453 198.204 178.359C198.298 178.262 198.415 178.213 198.556 178.213H200.56C200.697 178.213 200.812 178.262 200.905 178.359C201.003 178.453 201.052 178.568 201.052 178.705V181.605C201.318 181.605 201.548 181.701 201.743 181.893C201.939 182.08 202.036 182.312 202.036 182.59V185.004C202.036 185.273 201.939 185.506 201.743 185.701C201.548 185.893 201.318 185.988 201.052 185.988H198.064C197.786 185.988 197.55 185.887 197.355 185.684C197.163 185.48 197.068 185.25 197.068 184.992ZM199.048 179.197V181.605H200.068V179.197H199.048ZM198.064 182.59V185.004H201.052V182.59H198.064ZM207.441 185.988H202.965V182.59C202.965 182.316 203.061 182.082 203.252 181.887C203.447 181.691 203.68 181.594 203.949 181.594H206.938V179.197H203.422C203.281 179.197 203.164 179.15 203.07 179.057C202.977 178.959 202.93 178.842 202.93 178.705C202.93 178.568 202.977 178.453 203.07 178.359C203.164 178.262 203.281 178.213 203.422 178.213H206.938C207.211 178.213 207.445 178.311 207.641 178.506C207.836 178.697 207.934 178.928 207.934 179.197V181.594C207.934 181.871 207.836 182.107 207.641 182.303C207.445 182.494 207.211 182.59 206.938 182.59H203.949V185.004H207.441C207.574 185.004 207.69 185.053 207.787 185.15C207.885 185.244 207.934 185.359 207.934 185.496C207.934 185.633 207.885 185.75 207.787 185.848C207.69 185.941 207.574 185.988 207.441 185.988ZM209.308 185.004H210.819V179.197H209.331C209.194 179.197 209.077 179.15 208.979 179.057C208.886 178.959 208.839 178.842 208.839 178.705C208.839 178.568 208.886 178.453 208.979 178.359C209.077 178.262 209.194 178.213 209.331 178.213H211.804V185.004H212.788V182.953C212.788 182.82 212.835 182.705 212.929 182.607C213.026 182.51 213.144 182.461 213.28 182.461C213.417 182.461 213.532 182.51 213.626 182.607C213.724 182.701 213.772 182.816 213.772 182.953V185.496C213.772 185.633 213.724 185.75 213.626 185.848C213.532 185.941 213.417 185.988 213.28 185.988H209.308C209.171 185.988 209.054 185.939 208.956 185.842C208.862 185.74 208.815 185.621 208.815 185.484C208.815 185.352 208.862 185.238 208.956 185.145C209.054 185.051 209.171 185.004 209.308 185.004ZM219.189 185.988H214.713V182.59C214.713 182.316 214.808 182.082 215 181.887C215.195 181.691 215.428 181.594 215.697 181.594H218.685V179.197H215.17C215.029 179.197 214.912 179.15 214.818 179.057C214.724 178.959 214.678 178.842 214.678 178.705C214.678 178.568 214.724 178.453 214.818 178.359C214.912 178.262 215.029 178.213 215.17 178.213H218.685C218.959 178.213 219.193 178.311 219.389 178.506C219.584 178.697 219.681 178.928 219.681 179.197V181.594C219.681 181.871 219.584 182.107 219.389 182.303C219.193 182.494 218.959 182.59 218.685 182.59H215.697V185.004H219.189C219.322 185.004 219.437 185.053 219.535 185.15C219.633 185.244 219.681 185.359 219.681 185.496C219.681 185.633 219.633 185.75 219.535 185.848C219.437 185.941 219.322 185.988 219.189 185.988ZM222.397 185.004H224.677V182.59H221.7V178.213H225.169C225.302 178.213 225.417 178.262 225.514 178.359C225.612 178.457 225.661 178.572 225.661 178.705C225.661 178.842 225.612 178.959 225.514 179.057C225.421 179.15 225.305 179.197 225.169 179.197H222.696V181.605H224.677C224.942 181.605 225.173 181.703 225.368 181.898C225.563 182.094 225.661 182.324 225.661 182.59V185.004C225.661 185.273 225.563 185.506 225.368 185.701C225.177 185.893 224.946 185.988 224.677 185.988H222.397C222.194 185.988 221.977 185.939 221.747 185.842L221.003 185.531C220.803 185.449 220.704 185.293 220.704 185.062C220.704 184.926 220.749 184.811 220.839 184.717C220.928 184.619 221.038 184.57 221.167 184.57C221.264 184.57 221.378 184.6 221.507 184.658L222.157 184.934C222.235 184.98 222.315 185.004 222.397 185.004ZM226.929 185.004H228.441V179.197H226.953C226.816 179.197 226.699 179.15 226.601 179.057C226.507 178.959 226.461 178.842 226.461 178.705C226.461 178.568 226.507 178.453 226.601 178.359C226.699 178.262 226.816 178.213 226.953 178.213H229.425V185.004H230.41V182.953C230.41 182.82 230.457 182.705 230.55 182.607C230.648 182.51 230.765 182.461 230.902 182.461C231.039 182.461 231.154 182.51 231.248 182.607C231.345 182.701 231.394 182.816 231.394 182.953V185.496C231.394 185.633 231.345 185.75 231.248 185.848C231.154 185.941 231.039 185.988 230.902 185.988H226.929C226.793 185.988 226.675 185.939 226.578 185.842C226.484 185.74 226.437 185.621 226.437 185.484C226.437 185.352 226.484 185.238 226.578 185.145C226.675 185.051 226.793 185.004 226.929 185.004ZM232.311 184.992V182.59C232.311 182.32 232.409 182.09 232.604 181.898C232.799 181.703 233.034 181.605 233.307 181.605V178.705C233.307 178.568 233.354 178.453 233.448 178.359C233.542 178.262 233.659 178.213 233.799 178.213H235.803C235.94 178.213 236.055 178.262 236.149 178.359C236.247 178.453 236.295 178.568 236.295 178.705V181.605C236.561 181.605 236.792 181.701 236.987 181.893C237.182 182.08 237.28 182.312 237.28 182.59V185.004C237.28 185.273 237.182 185.506 236.987 185.701C236.792 185.893 236.561 185.988 236.295 185.988H233.307C233.03 185.988 232.793 185.887 232.598 185.684C232.407 185.48 232.311 185.25 232.311 184.992ZM234.292 179.197V181.605H235.311V179.197H234.292ZM233.307 182.59V185.004H236.295V182.59H233.307ZM240.019 185.004H242.298V182.59H239.322V178.213H242.79C242.923 178.213 243.038 178.262 243.136 178.359C243.234 178.457 243.283 178.572 243.283 178.705C243.283 178.842 243.234 178.959 243.136 179.057C243.042 179.15 242.927 179.197 242.79 179.197H240.318V181.605H242.298C242.564 181.605 242.794 181.703 242.99 181.898C243.185 182.094 243.283 182.324 243.283 182.59V185.004C243.283 185.273 243.185 185.506 242.99 185.701C242.798 185.893 242.568 185.988 242.298 185.988H240.019C239.816 185.988 239.599 185.939 239.369 185.842L238.624 185.531C238.425 185.449 238.326 185.293 238.326 185.062C238.326 184.926 238.37 184.811 238.46 184.717C238.55 184.619 238.66 184.57 238.788 184.57C238.886 184.57 238.999 184.6 239.128 184.658L239.779 184.934C239.857 184.98 239.937 185.004 240.019 185.004ZM248.559 185.977H248.067C247.934 185.977 247.819 185.93 247.721 185.836C247.623 185.738 247.574 185.621 247.574 185.484C247.574 185.348 247.621 185.232 247.715 185.139C247.813 185.041 247.93 184.992 248.067 184.992V181.74H244.598C244.465 181.74 244.35 181.691 244.252 181.594C244.155 181.496 244.106 181.381 244.106 181.248V178.693C244.106 178.561 244.155 178.445 244.252 178.348C244.35 178.25 244.465 178.201 244.598 178.201H248.559C248.692 178.201 248.807 178.25 248.905 178.348C249.002 178.445 249.051 178.561 249.051 178.693V185.484C249.051 185.621 249.002 185.738 248.905 185.836C248.811 185.93 248.696 185.977 248.559 185.977ZM248.078 180.744V179.197H245.09V180.744H248.078ZM249.944 179.139V178.717C249.944 178.58 249.991 178.465 250.085 178.371C250.183 178.273 250.3 178.225 250.437 178.225H254.901V181.248C254.901 181.408 254.841 181.541 254.72 181.646L252.909 183.193V185.484C252.909 185.621 252.86 185.74 252.763 185.842C252.669 185.939 252.554 185.988 252.417 185.988C252.28 185.988 252.161 185.939 252.06 185.842C251.962 185.744 251.913 185.629 251.913 185.496V183.012C251.913 182.824 251.972 182.68 252.089 182.578L253.905 181.043V179.209H250.929C250.859 179.49 250.694 179.631 250.437 179.631C250.3 179.631 250.183 179.584 250.085 179.49C249.991 179.393 249.944 179.275 249.944 179.139ZM256.299 185.004H257.811V179.197H256.322C256.186 179.197 256.068 179.15 255.971 179.057C255.877 178.959 255.83 178.842 255.83 178.705C255.83 178.568 255.877 178.453 255.971 178.359C256.068 178.262 256.186 178.213 256.322 178.213H258.795V185.004H259.779V182.953C259.779 182.82 259.826 182.705 259.92 182.607C260.018 182.51 260.135 182.461 260.272 182.461C260.408 182.461 260.523 182.51 260.617 182.607C260.715 182.701 260.764 182.816 260.764 182.953V185.496C260.764 185.633 260.715 185.75 260.617 185.848C260.523 185.941 260.408 185.988 260.272 185.988H256.299C256.162 185.988 256.045 185.939 255.947 185.842C255.854 185.74 255.807 185.621 255.807 185.484C255.807 185.352 255.854 185.238 255.947 185.145C256.045 185.051 256.162 185.004 256.299 185.004Z" fill="#852B9C"/>
</g>
<g style="mix-blend-mode:hard-light" filter="url(#filter4_f_1115_17537)">
<circle cx="161.337" cy="108" r="58.8" fill="#FF3780" fill-opacity="0.139"/>
</g>
<g style="mix-blend-mode:hard-light" filter="url(#filter5_f_1115_17537)">
<circle cx="161.336" cy="108" r="47.6729" stroke="#F32E7C" stroke-width="2.65417"/>
</g>
<g style="mix-blend-mode:hard-light" filter="url(#filter6_f_1115_17537)">
<circle cx="161.336" cy="108" r="47.2646" stroke="#FF26C2" stroke-width="3.47083"/>
</g>
<g style="mix-blend-mode:hard-light" filter="url(#filter7_ddi_1115_17537)">
<circle cx="161.336" cy="108" r="47.6729" stroke="#FB37FF" stroke-opacity="0.2" stroke-width="2.65417"/>
</g>
<g filter="url(#filter8_f_1115_17537)">
<circle cx="161.336" cy="108" r="48.1833" stroke="#FB37FF" stroke-width="1.63333"/>
</g>
<g filter="url(#filter9_f_1115_17537)">
<circle cx="161.336" cy="108" r="48.5917" stroke="white" stroke-width="0.816667"/>
</g>
</g>
<path d="M118.781 117H124.485C125.344 117 126.118 116.903 126.805 116.71C127.493 116.517 128.076 116.227 128.556 115.84C129.036 115.453 129.405 114.973 129.662 114.4C129.92 113.827 130.049 113.165 130.049 112.413C130.049 112.019 129.995 111.64 129.888 111.274C129.788 110.902 129.63 110.558 129.415 110.243C129.208 109.95 128.95 109.692 128.642 109.47C128.341 109.248 127.933 109.065 127.417 108.922V108.911C127.682 108.811 127.922 108.689 128.137 108.546C128.359 108.403 128.556 108.245 128.728 108.073C129.043 107.758 129.279 107.393 129.437 106.978C129.602 106.555 129.688 106.107 129.695 105.635C129.695 104.904 129.559 104.271 129.286 103.733C129.022 103.196 128.642 102.752 128.148 102.401C127.654 102.05 127.056 101.789 126.354 101.617C125.659 101.445 124.886 101.359 124.034 101.359H118.781V117ZM121.81 110.104H124.624C125.047 110.111 125.412 110.168 125.72 110.275C126.028 110.383 126.279 110.537 126.472 110.737C126.665 110.931 126.805 111.167 126.891 111.446C126.984 111.726 127.031 112.041 127.031 112.392C127.031 112.728 126.97 113.033 126.848 113.305C126.733 113.577 126.562 113.81 126.332 114.003C126.125 114.175 125.863 114.311 125.548 114.411C125.24 114.511 124.889 114.562 124.495 114.562H121.81V110.104ZM121.81 107.923V103.819H124.044C124.531 103.826 124.954 103.88 125.312 103.98C125.677 104.081 125.967 104.242 126.182 104.464C126.347 104.621 126.468 104.818 126.547 105.055C126.633 105.291 126.676 105.567 126.676 105.882C126.676 106.183 126.626 106.451 126.526 106.688C126.433 106.924 126.297 107.124 126.118 107.289C125.903 107.497 125.62 107.654 125.269 107.762C124.918 107.862 124.513 107.916 124.055 107.923H121.81ZM136.442 111.156L139.385 117H142.618V116.86L139.256 110.404C139.686 110.211 140.072 109.982 140.416 109.717C140.767 109.452 141.068 109.14 141.319 108.782C141.562 108.431 141.748 108.034 141.877 107.59C142.013 107.139 142.081 106.634 142.081 106.075C142.081 105.302 141.945 104.621 141.673 104.034C141.408 103.447 141.029 102.956 140.534 102.562C140.033 102.169 139.432 101.871 138.73 101.671C138.028 101.463 137.244 101.359 136.377 101.359H131.135V117H134.154V111.156H136.442ZM134.154 108.707V103.809H136.377C136.793 103.809 137.161 103.859 137.484 103.959C137.806 104.059 138.078 104.202 138.3 104.389C138.551 104.596 138.737 104.861 138.859 105.184C138.988 105.499 139.052 105.864 139.052 106.279C139.052 106.623 139.002 106.935 138.902 107.214C138.809 107.493 138.669 107.733 138.483 107.934C138.261 108.184 137.971 108.378 137.613 108.514C137.262 108.643 136.853 108.707 136.388 108.707H134.154ZM144.134 101.359V103.798H147.109V114.572H144.134V117H153.179V114.572H150.128V103.798H153.179V101.359H144.134ZM155.736 117H159.937C160.631 117 161.283 116.914 161.892 116.742C162.507 116.57 163.07 116.323 163.578 116.001C164.015 115.729 164.416 115.392 164.781 114.991C165.146 114.583 165.465 114.139 165.737 113.659C166.024 113.122 166.246 112.531 166.403 111.887C166.561 111.242 166.64 110.558 166.64 109.835V108.546C166.64 107.794 166.554 107.085 166.382 106.419C166.217 105.753 165.981 105.144 165.673 104.593C165.408 104.142 165.096 103.726 164.738 103.347C164.387 102.96 163.986 102.634 163.535 102.369C163.02 102.047 162.447 101.8 161.816 101.628C161.186 101.449 160.509 101.359 159.786 101.359H155.736V117ZM158.776 103.809H159.786C160.151 103.809 160.488 103.852 160.796 103.938C161.111 104.016 161.397 104.131 161.655 104.281C161.992 104.482 162.285 104.74 162.536 105.055C162.794 105.37 163.002 105.728 163.159 106.129C163.288 106.465 163.385 106.838 163.449 107.246C163.521 107.647 163.557 108.073 163.557 108.524V109.835C163.557 110.315 163.521 110.762 163.449 111.178C163.385 111.586 163.288 111.958 163.159 112.295C163.002 112.682 162.812 113.022 162.59 113.315C162.375 113.602 162.132 113.838 161.859 114.024C161.594 114.203 161.301 114.34 160.979 114.433C160.656 114.526 160.309 114.572 159.937 114.572H158.776V103.809ZM178.887 115.174L178.876 109.008H173.279V111.264H175.868L175.857 114.1C175.779 114.193 175.66 114.282 175.503 114.368C175.352 114.447 175.177 114.519 174.976 114.583C174.776 114.647 174.561 114.698 174.332 114.733C174.103 114.769 173.87 114.787 173.634 114.787C173.247 114.78 172.9 114.719 172.592 114.604C172.291 114.483 172.026 114.307 171.797 114.078C171.661 113.942 171.535 113.788 171.421 113.616C171.313 113.437 171.217 113.244 171.131 113.036C170.995 112.678 170.887 112.266 170.808 111.801C170.737 111.335 170.701 110.82 170.701 110.254V108.105C170.701 107.654 170.726 107.235 170.776 106.849C170.834 106.462 170.912 106.111 171.013 105.796C171.141 105.388 171.303 105.033 171.496 104.732C171.696 104.432 171.919 104.188 172.162 104.002C172.348 103.866 172.549 103.762 172.764 103.69C172.978 103.619 173.2 103.583 173.43 103.583C173.852 103.583 174.214 103.64 174.515 103.755C174.822 103.862 175.077 104.027 175.277 104.249C175.456 104.45 175.596 104.697 175.696 104.99C175.804 105.284 175.882 105.62 175.932 106H178.876C178.797 105.248 178.629 104.571 178.371 103.97C178.12 103.368 177.769 102.856 177.318 102.434C176.867 102.018 176.312 101.7 175.653 101.478C175.002 101.256 174.235 101.145 173.354 101.145C172.781 101.145 172.237 101.223 171.722 101.381C171.206 101.538 170.73 101.771 170.293 102.079C169.92 102.351 169.577 102.674 169.262 103.046C168.954 103.418 168.682 103.837 168.445 104.303C168.195 104.826 168.001 105.409 167.865 106.054C167.729 106.691 167.661 107.382 167.661 108.127V110.254C167.661 111.035 167.729 111.758 167.865 112.424C168.008 113.09 168.216 113.688 168.488 114.218C168.724 114.698 169.011 115.124 169.348 115.496C169.691 115.868 170.071 116.184 170.486 116.441C170.909 116.692 171.371 116.882 171.872 117.011C172.38 117.147 172.921 117.215 173.494 117.215C174.153 117.215 174.769 117.154 175.342 117.032C175.915 116.91 176.434 116.749 176.899 116.549C177.358 116.355 177.755 116.137 178.092 115.894C178.428 115.65 178.693 115.41 178.887 115.174ZM190.092 110.146V107.762H183.668V103.819H191.144V101.359H180.638V117H191.177V114.562H183.668V110.146H190.092ZM200.921 112.918C200.921 113.197 200.863 113.455 200.749 113.691C200.634 113.921 200.469 114.118 200.255 114.282C200.04 114.447 199.775 114.576 199.46 114.669C199.152 114.762 198.797 114.809 198.396 114.809C197.945 114.809 197.53 114.758 197.15 114.658C196.778 114.558 196.459 114.4 196.194 114.186C195.922 113.971 195.711 113.695 195.56 113.358C195.41 113.022 195.327 112.617 195.313 112.145H192.348C192.348 112.954 192.502 113.659 192.81 114.261C193.125 114.862 193.551 115.385 194.089 115.829C194.654 116.28 195.317 116.624 196.076 116.86C196.842 117.09 197.616 117.204 198.396 117.204C199.191 117.204 199.925 117.111 200.598 116.925C201.271 116.731 201.852 116.449 202.339 116.076C202.825 115.711 203.205 115.263 203.477 114.733C203.756 114.196 203.896 113.584 203.896 112.896C203.896 112.102 203.714 111.4 203.348 110.791C202.983 110.182 202.492 109.649 201.877 109.19C201.468 108.911 201.021 108.664 200.534 108.449C200.047 108.234 199.535 108.052 198.998 107.901C198.496 107.765 198.045 107.618 197.644 107.461C197.25 107.303 196.914 107.128 196.634 106.935C196.355 106.748 196.14 106.537 195.99 106.301C195.847 106.064 195.775 105.799 195.775 105.506C195.775 105.227 195.829 104.969 195.936 104.732C196.051 104.489 196.215 104.278 196.43 104.099C196.645 103.927 196.907 103.794 197.214 103.701C197.53 103.601 197.888 103.551 198.289 103.551C198.726 103.551 199.105 103.612 199.427 103.733C199.757 103.848 200.033 104.009 200.255 104.217C200.469 104.432 200.631 104.686 200.738 104.979C200.853 105.273 200.917 105.595 200.931 105.946H203.875C203.875 105.244 203.739 104.6 203.466 104.013C203.194 103.425 202.815 102.917 202.328 102.487C201.841 102.065 201.257 101.735 200.577 101.499C199.904 101.263 199.159 101.145 198.342 101.145C197.555 101.145 196.824 101.248 196.151 101.456C195.478 101.657 194.894 101.947 194.4 102.326C193.906 102.706 193.519 103.164 193.24 103.701C192.961 104.238 192.821 104.836 192.821 105.495C192.821 106.068 192.925 106.598 193.132 107.085C193.347 107.572 193.662 108.016 194.078 108.417C194.493 108.818 195.027 109.187 195.678 109.523C196.337 109.86 197.1 110.146 197.966 110.383C198.525 110.533 198.991 110.698 199.363 110.877C199.742 111.049 200.05 111.239 200.287 111.446C200.516 111.661 200.677 111.89 200.77 112.134C200.87 112.377 200.921 112.639 200.921 112.918Z" fill="#F5F5F7"/>
</g>
<defs>
<filter id="filter0_d_1115_17537" x="0.33667" y="0" width="322" height="228" filterUnits="userSpaceOnUse" color-interpolation-filters="sRGB">
<feFlood flood-opacity="0" result="BackgroundImageFix"/>
<feColorMatrix in="SourceAlpha" type="matrix" values="0 0 0 0 0 0 0 0 0 0 0 0 0 0 0 0 0 0 127 0" result="hardAlpha"/>
<feOffset dy="4"/>
<feGaussianBlur stdDeviation="2"/>
<feComposite in2="hardAlpha" operator="out"/>
<feColorMatrix type="matrix" values="0 0 0 0 0 0 0 0 0 0 0 0 0 0 0 0 0 0 0.25 0"/>
<feBlend mode="normal" in2="BackgroundImageFix" result="effect1_dropShadow_1115_17537"/>
<feBlend mode="normal" in="SourceGraphic" in2="effect1_dropShadow_1115_17537" result="shape"/>
</filter>
<filter id="filter1_d_1115_17537" x="1.85557" y="0" width="318.962" height="224.962" filterUnits="userSpaceOnUse" color-interpolation-filters="sRGB">
<feFlood flood-opacity="0" result="BackgroundImageFix"/>
<feColorMatrix in="SourceAlpha" type="matrix" values="0 0 0 0 0 0 0 0 0 0 0 0 0 0 0 0 0 0 127 0" result="hardAlpha"/>
<feOffset dy="2.4811"/>
<feGaussianBlur stdDeviation="1.24055"/>
<feComposite in2="hardAlpha" operator="out"/>
<feColorMatrix type="matrix" values="0 0 0 0 0 0 0 0 0 0 0 0 0 0 0 0 0 0 0.25 0"/>
<feBlend mode="normal" in2="BackgroundImageFix" result="effect1_dropShadow_1115_17537"/>
<feBlend mode="normal" in="SourceGraphic" in2="effect1_dropShadow_1115_17537" result="shape"/>
</filter>
<filter id="filter2_b_1115_17537" x="-102.325" y="-106.662" width="526.65" height="432.912" filterUnits="userSpaceOnUse" color-interpolation-filters="sRGB">
<feFlood flood-opacity="0" result="BackgroundImageFix"/>
<feGaussianBlur in="BackgroundImage" stdDeviation="53.3309"/>
<feComposite in2="SourceAlpha" operator="in" result="effect1_backgroundBlur_1115_17537"/>
<feBlend mode="normal" in="SourceGraphic" in2="effect1_backgroundBlur_1115_17537" result="shape"/>
</filter>
<filter id="filter3_i_1115_17537" x="62.0029" y="178.201" width="198.761" height="8.78711" filterUnits="userSpaceOnUse" color-interpolation-filters="sRGB">
<feFlood flood-opacity="0" result="BackgroundImageFix"/>
<feBlend mode="normal" in="SourceGraphic" in2="BackgroundImageFix" result="shape"/>
<feColorMatrix in="SourceAlpha" type="matrix" values="0 0 0 0 0 0 0 0 0 0 0 0 0 0 0 0 0 0 127 0" result="hardAlpha"/>
<feOffset dy="1"/>
<feGaussianBlur stdDeviation="0.5"/>
<feComposite in2="hardAlpha" operator="arithmetic" k2="-1" k3="1"/>
<feColorMatrix type="matrix" values="0 0 0 0 0 0 0 0 0 0 0 0 0 0 0 0 0 0 0.25 0"/>
<feBlend mode="normal" in2="shape" result="effect1_innerShadow_1115_17537"/>
</filter>
<filter id="filter4_f_1115_17537" x="94.0229" y="40.6862" width="134.628" height="134.627" filterUnits="userSpaceOnUse" color-interpolation-filters="sRGB">
<feFlood flood-opacity="0" result="BackgroundImageFix"/>
<feBlend mode="normal" in="SourceGraphic" in2="BackgroundImageFix" result="shape"/>
<feGaussianBlur stdDeviation="4.25688" result="effect1_foregroundBlur_1115_17537"/>
</filter>
<filter id="filter5_f_1115_17537" x="103.823" y="50.4862" width="115.028" height="115.028" filterUnits="userSpaceOnUse" color-interpolation-filters="sRGB">
<feFlood flood-opacity="0" result="BackgroundImageFix"/>
<feBlend mode="normal" in="SourceGraphic" in2="BackgroundImageFix" result="shape"/>
<feGaussianBlur stdDeviation="4.25688" result="effect1_foregroundBlur_1115_17537"/>
</filter>
<filter id="filter6_f_1115_17537" x="109.499" y="56.1621" width="103.676" height="103.676" filterUnits="userSpaceOnUse" color-interpolation-filters="sRGB">
<feFlood flood-opacity="0" result="BackgroundImageFix"/>
<feBlend mode="normal" in="SourceGraphic" in2="BackgroundImageFix" result="shape"/>
<feGaussianBlur stdDeviation="1.41896" result="effect1_foregroundBlur_1115_17537"/>
</filter>
<filter id="filter7_ddi_1115_17537" x="108.647" y="58.1486" width="105.379" height="105.379" filterUnits="userSpaceOnUse" color-interpolation-filters="sRGB">
<feFlood flood-opacity="0" result="BackgroundImageFix"/>
<feColorMatrix in="SourceAlpha" type="matrix" values="0 0 0 0 0 0 0 0 0 0 0 0 0 0 0 0 0 0 127 0" result="hardAlpha"/>
<feOffset dy="2.65417"/>
<feGaussianBlur stdDeviation="1.02083"/>
<feColorMatrix type="matrix" values="0 0 0 0 0.3 0 0 0 0 0 0 0 0 0 0.26 0 0 0 0.7 0"/>
<feBlend mode="multiply" in2="BackgroundImageFix" result="effect1_dropShadow_1115_17537"/>
<feColorMatrix in="SourceAlpha" type="matrix" values="0 0 0 0 0 0 0 0 0 0 0 0 0 0 0 0 0 0 127 0" result="hardAlpha"/>
<feOffset dy="2.83792"/>
<feGaussianBlur stdDeviation="1.84465"/>
<feColorMatrix type="matrix" values="0 0 0 0 0.6 0 0 0 0 0 0 0 0 0 0.6 0 0 0 1 0"/>
<feBlend mode="color-dodge" in2="effect1_dropShadow_1115_17537" result="effect2_dropShadow_1115_17537"/>
<feBlend mode="normal" in="SourceGraphic" in2="effect2_dropShadow_1115_17537" result="shape"/>
<feColorMatrix in="SourceAlpha" type="matrix" values="0 0 0 0 0 0 0 0 0 0 0 0 0 0 0 0 0 0 127 0" result="hardAlpha"/>
<feOffset dx="-0.265417" dy="0.530833"/>
<feGaussianBlur stdDeviation="0.132708"/>
<feComposite in2="hardAlpha" operator="arithmetic" k2="-1" k3="1"/>
<feColorMatrix type="matrix" values="0 0 0 0 1 0 0 0 0 1 0 0 0 0 1 0 0 0 0.5 0"/>
<feBlend mode="normal" in2="shape" result="effect3_innerShadow_1115_17537"/>
</filter>
<filter id="filter8_f_1115_17537" x="111.928" y="58.5917" width="98.8167" height="98.8167" filterUnits="userSpaceOnUse" color-interpolation-filters="sRGB">
<feFlood flood-opacity="0" result="BackgroundImageFix"/>
<feBlend mode="normal" in="SourceGraphic" in2="BackgroundImageFix" result="shape"/>
<feGaussianBlur stdDeviation="0.204167" result="effect1_foregroundBlur_1115_17537"/>
</filter>
<filter id="filter9_f_1115_17537" x="112.064" y="58.7278" width="98.5444" height="98.5444" filterUnits="userSpaceOnUse" color-interpolation-filters="sRGB">
<feFlood flood-opacity="0" result="BackgroundImageFix"/>
<feBlend mode="normal" in="SourceGraphic" in2="BackgroundImageFix" result="shape"/>
<feGaussianBlur stdDeviation="0.136111" result="effect1_foregroundBlur_1115_17537"/>
</filter>
<linearGradient id="paint0_linear_1115_17537" x1="4.33666" y1="231.786" x2="356.19" y2="105.299" gradientUnits="userSpaceOnUse">
<stop stop-color="#3D2935"/>
<stop offset="1" stop-color="#DE0682"/>
</linearGradient>
<linearGradient id="paint1_linear_1115_17537" x1="162.566" y1="182.303" x2="78.4828" y2="-16.2372" gradientUnits="userSpaceOnUse">
<stop stop-color="#223E7B"/>
<stop offset="1" stop-color="#3461BE"/>
</linearGradient>
<linearGradient id="paint2_linear_1115_17537" x1="177.104" y1="173.957" x2="177.104" y2="39.1781" gradientUnits="userSpaceOnUse">
<stop offset="0.0078125" stop-color="#9C4EA6"/>
<stop offset="0.304688" stop-color="#BA2C96"/>
<stop offset="0.627604" stop-color="#D01389"/>
<stop offset="0.981771" stop-color="#DD0582"/>
</linearGradient>
<linearGradient id="paint3_linear_1115_17537" x1="162.424" y1="189.703" x2="67.2772" y2="-27.5635" gradientUnits="userSpaceOnUse">
<stop stop-color="#223E7B"/>
<stop offset="1" stop-color="#3461BE"/>
</linearGradient>
</defs>
</svg>
