<svg width="322" height="228" viewBox="0 0 322 228" fill="none" xmlns="http://www.w3.org/2000/svg">
<g filter="url(#filter0_d_1115_17693)">
<g opacity="0.8">
<g filter="url(#filter1_iii_1115_17693)">
<path d="M32.2855 213.021C136.916 224.498 220.806 219.23 293.243 213.021C307.792 211.469 309.959 208.676 312.435 193.155C324.199 120.52 312.435 25.2241 312.435 25.2241C312.435 25.2241 314.912 9.7736 293.243 6.5996C265.692 2.56415 130.725 -5.50626 32.2855 6.5996C9.37808 6.5996 10.255 19.9472 9.37808 25.2241C7.83059 34.5363 -1.1472 124.244 9.37808 193.155C13.0927 205.882 9.37808 210.509 32.2855 213.021Z" fill="#8D9842"/>
<path d="M32.2855 213.021C136.916 224.498 220.806 219.23 293.243 213.021C307.792 211.469 309.959 208.676 312.435 193.155C324.199 120.52 312.435 25.2241 312.435 25.2241C312.435 25.2241 314.912 9.7736 293.243 6.5996C265.692 2.56415 130.725 -5.50626 32.2855 6.5996C9.37808 6.5996 10.255 19.9472 9.37808 25.2241C7.83059 34.5363 -1.1472 124.244 9.37808 193.155C13.0927 205.882 9.37808 210.509 32.2855 213.021Z" fill="#7BB542" fill-opacity="0.6"/>
</g>
<path d="M308.487 192.516L308.485 192.525C307.87 196.382 307.307 199.218 306.623 201.386C305.949 203.523 305.232 204.76 304.456 205.583C302.918 207.214 300.207 208.253 292.859 209.04C220.526 215.238 136.949 220.477 32.7216 209.045C27.0829 208.427 23.3593 207.703 20.8398 206.856C18.3839 206.03 17.3532 205.179 16.783 204.451C16.1508 203.645 15.7056 202.523 15.1969 200.36C15.0644 199.796 14.9247 199.144 14.7702 198.424C14.3984 196.689 13.9411 194.556 13.2932 192.295C2.91406 123.973 11.8204 34.9279 13.324 25.8798C13.4568 25.0807 13.5525 24.2977 13.6464 23.529C13.9613 20.9525 14.2568 18.5353 15.8641 16.2026C17.6089 13.6704 21.6049 10.5996 32.2855 10.5996H32.5305L32.7737 10.5697C130.812 -1.4869 265.418 6.56663 292.663 10.5574C302.426 11.9874 305.961 15.9843 307.374 18.8638C308.14 20.4258 308.414 21.9281 308.494 23.0437C308.533 23.5972 308.523 24.0379 308.506 24.3174C308.498 24.4565 308.488 24.5533 308.483 24.6016C308.482 24.6114 308.481 24.6191 308.48 24.6248C308.48 24.6306 308.479 24.6342 308.479 24.6355C308.479 24.636 308.479 24.6362 308.479 24.6359L308.396 25.1511L308.465 25.7142L309.411 25.5974C308.465 25.7142 308.465 25.7142 308.465 25.7144L308.466 25.7168L308.467 25.7282L308.473 25.7768L308.497 25.9762C308.518 26.1541 308.55 26.4214 308.591 26.7744C308.673 27.4805 308.793 28.5296 308.941 29.893C309.238 32.6198 309.649 36.603 310.106 41.6126C311.021 51.6331 312.119 65.752 312.85 82.1299C314.317 114.938 314.303 156.601 308.487 192.516Z" stroke="#171B0E" stroke-width="8"/>
</g>
<path opacity="0.8" d="M61 86.25V75.25H55.5V86.25H61ZM52.75 89V86.25H50V75.25H52.75V72.5H63.75V75.25H66.5V86.25H63.75V89H52.75ZM83 80.75V75.25H77.5V80.75H83ZM72 89V72.5H85.75V75.25H88.5V80.75H85.75V83.5H77.5V89H72ZM99.5 89V75.25H94V72.5H110.5V75.25H105V89H99.5ZM118.75 89V86.25H121.5V75.25H118.75V72.5H129.75V75.25H127V86.25H129.75V89H118.75ZM149 86.25V75.25H143.5V86.25H149ZM140.75 89V86.25H138V75.25H140.75V72.5H151.75V75.25H154.5V86.25H151.75V89H140.75ZM160 89V72.5H162.75V75.25H165.5V78H168.25V80.75H171V72.5H176.5V89H171V86.25H168.25V83.5H165.5V80.75H162.75V89H160ZM182 86.25V83.5H184.75V86.25H182ZM184.75 89V86.25H190.25V80.75H184.75V78H182V75.25H184.75V72.5H195.75V75.25H187.5V78H195.75V80.75H198.5V86.25H195.75V89H184.75ZM61 108.75V103.25H55.5V108.75H61ZM50 117V100.5H63.75V103.25H66.5V108.75H63.75V111.5H55.5V117H50ZM72 117V100.5H88.5V103.25H77.5V106H85.75V108.75H77.5V114.25H88.5V117H72ZM105 117V114.25H110.5V117H105ZM105 108.75V103.25H99.5V108.75H105ZM94 117V100.5H107.75V103.25H110.5V108.75H107.75V111.5H105V114.25H102.25V111.5H99.5V117H94ZM127 108.75V103.25H121.5V108.75H127ZM116 117V100.5H129.75V103.25H132.5V108.75H129.75V111.5H121.5V117H116ZM138 117V100.5H154.5V103.25H143.5V106H151.75V108.75H143.5V114.25H154.5V117H138ZM165.5 117V103.25H160V100.5H176.5V103.25H171V117H165.5ZM182 114.25V100.5H184.75V114.25H182ZM184.75 117V114.25H190.25V111.5H193V100.5H198.5V114.25H195.75V117H184.75ZM204 117V103.25H206.75V108.75H212.25V103.25H206.75V100.5H217.75V103.25H220.5V117H212.25V111.5H206.75V117H204ZM226 117V100.5H231.5V114.25H242.5V117H226ZM248 114.25V111.5H250.75V114.25H248ZM250.75 117V114.25H256.25V108.75H250.75V106H248V103.25H250.75V100.5H261.75V103.25H253.5V106H261.75V108.75H264.5V114.25H261.75V117H250.75ZM50 142.25V139.5H52.75V142.25H50ZM52.75 145V142.25H58.25V136.75H52.75V134H50V131.25H52.75V128.5H63.75V131.25H55.5V134H63.75V136.75H66.5V142.25H63.75V145H52.75ZM77.5 145V136.75H74.75V134H72V128.5H77.5V134H83V128.5H88.5V134H85.75V136.75H83V145H77.5ZM94 145V128.5H96.75V131.25H99.5V134H102.25V136.75H105V128.5H110.5V145H105V142.25H102.25V139.5H99.5V136.75H96.75V145H94ZM121.5 145V131.25H116V128.5H132.5V131.25H127V145H121.5ZM138 145V128.5H140.75V134H149V128.5H154.5V145H149V136.75H140.75V145H138ZM160 145V128.5H176.5V131.25H165.5V134H173.75V136.75H165.5V142.25H176.5V145H160ZM187.5 145V131.25H182V128.5H198.5V131.25H193V145H187.5ZM206.75 145V142.25H209.5V131.25H206.75V128.5H217.75V131.25H215V142.25H217.75V145H206.75ZM228.75 145V142.25H226V131.25H228.75V128.5H239.75V131.25H242.5V134H237V131.25H231.5V142.25H237V139.5H242.5V142.25H239.75V145H228.75ZM248 142.25V139.5H250.75V142.25H248ZM250.75 145V142.25H256.25V136.75H250.75V134H248V131.25H250.75V128.5H261.75V131.25H253.5V134H261.75V136.75H264.5V142.25H261.75V145H250.75Z" fill="black"/>
</g>
<defs>
<filter id="filter0_d_1115_17693" x="0.336914" y="0.205811" width="321.326" height="227.589" filterUnits="userSpaceOnUse" color-interpolation-filters="sRGB">
<feFlood flood-opacity="0" result="BackgroundImageFix"/>
<feColorMatrix in="SourceAlpha" type="matrix" values="0 0 0 0 0 0 0 0 0 0 0 0 0 0 0 0 0 0 127 0" result="hardAlpha"/>
<feOffset dy="4"/>
<feGaussianBlur stdDeviation="2"/>
<feComposite in2="hardAlpha" operator="out"/>
<feColorMatrix type="matrix" values="0 0 0 0 0 0 0 0 0 0 0 0 0 0 0 0 0 0 0.25 0"/>
<feBlend mode="normal" in2="BackgroundImageFix" result="effect1_dropShadow_1115_17693"/>
<feBlend mode="normal" in="SourceGraphic" in2="effect1_dropShadow_1115_17693" result="shape"/>
</filter>
<filter id="filter1_iii_1115_17693" x="-1.66309" y="-19.7942" width="329.326" height="249.589" filterUnits="userSpaceOnUse" color-interpolation-filters="sRGB">
<feFlood flood-opacity="0" result="BackgroundImageFix"/>
<feBlend mode="normal" in="SourceGraphic" in2="BackgroundImageFix" result="shape"/>
<feColorMatrix in="SourceAlpha" type="matrix" values="0 0 0 0 0 0 0 0 0 0 0 0 0 0 0 0 0 0 127 0" result="hardAlpha"/>
<feOffset dx="10" dy="10"/>
<feGaussianBlur stdDeviation="8"/>
<feComposite in2="hardAlpha" operator="arithmetic" k2="-1" k3="1"/>
<feColorMatrix type="matrix" values="0 0 0 0 0.149042 0 0 0 0 0.304167 0 0 0 0 0.11026 0 0 0 1 0"/>
<feBlend mode="normal" in2="shape" result="effect1_innerShadow_1115_17693"/>
<feColorMatrix in="SourceAlpha" type="matrix" values="0 0 0 0 0 0 0 0 0 0 0 0 0 0 0 0 0 0 127 0" result="hardAlpha"/>
<feOffset dx="-10" dy="-10"/>
<feGaussianBlur stdDeviation="3"/>
<feComposite in2="hardAlpha" operator="arithmetic" k2="-1" k3="1"/>
<feColorMatrix type="matrix" values="0 0 0 0 1 0 0 0 0 1 0 0 0 0 1 0 0 0 0.45 0"/>
<feBlend mode="normal" in2="effect1_innerShadow_1115_17693" result="effect2_innerShadow_1115_17693"/>
<feColorMatrix in="SourceAlpha" type="matrix" values="0 0 0 0 0 0 0 0 0 0 0 0 0 0 0 0 0 0 127 0" result="hardAlpha"/>
<feOffset dy="-20"/>
<feGaussianBlur stdDeviation="15"/>
<feComposite in2="hardAlpha" operator="arithmetic" k2="-1" k3="1"/>
<feColorMatrix type="matrix" values="0 0 0 0 0.839216 0 0 0 0 0.635294 0 0 0 0 0.262745 0 0 0 0.3 0"/>
<feBlend mode="normal" in2="effect2_innerShadow_1115_17693" result="effect3_innerShadow_1115_17693"/>
</filter>
</defs>
</svg>
