<svg width="250" height="250" viewBox="0 0 250 250" fill="none" xmlns="http://www.w3.org/2000/svg">
<g clip-path="url(#clip0_195_5074)">
<g style="mix-blend-mode:hard-light" filter="url(#filter0_f_195_5074)">
<path d="M53.8395 114.989C43.9399 125.742 43.0391 142.593 33.6058 162.201C31.0027 167.611 32.0055 170.721 29.1094 177.376C15.3873 178.746 12.0066 183.571 10.5618 196.486C22.5916 199.058 28.982 199.684 39.2263 198.172V188.617C54.4015 188.617 35.854 159.953 63.9563 148.712M62.2702 142.529C89.6397 180.638 78.3532 169.512 111.168 167.259M137.023 121.734C137.023 121.734 132.526 121.734 130.278 135.222C126.148 140.003 124.931 148.228 120.161 156.019C113.749 184.683 87.5623 176.252 94.3069 182.997C94.3069 182.997 79.8315 193.702 76.8834 204.355C91.3424 206.828 99.1892 206.703 112.854 204.355C112.476 200.696 112.138 198.71 111.168 195.362C115.103 195.362 119.599 176.252 139.271 163.325C176.928 138.033 158.38 120.047 158.38 120.047M151.636 156.019C177.971 154.527 190.88 146.458 211.213 121.734M113.979 63.2807C118.901 61.7424 123.644 60.9093 128.259 60.5985M197.724 141.405C220.768 167.26 194.351 182.997 200.192 184.121C193.227 190.303 194.351 197.048 194.351 197.048C203.8 201.193 209.086 201.511 218.519 199.296C219.412 194.268 220.206 187.493 217.395 186.369C218.382 185.002 218.519 179.15 219.643 174.566C226.388 163.325 227.051 155.207 229.198 145.901C236.83 134.63 237.813 128.899 238.191 118.923C240.572 80.9585 231.386 75.5578 212.899 71.1494C184.582 76.813 162.344 62.2161 137.023 60.5985M185.921 149.836C153.884 165.573 166.811 184.121 158.38 182.997C158.38 182.997 161.122 189.418 160.066 191.427C150.747 192.902 145.082 192.736 134.774 190.303C134.774 190.303 140.847 183.445 145.453 179.624C145.453 179.624 145.453 165.011 149.95 158.266M47.657 44.7328L47.7 45.211M48.7811 99.8134L52.1533 94.755C40.1203 84.1498 39.7258 72.8082 47.7 45.211M48.7811 99.8134C47.316 104.185 48.3404 105.774 52.1533 107.682C51.0088 110.857 51.9428 111.973 53.8395 113.865C82.1951 122.3 104.424 111.616 109.482 103.186C106.672 100.938 84.6735 107.539 67.8907 107.682C58.1676 107.765 51.049 103.731 48.7811 99.8134ZM47.7 45.211C49.0254 57.6511 50.7097 63.5222 54.9636 72.2731C73.3906 51.9805 79.3304 51.3615 86.4382 58.784C101.459 51.4398 108.596 54.8363 119.599 71.1494M112.854 76.7695C128.927 73.4821 130.517 65.486 130.278 48.6671C141.504 78.1292 141.454 90.7339 119.599 99.8134M106.672 98.1273C111.238 96.6405 112.037 99.0299 113.979 103.186M74.6352 81.2659C86.4382 72.2731 101.614 71.1494 108.358 81.2659M69.5768 81.2659C62.2702 74.5213 53.8395 75.0834 51.0292 82.952M77.4455 71.1494C87.5116 61.0885 93.8004 59.8147 106.672 68.9008M53.8395 108.806C57.7738 112.178 80.2557 116.673 105.548 104.872M63.9563 67.7767C67.568 65.2117 71.3676 64.1088 76.3214 66.6526M203.344 68.9008C197.162 55.0905 152.198 40.8178 166.811 51.4774C181.424 62.1369 216.833 55.4117 216.833 55.4117M52.1533 86.3243C60.6337 81.4457 65.052 82.1831 72.3871 89.1345C62.8125 91.8866 57.9551 92.2558 52.1533 86.3243ZM76.3214 89.1345C78.9269 81.4256 84.0145 79.4025 104.424 82.952C94.9761 89.4394 89.1578 91.6865 76.3214 89.1345Z" stroke="#E73795" stroke-width="2.47763" stroke-linecap="round" stroke-linejoin="round"/>
</g>
<g style="mix-blend-mode:hard-light" filter="url(#filter1_f_195_5074)">
<path d="M53.8395 114.989C43.9399 125.742 43.0391 142.593 33.6058 162.201C31.0027 167.611 32.0055 170.721 29.1094 177.376C15.3873 178.746 12.0066 183.571 10.5618 196.486C22.5916 199.058 28.982 199.684 39.2263 198.172V188.617C54.4015 188.617 35.854 159.953 63.9563 148.712M62.2702 142.529C89.6397 180.638 78.3532 169.512 111.168 167.259M137.023 121.734C137.023 121.734 132.526 121.734 130.278 135.222C126.148 140.003 124.931 148.228 120.161 156.019C113.749 184.683 87.5623 176.252 94.3069 182.997C94.3069 182.997 79.8315 193.702 76.8834 204.355C91.3424 206.828 99.1892 206.703 112.854 204.355C112.476 200.696 112.138 198.71 111.168 195.362C115.103 195.362 119.599 176.252 139.271 163.325C176.928 138.033 158.38 120.047 158.38 120.047M151.636 156.019C177.971 154.527 190.88 146.458 211.213 121.734M113.979 63.2807C118.901 61.7424 123.644 60.9093 128.259 60.5985M197.724 141.405C220.768 167.26 194.351 182.997 200.192 184.121C193.227 190.303 194.351 197.048 194.351 197.048C203.8 201.193 209.086 201.511 218.519 199.296C219.412 194.268 220.206 187.493 217.395 186.369C218.382 185.002 218.519 179.15 219.643 174.566C226.388 163.325 227.051 155.207 229.198 145.901C236.83 134.63 237.813 128.899 238.191 118.923C240.572 80.9585 231.386 75.5578 212.899 71.1494C184.582 76.813 162.344 62.2161 137.023 60.5985M185.921 149.836C153.884 165.573 166.811 184.121 158.38 182.997C158.38 182.997 161.122 189.418 160.066 191.427C150.747 192.902 145.082 192.736 134.774 190.303C134.774 190.303 140.847 183.445 145.453 179.624C145.453 179.624 145.453 165.011 149.95 158.266M47.657 44.7328L47.7 45.211M48.7811 99.8134L52.1533 94.755C40.1203 84.1498 39.7258 72.8082 47.7 45.211M48.7811 99.8134C47.316 104.185 48.3404 105.774 52.1533 107.682C51.0088 110.857 51.9428 111.973 53.8395 113.865C82.1951 122.3 104.424 111.616 109.482 103.186C106.672 100.938 84.6735 107.539 67.8907 107.682C58.1676 107.765 51.049 103.731 48.7811 99.8134ZM47.7 45.211C49.0254 57.6511 50.7097 63.5222 54.9636 72.2731C73.3906 51.9805 79.3304 51.3615 86.4382 58.784C101.459 51.4398 108.596 54.8363 119.599 71.1494M112.854 76.7695C128.927 73.4821 130.517 65.486 130.278 48.6671C141.504 78.1292 141.454 90.7339 119.599 99.8134M106.672 98.1273C111.238 96.6405 112.037 99.0299 113.979 103.186M74.6352 81.2659C86.4382 72.2731 101.614 71.1494 108.358 81.2659M69.5768 81.2659C62.2702 74.5213 53.8395 75.0834 51.0292 82.952M77.4455 71.1494C87.5116 61.0885 93.8004 59.8147 106.672 68.9008M53.8395 108.806C57.7738 112.178 80.2557 116.673 105.548 104.872M63.9563 67.7767C67.568 65.2117 71.3676 64.1088 76.3214 66.6526M203.344 68.9008C197.162 55.0905 152.198 40.8178 166.811 51.4774C181.424 62.1369 216.833 55.4117 216.833 55.4117M52.1533 86.3243C60.6337 81.4457 65.052 82.1831 72.3871 89.1345C62.8125 91.8866 57.9551 92.2558 52.1533 86.3243ZM76.3214 89.1345C78.9269 81.4256 84.0145 79.4025 104.424 82.952C94.9761 89.4394 89.1578 91.6865 76.3214 89.1345Z" stroke="#E73795" stroke-width="3.23998" stroke-linecap="round" stroke-linejoin="round"/>
</g>
<g style="mix-blend-mode:hard-light" filter="url(#filter2_ddi_195_5074)">
<path d="M53.8395 114.989C43.9399 125.742 43.0391 142.593 33.6058 162.201C31.0027 167.611 32.0055 170.721 29.1094 177.376C15.3873 178.746 12.0066 183.571 10.5618 196.486C22.5916 199.058 28.982 199.684 39.2263 198.172V188.617C54.4015 188.617 35.854 159.953 63.9563 148.712M62.2702 142.529C89.6397 180.638 78.3532 169.512 111.168 167.259M137.023 121.734C137.023 121.734 132.526 121.734 130.278 135.222C126.148 140.003 124.931 148.228 120.161 156.019C113.749 184.683 87.5623 176.252 94.3069 182.997C94.3069 182.997 79.8315 193.702 76.8834 204.355C91.3424 206.828 99.1892 206.703 112.854 204.355C112.476 200.696 112.138 198.71 111.168 195.362C115.103 195.362 119.599 176.252 139.271 163.325C176.928 138.033 158.38 120.047 158.38 120.047M151.636 156.019C177.971 154.527 190.88 146.458 211.213 121.734M113.979 63.2807C118.901 61.7424 123.644 60.9093 128.259 60.5985M197.724 141.405C220.768 167.26 194.351 182.997 200.192 184.121C193.227 190.303 194.351 197.048 194.351 197.048C203.8 201.193 209.086 201.511 218.519 199.296C219.412 194.268 220.206 187.493 217.395 186.369C218.382 185.002 218.519 179.15 219.643 174.566C226.388 163.325 227.051 155.207 229.198 145.901C236.83 134.63 237.813 128.899 238.191 118.923C240.572 80.9585 231.386 75.5578 212.899 71.1494C184.582 76.813 162.344 62.2161 137.023 60.5985M185.921 149.836C153.884 165.573 166.811 184.121 158.38 182.997C158.38 182.997 161.122 189.418 160.066 191.427C150.747 192.902 145.082 192.736 134.774 190.303C134.774 190.303 140.847 183.445 145.453 179.624C145.453 179.624 145.453 165.011 149.95 158.266M47.657 44.7328L47.7 45.211M48.7811 99.8134L52.1533 94.755C40.1203 84.1498 39.7258 72.8082 47.7 45.211M48.7811 99.8134C47.316 104.185 48.3404 105.774 52.1533 107.682C51.0088 110.857 51.9428 111.973 53.8395 113.865C82.1951 122.3 104.424 111.616 109.482 103.186C106.672 100.938 84.6735 107.539 67.8907 107.682C58.1676 107.765 51.049 103.731 48.7811 99.8134ZM47.7 45.211C49.0254 57.6511 50.7097 63.5222 54.9636 72.2731C73.3906 51.9805 79.3304 51.3615 86.4382 58.784C101.459 51.4398 108.596 54.8363 119.599 71.1494M112.854 76.7695C128.927 73.4821 130.517 65.486 130.278 48.6671C141.504 78.1292 141.454 90.7339 119.599 99.8134M106.672 98.1273C111.238 96.6405 112.037 99.0299 113.979 103.186M74.6352 81.2659C86.4382 72.2731 101.614 71.1494 108.358 81.2659M69.5768 81.2659C62.2702 74.5213 53.8395 75.0834 51.0292 82.952M77.4455 71.1494C87.5116 61.0885 93.8004 59.8147 106.672 68.9008M53.8395 108.806C57.7738 112.178 80.2557 116.673 105.548 104.872M63.9563 67.7767C67.568 65.2117 71.3676 64.1088 76.3214 66.6526M203.344 68.9008C197.162 55.0905 152.198 40.8178 166.811 51.4774C181.424 62.1369 216.833 55.4117 216.833 55.4117M52.1533 86.3243C60.6337 81.4457 65.052 82.1831 72.3871 89.1345C62.8125 91.8866 57.9551 92.2558 52.1533 86.3243ZM76.3214 89.1345C78.9269 81.4256 84.0145 79.4025 104.424 82.952C94.9761 89.4394 89.1578 91.6865 76.3214 89.1345Z" stroke="#E73795" stroke-opacity="0.2" stroke-width="2.47763" stroke-linecap="round" stroke-linejoin="round"/>
</g>
<g filter="url(#filter3_f_195_5074)">
<path d="M53.8395 114.989C43.9399 125.742 43.0391 142.593 33.6058 162.201C31.0027 167.611 32.0055 170.721 29.1094 177.376C15.3873 178.746 12.0066 183.571 10.5618 196.486C22.5916 199.058 28.982 199.684 39.2263 198.172V188.617C54.4015 188.617 35.854 159.953 63.9563 148.712M62.2702 142.529C89.6397 180.638 78.3532 169.512 111.168 167.259M137.023 121.734C137.023 121.734 132.526 121.734 130.278 135.222C126.148 140.003 124.931 148.228 120.161 156.019C113.749 184.683 87.5623 176.252 94.3069 182.997C94.3069 182.997 79.8315 193.702 76.8834 204.355C91.3424 206.828 99.1892 206.703 112.854 204.355C112.476 200.696 112.138 198.71 111.168 195.362C115.103 195.362 119.599 176.252 139.271 163.325C176.928 138.033 158.38 120.047 158.38 120.047M151.636 156.019C177.971 154.527 190.88 146.458 211.213 121.734M113.979 63.2807C118.901 61.7424 123.644 60.9093 128.259 60.5985M197.724 141.405C220.768 167.26 194.351 182.997 200.192 184.121C193.227 190.303 194.351 197.048 194.351 197.048C203.8 201.193 209.086 201.511 218.519 199.296C219.412 194.268 220.206 187.493 217.395 186.369C218.382 185.002 218.519 179.15 219.643 174.566C226.388 163.325 227.051 155.207 229.198 145.901C236.83 134.63 237.813 128.899 238.191 118.923C240.572 80.9585 231.386 75.5578 212.899 71.1494C184.582 76.813 162.344 62.2161 137.023 60.5985M185.921 149.836C153.884 165.573 166.811 184.121 158.38 182.997C158.38 182.997 161.122 189.418 160.066 191.427C150.747 192.902 145.082 192.736 134.774 190.303C134.774 190.303 140.847 183.445 145.453 179.624C145.453 179.624 145.453 165.011 149.95 158.266M47.657 44.7328L47.7 45.211M48.7811 99.8134L52.1533 94.755C40.1203 84.1498 39.7258 72.8082 47.7 45.211M48.7811 99.8134C47.316 104.185 48.3404 105.774 52.1533 107.682C51.0088 110.857 51.9428 111.973 53.8395 113.865C82.1951 122.3 104.424 111.616 109.482 103.186C106.672 100.938 84.6735 107.539 67.8907 107.682C58.1676 107.765 51.049 103.731 48.7811 99.8134ZM47.7 45.211C49.0254 57.6511 50.7097 63.5222 54.9636 72.2731C73.3906 51.9805 79.3304 51.3615 86.4382 58.784C101.459 51.4398 108.596 54.8363 119.599 71.1494M112.854 76.7695C128.927 73.4821 130.517 65.486 130.278 48.6671C141.504 78.1292 141.454 90.7339 119.599 99.8134M106.672 98.1273C111.238 96.6405 112.037 99.0299 113.979 103.186M74.6352 81.2659C86.4382 72.2731 101.614 71.1494 108.358 81.2659M69.5768 81.2659C62.2702 74.5213 53.8395 75.0834 51.0292 82.952M77.4455 71.1494C87.5116 61.0885 93.8004 59.8147 106.672 68.9008M53.8395 108.806C57.7738 112.178 80.2557 116.673 105.548 104.872M63.9563 67.7767C67.568 65.2117 71.3676 64.1088 76.3214 66.6526M203.344 68.9008C197.162 55.0905 152.198 40.8178 166.811 51.4774C181.424 62.1369 216.833 55.4117 216.833 55.4117M52.1533 86.3243C60.6337 81.4457 65.052 82.1831 72.3871 89.1345C62.8125 91.8866 57.9551 92.2558 52.1533 86.3243ZM76.3214 89.1345C78.9269 81.4256 84.0145 79.4025 104.424 82.952C94.9761 89.4394 89.1578 91.6865 76.3214 89.1345Z" stroke="#DF9DBD" stroke-width="1.5247" stroke-linecap="round" stroke-linejoin="round"/>
</g>
<g filter="url(#filter4_f_195_5074)">
<path d="M53.8395 114.989C43.9399 125.742 43.0391 142.593 33.6058 162.201C31.0027 167.611 32.0055 170.721 29.1094 177.376C15.3873 178.746 12.0066 183.571 10.5618 196.486C22.5916 199.058 28.982 199.684 39.2263 198.172V188.617C54.4015 188.617 35.854 159.953 63.9563 148.712M62.2702 142.529C89.6397 180.638 78.3532 169.512 111.168 167.259M137.023 121.734C137.023 121.734 132.526 121.734 130.278 135.222C126.148 140.003 124.931 148.228 120.161 156.019C113.749 184.683 87.5623 176.252 94.3069 182.997C94.3069 182.997 79.8315 193.702 76.8834 204.355C91.3424 206.828 99.1892 206.703 112.854 204.355C112.476 200.696 112.138 198.71 111.168 195.362C115.103 195.362 119.599 176.252 139.271 163.325C176.928 138.033 158.38 120.047 158.38 120.047M151.636 156.019C177.971 154.527 190.88 146.458 211.213 121.734M113.979 63.2807C118.901 61.7424 123.644 60.9093 128.259 60.5985M197.724 141.405C220.768 167.26 194.351 182.997 200.192 184.121C193.227 190.303 194.351 197.048 194.351 197.048C203.8 201.193 209.086 201.511 218.519 199.296C219.412 194.268 220.206 187.493 217.395 186.369C218.382 185.002 218.519 179.15 219.643 174.566C226.388 163.325 227.051 155.207 229.198 145.901C236.83 134.63 237.813 128.899 238.191 118.923C240.572 80.9585 231.386 75.5578 212.899 71.1494C184.582 76.813 162.344 62.2161 137.023 60.5985M185.921 149.836C153.884 165.573 166.811 184.121 158.38 182.997C158.38 182.997 161.122 189.418 160.066 191.427C150.747 192.902 145.082 192.736 134.774 190.303C134.774 190.303 140.847 183.445 145.453 179.624C145.453 179.624 145.453 165.011 149.95 158.266M47.657 44.7328L47.7 45.211M48.7811 99.8134L52.1533 94.755C40.1203 84.1498 39.7258 72.8082 47.7 45.211M48.7811 99.8134C47.316 104.185 48.3404 105.774 52.1533 107.682C51.0088 110.857 51.9428 111.973 53.8395 113.865C82.1951 122.3 104.424 111.616 109.482 103.186C106.672 100.938 84.6735 107.539 67.8907 107.682C58.1676 107.765 51.049 103.731 48.7811 99.8134ZM47.7 45.211C49.0254 57.6511 50.7097 63.5222 54.9636 72.2731C73.3906 51.9805 79.3304 51.3615 86.4382 58.784C101.459 51.4398 108.596 54.8363 119.599 71.1494M112.854 76.7695C128.927 73.4821 130.517 65.486 130.278 48.6671C141.504 78.1292 141.454 90.7339 119.599 99.8134M106.672 98.1273C111.238 96.6405 112.037 99.0299 113.979 103.186M74.6352 81.2659C86.4382 72.2731 101.614 71.1494 108.358 81.2659M69.5768 81.2659C62.2702 74.5213 53.8395 75.0834 51.0292 82.952M77.4455 71.1494C87.5116 61.0885 93.8004 59.8147 106.672 68.9008M53.8395 108.806C57.7738 112.178 80.2557 116.673 105.548 104.872M63.9563 67.7767C67.568 65.2117 71.3676 64.1088 76.3214 66.6526M203.344 68.9008C197.162 55.0905 152.198 40.8178 166.811 51.4774C181.424 62.1369 216.833 55.4117 216.833 55.4117M52.1533 86.3243C60.6337 81.4457 65.052 82.1831 72.3871 89.1345C62.8125 91.8866 57.9551 92.2558 52.1533 86.3243ZM76.3214 89.1345C78.9269 81.4256 84.0145 79.4025 104.424 82.952C94.9761 89.4394 89.1578 91.6865 76.3214 89.1345Z" stroke="white" stroke-width="0.762348" stroke-linecap="round" stroke-linejoin="round"/>
</g>
</g>
<defs>
<filter id="filter0_f_195_5074" x="-2.11229" y="32.0587" width="253.348" height="186.778" filterUnits="userSpaceOnUse" color-interpolation-filters="sRGB">
<feFlood flood-opacity="0" result="BackgroundImageFix"/>
<feBlend mode="normal" in="SourceGraphic" in2="BackgroundImageFix" result="shape"/>
<feGaussianBlur stdDeviation="5.71761" result="effect1_foregroundBlur_195_5074"/>
</filter>
<filter id="filter1_f_195_5074" x="5.12997" y="39.3009" width="238.863" height="172.294" filterUnits="userSpaceOnUse" color-interpolation-filters="sRGB">
<feFlood flood-opacity="0" result="BackgroundImageFix"/>
<feBlend mode="normal" in="SourceGraphic" in2="BackgroundImageFix" result="shape"/>
<feGaussianBlur stdDeviation="1.90587" result="effect1_foregroundBlur_195_5074"/>
</filter>
<filter id="filter2_ddi_195_5074" x="4.36767" y="42.3504" width="240.388" height="173.818" filterUnits="userSpaceOnUse" color-interpolation-filters="sRGB">
<feFlood flood-opacity="0" result="BackgroundImageFix"/>
<feColorMatrix in="SourceAlpha" type="matrix" values="0 0 0 0 0 0 0 0 0 0 0 0 0 0 0 0 0 0 127 0" result="hardAlpha"/>
<feOffset dy="2.47763"/>
<feGaussianBlur stdDeviation="0.952935"/>
<feColorMatrix type="matrix" values="0 0 0 0 0.15 0 0 0 0 0 0 0 0 0 0 0 0 0 0.7 0"/>
<feBlend mode="multiply" in2="BackgroundImageFix" result="effect1_dropShadow_195_5074"/>
<feColorMatrix in="SourceAlpha" type="matrix" values="0 0 0 0 0 0 0 0 0 0 0 0 0 0 0 0 0 0 127 0" result="hardAlpha"/>
<feOffset dy="3.81174"/>
<feGaussianBlur stdDeviation="2.47763"/>
<feColorMatrix type="matrix" values="0 0 0 0 0.8 0 0 0 0 0.19 0 0 0 0 0.19 0 0 0 1 0"/>
<feBlend mode="color-dodge" in2="effect1_dropShadow_195_5074" result="effect2_dropShadow_195_5074"/>
<feBlend mode="normal" in="SourceGraphic" in2="effect2_dropShadow_195_5074" result="shape"/>
<feColorMatrix in="SourceAlpha" type="matrix" values="0 0 0 0 0 0 0 0 0 0 0 0 0 0 0 0 0 0 127 0" result="hardAlpha"/>
<feOffset dx="-0.247763" dy="0.495526"/>
<feGaussianBlur stdDeviation="0.123882"/>
<feComposite in2="hardAlpha" operator="arithmetic" k2="-1" k3="1"/>
<feColorMatrix type="matrix" values="0 0 0 0 1 0 0 0 0 1 0 0 0 0 1 0 0 0 0.5 0"/>
<feBlend mode="normal" in2="shape" result="effect3_innerShadow_195_5074"/>
</filter>
<filter id="filter3_f_195_5074" x="9.41826" y="43.5892" width="230.287" height="163.717" filterUnits="userSpaceOnUse" color-interpolation-filters="sRGB">
<feFlood flood-opacity="0" result="BackgroundImageFix"/>
<feBlend mode="normal" in="SourceGraphic" in2="BackgroundImageFix" result="shape"/>
<feGaussianBlur stdDeviation="0.190587" result="effect1_foregroundBlur_195_5074"/>
</filter>
<filter id="filter4_f_195_5074" x="9.92649" y="44.0974" width="229.27" height="162.701" filterUnits="userSpaceOnUse" color-interpolation-filters="sRGB">
<feFlood flood-opacity="0" result="BackgroundImageFix"/>
<feBlend mode="normal" in="SourceGraphic" in2="BackgroundImageFix" result="shape"/>
<feGaussianBlur stdDeviation="0.127058" result="effect1_foregroundBlur_195_5074"/>
</filter>
<clipPath id="clip0_195_5074">
<rect width="250" height="250" fill="white"/>
</clipPath>
</defs>
</svg>
