<svg width="250" height="250" viewBox="0 0 250 250" fill="none" xmlns="http://www.w3.org/2000/svg">
<g clip-path="url(#clip0_204_3329)">
<g style="mix-blend-mode:hard-light" filter="url(#filter0_f_204_3329)">
<path d="M104.812 94.73C95.048 86.993 86.048 76.32 93.448 66.667C101.115 56.667 111.051 53.91 120.5 53.334M104.812 94.73C104.812 94.73 74.781 106.476 68.448 107.905C64.348 108.83 61.507 115.505 59.198 121.158M104.812 94.73C105.923 95.557 112.448 98.334 113.781 105.334C115.053 112.012 120.892 116.223 121.781 116C122.67 115.777 127.115 98.556 139.029 94.556C146.893 91.915 161.105 77.339 152.115 66.667M91.726 79.5C85.884 72.02 99.448 43.333 103.448 34C107.448 24.667 122.781 21 122.781 21C122.781 21 138.115 24.667 142.115 34C146.115 43.333 159.679 72.02 153.836 79.5M49.3371 132.956C47.1609 133.949 45.2553 135.45 43.7811 137.334C40.7811 141.667 39.448 145.934 36.115 149.634C32.782 153.334 31.6901 159.742 25.7811 161.334C17.1151 163.667 12.448 181.334 16.448 188C20.448 194.666 28.115 204.334 34.115 205C40.115 205.666 42.115 208.33 42.115 208.33C42.115 208.33 36.16 198.667 48.971 192.667M152.115 66.667C158.76 75.335 152.182 84.826 143.699 92.275C143.699 92.275 178.781 106.475 185.115 107.905C191.449 109.335 194.781 124.482 197.781 128.405C200.781 132.328 206.781 132.997 209.781 137.331C212.781 141.665 214.115 145.931 217.448 149.631C220.781 153.331 222.081 158.411 226.781 162.331C235.181 169.331 237.115 181.331 233.115 187.997C229.115 194.663 215.448 204.331 209.448 204.997C203.448 205.663 201.448 208.327 201.448 208.327C201.448 208.327 207.402 198.664 194.592 192.664M152.115 66.667C144.448 56.667 134.45 53.91 125 53.334M42.448 209.334C44.0339 211.926 46.4681 213.888 49.337 214.889M201.448 208.33C201.448 208.33 197.115 213.778 194.226 214.889M49.337 121.168H194.226V228.667H49.337V121.168Z" stroke="#E73795" stroke-width="3.25" stroke-linecap="round" stroke-linejoin="round"/>
</g>
<g style="mix-blend-mode:hard-light" filter="url(#filter1_f_204_3329)">
<path d="M104.812 94.73C95.048 86.993 86.048 76.32 93.448 66.667C101.115 56.667 111.051 53.91 120.5 53.334M104.812 94.73C104.812 94.73 74.781 106.476 68.448 107.905C64.348 108.83 61.507 115.505 59.198 121.158M104.812 94.73C105.923 95.557 112.448 98.334 113.781 105.334C115.053 112.012 120.892 116.223 121.781 116C122.67 115.777 127.115 98.556 139.029 94.556C146.893 91.915 161.105 77.339 152.115 66.667M91.726 79.5C85.884 72.02 99.448 43.333 103.448 34C107.448 24.667 122.781 21 122.781 21C122.781 21 138.115 24.667 142.115 34C146.115 43.333 159.679 72.02 153.836 79.5M49.3371 132.956C47.1609 133.949 45.2553 135.45 43.7811 137.334C40.7811 141.667 39.448 145.934 36.115 149.634C32.782 153.334 31.6901 159.742 25.7811 161.334C17.1151 163.667 12.448 181.334 16.448 188C20.448 194.666 28.115 204.334 34.115 205C40.115 205.666 42.115 208.33 42.115 208.33C42.115 208.33 36.16 198.667 48.971 192.667M152.115 66.667C158.76 75.335 152.182 84.826 143.699 92.275C143.699 92.275 178.781 106.475 185.115 107.905C191.449 109.335 194.781 124.482 197.781 128.405C200.781 132.328 206.781 132.997 209.781 137.331C212.781 141.665 214.115 145.931 217.448 149.631C220.781 153.331 222.081 158.411 226.781 162.331C235.181 169.331 237.115 181.331 233.115 187.997C229.115 194.663 215.448 204.331 209.448 204.997C203.448 205.663 201.448 208.327 201.448 208.327C201.448 208.327 207.402 198.664 194.592 192.664M152.115 66.667C144.448 56.667 134.45 53.91 125 53.334M42.448 209.334C44.0339 211.926 46.4681 213.888 49.337 214.889M201.448 208.33C201.448 208.33 197.115 213.778 194.226 214.889M49.337 121.168H194.226V228.667H49.337V121.168Z" stroke="#E73795" stroke-width="4.25" stroke-linecap="round" stroke-linejoin="round"/>
</g>
<g style="mix-blend-mode:hard-light" filter="url(#filter2_ddi_204_3329)">
<path d="M104.812 94.73C95.048 86.993 86.048 76.32 93.448 66.667C101.115 56.667 111.051 53.91 120.5 53.334M104.812 94.73C104.812 94.73 74.781 106.476 68.448 107.905C64.348 108.83 61.507 115.505 59.198 121.158M104.812 94.73C105.923 95.557 112.448 98.334 113.781 105.334C115.053 112.012 120.892 116.223 121.781 116C122.67 115.777 127.115 98.556 139.029 94.556C146.893 91.915 161.105 77.339 152.115 66.667M91.726 79.5C85.884 72.02 99.448 43.333 103.448 34C107.448 24.667 122.781 21 122.781 21C122.781 21 138.115 24.667 142.115 34C146.115 43.333 159.679 72.02 153.836 79.5M49.3371 132.956C47.1609 133.949 45.2553 135.45 43.7811 137.334C40.7811 141.667 39.448 145.934 36.115 149.634C32.782 153.334 31.6901 159.742 25.7811 161.334C17.1151 163.667 12.448 181.334 16.448 188C20.448 194.666 28.115 204.334 34.115 205C40.115 205.666 42.115 208.33 42.115 208.33C42.115 208.33 36.16 198.667 48.971 192.667M152.115 66.667C158.76 75.335 152.182 84.826 143.699 92.275C143.699 92.275 178.781 106.475 185.115 107.905C191.449 109.335 194.781 124.482 197.781 128.405C200.781 132.328 206.781 132.997 209.781 137.331C212.781 141.665 214.115 145.931 217.448 149.631C220.781 153.331 222.081 158.411 226.781 162.331C235.181 169.331 237.115 181.331 233.115 187.997C229.115 194.663 215.448 204.331 209.448 204.997C203.448 205.663 201.448 208.327 201.448 208.327C201.448 208.327 207.402 198.664 194.592 192.664M152.115 66.667C144.448 56.667 134.45 53.91 125 53.334M42.448 209.334C44.0339 211.926 46.4681 213.888 49.337 214.889M201.448 208.33C201.448 208.33 197.115 213.778 194.226 214.889M49.337 121.168H194.226V228.667H49.337V121.168Z" stroke="#E73795" stroke-width="3.25" stroke-linecap="round" stroke-linejoin="round"/>
</g>
<g filter="url(#filter3_f_204_3329)">
<path d="M104.812 94.73C95.048 86.993 86.048 76.32 93.448 66.667C101.115 56.667 111.051 53.91 120.5 53.334M104.812 94.73C104.812 94.73 74.781 106.476 68.448 107.905C64.348 108.83 61.507 115.505 59.198 121.158M104.812 94.73C105.923 95.557 112.448 98.334 113.781 105.334C115.053 112.012 120.892 116.223 121.781 116C122.67 115.777 127.115 98.556 139.029 94.556C146.893 91.915 161.105 77.339 152.115 66.667M91.726 79.5C85.884 72.02 99.448 43.333 103.448 34C107.448 24.667 122.781 21 122.781 21C122.781 21 138.115 24.667 142.115 34C146.115 43.333 159.679 72.02 153.836 79.5M49.3371 132.956C47.1609 133.949 45.2553 135.45 43.7811 137.334C40.7811 141.667 39.448 145.934 36.115 149.634C32.782 153.334 31.6901 159.742 25.7811 161.334C17.1151 163.667 12.448 181.334 16.448 188C20.448 194.666 28.115 204.334 34.115 205C40.115 205.666 42.115 208.33 42.115 208.33C42.115 208.33 36.16 198.667 48.971 192.667M152.115 66.667C158.76 75.335 152.182 84.826 143.699 92.275C143.699 92.275 178.781 106.475 185.115 107.905C191.449 109.335 194.781 124.482 197.781 128.405C200.781 132.328 206.781 132.997 209.781 137.331C212.781 141.665 214.115 145.931 217.448 149.631C220.781 153.331 222.081 158.411 226.781 162.331C235.181 169.331 237.115 181.331 233.115 187.997C229.115 194.663 215.448 204.331 209.448 204.997C203.448 205.663 201.448 208.327 201.448 208.327C201.448 208.327 207.402 198.664 194.592 192.664M152.115 66.667C144.448 56.667 134.45 53.91 125 53.334M42.448 209.334C44.0339 211.926 46.4681 213.888 49.337 214.889M201.448 208.33C201.448 208.33 197.115 213.778 194.226 214.889M49.337 121.168H194.226V228.667H49.337V121.168Z" stroke="#E73795" stroke-width="2" stroke-linecap="round" stroke-linejoin="round"/>
</g>
<g filter="url(#filter4_f_204_3329)">
<path d="M104.812 94.73C95.048 86.993 86.048 76.32 93.448 66.667C101.115 56.667 111.051 53.91 120.5 53.334M104.812 94.73C104.812 94.73 74.781 106.476 68.448 107.905C64.348 108.83 61.507 115.505 59.198 121.158M104.812 94.73C105.923 95.557 112.448 98.334 113.781 105.334C115.053 112.012 120.892 116.223 121.781 116C122.67 115.777 127.115 98.556 139.029 94.556C146.893 91.915 161.105 77.339 152.115 66.667M91.726 79.5C85.884 72.02 99.448 43.333 103.448 34C107.448 24.667 122.781 21 122.781 21C122.781 21 138.115 24.667 142.115 34C146.115 43.333 159.679 72.02 153.836 79.5M49.3371 132.956C47.1609 133.949 45.2553 135.45 43.7811 137.334C40.7811 141.667 39.448 145.934 36.115 149.634C32.782 153.334 31.6901 159.742 25.7811 161.334C17.1151 163.667 12.448 181.334 16.448 188C20.448 194.666 28.115 204.334 34.115 205C40.115 205.666 42.115 208.33 42.115 208.33C42.115 208.33 36.16 198.667 48.971 192.667M152.115 66.667C158.76 75.335 152.182 84.826 143.699 92.275C143.699 92.275 178.781 106.475 185.115 107.905C191.449 109.335 194.781 124.482 197.781 128.405C200.781 132.328 206.781 132.997 209.781 137.331C212.781 141.665 214.115 145.931 217.448 149.631C220.781 153.331 222.081 158.411 226.781 162.331C235.181 169.331 237.115 181.331 233.115 187.997C229.115 194.663 215.448 204.331 209.448 204.997C203.448 205.663 201.448 208.327 201.448 208.327C201.448 208.327 207.402 198.664 194.592 192.664M152.115 66.667C144.448 56.667 134.45 53.91 125 53.334M42.448 209.334C44.0339 211.926 46.4681 213.888 49.337 214.889M201.448 208.33C201.448 208.33 197.115 213.778 194.226 214.889M49.337 121.168H194.226V228.667H49.337V121.168Z" stroke="white" stroke-linecap="round" stroke-linejoin="round"/>
</g>
</g>
<defs>
<filter id="filter0_f_204_3329" x="-4.925" y="1.075" width="259.967" height="247.517" filterUnits="userSpaceOnUse" color-interpolation-filters="sRGB">
<feFlood flood-opacity="0" result="BackgroundImageFix"/>
<feBlend mode="normal" in="SourceGraphic" in2="BackgroundImageFix" result="shape"/>
<feGaussianBlur stdDeviation="9.15" result="effect1_foregroundBlur_204_3329"/>
</filter>
<filter id="filter1_f_204_3329" x="6.775" y="12.775" width="236.567" height="224.117" filterUnits="userSpaceOnUse" color-interpolation-filters="sRGB">
<feFlood flood-opacity="0" result="BackgroundImageFix"/>
<feBlend mode="normal" in="SourceGraphic" in2="BackgroundImageFix" result="shape"/>
<feGaussianBlur stdDeviation="3.05" result="effect1_foregroundBlur_204_3329"/>
</filter>
<filter id="filter2_ddi_204_3329" x="5.445" y="17.545" width="239.227" height="226.777" filterUnits="userSpaceOnUse" color-interpolation-filters="sRGB">
<feFlood flood-opacity="0" result="BackgroundImageFix"/>
<feColorMatrix in="SourceAlpha" type="matrix" values="0 0 0 0 0 0 0 0 0 0 0 0 0 0 0 0 0 0 127 0" result="hardAlpha"/>
<feOffset dy="3.25"/>
<feGaussianBlur stdDeviation="1.25"/>
<feColorMatrix type="matrix" values="0 0 0 0 0.15 0 0 0 0 0 0 0 0 0 0 0 0 0 0.7 0"/>
<feBlend mode="multiply" in2="BackgroundImageFix" result="effect1_dropShadow_204_3329"/>
<feColorMatrix in="SourceAlpha" type="matrix" values="0 0 0 0 0 0 0 0 0 0 0 0 0 0 0 0 0 0 127 0" result="hardAlpha"/>
<feOffset dy="6.1"/>
<feGaussianBlur stdDeviation="3.965"/>
<feColorMatrix type="matrix" values="0 0 0 0 0.8 0 0 0 0 0.19 0 0 0 0 0.19 0 0 0 1 0"/>
<feBlend mode="color-dodge" in2="effect1_dropShadow_204_3329" result="effect2_dropShadow_204_3329"/>
<feBlend mode="normal" in="SourceGraphic" in2="effect2_dropShadow_204_3329" result="shape"/>
<feColorMatrix in="SourceAlpha" type="matrix" values="0 0 0 0 0 0 0 0 0 0 0 0 0 0 0 0 0 0 127 0" result="hardAlpha"/>
<feOffset dx="-0.325" dy="0.65"/>
<feGaussianBlur stdDeviation="0.1625"/>
<feComposite in2="hardAlpha" operator="arithmetic" k2="-1" k3="1"/>
<feColorMatrix type="matrix" values="0 0 0 0 1 0 0 0 0 1 0 0 0 0 1 0 0 0 0.5 0"/>
<feBlend mode="normal" in2="shape" result="effect3_innerShadow_204_3329"/>
</filter>
<filter id="filter3_f_204_3329" x="13.5" y="19.5" width="223.117" height="210.667" filterUnits="userSpaceOnUse" color-interpolation-filters="sRGB">
<feFlood flood-opacity="0" result="BackgroundImageFix"/>
<feBlend mode="normal" in="SourceGraphic" in2="BackgroundImageFix" result="shape"/>
<feGaussianBlur stdDeviation="0.25" result="effect1_foregroundBlur_204_3329"/>
</filter>
<filter id="filter4_f_204_3329" x="14.1667" y="20.1667" width="221.784" height="209.334" filterUnits="userSpaceOnUse" color-interpolation-filters="sRGB">
<feFlood flood-opacity="0" result="BackgroundImageFix"/>
<feBlend mode="normal" in="SourceGraphic" in2="BackgroundImageFix" result="shape"/>
<feGaussianBlur stdDeviation="0.166667" result="effect1_foregroundBlur_204_3329"/>
</filter>
<clipPath id="clip0_204_3329">
<rect width="250" height="250" fill="white"/>
</clipPath>
</defs>
</svg>
